<?xml version="1.0" encoding="UTF-8" standalone="no"?>
<!-- Created with Inkscape (http://www.inkscape.org/) -->

<svg
   version="1.1"
   id="svg1"
   width="756.43866"
   height="436.80798"
   viewBox="0 0 756.43866 436.80798"
   sodipodi:docname="c_z_error.pdf"
   inkscape:version="1.3.2 (091e20e, 2023-11-25, custom)"
   xmlns:inkscape="http://www.inkscape.org/namespaces/inkscape"
   xmlns:sodipodi="http://sodipodi.sourceforge.net/DTD/sodipodi-0.dtd"
   xmlns="http://www.w3.org/2000/svg"
   xmlns:svg="http://www.w3.org/2000/svg">
  <defs
     id="defs1">
    <clipPath
       clipPathUnits="userSpaceOnUse"
       id="clipPath1">
      <path
         d="M 340,26.666667 H 1715.5963 V 674.13051 H 340 Z"
         id="path1" />
    </clipPath>
    <clipPath
       clipPathUnits="userSpaceOnUse"
       id="clipPath42">
      <path
         d="M 0,0 H 566.929 V 327.206 H 0 Z"
         transform="matrix(1,0,0,-1,-85.7779,21.018403)"
         id="path42" />
    </clipPath>
    <clipPath
       clipPathUnits="userSpaceOnUse"
       id="clipPath44">
      <path
         d="M 0,0 H 566.929 V 327.206 H 0 Z"
         transform="matrix(1,0,0,-1,-168.147,21.018403)"
         id="path44" />
    </clipPath>
    <clipPath
       clipPathUnits="userSpaceOnUse"
       id="clipPath46">
      <path
         d="M 0,0 H 566.929 V 327.206 H 0 Z"
         transform="matrix(1,0,0,-1,-250.51701,21.018403)"
         id="path46" />
    </clipPath>
    <clipPath
       clipPathUnits="userSpaceOnUse"
       id="clipPath48">
      <path
         d="M 0,0 H 566.929 V 327.206 H 0 Z"
         transform="matrix(1,0,0,-1,-332.88601,21.018403)"
         id="path48" />
    </clipPath>
    <clipPath
       clipPathUnits="userSpaceOnUse"
       id="clipPath50">
      <path
         d="M 0,0 H 566.929 V 327.206 H 0 Z"
         transform="matrix(1,0,0,-1,-415.82401,21.018403)"
         id="path50" />
    </clipPath>
    <clipPath
       clipPathUnits="userSpaceOnUse"
       id="clipPath52">
      <path
         d="M 0,0 H 566.929 V 327.206 H 0 Z"
         transform="matrix(1,0,0,-1,-498.19299,21.018403)"
         id="path52" />
    </clipPath>
    <clipPath
       clipPathUnits="userSpaceOnUse"
       id="clipPath54">
      <path
         d="M 0,0 H 566.929 V 327.206 H 0 Z"
         transform="matrix(1,0,0,-1,-520.41331,2.8403301)"
         id="path54" />
    </clipPath>
    <clipPath
       clipPathUnits="userSpaceOnUse"
       id="clipPath87">
      <path
         d="M 0,0 H 566.929 V 327.206 H 0 Z"
         transform="matrix(1,0,0,-1,-32.379698,28.403301)"
         id="path87" />
    </clipPath>
    <clipPath
       clipPathUnits="userSpaceOnUse"
       id="clipPath89">
      <path
         d="M 0,0 H 566.929 V 327.206 H 0 Z"
         transform="matrix(1,0,0,-1,-34.083901,74.984602)"
         id="path89" />
    </clipPath>
    <clipPath
       clipPathUnits="userSpaceOnUse"
       id="clipPath91">
      <path
         d="M 0,0 H 566.929 V 327.206 H 0 Z"
         transform="matrix(1,0,0,-1,-32.379698,121.566)"
         id="path91" />
    </clipPath>
    <clipPath
       clipPathUnits="userSpaceOnUse"
       id="clipPath93">
      <path
         d="M 0,0 H 566.929 V 327.206 H 0 Z"
         transform="matrix(1,0,0,-1,-32.379698,168.71501)"
         id="path93" />
    </clipPath>
    <clipPath
       clipPathUnits="userSpaceOnUse"
       id="clipPath95">
      <path
         d="M 0,0 H 566.929 V 327.206 H 0 Z"
         transform="matrix(1,0,0,-1,-32.379698,215.29701)"
         id="path95" />
    </clipPath>
    <clipPath
       clipPathUnits="userSpaceOnUse"
       id="clipPath97">
      <path
         d="M 0,0 H 566.929 V 327.206 H 0 Z"
         transform="matrix(1,0,0,-1,-32.379698,262.446)"
         id="path97" />
    </clipPath>
    <clipPath
       clipPathUnits="userSpaceOnUse"
       id="clipPath99">
      <path
         d="M 0,0 H 566.929 V 327.206 H 0 Z"
         transform="matrix(0,1,1,0,-244.33428,-17.042003)"
         id="path99" />
    </clipPath>
    <clipPath
       clipPathUnits="userSpaceOnUse"
       id="clipPath112">
      <path
         d="M 0,0 H 566.929 V 327.206 H 0 Z"
         transform="matrix(1,0,0,-1,-445.36301,278.35201)"
         id="path112" />
    </clipPath>
    <clipPath
       clipPathUnits="userSpaceOnUse"
       id="clipPath114">
      <path
         d="M 0,0 H 566.929 V 327.206 H 0 Z"
         transform="matrix(1,0,0,-1,-470.92601,255.62901)"
         id="path114" />
    </clipPath>
    <clipPath
       clipPathUnits="userSpaceOnUse"
       id="clipPath118">
      <path
         d="M 0,0 H 566.929 V 327.206 H 0 Z"
         transform="matrix(1,0,0,-1,-163.035,307.89101)"
         id="path118" />
    </clipPath>
  </defs>
  <sodipodi:namedview
     id="namedview1"
     pagecolor="#ffffff"
     bordercolor="#000000"
     borderopacity="0.25"
     inkscape:showpageshadow="2"
     inkscape:pageopacity="0.0"
     inkscape:pagecheckerboard="0"
     inkscape:deskcolor="#d1d1d1"
     inkscape:zoom="0.76984127"
     inkscape:cx="405.27835"
     inkscape:cy="335.78351"
     inkscape:window-width="1280"
     inkscape:window-height="971"
     inkscape:window-x="1358"
     inkscape:window-y="-8"
     inkscape:window-maximized="1"
     inkscape:current-layer="g1">
    <inkscape:page
       x="0"
       y="0"
       inkscape:label="1"
       id="page1"
       width="756.43866"
       height="436.80798"
       margin="0"
       bleed="0" />
  </sodipodi:namedview>
  <g
     id="g1"
     inkscape:groupmode="layer"
     inkscape:label="1"
     clip-path="url(#clipPath1)"
     transform="translate(-339.73334,-26.125347)">
    <path
       id="path2"
       d="M 0,0 H 566.929 V 327.206 H 0 Z"
       style="fill:#ffffff;fill-opacity:1;fill-rule:evenodd;stroke:#ffffff;stroke-width:0.4;stroke-linecap:butt;stroke-linejoin:miter;stroke-miterlimit:10;stroke-dasharray:none;stroke-opacity:1"
       transform="matrix(1.3333333,0,0,-1.3333333,340,462.66667)" />
    <path
       id="path3"
       d="m 42.0368,32.9478 h 513.531 v 261.878 H 42.0368 Z"
       style="fill:#ffffff;fill-opacity:1;fill-rule:evenodd;stroke:#ffffff;stroke-width:0.4;stroke-linecap:butt;stroke-linejoin:miter;stroke-miterlimit:10;stroke-dasharray:none;stroke-opacity:1"
       transform="matrix(1.3333333,0,0,-1.3333333,340,462.66667)" />
    <path
       id="path4"
       d="m 42.0368,32.9478 h 513.531 v 261.878 H 42.0368 Z"
       style="fill:none;stroke:#000000;stroke-width:0.75;stroke-linecap:butt;stroke-linejoin:miter;stroke-miterlimit:10;stroke-dasharray:none;stroke-opacity:1"
       transform="matrix(1.3333333,0,0,-1.3333333,340,462.66667)" />
    <path
       id="path5"
       d="m 42.0368,32.9478 h 513.531 v 261.878 H 42.0368 Z"
       style="fill:#ffffff;fill-opacity:1;fill-rule:evenodd;stroke:#ffffff;stroke-width:0.4;stroke-linecap:butt;stroke-linejoin:miter;stroke-miterlimit:10;stroke-dasharray:none;stroke-opacity:1"
       transform="matrix(1.3333333,0,0,-1.3333333,340,462.66667)" />
    <path
       id="path6"
       d="m 42.0368,32.9478 h 513.531 v 261.878 H 42.0368 Z"
       style="fill:none;stroke:#000000;stroke-width:0.75;stroke-linecap:butt;stroke-linejoin:miter;stroke-miterlimit:10;stroke-dasharray:none;stroke-opacity:1"
       transform="matrix(1.3333333,0,0,-1.3333333,340,462.66667)" />
    <path
       id="path7"
       d="M 42.0368,32.9478 H 555.568"
       style="fill:none;stroke:#000000;stroke-width:0.75;stroke-linecap:butt;stroke-linejoin:miter;stroke-miterlimit:10;stroke-dasharray:none;stroke-opacity:1"
       transform="matrix(1.3333333,0,0,-1.3333333,340,462.66667)" />
    <path
       id="path8"
       d="M 88.9803,41.8394 V 32.9478"
       style="fill:none;stroke:#000000;stroke-width:0.75;stroke-linecap:butt;stroke-linejoin:miter;stroke-miterlimit:10;stroke-dasharray:none;stroke-opacity:1"
       transform="matrix(1.3333333,0,0,-1.3333333,340,462.66667)" />
    <path
       id="path9"
       d="M 105.502,37.3936 V 32.9478"
       style="fill:none;stroke:#000000;stroke-width:0.75;stroke-linecap:butt;stroke-linejoin:miter;stroke-miterlimit:10;stroke-dasharray:none;stroke-opacity:1"
       transform="matrix(1.3333333,0,0,-1.3333333,340,462.66667)" />
    <path
       id="path10"
       d="M 122.024,37.3936 V 32.9478"
       style="fill:none;stroke:#000000;stroke-width:0.75;stroke-linecap:butt;stroke-linejoin:miter;stroke-miterlimit:10;stroke-dasharray:none;stroke-opacity:1"
       transform="matrix(1.3333333,0,0,-1.3333333,340,462.66667)" />
    <path
       id="path11"
       d="M 138.546,37.3936 V 32.9478"
       style="fill:none;stroke:#000000;stroke-width:0.75;stroke-linecap:butt;stroke-linejoin:miter;stroke-miterlimit:10;stroke-dasharray:none;stroke-opacity:1"
       transform="matrix(1.3333333,0,0,-1.3333333,340,462.66667)" />
    <path
       id="path12"
       d="M 155.068,37.3936 V 32.9478"
       style="fill:none;stroke:#000000;stroke-width:0.75;stroke-linecap:butt;stroke-linejoin:miter;stroke-miterlimit:10;stroke-dasharray:none;stroke-opacity:1"
       transform="matrix(1.3333333,0,0,-1.3333333,340,462.66667)" />
    <path
       id="path13"
       d="M 171.59,41.8394 V 32.9478"
       style="fill:none;stroke:#000000;stroke-width:0.75;stroke-linecap:butt;stroke-linejoin:miter;stroke-miterlimit:10;stroke-dasharray:none;stroke-opacity:1"
       transform="matrix(1.3333333,0,0,-1.3333333,340,462.66667)" />
    <path
       id="path14"
       d="M 188.112,37.3936 V 32.9478"
       style="fill:none;stroke:#000000;stroke-width:0.75;stroke-linecap:butt;stroke-linejoin:miter;stroke-miterlimit:10;stroke-dasharray:none;stroke-opacity:1"
       transform="matrix(1.3333333,0,0,-1.3333333,340,462.66667)" />
    <path
       id="path15"
       d="M 204.634,37.3936 V 32.9478"
       style="fill:none;stroke:#000000;stroke-width:0.75;stroke-linecap:butt;stroke-linejoin:miter;stroke-miterlimit:10;stroke-dasharray:none;stroke-opacity:1"
       transform="matrix(1.3333333,0,0,-1.3333333,340,462.66667)" />
    <path
       id="path16"
       d="M 221.156,37.3936 V 32.9478"
       style="fill:none;stroke:#000000;stroke-width:0.75;stroke-linecap:butt;stroke-linejoin:miter;stroke-miterlimit:10;stroke-dasharray:none;stroke-opacity:1"
       transform="matrix(1.3333333,0,0,-1.3333333,340,462.66667)" />
    <path
       id="path17"
       d="M 237.678,37.3936 V 32.9478"
       style="fill:none;stroke:#000000;stroke-width:0.75;stroke-linecap:butt;stroke-linejoin:miter;stroke-miterlimit:10;stroke-dasharray:none;stroke-opacity:1"
       transform="matrix(1.3333333,0,0,-1.3333333,340,462.66667)" />
    <path
       id="path18"
       d="M 254.2,41.8394 V 32.9478"
       style="fill:none;stroke:#000000;stroke-width:0.75;stroke-linecap:butt;stroke-linejoin:miter;stroke-miterlimit:10;stroke-dasharray:none;stroke-opacity:1"
       transform="matrix(1.3333333,0,0,-1.3333333,340,462.66667)" />
    <path
       id="path19"
       d="M 270.722,37.3936 V 32.9478"
       style="fill:none;stroke:#000000;stroke-width:0.75;stroke-linecap:butt;stroke-linejoin:miter;stroke-miterlimit:10;stroke-dasharray:none;stroke-opacity:1"
       transform="matrix(1.3333333,0,0,-1.3333333,340,462.66667)" />
    <path
       id="path20"
       d="M 287.244,37.3936 V 32.9478"
       style="fill:none;stroke:#000000;stroke-width:0.75;stroke-linecap:butt;stroke-linejoin:miter;stroke-miterlimit:10;stroke-dasharray:none;stroke-opacity:1"
       transform="matrix(1.3333333,0,0,-1.3333333,340,462.66667)" />
    <path
       id="path21"
       d="M 303.766,37.3936 V 32.9478"
       style="fill:none;stroke:#000000;stroke-width:0.75;stroke-linecap:butt;stroke-linejoin:miter;stroke-miterlimit:10;stroke-dasharray:none;stroke-opacity:1"
       transform="matrix(1.3333333,0,0,-1.3333333,340,462.66667)" />
    <path
       id="path22"
       d="M 320.288,37.3936 V 32.9478"
       style="fill:none;stroke:#000000;stroke-width:0.75;stroke-linecap:butt;stroke-linejoin:miter;stroke-miterlimit:10;stroke-dasharray:none;stroke-opacity:1"
       transform="matrix(1.3333333,0,0,-1.3333333,340,462.66667)" />
    <path
       id="path23"
       d="M 336.81,41.8394 V 32.9478"
       style="fill:none;stroke:#000000;stroke-width:0.75;stroke-linecap:butt;stroke-linejoin:miter;stroke-miterlimit:10;stroke-dasharray:none;stroke-opacity:1"
       transform="matrix(1.3333333,0,0,-1.3333333,340,462.66667)" />
    <path
       id="path24"
       d="M 353.332,37.3936 V 32.9478"
       style="fill:none;stroke:#000000;stroke-width:0.75;stroke-linecap:butt;stroke-linejoin:miter;stroke-miterlimit:10;stroke-dasharray:none;stroke-opacity:1"
       transform="matrix(1.3333333,0,0,-1.3333333,340,462.66667)" />
    <path
       id="path25"
       d="M 369.854,37.3936 V 32.9478"
       style="fill:none;stroke:#000000;stroke-width:0.75;stroke-linecap:butt;stroke-linejoin:miter;stroke-miterlimit:10;stroke-dasharray:none;stroke-opacity:1"
       transform="matrix(1.3333333,0,0,-1.3333333,340,462.66667)" />
    <path
       id="path26"
       d="M 386.376,37.3936 V 32.9478"
       style="fill:none;stroke:#000000;stroke-width:0.75;stroke-linecap:butt;stroke-linejoin:miter;stroke-miterlimit:10;stroke-dasharray:none;stroke-opacity:1"
       transform="matrix(1.3333333,0,0,-1.3333333,340,462.66667)" />
    <path
       id="path27"
       d="M 402.898,37.3936 V 32.9478"
       style="fill:none;stroke:#000000;stroke-width:0.75;stroke-linecap:butt;stroke-linejoin:miter;stroke-miterlimit:10;stroke-dasharray:none;stroke-opacity:1"
       transform="matrix(1.3333333,0,0,-1.3333333,340,462.66667)" />
    <path
       id="path28"
       d="M 419.42,41.8394 V 32.9478"
       style="fill:none;stroke:#000000;stroke-width:0.75;stroke-linecap:butt;stroke-linejoin:miter;stroke-miterlimit:10;stroke-dasharray:none;stroke-opacity:1"
       transform="matrix(1.3333333,0,0,-1.3333333,340,462.66667)" />
    <path
       id="path29"
       d="M 435.942,37.3936 V 32.9478"
       style="fill:none;stroke:#000000;stroke-width:0.75;stroke-linecap:butt;stroke-linejoin:miter;stroke-miterlimit:10;stroke-dasharray:none;stroke-opacity:1"
       transform="matrix(1.3333333,0,0,-1.3333333,340,462.66667)" />
    <path
       id="path30"
       d="M 452.464,37.3936 V 32.9478"
       style="fill:none;stroke:#000000;stroke-width:0.75;stroke-linecap:butt;stroke-linejoin:miter;stroke-miterlimit:10;stroke-dasharray:none;stroke-opacity:1"
       transform="matrix(1.3333333,0,0,-1.3333333,340,462.66667)" />
    <path
       id="path31"
       d="M 468.986,37.3936 V 32.9478"
       style="fill:none;stroke:#000000;stroke-width:0.75;stroke-linecap:butt;stroke-linejoin:miter;stroke-miterlimit:10;stroke-dasharray:none;stroke-opacity:1"
       transform="matrix(1.3333333,0,0,-1.3333333,340,462.66667)" />
    <path
       id="path32"
       d="M 485.508,37.3936 V 32.9478"
       style="fill:none;stroke:#000000;stroke-width:0.75;stroke-linecap:butt;stroke-linejoin:miter;stroke-miterlimit:10;stroke-dasharray:none;stroke-opacity:1"
       transform="matrix(1.3333333,0,0,-1.3333333,340,462.66667)" />
    <path
       id="path33"
       d="M 502.03,41.8394 V 32.9478"
       style="fill:none;stroke:#000000;stroke-width:0.75;stroke-linecap:butt;stroke-linejoin:miter;stroke-miterlimit:10;stroke-dasharray:none;stroke-opacity:1"
       transform="matrix(1.3333333,0,0,-1.3333333,340,462.66667)" />
    <path
       id="path34"
       d="M 88.9803,41.8394 V 32.9478"
       style="fill:none;stroke:#000000;stroke-width:0.75;stroke-linecap:butt;stroke-linejoin:miter;stroke-miterlimit:10;stroke-dasharray:none;stroke-opacity:1"
       transform="matrix(1.3333333,0,0,-1.3333333,340,462.66667)" />
    <path
       id="path35"
       d="M 72.4583,37.3936 V 32.9478"
       style="fill:none;stroke:#000000;stroke-width:0.75;stroke-linecap:butt;stroke-linejoin:miter;stroke-miterlimit:10;stroke-dasharray:none;stroke-opacity:1"
       transform="matrix(1.3333333,0,0,-1.3333333,340,462.66667)" />
    <path
       id="path36"
       d="M 55.9363,37.3936 V 32.9478"
       style="fill:none;stroke:#000000;stroke-width:0.75;stroke-linecap:butt;stroke-linejoin:miter;stroke-miterlimit:10;stroke-dasharray:none;stroke-opacity:1"
       transform="matrix(1.3333333,0,0,-1.3333333,340,462.66667)" />
    <path
       id="path37"
       d="M 502.03,41.8394 V 32.9478"
       style="fill:none;stroke:#000000;stroke-width:0.75;stroke-linecap:butt;stroke-linejoin:miter;stroke-miterlimit:10;stroke-dasharray:none;stroke-opacity:1"
       transform="matrix(1.3333333,0,0,-1.3333333,340,462.66667)" />
    <path
       id="path38"
       d="M 518.552,37.3936 V 32.9478"
       style="fill:none;stroke:#000000;stroke-width:0.75;stroke-linecap:butt;stroke-linejoin:miter;stroke-miterlimit:10;stroke-dasharray:none;stroke-opacity:1"
       transform="matrix(1.3333333,0,0,-1.3333333,340,462.66667)" />
    <path
       id="path39"
       d="M 535.074,37.3936 V 32.9478"
       style="fill:none;stroke:#000000;stroke-width:0.75;stroke-linecap:butt;stroke-linejoin:miter;stroke-miterlimit:10;stroke-dasharray:none;stroke-opacity:1"
       transform="matrix(1.3333333,0,0,-1.3333333,340,462.66667)" />
    <path
       id="path40"
       d="M 551.596,37.3936 V 32.9478"
       style="fill:none;stroke:#000000;stroke-width:0.75;stroke-linecap:butt;stroke-linejoin:miter;stroke-miterlimit:10;stroke-dasharray:none;stroke-opacity:1"
       transform="matrix(1.3333333,0,0,-1.3333333,340,462.66667)" />
    <path
       id="path41"
       d="M 4.9222953,8.21875e-4 H 3.1996391 V -6.4562094 C 2.5726859,-5.8702719 1.8344047,-5.4366781 0.98479531,-5.1554281 V -6.7140219 C 1.4359672,-6.8605062 1.925225,-7.1388266 2.4496391,-7.5460531 2.9711234,-7.95035 3.331475,-8.4278891 3.5277641,-8.9757406 h 1.3945312 z m 0,0"
       style="fill:#000000;fill-opacity:1;fill-rule:nonzero;stroke:none"
       aria-label="1"
       transform="matrix(1.3333333,0,0,1.3333333,454.37053,434.64213)"
       clip-path="url(#clipPath42)" />
    <path
       id="path43"
       d="M 6.3158906,-1.5929281 V 8.21875e-4 H 0.31589063 C 0.37741406,-0.59976406 0.56784375,-1.1710531 0.89010938,-1.7101156 1.2182344,-2.2491781 1.8627656,-2.9640219 2.8237031,-3.8546469 c 0.7734375,-0.7177734 1.2451172,-1.2070312 1.4179688,-1.4648437 0.234375,-0.3515625 0.3515625,-0.6972656 0.3515625,-1.0429688 0,-0.3808593 -0.1025391,-0.6738281 -0.3046875,-0.8789062 -0.2050781,-0.2109375 -0.4863281,-0.3164063 -0.84375,-0.3164063 -0.3603516,0 -0.6445313,0.1113282 -0.8554688,0.328125 -0.2109375,0.2109375 -0.336914,0.5683594 -0.375,1.0664063 L 0.51510938,-6.3273031 c 0.0996094,-0.9433594 0.41601562,-1.6201172 0.94921872,-2.0273438 0.5390625,-0.4130859 1.209961,-0.6210937 2.015625,-0.6210937 0.881836,0 1.5732422,0.2402344 2.0742188,0.7148437 0.5068359,0.4775391 0.7617187,1.0664063 0.7617187,1.7695313 0,0.4072265 -0.076172,0.7939453 -0.2226562,1.1601562 -0.140625,0.3603516 -0.3691406,0.7382813 -0.6796875,1.1367188 -0.2050781,0.2666015 -0.5800781,0.6503906 -1.125,1.1484375 -0.5390625,0.4921875 -0.8847656,0.8203125 -1.03125,0.984375 -0.140625,0.1582031 -0.2548828,0.3134765 -0.3398438,0.46875 z m 0,0"
       style="fill:#000000;fill-opacity:1;fill-rule:nonzero;stroke:none"
       aria-label="2"
       transform="matrix(1.3333333,0,0,1.3333333,564.196,434.64213)"
       clip-path="url(#clipPath44)" />
    <path
       id="path45"
       d="M 0.46932813,-2.3663656 2.1333906,-2.5773031 c 0.046875,0.421875 0.1875,0.7470703 0.421875,0.9726562 0.234375,0.2285157 0.515625,0.3398438 0.84375,0.3398438 0.3515625,0 0.647461,-0.131836 0.890625,-0.3984375 0.2402344,-0.272461 0.3632813,-0.6357422 0.3632813,-1.0898438 0,-0.4277343 -0.1171875,-0.7675781 -0.3515625,-1.0195312 -0.2285156,-0.2578125 -0.5097656,-0.3867188 -0.84375,-0.3867188 -0.2197266,0 -0.4804688,0.043945 -0.7851563,0.1289063 l 0.1875,-1.3945313 c 0.459961,0.00879 0.8115235,-0.09375 1.0546875,-0.3046875 0.2490235,-0.2109375 0.375,-0.4951172 0.375,-0.8554687 0,-0.2958985 -0.09082,-0.5332031 -0.2695312,-0.7148438 -0.1816406,-0.1787109 -0.4189453,-0.2695312 -0.7148438,-0.2695312 -0.290039,0 -0.5390625,0.102539 -0.75,0.3046875 -0.2050781,0.2050781 -0.328125,0.5009765 -0.375,0.890625 L 0.59823438,-6.6437094 C 0.70663281,-7.1827719 0.87069531,-7.6105062 1.0904219,-7.9327719 1.3160078,-8.2608969 1.623625,-8.51285 2.0162031,-8.6944906 c 0.3984375,-0.1875 0.84375,-0.28125 1.3359375,-0.28125 0.84375,0 1.5175782,0.2695312 2.0273438,0.8085937 0.421875,0.4394532 0.6328125,0.9345703 0.6328125,1.4882813 0,0.7822265 -0.4306641,1.40625 -1.2890625,1.875 0.5068359,0.1113281 0.9140625,0.3574219 1.21875,0.7382812 0.3105469,0.3837891 0.46875,0.84375 0.46875,1.3828125 0,0.7822266 -0.2900391,1.4501953 -0.8671875,2.00390628 C 4.9722578,-0.122225 4.2603438,0.15316563 3.4107344,0.15316563 2.5962813,0.15316563 1.9253828,-0.07535 1.3951094,-0.53824062 0.86190625,-1.0069906 0.55428906,-1.6163656 0.46932813,-2.3663656 Z m 0,0"
       style="fill:#000000;fill-opacity:1;fill-rule:nonzero;stroke:none"
       aria-label="3"
       transform="matrix(1.3333333,0,0,1.3333333,674.02267,434.64213)"
       clip-path="url(#clipPath46)" />
    <path
       id="path47"
       d="M 3.8903672,8.21875e-4 V -1.8038656 H 0.23411719 v -1.5 l 3.87890621,-5.671875 h 1.4414063 v 5.671875 h 1.1015625 v 1.5 H 5.5544297 V 8.21875e-4 Z m 0,-3.304687475 v -3.0585938 l -2.0507813,3.0585938 z m 0,0"
       style="fill:#000000;fill-opacity:1;fill-rule:nonzero;stroke:none"
       aria-label="4"
       transform="matrix(1.3333333,0,0,1.3333333,783.848,434.64213)"
       clip-path="url(#clipPath48)" />
    <path
       id="path49"
       d="M 0.55197656,-2.2960531 2.2629141,-2.4718344 c 0.046875,0.3837891 0.1904296,0.6884766 0.4335937,0.9140625 0.2402344,0.2285157 0.5185547,0.3398438 0.8320313,0.3398438 0.3574218,0 0.6591796,-0.1435547 0.9023437,-0.4335938 0.2490234,-0.2958984 0.375,-0.7324218 0.375,-1.3125 0,-0.5537109 -0.1259766,-0.9667968 -0.375,-1.2421875 -0.2431641,-0.2724609 -0.5595703,-0.4101562 -0.9492187,-0.4101562 -0.4921875,0 -0.9345704,0.2197265 -1.3242188,0.65625 L 0.76291406,-4.1710531 1.6418203,-8.8233969 h 4.5351563 v 1.6054688 h -3.234375 l -0.2695313,1.5234375 c 0.3808594,-0.1933594 0.7734375,-0.2929688 1.171875,-0.2929688 0.7558594,0 1.4003906,0.2783203 1.9335938,0.8320313 0.5302734,0.5566406 0.796875,1.274414 0.796875,2.15625 0,0.7353515 -0.2167969,1.3916015 -0.6445313,1.96875 -0.5800781,0.7910156 -1.3886719,1.18359373 -2.4257812,1.18359373 -0.8203125,0 -1.4941407,-0.21679688 -2.015625,-0.65625 C 0.9650625,-0.94839687 0.65158594,-1.5460531 0.55197656,-2.2960531 Z m 0,0"
       style="fill:#000000;fill-opacity:1;fill-rule:nonzero;stroke:none"
       aria-label="5"
       transform="matrix(1.3333333,0,0,1.3333333,894.432,434.64213)"
       clip-path="url(#clipPath50)" />
    <path
       id="path51"
       d="m 6.3402031,-6.7491781 -1.6640625,0.1757812 c -0.041016,-0.3339843 -0.1464843,-0.5859375 -0.3164062,-0.75 -0.1728516,-0.1640625 -0.3955078,-0.2460937 -0.6679688,-0.2460937 -0.3603515,0 -0.665039,0.1640625 -0.9140625,0.4921875 -0.2519531,0.3222656 -0.4072265,0.9960937 -0.46875,2.0273437 0.421875,-0.5068359 0.9521485,-0.7617187 1.59375,-0.7617187 0.7089844,0 1.3183594,0.2753906 1.828125,0.8203125 0.515625,0.5478515 0.7734375,1.2509765 0.7734375,2.109375 0,0.9140625 -0.2695312,1.649414 -0.8085937,2.20312498 -0.5390625,0.55664062 -1.2275391,0.83203125 -2.0625,0.83203125 -0.9082031,0 -1.6523438,-0.3515625 -2.2382813,-1.0546875 C 0.8148125,-1.6046469 0.52770313,-2.7530844 0.52770313,-4.3468344 c 0,-1.640625 0.29882812,-2.8183593 0.90234377,-3.5390625 0.609375,-0.7265625 1.3974609,-1.0898437 2.3671875,-1.0898437 0.6796875,0 1.2421875,0.1933594 1.6875,0.5742187 0.4453125,0.375 0.7294922,0.9257813 0.8554687,1.6523438 z m -3.890625,3.7382812 c 0,0.5566407 0.1289063,0.984375 0.3867188,1.2890625 0.2578125,0.3046875 0.5507812,0.4570313 0.8789062,0.4570313 0.319336,0 0.5859375,-0.1230469 0.796875,-0.375 0.2109375,-0.2490235 0.3164063,-0.65625 0.3164063,-1.21875 0,-0.5859375 -0.1171875,-1.0107422 -0.3515625,-1.2773438 -0.2285156,-0.2724609 -0.5097656,-0.4101562 -0.84375,-0.4101562 -0.328125,0 -0.609375,0.1289062 -0.84375,0.3867187 -0.2285156,0.2578125 -0.3398438,0.6416016 -0.3398438,1.1484375 z m 0,0"
       style="fill:#000000;fill-opacity:1;fill-rule:nonzero;stroke:none"
       aria-label="6"
       transform="matrix(1.3333333,0,0,1.3333333,1004.2573,434.64213)"
       clip-path="url(#clipPath52)" />
    <path
       id="path53"
       d="M 0.87773843,0.00146281 V -8.9399434 H 3.5847697 l 1.6289062,6.09375 1.59375,-6.09375 h 2.71875 v 8.94140621 h -1.6875 V -7.0415059 L 6.0691447,0.00146281 H 4.3347697 L 2.5652384,-7.0415059 V 0.00146281 Z M 15.063285,-2.0610372 l 1.699219,0.2929688 c -0.219727,0.6269531 -0.568359,1.10156246 -1.042969,1.42968746 -0.46875,0.32226563 -1.060547,0.48046875 -1.769531,0.48046875 -1.125,0 -1.962891,-0.36621093 -2.507812,-1.1015625 -0.421875,-0.58593751 -0.632813,-1.32714841 -0.632813,-2.22656251 0,-1.078125 0.275391,-1.9160156 0.832031,-2.5195312 0.5625,-0.609375 1.271485,-0.9140625 2.132813,-0.9140625 0.966797,0 1.728515,0.3222656 2.285156,0.9609375 0.553711,0.6328125 0.820313,1.6054687 0.796875,2.9179687 h -4.289062 c 0.0059,0.5097656 0.143554,0.9023438 0.410156,1.1835938 0.263672,0.28125 0.591797,0.421875 0.984375,0.421875 0.272461,0 0.498047,-0.070312 0.679687,-0.2109375 0.1875,-0.1464844 0.328125,-0.3867188 0.421875,-0.7148438 z m 0.09375,-1.734375 c -0.01758,-0.4921875 -0.146484,-0.8671875 -0.386718,-1.125 -0.243165,-0.2578125 -0.539063,-0.3867187 -0.890625,-0.3867187 -0.375,0 -0.685547,0.1376953 -0.925782,0.4101562 -0.243164,0.2666016 -0.363281,0.6328125 -0.363281,1.1015625 z m 9.035157,3.79687501 H 22.61016 v -0.94921875 c -0.266601,0.36914063 -0.580078,0.64160157 -0.9375,0.8203125 -0.360351,0.17871094 -0.723633,0.26953125 -1.089843,0.26953125 -0.744141,0 -1.379883,-0.29589843 -1.910157,-0.890625 -0.533203,-0.60058591 -0.796875,-1.43554691 -0.796875,-2.50781251 0,-1.1015625 0.257813,-1.9365234 0.773438,-2.5078125 0.515625,-0.5683594 1.166015,-0.8554687 1.957031,-0.8554687 0.726563,0 1.350586,0.3017578 1.875,0.9023437 v -3.2226562 h 1.710938 z M 19.621879,-3.3735372 c 0,0.6884766 0.09668,1.1894531 0.292969,1.5 0.272461,0.4453125 0.65625,0.6679688 1.148437,0.6679688 0.398438,0 0.732422,-0.1669922 1.007813,-0.5039063 0.28125,-0.3339844 0.421875,-0.8349609 0.421875,-1.5 0,-0.75 -0.137696,-1.2832031 -0.410156,-1.6054687 -0.266602,-0.328125 -0.609375,-0.4921875 -1.03125,-0.4921875 -0.407227,0 -0.747071,0.1611328 -1.019532,0.4804687 -0.27539,0.3222656 -0.410156,0.8056641 -0.410156,1.453125 z m 6.275391,-3.984375 v -1.5820312 h 1.710937 v 1.5820312 z m 0,7.35937501 V -6.4790059 h 1.710937 v 6.48046871 z m 4.751953,-4.50000001 -1.558594,-0.28125 c 0.169922,-0.6240234 0.47168,-1.0839844 0.902344,-1.3828125 0.427734,-0.3046875 1.066406,-0.4570312 1.910156,-0.4570312 0.755859,0 1.324219,0.09082 1.699219,0.2695312 0.375,0.1816406 0.635742,0.4101563 0.785156,0.6914063 0.155273,0.2753906 0.234375,0.7851562 0.234375,1.5351562 l -0.01172,1.9921875 c 0,0.5712891 0.02637,0.9931641 0.08203,1.26562501 0.05273,0.26660157 0.155273,0.55664063 0.304687,0.8671875 H 33.29766 c -0.04102,-0.1171875 -0.09375,-0.28417968 -0.164062,-0.50390625 -0.02344,-0.0996094 -0.04395,-0.16699218 -0.05859,-0.19921875 -0.290039,0.28125 -0.603516,0.4921875 -0.9375,0.6328125 -0.336914,0.140625 -0.691406,0.2109375 -1.066406,0.2109375 -0.673828,0 -1.201172,-0.17871093 -1.582031,-0.5390625 -0.38379,-0.35742187 -0.574219,-0.81445311 -0.574219,-1.37109371 0,-0.366211 0.08496,-0.6914063 0.257812,-0.9726563 0.178711,-0.2871094 0.424805,-0.5068359 0.738282,-0.65625 0.310546,-0.1552734 0.764648,-0.2929687 1.359375,-0.4101562 0.802734,-0.1464844 1.362304,-0.2871094 1.675781,-0.421875 v -0.1640625 c 0,-0.328125 -0.08203,-0.5625 -0.246094,-0.703125 -0.164062,-0.140625 -0.474609,-0.2109375 -0.925781,-0.2109375 -0.304688,0 -0.544922,0.058594 -0.714844,0.1757812 -0.172852,0.1171875 -0.310547,0.328125 -0.410156,0.6328125 z m 2.296875,1.3945313 c -0.228516,0.070312 -0.580078,0.1582031 -1.054688,0.2578125 -0.46875,0.102539 -0.779297,0.1992187 -0.925781,0.2929687 -0.228516,0.1640625 -0.339844,0.3691406 -0.339844,0.609375 0,0.2431641 0.08789,0.4511719 0.269532,0.6210938 0.17871,0.1728515 0.404296,0.2578125 0.679687,0.2578125 0.310547,0 0.609375,-0.099609 0.890625,-0.3046875 0.202148,-0.1464844 0.339844,-0.3339844 0.410156,-0.5625 0.04687,-0.1464844 0.07031,-0.4248047 0.07031,-0.8320313 z m 0,0"
       style="fill:#000000;fill-opacity:1;fill-rule:nonzero;stroke:none"
       aria-label=" Media"
       transform="matrix(1.3333333,0,0,1.3333333,1033.8844,458.87956)"
       clip-path="url(#clipPath54)" />
    <path
       id="path55"
       d="M 42.0368,32.9478 V 294.826"
       style="fill:none;stroke:#000000;stroke-width:0.75;stroke-linecap:butt;stroke-linejoin:miter;stroke-miterlimit:10;stroke-dasharray:none;stroke-opacity:1"
       transform="matrix(1.3333333,0,0,-1.3333333,340,462.66667)" />
    <path
       id="path56"
       d="M 55.649,32.9478 H 42.0368"
       style="fill:none;stroke:#000000;stroke-width:0.75;stroke-linecap:butt;stroke-linejoin:miter;stroke-miterlimit:10;stroke-dasharray:none;stroke-opacity:1"
       transform="matrix(1.3333333,0,0,-1.3333333,340,462.66667)" />
    <path
       id="path57"
       d="M 48.8429,42.3006 H 42.0368"
       style="fill:none;stroke:#000000;stroke-width:0.75;stroke-linecap:butt;stroke-linejoin:miter;stroke-miterlimit:10;stroke-dasharray:none;stroke-opacity:1"
       transform="matrix(1.3333333,0,0,-1.3333333,340,462.66667)" />
    <path
       id="path58"
       d="M 48.8429,51.6534 H 42.0368"
       style="fill:none;stroke:#000000;stroke-width:0.75;stroke-linecap:butt;stroke-linejoin:miter;stroke-miterlimit:10;stroke-dasharray:none;stroke-opacity:1"
       transform="matrix(1.3333333,0,0,-1.3333333,340,462.66667)" />
    <path
       id="path59"
       d="M 48.8429,61.0061 H 42.0368"
       style="fill:none;stroke:#000000;stroke-width:0.75;stroke-linecap:butt;stroke-linejoin:miter;stroke-miterlimit:10;stroke-dasharray:none;stroke-opacity:1"
       transform="matrix(1.3333333,0,0,-1.3333333,340,462.66667)" />
    <path
       id="path60"
       d="M 48.8429,70.3589 H 42.0368"
       style="fill:none;stroke:#000000;stroke-width:0.75;stroke-linecap:butt;stroke-linejoin:miter;stroke-miterlimit:10;stroke-dasharray:none;stroke-opacity:1"
       transform="matrix(1.3333333,0,0,-1.3333333,340,462.66667)" />
    <path
       id="path61"
       d="M 55.649,79.7117 H 42.0368"
       style="fill:none;stroke:#000000;stroke-width:0.75;stroke-linecap:butt;stroke-linejoin:miter;stroke-miterlimit:10;stroke-dasharray:none;stroke-opacity:1"
       transform="matrix(1.3333333,0,0,-1.3333333,340,462.66667)" />
    <path
       id="path62"
       d="M 48.8429,89.0645 H 42.0368"
       style="fill:none;stroke:#000000;stroke-width:0.75;stroke-linecap:butt;stroke-linejoin:miter;stroke-miterlimit:10;stroke-dasharray:none;stroke-opacity:1"
       transform="matrix(1.3333333,0,0,-1.3333333,340,462.66667)" />
    <path
       id="path63"
       d="M 48.8429,98.4173 H 42.0368"
       style="fill:none;stroke:#000000;stroke-width:0.75;stroke-linecap:butt;stroke-linejoin:miter;stroke-miterlimit:10;stroke-dasharray:none;stroke-opacity:1"
       transform="matrix(1.3333333,0,0,-1.3333333,340,462.66667)" />
    <path
       id="path64"
       d="M 48.8429,107.77 H 42.0368"
       style="fill:none;stroke:#000000;stroke-width:0.75;stroke-linecap:butt;stroke-linejoin:miter;stroke-miterlimit:10;stroke-dasharray:none;stroke-opacity:1"
       transform="matrix(1.3333333,0,0,-1.3333333,340,462.66667)" />
    <path
       id="path65"
       d="M 48.8429,117.123 H 42.0368"
       style="fill:none;stroke:#000000;stroke-width:0.75;stroke-linecap:butt;stroke-linejoin:miter;stroke-miterlimit:10;stroke-dasharray:none;stroke-opacity:1"
       transform="matrix(1.3333333,0,0,-1.3333333,340,462.66667)" />
    <path
       id="path66"
       d="M 55.649,126.476 H 42.0368"
       style="fill:none;stroke:#000000;stroke-width:0.75;stroke-linecap:butt;stroke-linejoin:miter;stroke-miterlimit:10;stroke-dasharray:none;stroke-opacity:1"
       transform="matrix(1.3333333,0,0,-1.3333333,340,462.66667)" />
    <path
       id="path67"
       d="M 48.8429,135.828 H 42.0368"
       style="fill:none;stroke:#000000;stroke-width:0.75;stroke-linecap:butt;stroke-linejoin:miter;stroke-miterlimit:10;stroke-dasharray:none;stroke-opacity:1"
       transform="matrix(1.3333333,0,0,-1.3333333,340,462.66667)" />
    <path
       id="path68"
       d="M 48.8429,145.181 H 42.0368"
       style="fill:none;stroke:#000000;stroke-width:0.75;stroke-linecap:butt;stroke-linejoin:miter;stroke-miterlimit:10;stroke-dasharray:none;stroke-opacity:1"
       transform="matrix(1.3333333,0,0,-1.3333333,340,462.66667)" />
    <path
       id="path69"
       d="M 48.8429,154.534 H 42.0368"
       style="fill:none;stroke:#000000;stroke-width:0.75;stroke-linecap:butt;stroke-linejoin:miter;stroke-miterlimit:10;stroke-dasharray:none;stroke-opacity:1"
       transform="matrix(1.3333333,0,0,-1.3333333,340,462.66667)" />
    <path
       id="path70"
       d="M 48.8429,163.887 H 42.0368"
       style="fill:none;stroke:#000000;stroke-width:0.75;stroke-linecap:butt;stroke-linejoin:miter;stroke-miterlimit:10;stroke-dasharray:none;stroke-opacity:1"
       transform="matrix(1.3333333,0,0,-1.3333333,340,462.66667)" />
    <path
       id="path71"
       d="M 55.649,173.24 H 42.0368"
       style="fill:none;stroke:#000000;stroke-width:0.75;stroke-linecap:butt;stroke-linejoin:miter;stroke-miterlimit:10;stroke-dasharray:none;stroke-opacity:1"
       transform="matrix(1.3333333,0,0,-1.3333333,340,462.66667)" />
    <path
       id="path72"
       d="M 48.8429,182.592 H 42.0368"
       style="fill:none;stroke:#000000;stroke-width:0.75;stroke-linecap:butt;stroke-linejoin:miter;stroke-miterlimit:10;stroke-dasharray:none;stroke-opacity:1"
       transform="matrix(1.3333333,0,0,-1.3333333,340,462.66667)" />
    <path
       id="path73"
       d="M 48.8429,191.945 H 42.0368"
       style="fill:none;stroke:#000000;stroke-width:0.75;stroke-linecap:butt;stroke-linejoin:miter;stroke-miterlimit:10;stroke-dasharray:none;stroke-opacity:1"
       transform="matrix(1.3333333,0,0,-1.3333333,340,462.66667)" />
    <path
       id="path74"
       d="M 48.8429,201.298 H 42.0368"
       style="fill:none;stroke:#000000;stroke-width:0.75;stroke-linecap:butt;stroke-linejoin:miter;stroke-miterlimit:10;stroke-dasharray:none;stroke-opacity:1"
       transform="matrix(1.3333333,0,0,-1.3333333,340,462.66667)" />
    <path
       id="path75"
       d="M 48.8429,210.651 H 42.0368"
       style="fill:none;stroke:#000000;stroke-width:0.75;stroke-linecap:butt;stroke-linejoin:miter;stroke-miterlimit:10;stroke-dasharray:none;stroke-opacity:1"
       transform="matrix(1.3333333,0,0,-1.3333333,340,462.66667)" />
    <path
       id="path76"
       d="M 55.649,220.004 H 42.0368"
       style="fill:none;stroke:#000000;stroke-width:0.75;stroke-linecap:butt;stroke-linejoin:miter;stroke-miterlimit:10;stroke-dasharray:none;stroke-opacity:1"
       transform="matrix(1.3333333,0,0,-1.3333333,340,462.66667)" />
    <path
       id="path77"
       d="M 48.8429,229.356 H 42.0368"
       style="fill:none;stroke:#000000;stroke-width:0.75;stroke-linecap:butt;stroke-linejoin:miter;stroke-miterlimit:10;stroke-dasharray:none;stroke-opacity:1"
       transform="matrix(1.3333333,0,0,-1.3333333,340,462.66667)" />
    <path
       id="path78"
       d="M 48.8429,238.709 H 42.0368"
       style="fill:none;stroke:#000000;stroke-width:0.75;stroke-linecap:butt;stroke-linejoin:miter;stroke-miterlimit:10;stroke-dasharray:none;stroke-opacity:1"
       transform="matrix(1.3333333,0,0,-1.3333333,340,462.66667)" />
    <path
       id="path79"
       d="M 48.8429,248.062 H 42.0368"
       style="fill:none;stroke:#000000;stroke-width:0.75;stroke-linecap:butt;stroke-linejoin:miter;stroke-miterlimit:10;stroke-dasharray:none;stroke-opacity:1"
       transform="matrix(1.3333333,0,0,-1.3333333,340,462.66667)" />
    <path
       id="path80"
       d="M 48.8429,257.415 H 42.0368"
       style="fill:none;stroke:#000000;stroke-width:0.75;stroke-linecap:butt;stroke-linejoin:miter;stroke-miterlimit:10;stroke-dasharray:none;stroke-opacity:1"
       transform="matrix(1.3333333,0,0,-1.3333333,340,462.66667)" />
    <path
       id="path81"
       d="M 55.649,266.768 H 42.0368"
       style="fill:none;stroke:#000000;stroke-width:0.75;stroke-linecap:butt;stroke-linejoin:miter;stroke-miterlimit:10;stroke-dasharray:none;stroke-opacity:1"
       transform="matrix(1.3333333,0,0,-1.3333333,340,462.66667)" />
    <path
       id="path82"
       d="M 55.649,266.768 H 42.0368"
       style="fill:none;stroke:#000000;stroke-width:0.75;stroke-linecap:butt;stroke-linejoin:miter;stroke-miterlimit:10;stroke-dasharray:none;stroke-opacity:1"
       transform="matrix(1.3333333,0,0,-1.3333333,340,462.66667)" />
    <path
       id="path83"
       d="M 48.8429,276.12 H 42.0368"
       style="fill:none;stroke:#000000;stroke-width:0.75;stroke-linecap:butt;stroke-linejoin:miter;stroke-miterlimit:10;stroke-dasharray:none;stroke-opacity:1"
       transform="matrix(1.3333333,0,0,-1.3333333,340,462.66667)" />
    <path
       id="path84"
       d="M 48.8429,285.473 H 42.0368"
       style="fill:none;stroke:#000000;stroke-width:0.75;stroke-linecap:butt;stroke-linejoin:miter;stroke-miterlimit:10;stroke-dasharray:none;stroke-opacity:1"
       transform="matrix(1.3333333,0,0,-1.3333333,340,462.66667)" />
    <path
       id="path85"
       d="M 48.8429,294.826 H 42.0368"
       style="fill:none;stroke:#000000;stroke-width:0.75;stroke-linecap:butt;stroke-linejoin:miter;stroke-miterlimit:10;stroke-dasharray:none;stroke-opacity:1"
       transform="matrix(1.3333333,0,0,-1.3333333,340,462.66667)" />
    <path
       id="path86"
       d="m 3.4328,-8.9765828 c 0.8583984,0 1.5351562,0.3105469 2.0273437,0.9257812 0.5771485,0.7353516 0.8671875,1.9511719 0.8671875,3.6445313 0,1.6875 -0.2929687,2.9033203 -0.8789062,3.64453124 -0.4863281,0.609375 -1.1572266,0.9140625 -2.015625,0.9140625 -0.8759766,0 -1.5791016,-0.33105469 -2.109375,-0.99609375 C 0.79022188,-1.5146687 0.52655,-2.7099812 0.52655,-4.4297078 c 0,-1.6787109 0.29296875,-2.8886719 0.8789063,-3.6328125 0.4833984,-0.609375 1.1601562,-0.9140625 2.0273437,-0.9140625 z m 0,1.4179687 c -0.2109375,0 -0.3984375,0.067383 -0.5625,0.1992188 -0.1640625,0.1347656 -0.2900391,0.3720703 -0.375,0.7148437 -0.1171875,0.4394532 -0.1757812,1.1835938 -0.1757812,2.2382813 0,1.0488281 0.049805,1.7666016 0.1523437,2.15625 0.1083984,0.3925781 0.2402344,0.6533203 0.3984375,0.7851562 0.1640625,0.1347657 0.3515625,0.1992188 0.5625,0.1992188 0.2021484,0 0.3867188,-0.064453 0.5507813,-0.1992188 0.1640624,-0.1318359 0.2871093,-0.3691406 0.3749999,-0.7148437 0.1171875,-0.4365234 0.1757813,-1.1777344 0.1757813,-2.2265625 0,-1.0546875 -0.055664,-1.7753906 -0.1640625,-2.1679688 C 4.2677609,-6.9638875 4.135925,-7.2246297 3.9718625,-7.3593953 3.8136594,-7.4912312 3.6349484,-7.5586141 3.4328,-7.5586141 Z m 0,0"
       style="fill:#000000;fill-opacity:1;fill-rule:nonzero;stroke:none"
       aria-label="0"
       transform="matrix(1.3333333,0,0,1.3333333,383.17293,424.7956)"
       clip-path="url(#clipPath87)" />
    <path
       id="path88"
       d="M 4.9219594,-7.515625e-4 H 3.1993031 V -6.4577828 C 2.57235,-5.8718453 1.8340688,-5.4382516 0.98445938,-5.1570016 V -6.7155953 C 1.4356313,-6.8620797 1.9248891,-7.1404 2.4493031,-7.5476266 c 0.5214844,-0.4042968 0.881836,-0.8818359 1.078125,-1.4296875 h 1.3945313 z m 0,0"
       style="fill:#000000;fill-opacity:1;fill-rule:nonzero;stroke:none"
       aria-label="1"
       transform="matrix(1.3333333,0,0,1.3333333,385.4452,362.6872)"
       clip-path="url(#clipPath89)" />
    <path
       id="path90"
       d="m 6.3156125,-1.5951328 v 1.59374999 h -6 C 0.37713594,-0.60196875 0.56756563,-1.1732578 0.88983125,-1.7123203 1.2179563,-2.2513828 1.8624875,-2.9662266 2.823425,-3.8568516 3.5968625,-4.574625 4.0685422,-5.0638828 4.2413937,-5.3216953 c 0.234375,-0.3515625 0.3515625,-0.6972656 0.3515625,-1.0429688 0,-0.3808593 -0.102539,-0.6738281 -0.3046875,-0.8789062 -0.2050781,-0.2109375 -0.4863281,-0.3164063 -0.8437499,-0.3164063 -0.3603516,0 -0.6445313,0.1113282 -0.8554688,0.328125 -0.2109375,0.2109375 -0.3369141,0.5683594 -0.375,1.0664063 L 0.51483125,-6.3295078 C 0.61444063,-7.2728672 0.93084688,-7.949625 1.46405,-8.3568516 c 0.5390625,-0.4130859 1.2099609,-0.6210937 2.015625,-0.6210937 0.8818359,0 1.5732422,0.2402344 2.0742187,0.7148437 0.506836,0.4775391 0.7617188,1.0664063 0.7617188,1.7695313 0,0.4072266 -0.076172,0.7939453 -0.2226563,1.1601562 -0.140625,0.3603516 -0.3691406,0.7382813 -0.6796875,1.1367188 -0.2050781,0.2666016 -0.5800781,0.6503906 -1.125,1.1484375 -0.5390624,0.4921875 -0.8847656,0.8203125 -1.0312499,0.984375 -0.140625,0.1582031 -0.2548829,0.3134766 -0.3398438,0.46875 z m 0,0"
       style="fill:#000000;fill-opacity:1;fill-rule:nonzero;stroke:none"
       aria-label="2"
       transform="matrix(1.3333333,0,0,1.3333333,383.17293,300.57867)"
       clip-path="url(#clipPath91)" />
    <path
       id="path92"
       d="M 0.46795625,-2.3670312 2.1320188,-2.5779687 c 0.046875,0.421875 0.1875,0.7470703 0.421875,0.9726562 0.234375,0.2285156 0.515625,0.3398438 0.84375,0.3398438 0.3515625,0 0.6474609,-0.131836 0.8906249,-0.3984375 C 4.5285031,-1.9363672 4.65155,-2.2996484 4.65155,-2.75375 4.65155,-3.1814844 4.5343625,-3.5213281 4.2999875,-3.7732812 4.0714719,-4.0310937 3.7902219,-4.16 3.4562375,-4.16 c -0.2197266,0 -0.4804687,0.043945 -0.7851562,0.1289063 l 0.1875,-1.3945313 c 0.4599609,0.00879 0.8115234,-0.09375 1.0546875,-0.3046875 0.2490234,-0.2109375 0.3749999,-0.4951172 0.3749999,-0.8554687 0,-0.2958985 -0.09082,-0.5332032 -0.2695312,-0.7148438 -0.1816406,-0.1787109 -0.4189453,-0.2695312 -0.7148437,-0.2695312 -0.2900391,0 -0.5390625,0.102539 -0.75,0.3046875 -0.2050782,0.2050781 -0.328125,0.5009765 -0.375,0.890625 L 0.5968625,-6.644375 c 0.10839844,-0.5390625 0.27246094,-0.9667969 0.4921875,-1.2890625 0.2255859,-0.328125 0.5332031,-0.5800781 0.9257813,-0.7617187 0.3984375,-0.1875 0.84375,-0.28125 1.3359375,-0.28125 0.8437499,0 1.5175781,0.2695312 2.0273437,0.8085937 0.421875,0.4394531 0.6328125,0.9345703 0.6328125,1.4882813 0,0.7822265 -0.4306641,1.40625 -1.2890625,1.875 0.5068359,0.1113281 0.9140625,0.3574218 1.21875,0.7382812 0.3105469,0.3837891 0.46875,0.84375 0.46875,1.3828125 0,0.7822266 -0.2900391,1.4501953 -0.8671875,2.00390625 C 4.9708859,-0.12289062 4.2589719,0.1525 3.4093625,0.1525 2.5949094,0.1525 1.9240109,-0.07601562 1.3937375,-0.53890625 0.86053438,-1.0076562 0.55291719,-1.6170312 0.46795625,-2.3670312 Z m 0,0"
       style="fill:#000000;fill-opacity:1;fill-rule:nonzero;stroke:none"
       aria-label="3"
       transform="matrix(1.3333333,0,0,1.3333333,383.17293,237.71333)"
       clip-path="url(#clipPath93)" />
    <path
       id="path94"
       d="M 3.8898313,1.25e-4 V -1.8045625 H 0.23358125 v -1.5 l 3.87890625,-5.671875 h 1.4414062 v 5.671875 h 1.1015625 v 1.5 H 5.5538937 V 1.25e-4 Z m 0,-3.3046875 V -6.3631562 L 1.83905,-3.3045625 Z m 0,0"
       style="fill:#000000;fill-opacity:1;fill-rule:nonzero;stroke:none"
       aria-label="4"
       transform="matrix(1.3333333,0,0,1.3333333,383.17293,175.604)"
       clip-path="url(#clipPath95)" />
    <path
       id="path96"
       d="M 0.5499875,-2.2981406 2.260925,-2.4739219 c 0.046875,0.3837891 0.1904297,0.6884766 0.4335938,0.9140625 0.2402343,0.2285156 0.5185546,0.3398438 0.8320312,0.3398438 0.3574219,0 0.6591797,-0.1435547 0.9023437,-0.4335938 0.2490235,-0.2958984 0.375,-0.7324219 0.375,-1.3125 0,-0.5537109 -0.1259765,-0.9667969 -0.375,-1.2421875 -0.243164,-0.2724609 -0.5595703,-0.4101562 -0.9492187,-0.4101562 -0.4921875,0 -0.9345703,0.2197265 -1.3242187,0.65625 L 0.760925,-4.1731406 1.6398313,-8.8254844 h 4.5351562 v 1.6054688 h -3.234375 l -0.2695312,1.5234375 c 0.3808593,-0.1933594 0.7734375,-0.2929688 1.171875,-0.2929688 0.7558593,0 1.4003906,0.2783203 1.9335937,0.8320313 0.5302734,0.5566406 0.796875,1.274414 0.796875,2.15625 0,0.7353515 -0.2167969,1.3916015 -0.6445313,1.96875 C 5.3488156,-0.2415 4.5402219,0.15107812 3.5031125,0.15107812 c -0.8203125,0 -1.4941406,-0.21679687 -2.015625,-0.65625 -0.52441406,-0.4453125 -0.83789062,-1.04296872 -0.9375,-1.79296872 z m 0,0"
       style="fill:#000000;fill-opacity:1;fill-rule:nonzero;stroke:none"
       aria-label="5"
       transform="matrix(1.3333333,0,0,1.3333333,383.17293,112.73867)"
       clip-path="url(#clipPath97)" />
    <path
       id="path98"
       d="m 4.6510744,-2.0625078 1.6992187,0.2929687 c -0.2197266,0.6269532 -0.5683594,1.10156254 -1.0429687,1.42968754 -0.46875,0.32226562 -1.0605469,0.48046875 -1.7695313,0.48046875 -1.125,0 -1.9628906,-0.36621094 -2.5078125,-1.1015625 C 0.60810561,-1.5468828 0.39716811,-2.2880937 0.39716811,-3.1875078 c 0,-1.078125 0.27539063,-1.9160156 0.83203129,-2.5195313 0.5625,-0.609375 1.2714843,-0.9140625 2.1328125,-0.9140625 0.9667968,0 1.7285156,0.3222657 2.2851562,0.9609375 0.5537109,0.6328125 0.8203125,1.6054688 0.796875,2.9179688 H 2.1549806 c 0.00586,0.5097656 0.1435547,0.9023437 0.4101563,1.1835937 0.2636718,0.28125 0.5917968,0.421875 0.984375,0.421875 0.2724609,0 0.4980468,-0.070312 0.6796875,-0.2109375 0.1875,-0.1464843 0.328125,-0.3867187 0.421875,-0.7148437 z m 0.09375,-1.734375 c -0.017578,-0.4921875 -0.1464844,-0.8671875 -0.3867188,-1.125 -0.2431641,-0.2578125 -0.5390625,-0.3867188 -0.890625,-0.3867188 -0.375,0 -0.6855469,0.1376954 -0.9257812,0.4101563 -0.2431641,0.2666016 -0.3632813,0.6328125 -0.3632813,1.1015625 z M 9.4909181,-7.8125e-6 H 7.7682619 V -6.4804766 h 1.59375 v 0.9257813 c 0.2724609,-0.4365234 0.5185546,-0.7207031 0.7382811,-0.8554688 0.216797,-0.140625 0.462891,-0.2109375 0.738281,-0.2109375 0.389649,0 0.764649,0.1054688 1.125,0.3164063 l -0.527343,1.5 c -0.290039,-0.1875 -0.559571,-0.28125 -0.808594,-0.28125 -0.234375,0 -0.439453,0.067383 -0.609375,0.1992187 -0.1640626,0.1347657 -0.2929689,0.3720704 -0.3867189,0.7148438 -0.09375,0.3457031 -0.140625,1.0664062 -0.140625,2.1679687 z m 4.8632809,0 H 12.631543 V -6.4804766 h 1.59375 v 0.9257813 c 0.272461,-0.4365234 0.518555,-0.7207031 0.738281,-0.8554688 0.216797,-0.140625 0.462891,-0.2109375 0.738282,-0.2109375 0.389648,0 0.764648,0.1054688 1.125,0.3164063 l -0.527344,1.5 c -0.290039,-0.1875 -0.55957,-0.28125 -0.808594,-0.28125 -0.234375,0 -0.439453,0.067383 -0.609375,0.1992187 -0.164062,0.1347657 -0.292969,0.3720704 -0.386719,0.7148438 -0.09375,0.3457031 -0.140625,1.0664062 -0.140625,2.1679687 z M 17.175488,-3.3281328 c 0,-0.5683594 0.140625,-1.1191406 0.421875,-1.6523438 0.28125,-0.5302734 0.673829,-0.9375 1.183594,-1.21875 0.515625,-0.28125 1.089844,-0.421875 1.722656,-0.421875 0.984375,0 1.78711,0.3222657 2.414063,0.9609375 0.624023,0.6328125 0.9375,1.4355469 0.9375,2.4023438 0,0.9785156 -0.316406,1.7900391 -0.949219,2.43749999 -0.632812,0.64160156 -1.429687,0.9609375 -2.390625,0.9609375 -0.594726,0 -1.160156,-0.13476563 -1.699219,-0.3984375 -0.533203,-0.26367188 -0.9375,-0.65625 -1.21875,-1.17187499 -0.28125,-0.5214844 -0.421875,-1.1542969 -0.421875,-1.8984375 z m 1.757813,0.09375 c 0,0.6416016 0.152344,1.1337891 0.457031,1.4765625 0.304688,0.3369141 0.679688,0.5039062 1.125,0.5039062 0.445313,0 0.820313,-0.1669921 1.125,-0.5039062 0.304688,-0.3427734 0.457031,-0.8378906 0.457031,-1.4882813 0,-0.6386718 -0.152343,-1.1279296 -0.457031,-1.4648437 -0.304687,-0.3427734 -0.679687,-0.515625 -1.125,-0.515625 -0.445312,0 -0.820312,0.1728516 -1.125,0.515625 -0.304687,0.3369141 -0.457031,0.8291016 -0.457031,1.4765625 z M 26.849317,-7.8125e-6 H 25.12666 V -6.4804766 h 1.59375 v 0.9257813 c 0.272461,-0.4365234 0.518555,-0.7207031 0.738282,-0.8554688 0.216796,-0.140625 0.46289,-0.2109375 0.738281,-0.2109375 0.389648,0 0.764648,0.1054688 1.125,0.3164063 l -0.527344,1.5 c -0.290039,-0.1875 -0.55957,-0.28125 -0.808594,-0.28125 -0.234375,0 -0.439453,0.067383 -0.609375,0.1992187 -0.164062,0.1347657 -0.292968,0.3720704 -0.386718,0.7148438 -0.09375,0.3457031 -0.140625,1.0664062 -0.140625,2.1679687 z m 6.972656,-2.0624999875 1.699219,0.2929687 c -0.219727,0.6269532 -0.56836,1.10156254 -1.042969,1.42968754 -0.46875,0.32226562 -1.060547,0.48046875 -1.769531,0.48046875 -1.125,0 -1.962891,-0.36621094 -2.507813,-1.1015625 -0.421875,-0.58593749 -0.632812,-1.32714839 -0.632812,-2.22656249 0,-1.078125 0.27539,-1.9160156 0.832031,-2.5195313 0.5625,-0.609375 1.271484,-0.9140625 2.132812,-0.9140625 0.966797,0 1.728516,0.3222657 2.285157,0.9609375 0.55371,0.6328125 0.820312,1.6054688 0.796875,2.9179688 h -4.289063 c 0.0059,0.5097656 0.143555,0.9023437 0.410156,1.1835937 0.263672,0.28125 0.591797,0.421875 0.984375,0.421875 0.272461,0 0.498047,-0.070312 0.679688,-0.2109375 0.1875,-0.1464843 0.328125,-0.3867187 0.421875,-0.7148437 z m 0.09375,-1.734375 c -0.01758,-0.4921875 -0.146485,-0.8671875 -0.386719,-1.125 -0.243164,-0.2578125 -0.539062,-0.3867188 -0.890625,-0.3867188 -0.375,0 -0.685547,0.1376954 -0.925781,0.4101563 -0.243164,0.2666016 -0.363281,0.6328125 -0.363281,1.1015625 z m 6.213867,-2.9414063 c 0,-0.796875 0.175781,-1.3857421 0.527344,-1.7695312 0.351562,-0.3896484 0.826172,-0.5859375 1.429687,-0.5859375 0.624024,0 1.113281,0.1933594 1.464844,0.5742187 0.351562,0.3837891 0.527344,0.9785157 0.527344,1.78125 0,0.8056641 -0.175782,1.4033204 -0.527344,1.7929688 -0.351563,0.3837891 -0.829102,0.5742187 -1.429688,0.5742187 -0.626953,0 -1.113281,-0.1904296 -1.464843,-0.5742187 C 40.305371,-5.3349687 40.12959,-5.932625 40.12959,-6.7382891 Z m 1.335937,-0.011719 c 0,0.5859375 0.06445,0.9785156 0.199219,1.171875 0.108399,0.1494141 0.249024,0.2226562 0.421875,0.2226562 0.1875,0 0.331055,-0.073242 0.433594,-0.2226562 0.131836,-0.1933594 0.199219,-0.5859375 0.199219,-1.171875 0,-0.5771484 -0.06738,-0.9638672 -0.199219,-1.1601563 -0.102539,-0.1464843 -0.246094,-0.2226562 -0.433594,-0.2226562 -0.172851,0 -0.313476,0.070312 -0.421875,0.2109375 -0.134765,0.2050781 -0.199219,0.5947266 -0.199219,1.171875 z m 1.933594,7.08984374 h -1.265625 l 4.757813,-9.43359374 h 1.230468 z m 2.765625,-2.34375004 c 0,-0.8027343 0.175781,-1.3974609 0.527344,-1.78125 0.351562,-0.3896484 0.832031,-0.5859375 1.441406,-0.5859375 0.615235,0 1.101563,0.1962891 1.453125,0.5859375 0.351563,0.3837891 0.527344,0.9785157 0.527344,1.78125 0,0.8056641 -0.175781,1.40332035 -0.527344,1.79296879 -0.351562,0.38085937 -0.829101,0.57421875 -1.429687,0.57421875 -0.626953,0 -1.113282,-0.19335938 -1.464844,-0.57421875 C 46.340527,-0.60059375 46.164746,-1.19825 46.164746,-2.0039144 Z m 1.335938,-0.011719 c 0,0.5859375 0.06445,0.9785156 0.199218,1.17187499 0.09961,0.14941406 0.240235,0.22265625 0.421875,0.22265625 0.1875,0 0.328125,-0.0732422 0.421875,-0.22265625 0.131836,-0.19335939 0.199219,-0.58593749 0.199219,-1.17187499 0,-0.5771484 -0.06445,-0.9667969 -0.1875,-1.171875 -0.102539,-0.140625 -0.246094,-0.2109375 -0.433594,-0.2109375 -0.18164,0 -0.322265,0.070312 -0.421875,0.2109375 -0.134765,0.2050781 -0.199218,0.5947266 -0.199218,1.171875 z m 0,0"
       style="fill:#000000;fill-opacity:1;fill-rule:nonzero;stroke:none"
       aria-label=" errore %"
       transform="matrix(0,-1.3333333,1.3333333,0,362.72267,136.88763)"
       clip-path="url(#clipPath99)" />
    <path
       id="path100"
       d="m 86.0727,282.571 c 0,3.939 5.9078,3.939 5.9078,0 0,-3.938 -5.9078,-3.938 -5.9078,0 z"
       style="fill:#ff0000;fill-opacity:1;fill-rule:nonzero;stroke:none"
       transform="matrix(1.3333333,0,0,-1.3333333,340,462.66667)" />
    <path
       id="path101"
       d="m 170.071,211.006 c 0,3.938 5.908,3.938 5.908,0 0,-3.939 -5.908,-3.939 -5.908,0 z"
       style="fill:#ff0000;fill-opacity:1;fill-rule:nonzero;stroke:none"
       transform="matrix(1.3333333,0,0,-1.3333333,340,462.66667)" />
    <path
       id="path102"
       d="m 251.541,214.893 c 0,3.939 5.907,3.939 5.907,0 0,-3.939 -5.907,-3.939 -5.907,0 z"
       style="fill:#ff0000;fill-opacity:1;fill-rule:nonzero;stroke:none"
       transform="matrix(1.3333333,0,0,-1.3333333,340,462.66667)" />
    <path
       id="path103"
       d="m 335.859,187.989 c 0,3.939 5.908,3.939 5.908,0 0,-3.938 -5.908,-3.938 -5.908,0 z"
       style="fill:#ff0000;fill-opacity:1;fill-rule:nonzero;stroke:none"
       transform="matrix(1.3333333,0,0,-1.3333333,340,462.66667)" />
    <path
       id="path104"
       d="m 420.424,153.99 c 0,3.938 5.908,3.938 5.908,0 0,-3.939 -5.908,-3.939 -5.908,0 z"
       style="fill:#ff0000;fill-opacity:1;fill-rule:nonzero;stroke:none"
       transform="matrix(1.3333333,0,0,-1.3333333,340,462.66667)" />
    <path
       id="path105"
       d="m 505.624,139.211 c 0,3.939 5.908,3.939 5.908,0 0,-3.939 -5.908,-3.939 -5.908,0 z"
       style="fill:#ff0000;fill-opacity:1;fill-rule:nonzero;stroke:none"
       transform="matrix(1.3333333,0,0,-1.3333333,340,462.66667)" />
    <path
       id="path106"
       d="m 442.523,248.813 h 113.613 v 46.0133 H 442.523 Z"
       style="fill:#ffffff;fill-opacity:1;fill-rule:evenodd;stroke:#ffffff;stroke-width:0.4;stroke-linecap:butt;stroke-linejoin:miter;stroke-miterlimit:10;stroke-dasharray:none;stroke-opacity:1"
       transform="matrix(1.3333333,0,0,-1.3333333,340,462.66667)" />
    <path
       id="path107"
       d="M 930.03065,130.91601 H 1081.2563"
       style="fill:none;stroke:#000000;stroke-width:0.999147;stroke-linecap:butt;stroke-linejoin:miter;stroke-miterlimit:10;stroke-dasharray:none;stroke-opacity:1" />
    <path
       id="path108"
       d="M 1080.7433,130.67245 V 69.321789"
       style="fill:none;stroke:#000000;stroke-width:1;stroke-linecap:butt;stroke-linejoin:miter;stroke-miterlimit:10;stroke-dasharray:none;stroke-opacity:1" />
    <path
       id="path109"
       d="M 1081.2457,69.565346 H 930.03065"
       style="fill:none;stroke:#000000;stroke-width:0.999112;stroke-linecap:butt;stroke-linejoin:miter;stroke-miterlimit:10;stroke-dasharray:none;stroke-opacity:1" />
    <path
       id="path110"
       d="M 442.523,294.826 V 248.813"
       style="fill:none;stroke:#000000;stroke-width:0.75;stroke-linecap:butt;stroke-linejoin:miter;stroke-miterlimit:10;stroke-dasharray:none;stroke-opacity:1"
       transform="matrix(1.3333333,0,0,-1.3333333,340,462.66667)" />
    <path
       id="path111"
       d="M 0.99539844,-5.390625e-4 V -9.2817891 H 2.8938359 v 7.7109375 h 4.6875 V -5.390625e-4 Z M 12.845984,-2.1567891 l 1.78125,0.3046875 c -0.228515,0.6503907 -0.591796,1.14550785 -1.089843,1.48828129 -0.492188,0.34570312 -1.110352,0.515625 -1.851563,0.515625 -1.180664,0 -2.0507811,-0.38085938 -2.6132811,-1.1484375 C 8.6184453,-1.6118672 8.3928594,-2.3940937 8.3928594,-3.3403828 c 0,-1.1162109 0.2929687,-1.9921875 0.8789062,-2.625 0.5917969,-0.6386719 1.3388674,-0.9609375 2.2382814,-0.9609375 1.007812,0 1.798828,0.3339844 2.378906,0.9960937 0.585938,0.6650391 0.861328,1.6845704 0.832031,3.0585938 h -4.488281 c 0.01465,0.5332031 0.158203,0.9462891 0.433594,1.2421875 0.28125,0.2988281 0.624023,0.4453125 1.03125,0.4453125 0.28125,0 0.515625,-0.073242 0.703125,-0.2226563 0.193359,-0.1552734 0.342773,-0.4042968 0.445312,-0.75 z m 0.105469,-1.8164062 c -0.01758,-0.515625 -0.152344,-0.9052734 -0.410156,-1.171875 -0.251953,-0.2724609 -0.55957,-0.4101563 -0.925781,-0.4101563 -0.392578,0 -0.714844,0.140625 -0.972657,0.421875 -0.257812,0.2900391 -0.383789,0.6767579 -0.375,1.1601563 z m 3.070313,4.41796874 2.050781,0.24609375 c 0.0293,0.24023437 0.108398,0.40429691 0.234375,0.49218751 0.169922,0.1318359 0.436523,0.1992187 0.796875,0.1992187 0.46875,0 0.820312,-0.070312 1.054687,-0.2109375 0.155274,-0.09375 0.275391,-0.24609371 0.363282,-0.45703121 0.05273,-0.14941406 0.08203,-0.421875 0.08203,-0.8203125 V -1.1021016 c -0.539063,0.7353516 -1.21582,1.1015625375 -2.027344,1.1015625375 -0.914062,0 -1.637695,-0.3867187475 -2.167969,-1.1601562375 -0.416015,-0.6005859 -0.621093,-1.3535156 -0.621093,-2.2617188 0,-1.1396484 0.272461,-2.0068359 0.820312,-2.6015625 0.544922,-0.6005859 1.22461,-0.9023437 2.039063,-0.9023437 0.834961,0 1.526367,0.3691406 2.074218,1.1015625 v -0.9492188 h 1.675782 v 6.08203129 c 0,0.796875 -0.06738,1.38867187 -0.199219,1.78125001 -0.134766,0.3984375 -0.322266,0.7089844 -0.5625,0.9375 -0.234375,0.2255859 -0.550781,0.4013672 -0.949219,0.5273437 -0.398437,0.131836 -0.902344,0.1992188 -1.511719,0.1992188 -1.148437,0 -1.96582,-0.1992188 -2.449218,-0.5976563 -0.477539,-0.3925781 -0.714844,-0.8876953 -0.714844,-1.48828121 0,-0.0644531 0.0029,-0.13769531 0.01172,-0.22265625 z m 1.605468,-3.97265624 c 0,0.7207031 0.134766,1.2480469 0.410157,1.5820312 0.28125,0.328125 0.624023,0.4921875 1.03125,0.4921875 0.436523,0 0.808593,-0.1669921 1.113281,-0.5039062 0.304687,-0.3427734 0.457031,-0.8496094 0.457031,-1.5234375 0,-0.703125 -0.149414,-1.2216797 -0.445312,-1.5585938 -0.290039,-0.3427734 -0.653321,-0.515625 -1.089844,-0.515625 -0.430664,0 -0.785156,0.1699219 -1.066406,0.5039063 -0.275391,0.328125 -0.410157,0.8378906 -0.410157,1.5234375 z m 10.467774,1.3710937 1.78125,0.3046875 c -0.228516,0.6503907 -0.591797,1.14550785 -1.089844,1.48828129 -0.492187,0.34570312 -1.110351,0.515625 -1.851562,0.515625 -1.180664,0 -2.050782,-0.38085938 -2.613282,-1.1484375 -0.454101,-0.61523439 -0.679687,-1.39746089 -0.679687,-2.34374999 0,-1.1162109 0.292969,-1.9921875 0.878906,-2.625 0.591797,-0.6386719 1.338867,-0.9609375 2.238281,-0.9609375 1.007813,0 1.798828,0.3339844 2.378907,0.9960937 0.585937,0.6650391 0.861328,1.6845704 0.832031,3.0585938 h -4.488281 c 0.01465,0.5332031 0.158203,0.9462891 0.433593,1.2421875 0.28125,0.2988281 0.624024,0.4453125 1.03125,0.4453125 0.28125,0 0.515625,-0.073242 0.703125,-0.2226563 0.19336,-0.1552734 0.342774,-0.4042968 0.445313,-0.75 z m 0.105469,-1.8164062 c -0.01758,-0.515625 -0.152344,-0.9052734 -0.410157,-1.171875 -0.251953,-0.2724609 -0.55957,-0.4101563 -0.925781,-0.4101563 -0.392578,0 -0.714844,0.140625 -0.972656,0.421875 -0.257813,0.2900391 -0.383789,0.6767579 -0.375,1.1601563 z m 9.395507,3.9726562375 H 35.803016 V -3.4575703 c 0,-0.7324219 -0.04102,-1.2070313 -0.117188,-1.4179688 -0.0791,-0.2167968 -0.205078,-0.3867187 -0.375,-0.5039062 -0.172851,-0.1171875 -0.380859,-0.1757813 -0.621094,-0.1757813 -0.313476,0 -0.594726,0.087891 -0.84375,0.2578125 -0.243164,0.1640625 -0.410156,0.3867188 -0.503906,0.6679688 -0.08789,0.28125 -0.128906,0.8027344 -0.128906,1.5585937 V -5.390625e-4 H 31.420203 V -6.7739766 h 1.664063 v 0.9960938 c 0.591797,-0.7646484 1.338867,-1.1484375 2.238281,-1.1484375 0.389648,0 0.75,0.070312 1.078125,0.2109375 0.328125,0.140625 0.574219,0.3251953 0.738281,0.5507812 0.169922,0.2197266 0.28711,0.46875 0.351563,0.75 0.07031,0.28125 0.105468,0.6855469 0.105468,1.2070313 z m 8.030274,0 H 43.962195 V -0.99663281 c -0.27539,0.39257812 -0.603515,0.6796875 -0.984375,0.8671875 -0.375,0.1875 -0.755859,0.28125 -1.136718,0.28125 -0.773438,0 -1.438477,-0.31054688 -1.992188,-0.9375 -0.556641,-0.63281249 -0.832031,-1.50585939 -0.832031,-2.62499999 0,-1.1484375 0.269531,-2.0185547 0.808594,-2.6132813 0.539062,-0.6005859 1.221679,-0.9023437 2.050781,-0.9023437 0.755859,0 1.40918,0.3134766 1.957031,0.9375 v -3.3632813 h 1.792969 z M 40.845008,-3.5396016 c 0,0.7265625 0.09961,1.2509766 0.304687,1.5703125 0.28711,0.46875 0.691407,0.703125 1.207032,0.703125 0.413086,0 0.764648,-0.1757812 1.054687,-0.5273437 0.287109,-0.3515625 0.433594,-0.8730469 0.433594,-1.5703125 0,-0.7792969 -0.140625,-1.3388672 -0.421875,-1.6757813 -0.28125,-0.3427734 -0.641602,-0.515625 -1.078125,-0.515625 -0.430664,0 -0.791016,0.1699219 -1.078125,0.5039063 -0.28125,0.3369141 -0.421875,0.8408203 -0.421875,1.5117187 z m 7.889648,-1.171875 -1.617187,-0.2929687 c 0.178711,-0.65625 0.492187,-1.1396484 0.9375,-1.453125 0.445312,-0.3105469 1.107422,-0.46875 1.992187,-0.46875 0.796875,0 1.388672,0.09375 1.78125,0.28125 0.398438,0.1875 0.673828,0.4306641 0.832032,0.7265625 0.155273,0.2900391 0.234375,0.8203125 0.234375,1.59375 l -0.01172,2.0976562 c 0,0.5947266 0.02637,1.0371094 0.08203,1.32421879 0.05273,0.28125 0.164063,0.58300781 0.328125,0.9023437475 H 51.512 C 51.465125,-0.11772656 51.406531,-0.29350781 51.336219,-0.52788281 c -0.02344,-0.10839844 -0.04395,-0.17871094 -0.05859,-0.2109375 -0.304687,0.29882812 -0.632812,0.52148437 -0.984375,0.66796875 -0.345703,0.14648437 -0.714844,0.22265625 -1.113281,0.22265625 -0.697266,0 -1.248047,-0.1875 -1.652344,-0.5625 -0.398437,-0.38085938 -0.597656,-0.86132809 -0.597656,-1.44140629 0,-0.3808593 0.08789,-0.7207031 0.269531,-1.0195312 0.1875,-0.3046875 0.445313,-0.5332031 0.773438,-0.6914063 0.328125,-0.1552734 0.799804,-0.2958984 1.417968,-0.421875 0.84375,-0.1552734 1.423828,-0.2988281 1.746094,-0.4335937 v -0.1875 c 0,-0.3427734 -0.08789,-0.5859375 -0.257812,-0.7265625 -0.164063,-0.1464844 -0.486329,-0.2226563 -0.960938,-0.2226563 -0.322266,0 -0.571289,0.064453 -0.75,0.1875 -0.172852,0.1259766 -0.316406,0.3457032 -0.433594,0.65625 z m 2.402344,1.453125 c -0.228516,0.079102 -0.591797,0.1728516 -1.089844,0.28125 -0.500976,0.1025391 -0.826172,0.2050782 -0.972656,0.3046875 -0.234375,0.1728516 -0.351562,0.3837891 -0.351562,0.6328125 0,0.2519532 0.09375,0.46875 0.28125,0.65625 0.1875,0.1816407 0.424804,0.2695313 0.714843,0.2695313 0.319336,0 0.626953,-0.1054688 0.925782,-0.3164063 0.210937,-0.1640625 0.351562,-0.3632812 0.421875,-0.5976562 0.04687,-0.1464844 0.07031,-0.4365234 0.07031,-0.8671875 z m 0,0"
       style="fill:#000000;fill-opacity:1;fill-rule:nonzero;stroke:none"
       aria-label="Legenda"
       transform="matrix(1.3333333,0,0,1.3333333,933.81733,91.530667)"
       clip-path="url(#clipPath112)" />
    <path
       id="path113"
       d="M 0.14138281,-8.828125e-4 V -1.7001016 L 5.0515391,-7.7704141 H 0.69216406 V -9.3524453 H 7.5476328 v 1.4648437 l -5.1328125,6.3164063 h 5.3203125 v 1.5703124875 z m 14.12109419,0 H 12.469508 V -6.7743203 h 1.675781 v 0.9609375 c 0.28125,-0.4511719 0.533203,-0.75 0.761719,-0.890625 0.225586,-0.1464844 0.483398,-0.2226563 0.773437,-0.2226563 0.413086,0 0.808594,0.1142579 1.183594,0.3398438 l -0.550781,1.5585937 c -0.304688,-0.1933593 -0.585938,-0.2929687 -0.84375,-0.2929687 -0.251953,0 -0.46582,0.070312 -0.644531,0.2109375 -0.172852,0.1347656 -0.310547,0.3837891 -0.410157,0.75 -0.102539,0.3603516 -0.152343,1.1132812 -0.152343,2.2617187 z M 17.634547,-7.7001016 v -1.6523437 h 1.792969 v 1.6523437 z m 0,7.6992187875 V -6.7743203 h 1.792969 V -8.828125e-4 Z M 27.173609,-4.7704141 25.404078,-4.4540078 c -0.05566,-0.3515625 -0.1875,-0.6152344 -0.398437,-0.796875 -0.210938,-0.1787109 -0.486328,-0.2695313 -0.820313,-0.2695313 -0.445312,0 -0.802734,0.1582032 -1.066406,0.46875 -0.266602,0.3046875 -0.398438,0.8203125 -0.398438,1.546875 0,0.796875 0.131836,1.3652344 0.398438,1.6992188 0.272461,0.328125 0.635742,0.4921875 1.089844,0.4921875 0.342773,0 0.621093,-0.09375 0.832031,-0.28125 0.216797,-0.1933594 0.375,-0.5302734 0.46875,-1.0078125 l 1.757812,0.3046875 c -0.1875,0.8056641 -0.539062,1.41503905 -1.054687,1.82812499 -0.515625,0.41601562 -1.212891,0.62109375 -2.085938,0.62109375 -0.993164,0 -1.787109,-0.31054688 -2.378906,-0.9375 C 21.161891,-1.4100625 20.868922,-2.27725 20.868922,-3.3876016 c 0,-1.1162109 0.295898,-1.9833984 0.890625,-2.6015625 0.591797,-0.6240234 1.394531,-0.9375 2.402344,-0.9375 0.820312,0 1.470703,0.1816407 1.957031,0.5390625 0.492187,0.3515625 0.84375,0.890625 1.054687,1.6171875 z m 0.949219,1.2890625 c 0,-0.5917968 0.143555,-1.1660156 0.433594,-1.7226562 0.295898,-0.5625 0.714844,-0.9873047 1.253906,-1.2773438 0.539063,-0.2958984 1.136719,-0.4453125 1.792969,-0.4453125 1.03125,0 1.869141,0.3339844 2.519531,0.9960938 0.65625,0.6650391 0.984375,1.5058594 0.984375,2.5195312 0,1.0253907 -0.333984,1.875 -0.996094,2.55468754 -0.65625,0.67382812 -1.485351,1.0078125 -2.484375,1.0078125 -0.626953,0 -1.21875,-0.140625 -1.78125,-0.421875 -0.5625,-0.28125 -0.993164,-0.69140625 -1.289062,-1.23046874 -0.290039,-0.5449219 -0.433594,-1.2070313 -0.433594,-1.9804688 z m 1.828125,0.09375 c 0,0.6738282 0.158203,1.1894532 0.480469,1.546875 0.319336,0.3515625 0.714844,0.5273438 1.183594,0.5273438 0.46875,0 0.858398,-0.1757813 1.171875,-0.5273438 0.319336,-0.3574218 0.480468,-0.8789062 0.480468,-1.5585937 0,-0.6621094 -0.161132,-1.1748047 -0.480468,-1.5351563 -0.313477,-0.3574218 -0.703125,-0.5390625 -1.171875,-0.5390625 -0.46875,0 -0.864258,0.1816407 -1.183594,0.5390625 -0.322266,0.3603516 -0.480469,0.8759766 -0.480469,1.546875 z m 5.929688,1.453125 1.804687,-0.2695312 c 0.07031,0.3457031 0.222656,0.609375 0.457031,0.796875 0.234375,0.1816406 0.5625,0.2695312 0.984375,0.2695312 0.46875,0 0.820313,-0.084961 1.054688,-0.2578125 0.155273,-0.1171875 0.234375,-0.2753906 0.234375,-0.4804687 0,-0.1318359 -0.04395,-0.2460938 -0.128906,-0.3398438 -0.09375,-0.084961 -0.292969,-0.1640625 -0.597657,-0.234375 -1.447265,-0.3193359 -2.364257,-0.6123046 -2.753906,-0.8789062 -0.539062,-0.3574219 -0.808594,-0.8671875 -0.808594,-1.5234375 0,-0.5859375 0.228516,-1.078125 0.691407,-1.4765625 0.46875,-0.3984375 1.189453,-0.5976563 2.167968,-0.5976563 0.919922,0 1.608399,0.1523438 2.0625,0.4570313 0.451172,0.2988281 0.764649,0.7441406 0.9375,1.3359375 l -1.699218,0.3046875 c -0.07031,-0.2578125 -0.208008,-0.4570313 -0.410157,-0.5976563 -0.205078,-0.140625 -0.492187,-0.2109375 -0.867187,-0.2109375 -0.46875,0 -0.805664,0.067383 -1.007813,0.1992188 -0.140625,0.09375 -0.210937,0.2167969 -0.210937,0.3632812 0,0.1259766 0.06152,0.2314454 0.1875,0.3164063 0.155273,0.1259766 0.708984,0.2988281 1.664062,0.515625 0.960938,0.2109375 1.628907,0.4746094 2.003907,0.7851562 0.375,0.3222657 0.5625,0.7675782 0.5625,1.3359375 0,0.6269532 -0.263672,1.16015629 -0.785157,1.60546879 -0.515625,0.4453125 -1.283203,0.66796875 -2.296875,0.66796875 -0.922851,0 -1.652343,-0.1875 -2.191406,-0.5625 -0.539062,-0.375 -0.890625,-0.88183594 -1.054687,-1.52343754 z m 11.003906,-4.8398437 v 1.4296875 h -1.21875 v 2.7304687 c 0,0.5566407 0.01172,0.8789063 0.03516,0.9726563 0.02344,0.087891 0.07324,0.1611328 0.152344,0.2226562 0.08496,0.055664 0.1875,0.082031 0.304687,0.082031 0.164063,0 0.404297,-0.052734 0.726563,-0.1640625 l 0.152344,1.38281249 c -0.421875,0.17871094 -0.896485,0.26953125 -1.417969,0.26953125 -0.328125,0 -0.621094,-0.05566406 -0.878906,-0.1640625 C 44.482203,-0.121 44.288844,-0.261625 44.165797,-0.43447656 44.048609,-0.60439844 43.966578,-0.83584375 43.919703,-1.1258828 c -0.04102,-0.2109375 -0.05859,-0.6328125 -0.05859,-1.265625 v -2.953125 h -0.820312 v -1.4296875 h 0.820312 v -1.3476563 l 1.804688,-1.0429687 v 2.390625 z m 2.956055,6.7734374875 H 48.047633 V -6.7743203 h 1.675781 v 0.9609375 c 0.28125,-0.4511719 0.533203,-0.75 0.761719,-0.890625 0.225586,-0.1464844 0.483398,-0.2226563 0.773437,-0.2226563 0.413086,0 0.808594,0.1142579 1.183594,0.3398438 l -0.550781,1.5585937 c -0.304688,-0.1933593 -0.585938,-0.2929687 -0.84375,-0.2929687 -0.251953,0 -0.46582,0.070312 -0.644531,0.2109375 -0.172852,0.1347656 -0.310547,0.3837891 -0.410157,0.75 -0.102539,0.3603516 -0.152343,1.1132812 -0.152343,2.2617187 z m 7.836914,0 V -1.0204141 c -0.251953,0.36914066 -0.580078,0.65625004 -0.984375,0.86718754 -0.398438,0.20214844 -0.820313,0.3046875 -1.265625,0.3046875 -0.454102,0 -0.864258,-0.09960938 -1.230469,-0.29296875 -0.360352,-0.20214844 -0.621094,-0.48339844 -0.785156,-0.84375 C 53.253688,-1.3514687 53.177516,-1.8524453 53.177516,-2.4852578 v -4.2890625 h 1.792968 v 3.1054687 c 0,0.9550782 0.0293,1.5410157 0.09375,1.7578125 0.07031,0.2109375 0.19043,0.3837891 0.363282,0.515625 0.169922,0.1259766 0.392578,0.1875 0.667968,0.1875 0.304688,0 0.577149,-0.082031 0.820313,-0.2460937 0.240234,-0.1699219 0.404297,-0.3808594 0.492187,-0.6328125 0.09375,-0.2490234 0.140625,-0.8583984 0.140625,-1.828125 v -2.859375 h 1.792969 V -8.828125e-4 Z M 61.19607,-7.7001016 v -1.6523437 h 1.792969 v 1.6523437 z m 0,7.6992187875 V -6.7743203 h 1.792969 V -8.828125e-4 Z M 67.934352,-6.7743203 v 1.4296875 h -1.21875 v 2.7304687 c 0,0.5566407 0.01172,0.8789063 0.03516,0.9726563 0.02344,0.087891 0.07324,0.1611328 0.152344,0.2226562 0.08496,0.055664 0.1875,0.082031 0.304687,0.082031 0.164063,0 0.404297,-0.052734 0.726563,-0.1640625 l 0.152343,1.38281249 c -0.421875,0.17871094 -0.896484,0.26953125 -1.417968,0.26953125 -0.328125,0 -0.621094,-0.05566406 -0.878907,-0.1640625 C 65.532008,-0.121 65.338648,-0.261625 65.215602,-0.43447656 65.098414,-0.60439844 65.016383,-0.83584375 64.969508,-1.1258828 c -0.04102,-0.2109375 -0.05859,-0.6328125 -0.05859,-1.265625 v -2.953125 h -0.820312 v -1.4296875 h 0.820312 v -1.3476563 l 1.804688,-1.0429687 v 2.390625 z m 0.834961,3.2929687 c 0,-0.5917968 0.143554,-1.1660156 0.433593,-1.7226562 0.295899,-0.5625 0.714844,-0.9873047 1.253907,-1.2773438 0.539062,-0.2958984 1.136718,-0.4453125 1.792968,-0.4453125 1.03125,0 1.869141,0.3339844 2.519532,0.9960938 0.65625,0.6650391 0.984375,1.5058594 0.984375,2.5195312 0,1.0253907 -0.333985,1.875 -0.996094,2.55468754 -0.65625,0.67382812 -1.485352,1.0078125 -2.484375,1.0078125 -0.626953,0 -1.21875,-0.140625 -1.78125,-0.421875 -0.5625,-0.28125 -0.993164,-0.69140625 -1.289063,-1.23046874 -0.290039,-0.5449219 -0.433593,-1.2070313 -0.433593,-1.9804688 z m 1.828125,0.09375 c 0,0.6738282 0.158203,1.1894532 0.480468,1.546875 0.319336,0.3515625 0.714844,0.5273438 1.183594,0.5273438 0.46875,0 0.858398,-0.1757813 1.171875,-0.5273438 0.319336,-0.3574218 0.480469,-0.8789062 0.480469,-1.5585937 0,-0.6621094 -0.161133,-1.1748047 -0.480469,-1.5351563 -0.313477,-0.3574218 -0.703125,-0.5390625 -1.171875,-0.5390625 -0.46875,0 -0.864258,0.1816407 -1.183594,0.5390625 -0.322265,0.3603516 -0.480468,0.8759766 -0.480468,1.546875 z m 0,0"
       style="fill:#000000;fill-opacity:1;fill-rule:nonzero;stroke:none"
       aria-label="Z ricostruito"
       transform="matrix(1.3333333,0,0,1.3333333,967.90133,121.828)"
       clip-path="url(#clipPath114)" />
    <path
       id="path115"
       d="m 453.771,260.316 c 0,3.938 5.907,3.938 5.907,0 0,-3.939 -5.907,-3.939 -5.907,0 z"
       style="fill:#ff0000;fill-opacity:1;fill-rule:nonzero;stroke:none"
       transform="matrix(1.3333333,0,0,-1.3333333,340,462.66667)" />
    <path
       id="path116"
       d="m 147.992,302.938 h 270.944 v 17.7236 H 147.992 Z"
       style="fill:#ffffff;fill-opacity:1;fill-rule:evenodd;stroke:#ffffff;stroke-width:0.4;stroke-linecap:butt;stroke-linejoin:miter;stroke-miterlimit:10;stroke-dasharray:none;stroke-opacity:1"
       transform="matrix(1.3333333,0,0,-1.3333333,340,462.66667)" />
    <path
       id="path117"
       d="M 1.0304297,0.00135156 V -10.170523 h 7.5351562 v 1.7226558 h -5.484375 v 2.2617188 h 5.109375 v 1.7109375 h -5.109375 v 2.765625 h 5.6835938 v 1.71093746 z m 11.3261723,0 H 10.411289 V -7.3580234 h 1.804688 v 1.0429687 c 0.310546,-0.4921875 0.588867,-0.8144531 0.832031,-0.9726562 0.249023,-0.1640625 0.533203,-0.2460938 0.855469,-0.2460938 0.436523,0 0.861328,0.1259766 1.277343,0.375 l -0.597656,1.6992188 c -0.328125,-0.2167969 -0.638672,-0.328125 -0.925781,-0.328125 -0.266602,0 -0.498047,0.079102 -0.691406,0.234375 -0.1875,0.149414 -0.336914,0.421875 -0.445313,0.8203125 -0.111328,0.3925781 -0.164062,1.2128906 -0.164062,2.4609375 z m 5.522461,0 H 15.93375 V -7.3580234 h 1.804688 v 1.0429687 c 0.310546,-0.4921875 0.588867,-0.8144531 0.832031,-0.9726562 0.249023,-0.1640625 0.533203,-0.2460938 0.855469,-0.2460938 0.436523,0 0.861328,0.1259766 1.277343,0.375 l -0.597656,1.6992188 c -0.328125,-0.2167969 -0.638672,-0.328125 -0.925781,-0.328125 -0.266602,0 -0.498047,0.079102 -0.691406,0.234375 -0.1875,0.149414 -0.336915,0.421875 -0.445313,0.8203125 -0.111328,0.3925781 -0.164062,1.2128906 -0.164062,2.4609375 z m 3.216796,-3.78515626 c 0,-0.6474609 0.155274,-1.2714844 0.46875,-1.875 0.319336,-0.609375 0.773438,-1.0722656 1.359375,-1.3945312 0.585938,-0.319336 1.236329,-0.4804688 1.957032,-0.4804688 1.116211,0 2.030273,0.3632813 2.742187,1.0898438 0.708985,0.7265625 1.066406,1.640625 1.066406,2.7421875 0,1.1191406 -0.360351,2.0449218 -1.078125,2.77734371 -0.720703,0.7265625 -1.625976,1.08984375 -2.71875,1.08984375 -0.673828,0 -1.318359,-0.15234375 -1.933593,-0.45703125 -0.609375,-0.3046875 -1.075196,-0.75000001 -1.394532,-1.33593751 -0.313476,-0.5917969 -0.46875,-1.3125 -0.46875,-2.15625 z m 1.992188,0.1054688 c 0,0.7265625 0.169922,1.2861328 0.515625,1.6757812 0.351562,0.3925781 0.779297,0.5859375 1.289062,0.5859375 0.506836,0 0.931641,-0.1933594 1.277344,-0.5859375 0.342774,-0.3896484 0.515625,-0.9521484 0.515625,-1.6875 0,-0.7265625 -0.172851,-1.2802734 -0.515625,-1.6640625 -0.345703,-0.3896484 -0.770508,-0.5859375 -1.277344,-0.5859375 -0.509765,0 -0.9375,0.1962891 -1.289062,0.5859375 -0.345703,0.3837891 -0.515625,0.9433594 -0.515625,1.6757813 z m 8.994141,3.67968746 H 30.136875 V -7.3580234 h 1.804688 v 1.0429687 c 0.310546,-0.4921875 0.588867,-0.8144531 0.832031,-0.9726562 0.249023,-0.1640625 0.533203,-0.2460938 0.855469,-0.2460938 0.436523,0 0.861328,0.1259766 1.277343,0.375 l -0.597656,1.6992188 c -0.328125,-0.2167969 -0.638672,-0.328125 -0.925781,-0.328125 -0.266602,0 -0.498047,0.079102 -0.691406,0.234375 -0.1875,0.149414 -0.336915,0.421875 -0.445313,0.8203125 -0.111328,0.3925781 -0.164062,1.2128906 -0.164062,2.4609375 z m 3.659179,-8.36718746 v -1.8046871 h 1.945313 v 1.8046871 z m 0,8.36718746 V -7.3580234 h 1.945313 v 7.35937496 z m 7.839844,-7.35937496 h 1.816406 v 1.078125 c 0.234375,-0.375 0.550781,-0.6738282 0.949219,-0.9023438 0.404297,-0.234375 0.855469,-0.3515625 1.347656,-0.3515625 0.858399,0 1.584961,0.3369141 2.179688,1.0078125 0.591797,0.6738281 0.890625,1.6054688 0.890625,2.8007813 0,1.2363281 -0.301758,2.1914062 -0.902344,2.87109371 -0.603516,0.6796875 -1.330078,1.01953125 -2.179688,1.01953125 -0.407226,0 -0.779296,-0.07910156 -1.113281,-0.234375 -0.328125,-0.1640625 -0.673828,-0.4453125 -1.03125,-0.84375 V 2.8021328 h -1.957031 z m 1.933594,3.5507812 c 0,0.8291016 0.164062,1.4414063 0.492187,1.8398438 0.328125,0.3925781 0.726563,0.5859375 1.195313,0.5859375 0.451172,0 0.826172,-0.178711 1.125,-0.5390625 0.304687,-0.366211 0.457031,-0.9638672 0.457031,-1.7929688 0,-0.7646484 -0.158203,-1.3359375 -0.46875,-1.7109375 -0.304688,-0.375 -0.688477,-0.5625 -1.148438,-0.5625 -0.477539,0 -0.873046,0.1845703 -1.183593,0.5507813 -0.313477,0.3691406 -0.46875,0.9111328 -0.46875,1.6289062 z m 11.065429,1.4648438 1.945313,0.328125 c -0.251953,0.711914 -0.644531,1.25390621 -1.183594,1.62890621 -0.539062,0.36914063 -1.21582,0.55078125 -2.027344,0.55078125 -1.283203,0 -2.226562,-0.41601562 -2.835937,-1.25390626 -0.492188,-0.6708984 -0.738281,-1.5175781 -0.738281,-2.5429687 0,-1.21875 0.319336,-2.1708985 0.960937,-2.859375 0.638672,-0.694336 1.447266,-1.0429688 2.425781,-1.0429688 1.092774,0 1.957032,0.3632813 2.589844,1.0898438 0.632813,0.7265625 0.9375,1.836914 0.914063,3.328125 h -4.886719 c 0.01465,0.5800781 0.169922,1.0283203 0.46875,1.3476562 0.304687,0.3222656 0.679687,0.4804688 1.125,0.4804688 0.304687,0 0.556641,-0.082031 0.761719,-0.2460938 0.210937,-0.1699219 0.36914,-0.4394531 0.480468,-0.8085937 z m 0.105469,-1.96875 c -0.0088,-0.5625 -0.152344,-0.9873047 -0.433594,-1.2773438 -0.27539,-0.2958984 -0.609375,-0.4453125 -1.007812,-0.4453125 -0.430664,0 -0.782227,0.1523438 -1.054688,0.4570313 -0.28125,0.3134765 -0.418945,0.7353515 -0.410156,1.265625 z m 5.390625,4.31249996 H 60.131016 V -7.3580234 h 1.804687 v 1.0429687 c 0.310547,-0.4921875 0.588867,-0.8144531 0.832031,-0.9726562 0.249024,-0.1640625 0.533204,-0.2460938 0.855469,-0.2460938 0.436524,0 0.861328,0.1259766 1.277344,0.375 l -0.597656,1.6992188 c -0.328125,-0.2167969 -0.638672,-0.328125 -0.925782,-0.328125 -0.266601,0 -0.498046,0.079102 -0.691406,0.234375 -0.1875,0.149414 -0.336914,0.421875 -0.445312,0.8203125 -0.111328,0.3925781 -0.164063,1.2128906 -0.164063,2.4609375 z m 10.081055,-5.19140626 -1.921875,0.3515625 c -0.06445,-0.3808594 -0.210938,-0.6708984 -0.445313,-0.8671875 -0.228515,-0.1933594 -0.524414,-0.2929687 -0.890625,-0.2929687 -0.486328,0 -0.873047,0.1699218 -1.160156,0.5039062 -0.290039,0.3369141 -0.433594,0.8994141 -0.433594,1.6875 0,0.8671875 0.143555,1.4853516 0.433594,1.8515625 0.295899,0.3603516 0.694336,0.5390625 1.195313,0.5390625 0.366211,0 0.667968,-0.1054687 0.902343,-0.3164062 0.240235,-0.2109375 0.410157,-0.5742188 0.503907,-1.0898438 l 1.910156,0.328125 c -0.196289,0.8759766 -0.580078,1.54101564 -1.148438,1.99218751 -0.5625,0.4453125 -1.318359,0.66796875 -2.261718,0.66796875 -1.078125,0 -1.939454,-0.33984375 -2.578125,-1.01953125 -0.641602,-0.67968751 -0.960938,-1.62011721 -0.960938,-2.82421871 0,-1.209961 0.319336,-2.15625 0.960938,-2.8359375 0.647461,-0.6796875 1.517578,-1.0195313 2.613281,-1.0195313 0.896484,0 1.608398,0.1962891 2.132812,0.5859375 0.530274,0.3837891 0.914063,0.9697266 1.148438,1.7578125 z m 5.739258,2.8476563 1.945312,0.328125 c -0.251953,0.711914 -0.644531,1.25390621 -1.183594,1.62890621 -0.539062,0.36914063 -1.21582,0.55078125 -2.027343,0.55078125 -1.283203,0 -2.226563,-0.41601562 -2.835938,-1.25390626 -0.492187,-0.6708984 -0.738281,-1.5175781 -0.738281,-2.5429687 0,-1.21875 0.319336,-2.1708985 0.960937,-2.859375 0.638672,-0.694336 1.447266,-1.0429688 2.425782,-1.0429688 1.092773,0 1.957031,0.3632813 2.589843,1.0898438 0.632813,0.7265625 0.9375,1.836914 0.914063,3.328125 h -4.886719 c 0.01465,0.5800781 0.169922,1.0283203 0.46875,1.3476562 0.304688,0.3222656 0.679688,0.4804688 1.125,0.4804688 0.304688,0 0.556641,-0.082031 0.761719,-0.2460938 0.210937,-0.1699219 0.369141,-0.4394531 0.480469,-0.8085937 z m 0.105468,-1.96875 c -0.0088,-0.5625 -0.152343,-0.9873047 -0.433593,-1.2773438 -0.275391,-0.2958984 -0.609375,-0.4453125 -1.007813,-0.4453125 -0.430664,0 -0.782226,0.1523438 -1.054687,0.4570313 -0.28125,0.3134765 -0.418946,0.7353515 -0.410157,1.265625 z M 88.232578,0.00135156 H 86.275547 V -3.7603672 c 0,-0.796875 -0.04395,-1.3066406 -0.128906,-1.5351562 -0.0791,-0.234375 -0.210938,-0.413086 -0.398438,-0.5390625 -0.1875,-0.131836 -0.416015,-0.1992188 -0.679687,-0.1992188 -0.336914,0 -0.638672,0.09375 -0.902344,0.28125 -0.266602,0.1816406 -0.451172,0.421875 -0.550781,0.7265625 -0.102539,0.3046875 -0.152344,0.8671875 -0.152344,1.6875 V 0.00135156 H 81.517734 V -7.3580234 h 1.804688 v 1.078125 c 0.647461,-0.834961 1.456055,-1.2539063 2.425781,-1.2539063 0.427735,0 0.823242,0.079102 1.183594,0.234375 0.357422,0.1582031 0.626953,0.3574219 0.808594,0.5976563 0.178711,0.243164 0.304687,0.515625 0.375,0.8203125 0.07617,0.3046875 0.117187,0.7382812 0.117187,1.3007812 z m 5.34668,-7.35937496 v 1.546875 h -1.324219 v 2.9648437 c 0,0.6035156 0.01172,0.9550781 0.03516,1.0546875 0.02344,0.1025391 0.07617,0.1845703 0.164063,0.2460938 0.09375,0.064453 0.205078,0.09375 0.339844,0.09375 0.178711,0 0.439453,-0.061524 0.785156,-0.1875 l 0.164062,1.51171871 c -0.454101,0.19335938 -0.969726,0.29296875 -1.546875,0.29296875 -0.351562,0 -0.667968,-0.0585938 -0.949218,-0.17578125 -0.28125,-0.1171875 -0.489258,-0.26953125 -0.621094,-0.45703125 -0.125977,-0.1875 -0.216797,-0.43945312 -0.269531,-0.76171876 -0.04102,-0.2255859 -0.05859,-0.6826172 -0.05859,-1.3710937 v -3.2109375 h -0.902344 v -1.546875 h 0.902344 v -1.4648438 l 1.957031,-1.1367187 v 2.6015625 z m 6.208008,7.35937496 V -1.1002109 c -0.275391,0.39257809 -0.629883,0.70019527 -1.066407,0.92578121 -0.439453,0.22558594 -0.899414,0.33984375 -1.382812,0.33984375 -0.492188,0 -0.9375,-0.10546875 -1.335938,-0.31640625 -0.392578,-0.21679687 -0.676757,-0.52148437 -0.855468,-0.91406251 -0.172852,-0.3984375 -0.257813,-0.9433594 -0.257813,-1.640625 v -4.6523437 h 1.957031 v 3.375 c 0,1.040039 0.03516,1.6757812 0.105469,1.9101562 0.07031,0.234375 0.199219,0.421875 0.386719,0.5625 0.193359,0.1347656 0.436523,0.1992188 0.726562,0.1992188 0.333985,0 0.632813,-0.087891 0.890625,-0.2695313 0.263672,-0.1875 0.445313,-0.4130859 0.539063,-0.6796875 0.09961,-0.2724609 0.152344,-0.9375 0.152344,-1.9921875 v -3.1054687 h 1.945309 v 7.35937496 z m 5.276364,-5.12109376 -1.76953,-0.3164062 c 0.20215,-0.7089844 0.54492,-1.2363282 1.03125,-1.5820313 0.4834,-0.3427734 1.20703,-0.515625 2.16797,-0.515625 0.86719,0 1.51172,0.1054688 1.93359,0.3164063 0.42774,0.2050781 0.7295,0.4658203 0.90235,0.7851562 0.16992,0.3134766 0.25781,0.890625 0.25781,1.734375 l -0.0234,2.2734375 c 0,0.6503906 0.0293,1.1308594 0.0937,1.44140626 0.0615,0.3046875 0.17871,0.6328125 0.35157,0.984375 h -1.92188 c -0.0557,-0.13183594 -0.11719,-0.32226562 -0.1875,-0.57421875 -0.0322,-0.1171875 -0.0557,-0.19335937 -0.0703,-0.234375 -0.33692,0.328125 -0.69727,0.57421875 -1.07813,0.73828125 -0.375,0.15527344 -0.77929,0.234375 -1.20703,0.234375 -0.75879,0 -1.35644,-0.20214844 -1.79297,-0.609375 -0.43945,-0.41308594 -0.65625,-0.93749996 -0.65625,-1.57031246 0,-0.413086 0.0967,-0.7792969 0.29297,-1.1015625 0.20215,-0.328125 0.4834,-0.5771485 0.84375,-0.75 0.35742,-0.178711 0.87305,-0.3310547 1.54688,-0.4570313 0.91406,-0.1699219 1.54687,-0.3310547 1.89843,-0.4804687 v -0.1992188 c 0,-0.375 -0.0937,-0.6386719 -0.28125,-0.796875 -0.1875,-0.1552734 -0.53613,-0.234375 -1.04296,-0.234375 -0.35157,0 -0.62696,0.067383 -0.82032,0.1992188 -0.1875,0.1347656 -0.3457,0.3720703 -0.46875,0.7148437 z m 2.61328,1.5820313 c -0.25195,0.087891 -0.65039,0.1875 -1.19531,0.3046875 -0.53906,0.1113281 -0.89062,0.2226562 -1.05469,0.3398437 -0.25781,0.1816406 -0.38671,0.4072266 -0.38671,0.6796875 0,0.2753906 0.0996,0.5126953 0.30468,0.7148438 0.21094,0.196289 0.47168,0.2929687 0.78516,0.2929687 0.35156,0 0.68555,-0.1171875 1.00781,-0.3515625 0.23438,-0.1699219 0.38672,-0.3867187 0.45703,-0.6445312 0.0527,-0.1640625 0.082,-0.4804688 0.082,-0.9492188 z m 3.83204,3.53906246 V -10.170523 h 1.94531 V 0.00135156 Z m 3.94628,-8.36718746 v -1.8046871 h 1.94532 v 1.8046871 z m 0,8.36718746 V -7.3580234 h 1.94532 v 7.35937496 z m 9.75879,0 h -1.94531 V -7.3580234 h 1.80469 v 1.0429687 c 0.31055,-0.4921875 0.58887,-0.8144531 0.83203,-0.9726562 0.24902,-0.1640625 0.5332,-0.2460938 0.85547,-0.2460938 0.43652,0 0.86133,0.1259766 1.27734,0.375 l -0.59765,1.6992188 c -0.32813,-0.2167969 -0.63868,-0.328125 -0.92579,-0.328125 -0.2666,0 -0.49804,0.079102 -0.6914,0.234375 -0.1875,0.149414 -0.33692,0.421875 -0.44531,0.8203125 -0.11133,0.3925781 -0.16407,1.2128906 -0.16407,2.4609375 z m 3.66211,-8.36718746 v -1.8046871 h 1.94532 v 1.8046871 z m 0,8.36718746 V -7.3580234 h 1.94532 v 7.35937496 z m 10.3711,-5.19140626 -1.92188,0.3515625 c -0.0644,-0.3808594 -0.21094,-0.6708984 -0.44531,-0.8671875 -0.22852,-0.1933594 -0.52442,-0.2929687 -0.89063,-0.2929687 -0.48632,0 -0.87304,0.1699218 -1.16015,0.5039062 -0.29004,0.3369141 -0.4336,0.8994141 -0.4336,1.6875 0,0.8671875 0.14356,1.4853516 0.4336,1.8515625 0.2959,0.3603516 0.69433,0.5390625 1.19531,0.5390625 0.36621,0 0.66797,-0.1054687 0.90234,-0.3164062 0.24024,-0.2109375 0.41016,-0.5742188 0.50391,-1.0898438 l 1.91016,0.328125 c -0.19629,0.8759766 -0.58008,1.54101564 -1.14844,1.99218751 -0.5625,0.4453125 -1.31836,0.66796875 -2.26172,0.66796875 -1.07812,0 -1.93945,-0.33984375 -2.57812,-1.01953125 -0.64161,-0.67968751 -0.96094,-1.62011721 -0.96094,-2.82421871 0,-1.209961 0.31933,-2.15625 0.96094,-2.8359375 0.64746,-0.6796875 1.51757,-1.0195313 2.61328,-1.0195313 0.89648,0 1.60839,0.1962891 2.13281,0.5859375 0.53027,0.3837891 0.91406,0.9697266 1.14844,1.7578125 z m 1.02832,1.40625 c 0,-0.6474609 0.15527,-1.2714844 0.46875,-1.875 0.31933,-0.609375 0.77343,-1.0722656 1.35937,-1.3945312 0.58594,-0.319336 1.23633,-0.4804688 1.95703,-0.4804688 1.11621,0 2.03028,0.3632813 2.74219,1.0898438 0.70898,0.7265625 1.06641,1.640625 1.06641,2.7421875 0,1.1191406 -0.36035,2.0449218 -1.07813,2.77734371 -0.7207,0.7265625 -1.62597,1.08984375 -2.71875,1.08984375 -0.67383,0 -1.31836,-0.15234375 -1.93359,-0.45703125 -0.60938,-0.3046875 -1.0752,-0.75000001 -1.39453,-1.33593751 -0.31348,-0.5917969 -0.46875,-1.3125 -0.46875,-2.15625 z m 1.99218,0.1054688 c 0,0.7265625 0.16993,1.2861328 0.51563,1.6757812 0.35156,0.3925781 0.7793,0.5859375 1.28906,0.5859375 0.50684,0 0.93164,-0.1933594 1.27735,-0.5859375 0.34277,-0.3896484 0.51562,-0.9521484 0.51562,-1.6875 0,-0.7265625 -0.17285,-1.2802734 -0.51562,-1.6640625 -0.34571,-0.3896484 -0.77051,-0.5859375 -1.27735,-0.5859375 -0.50976,0 -0.9375,0.1962891 -1.28906,0.5859375 -0.3457,0.3837891 -0.51563,0.9433594 -0.51563,1.6757813 z m 6.43946,1.5820312 1.95703,-0.3046875 c 0.085,0.3837891 0.25195,0.6738281 0.5039,0.8671875 0.25782,0.1962891 0.61524,0.2929688 1.07813,0.2929688 0.49805,0 0.87891,-0.09375 1.13672,-0.28125 0.16992,-0.1230469 0.25781,-0.2958985 0.25781,-0.515625 0,-0.1464844 -0.0469,-0.2695313 -0.14062,-0.3632813 -0.10254,-0.09375 -0.32227,-0.1787109 -0.65625,-0.2578125 -1.57032,-0.3515625 -2.56641,-0.6679687 -2.98829,-0.9492187 -0.58593,-0.3984375 -0.8789,-0.9521485 -0.8789,-1.6640625 0,-0.6328125 0.24902,-1.1660157 0.75,-1.6054688 0.50683,-0.4365234 1.29199,-0.65625 2.35547,-0.65625 1.00781,0 1.75195,0.1640625 2.23828,0.4921875 0.49219,0.328125 0.83203,0.8173828 1.01953,1.4648438 l -1.83984,0.3398437 c -0.0791,-0.2871094 -0.22852,-0.5068359 -0.44532,-0.65625 -0.21972,-0.1552734 -0.5332,-0.234375 -0.9375,-0.234375 -0.51562,0 -0.88476,0.070312 -1.10156,0.2109375 -0.14941,0.1025391 -0.22266,0.234375 -0.22266,0.3984375 0,0.140625 0.0645,0.2578125 0.19922,0.3515625 0.16993,0.1347656 0.77637,0.3164063 1.81641,0.5507813 1.03711,0.234375 1.76074,0.524414 2.16797,0.8671875 0.4043,0.3457031 0.60937,0.8291015 0.60937,1.453125 0,0.6738281 -0.28125,1.2509765 -0.84375,1.73437496 -0.5625,0.48632813 -1.39453,0.7265625 -2.49609,0.7265625 -1.00781,0 -1.80469,-0.20214844 -2.39063,-0.609375 -0.58593,-0.40429687 -0.96972,-0.95507816 -1.14843,-1.65234376 z m 11.96191,-5.2617187 v 1.546875 h -1.32422 v 2.9648437 c 0,0.6035156 0.0117,0.9550781 0.0352,1.0546875 0.0234,0.1025391 0.0762,0.1845703 0.16406,0.2460938 0.0937,0.064453 0.20508,0.09375 0.33985,0.09375 0.17871,0 0.43945,-0.061524 0.78515,-0.1875 l 0.16406,1.51171871 c -0.4541,0.19335938 -0.96972,0.29296875 -1.54687,0.29296875 -0.35156,0 -0.66797,-0.0585938 -0.94922,-0.17578125 -0.28125,-0.1171875 -0.48926,-0.26953125 -0.62109,-0.45703125 -0.12598,-0.1875 -0.2168,-0.43945312 -0.26953,-0.76171876 -0.041,-0.2255859 -0.0586,-0.6826172 -0.0586,-1.3710937 v -3.2109375 h -0.90234 v -1.546875 h 0.90234 v -1.4648438 l 1.95703,-1.1367187 v 2.6015625 z m 3.2168,7.35937496 h -1.94531 V -7.3580234 h 1.80468 v 1.0429687 c 0.31055,-0.4921875 0.58887,-0.8144531 0.83203,-0.9726562 0.24903,-0.1640625 0.53321,-0.2460938 0.85547,-0.2460938 0.43653,0 0.86133,0.1259766 1.27735,0.375 l -0.59766,1.6992188 c -0.32812,-0.2167969 -0.63867,-0.328125 -0.92578,-0.328125 -0.2666,0 -0.49805,0.079102 -0.69141,0.234375 -0.1875,0.149414 -0.33691,0.421875 -0.44531,0.8203125 -0.11133,0.3925781 -0.16406,1.2128906 -0.16406,2.4609375 z m 8.51367,0 V -1.1002109 c -0.27539,0.39257809 -0.62988,0.70019527 -1.06641,0.92578121 -0.43945,0.22558594 -0.89941,0.33984375 -1.38281,0.33984375 -0.49219,0 -0.9375,-0.10546875 -1.33594,-0.31640625 -0.39257,-0.21679687 -0.67675,-0.52148437 -0.85546,-0.91406251 -0.17286,-0.3984375 -0.25782,-0.9433594 -0.25782,-1.640625 v -4.6523437 h 1.95703 v 3.375 c 0,1.040039 0.0352,1.6757812 0.10547,1.9101562 0.0703,0.234375 0.19922,0.421875 0.38672,0.5625 0.19336,0.1347656 0.43652,0.1992188 0.72656,0.1992188 0.33399,0 0.63282,-0.087891 0.89063,-0.2695313 0.26367,-0.1875 0.44531,-0.4130859 0.53906,-0.6796875 0.0996,-0.2724609 0.15235,-0.9375 0.15235,-1.9921875 v -3.1054687 h 1.94531 v 7.35937496 z m 3.04102,0 V -1.5220859 l 2.76562,-3.1640625 c 0.45117,-0.515625 0.78516,-0.881836 0.99609,-1.1015625 -0.22851,0.017578 -0.52441,0.023437 -0.89062,0.023437 l -2.60156,0.011719 v -1.6054687 h 6.09375 v 1.3710937 l -2.8125,3.2460938 -0.9961,1.078125 c 0.53907,-0.029297 0.87305,-0.046875 1.00782,-0.046875 h 3.01171 v 1.71093746 z m 7.88378,-8.36718746 v -1.8046871 h 1.94532 v 1.8046871 z m 0,8.36718746 V -7.3580234 h 1.94532 v 7.35937496 z m 3.50391,-3.78515626 c 0,-0.6474609 0.15527,-1.2714844 0.46875,-1.875 0.31934,-0.609375 0.77344,-1.0722656 1.35938,-1.3945312 0.58593,-0.319336 1.23632,-0.4804688 1.95703,-0.4804688 1.11621,0 2.03027,0.3632813 2.74218,1.0898438 0.70899,0.7265625 1.06641,1.640625 1.06641,2.7421875 0,1.1191406 -0.36035,2.0449218 -1.07812,2.77734371 -0.72071,0.7265625 -1.62598,1.08984375 -2.71875,1.08984375 -0.67383,0 -1.31836,-0.15234375 -1.9336,-0.45703125 -0.60937,-0.3046875 -1.07519,-0.75000001 -1.39453,-1.33593751 -0.31348,-0.5917969 -0.46875,-1.3125 -0.46875,-2.15625 z m 1.99219,0.1054688 c 0,0.7265625 0.16992,1.2861328 0.51562,1.6757812 0.35157,0.3925781 0.7793,0.5859375 1.28907,0.5859375 0.50683,0 0.93164,-0.1933594 1.27734,-0.5859375 0.34277,-0.3896484 0.51562,-0.9521484 0.51562,-1.6875 0,-0.7265625 -0.17285,-1.2802734 -0.51562,-1.6640625 -0.3457,-0.3896484 -0.77051,-0.5859375 -1.27734,-0.5859375 -0.50977,0 -0.9375,0.1962891 -1.28907,0.5859375 -0.3457,0.3837891 -0.51562,0.9433594 -0.51562,1.6757813 z m 13.83398,3.67968746 h -1.95703 V -3.7603672 c 0,-0.796875 -0.0439,-1.3066406 -0.1289,-1.5351562 -0.0791,-0.234375 -0.21094,-0.413086 -0.39844,-0.5390625 -0.1875,-0.131836 -0.41602,-0.1992188 -0.67969,-0.1992188 -0.33691,0 -0.63867,0.09375 -0.90234,0.28125 -0.2666,0.1816406 -0.45118,0.421875 -0.55078,0.7265625 -0.10254,0.3046875 -0.15235,0.8671875 -0.15235,1.6875 v 3.33984376 h -1.94531 V -7.3580234 h 1.80469 v 1.078125 c 0.64746,-0.834961 1.45605,-1.2539063 2.42578,-1.2539063 0.42773,0 0.82324,0.079102 1.18359,0.234375 0.35742,0.1582031 0.62695,0.3574219 0.8086,0.5976563 0.17871,0.243164 0.30468,0.515625 0.375,0.8203125 0.0762,0.3046875 0.11718,0.7382812 0.11718,1.3007812 z m 6.24024,-2.34374996 1.94531,0.328125 c -0.25195,0.711914 -0.64453,1.25390621 -1.18359,1.62890621 -0.53907,0.36914063 -1.21582,0.55078125 -2.02735,0.55078125 -1.2832,0 -2.22656,-0.41601562 -2.83594,-1.25390626 -0.49218,-0.6708984 -0.73828,-1.5175781 -0.73828,-2.5429687 0,-1.21875 0.31934,-2.1708985 0.96094,-2.859375 0.63867,-0.694336 1.44727,-1.0429688 2.42578,-1.0429688 1.09278,0 1.95703,0.3632813 2.58985,1.0898438 0.63281,0.7265625 0.9375,1.836914 0.91406,3.328125 h -4.88672 c 0.0146,0.5800781 0.16992,1.0283203 0.46875,1.3476562 0.30469,0.3222656 0.67969,0.4804688 1.125,0.4804688 0.30469,0 0.55664,-0.082031 0.76172,-0.2460938 0.21094,-0.1699219 0.36914,-0.4394531 0.48047,-0.8085937 z m 0.10547,-1.96875 c -0.009,-0.5625 -0.15235,-0.9873047 -0.4336,-1.2773438 -0.27539,-0.2958984 -0.60937,-0.4453125 -1.00781,-0.4453125 -0.43066,0 -0.78223,0.1523438 -1.05469,0.4570313 -0.28125,0.3134765 -0.41894,0.7353515 -0.41015,1.265625 z m 14.2207,4.31249996 h -1.80469 V -1.0767734 c -0.30469,0.42187496 -0.66211,0.73535152 -1.0664,0.93749996 -0.40723,0.20214844 -0.82032,0.3046875 -1.24219,0.3046875 -0.84375,0 -1.56738,-0.33984375 -2.16797,-1.01953125 -0.60352,-0.67968751 -0.90234,-1.63183591 -0.90234,-2.85937501 0,-1.2421875 0.29296,-2.1855469 0.8789,-2.8359375 0.58594,-0.65625 1.32715,-0.984375 2.22656,-0.984375 0.82032,0 1.5293,0.3457031 2.13282,1.03125 v -3.6679683 h 1.94531 z m -5.19141,-3.84374996 c 0,0.7910156 0.10547,1.359375 0.31641,1.7109375 0.31934,0.5097656 0.76172,0.7617187 1.32422,0.7617187 0.44531,0 0.82324,-0.1904297 1.13672,-0.5742187 0.31933,-0.3808594 0.48047,-0.9521485 0.48047,-1.7109375 0,-0.84375 -0.15235,-1.4472657 -0.45704,-1.8164063 -0.30468,-0.375 -0.69726,-0.5625 -1.17187,-0.5625 -0.46875,0 -0.86133,0.1845703 -1.17188,0.5507813 -0.30468,0.3691406 -0.45703,0.9140625 -0.45703,1.640625 z m 7.11914,-4.5234375 v -1.8046871 h 1.94532 v 1.8046871 z m 0,8.36718746 V -7.3580234 h 1.94532 v 7.35937496 z m 7.02832,0 V -1.8502109 l 5.34375,-6.5976563 h -4.73437 v -1.7226558 h 7.44141 v 1.6054683 l -5.57813,6.8554688 h 5.78906 v 1.71093746 z m 0,0"
       style="fill:#000000;fill-opacity:1;fill-rule:nonzero;stroke:none"
       aria-label="Errori percentuali ricostruzione di Z"
       transform="matrix(1.3333333,0,0,1.3333333,557.38,52.145333)"
       clip-path="url(#clipPath118)" />
  </g>
</svg>
