<svg xmlns="http://www.w3.org/2000/svg" xmlns:xlink="http://www.w3.org/1999/xlink" width="756" height="217pt" viewBox="0 0 567 217"><path d="M0 217h566.929V.456H0z" fill="#fff" fill-rule="evenodd"/><path stroke-width=".4" stroke-miterlimit="10" fill="none" stroke="#fff" d="M0 217h566.929V.456H0z"/><path d="M5.67 214.835h272.125V2.622H5.67z" fill="#fff" fill-rule="evenodd"/><path stroke-width=".4" stroke-miterlimit="10" fill="none" stroke="#fff" d="M5.67 214.835h272.125V2.622H5.67z"/><path d="M32.882 193.613h217.7V23.843h-217.7z" fill="#fff" fill-rule="evenodd"/><path stroke-width=".4" stroke-miterlimit="10" fill="none" stroke="#fff" d="M32.882 193.613h217.7V23.843h-217.7z"/><path stroke-width=".75" stroke-miterlimit="10" fill="none" stroke="#000" d="M32.882 193.613h217.7V23.843h-217.7z"/><path d="M32.882 193.613h217.7V23.843h-217.7z" fill="#fff" fill-rule="evenodd"/><path stroke-width=".4" stroke-miterlimit="10" fill="none" stroke="#fff" d="M32.882 193.613h217.7V23.843h-217.7z"/><path stroke-width=".75" stroke-miterlimit="10" fill="none" stroke="#000" d="M32.882 193.613h217.7V23.843h-217.7z"/><path stroke-width="1.5" stroke-miterlimit="10" fill="none" stroke="#00f" d="M32.882 187.74h1.742v.345h3.483v-.69h1.741v-.346h1.742v1.036h1.741v.346h1.742v-1.037h3.483v1.037h1.742v-1.037h3.483v1.728h1.742v-2.073h1.741v3.455h1.742v-3.8h1.742v-1.382h1.741v2.763h1.742v-1.727h1.741v-1.036h1.742v1.036h1.742v-.69h1.741v-.692h1.742v-.69h1.741v1.727h3.484v-2.073h1.741v2.764h1.742v-.691h1.741v2.072h1.742v-2.763h1.742v-2.073h1.741v-2.419h1.742v-6.218h1.742V152.5h1.741V93.423h1.742V31.927h1.741v15.892h1.742v46.986h1.742v71.17h1.741v9.673h1.742v8.637h1.741v2.073h1.742v-.345h1.742v-.346h1.741v-1.382h1.742v.691h3.483v-2.073h1.742v4.492h1.741v-.346h1.742v-2.764h1.741v-1.727h1.742v3.8h1.742v-1.036h1.741v2.072h1.742v-3.109h1.741v.346h1.742v-2.764h1.742v-12.092h1.741V155.61h1.742v-13.128h1.741v3.454h1.742v13.129h1.742v18.31h1.741v4.492h1.742v4.146h1.742v1.036h1.741v.691h1.742v-2.073h1.741v-6.219h1.742v-1.382h1.742v-10.019h1.741v-11.746h1.742v4.491h1.741v.691h1.742v11.056h1.742v4.491h1.741v11.401h1.742v-1.037h1.741v1.037h1.742v2.073h1.742v-1.382h1.741v1.036h1.742v.346h1.741v1.382h1.742v-1.728h1.742v2.073h1.741v-1.036h1.742v.69h1.741v-1.036h1.742v-.345h1.742v-1.037h1.741v1.037h1.742v-1.037h1.741v2.073h1.742v.346h1.742v-.691h1.741v.69h1.742v1.383h1.742v-.346h1.741v.691h3.483v-.345h1.742v.345h24.382v-.69h1.742v.69h10.45"/><path d="M196.157 34.453h54.425v-10.61h-54.425z" fill="#fff" fill-rule="evenodd"/><path stroke-width=".4" stroke-miterlimit="10" fill="none" stroke="#fff" d="M196.157 34.453h54.425v-10.61h-54.425z"/><path stroke-width=".75" stroke-miterlimit="10" fill="none" stroke="#000" d="M196.157 34.453h54.426M250.583 34.453v-10.61M250.583 23.843h-54.426M196.157 23.843v10.61"/><clipPath id="a"><path transform="matrix(1 0 0 -1 0 217)" d="M5.67 2.165h272.125v212.213H5.67z"/></clipPath><g clip-path="url(#a)"><symbol id="b"><path d="M.15.314h.349v.125H.15v.165h.377v.125H0V0h.545v.125H.15v.189z"/></symbol><symbol id="c"><path d="M0 .54V0h.14v.324C.14.388.184.43.253.43c.06 0 .09-.033.09-.097V0h.14v.362c0 .12-.065.187-.181.187A.176.176 0 0 1 .14.462V.54H0z"/></symbol><symbol id="d"><path d="M.287.552H.209v.145h-.14V.552H0V.459h.069V.127C.069.042.114 0 .206 0c.032 0 .055.003.081.011v.098C.273.107.266.106.255.106.218.106.209.117.209.165v.294h.078v.093z"/></symbol><symbol id="e"><path d="M0 .54V0h.14v.287C.14.369.181.41.263.41A.247.247 0 0 0 .307.406v.142L.29.549C.226.549.171.507.14.434V.54H0z"/></symbol><symbol id="f"><path d="M.14.54H0V0h.14v.54m0 .189H0V.604h.14v.125z"/></symbol><symbol id="g"><path d="M.502.249a.452.452 0 0 1-.02.166.237.237 0 0 1-.232.157C.095.572 0 .46 0 .279 0 .106.094 0 .247 0c.121 0 .219.068.25.175H.359C.342.132.303.107.252.107A.106.106 0 0 0 .16.154C.147.174.142.198.14.249h.362m-.36.093c.009.083.044.123.106.123C.312.465.35.422.357.342H.142z"/></symbol><symbol id="h"><path d="M.476.389C.474.503.386.572.241.572.104.572.019.503.019.392a.13.13 0 0 1 .03-.088C.068.285.085.276.137.259L.304.207C.339.196.351.185.351.163.351.13.312.11.247.11.21.11.182.116.164.129.149.14.143.151.137.18H0C.004.061.091 0 .255 0 .33 0 .387.016.427.048.467.08.491.13.491.183c0 .07-.035.115-.106.136L.208.37C.169.382.159.39.159.412c0 .03.032.05.081.05.067 0 .1-.024.101-.073h.135z"/></symbol><symbol id="i"><path d="M0 0z"/></symbol><use xlink:href="#b" transform="matrix(6.94746 0 0 -6.94746 199.416 32.022)"/><use xlink:href="#c" transform="matrix(6.94746 0 0 -6.94746 203.939 32.022)"/><use xlink:href="#d" transform="matrix(6.94746 0 0 -6.94746 207.843 32.182)"/><use xlink:href="#e" transform="matrix(6.94746 0 0 -6.94746 210.497 32.022)"/><use xlink:href="#f" transform="matrix(6.94746 0 0 -6.94746 213.227 32.022)"/><use xlink:href="#g" transform="matrix(6.94746 0 0 -6.94746 214.846 32.182)"/><use xlink:href="#h" transform="matrix(6.94746 0 0 -6.94746 218.758 32.182)"/><use xlink:href="#i" transform="matrix(6.94746 0 0 -6.94746 222.419 32.022)"/></g><clipPath id="j"><path transform="matrix(1 0 0 -1 0 217)" d="M5.67 2.165h272.125v212.213H5.67z"/></clipPath><g clip-path="url(#j)"><symbol id="k"><path d="M.498.273H.424v.436H.259L0 .275V.157h.284V0h.14v.157h.074v.116m-.214 0H.099l.185.303V.273z"/></symbol><symbol id="l"><path d="M.01.189C.013.08.105 0 .227 0a.22.22 0 0 1 .202.11c.037.063.059.17.059.284a.464.464 0 0 1-.049.238.224.224 0 0 1-.2.116C.097.748 0 .646 0 .498 0 .352.086.252.212.252c.036 0 .07.01.092.026a.248.248 0 0 1 .044.044C.348.185.31.12.231.12.181.12.148.147.145.189H.01m.225.445c.068 0 .11-.052.11-.136C.345.42.302.368.237.368.173.368.133.418.133.5s.039.134.102.134z"/></symbol><symbol id="m"><path d="M.244.747A.22.22 0 0 1 .06.656C.019.601 0 .511 0 .373 0 .247.016.159.05.105A.22.22 0 0 1 .244 0a.22.22 0 0 1 .184.09c.04.055.06.146.06.279 0 .13-.016.218-.05.273a.22.22 0 0 1-.194.105m0-.113C.28.634.309.614.326.577A.635.635 0 0 0 .348.372.717.717 0 0 0 .33.185C.314.143.284.12.244.12.207.12.179.139.162.175A.604.604 0 0 0 .14.374a.75.75 0 0 0 .018.193C.173.61.204.634.244.634z"/></symbol><use xlink:href="#i" transform="matrix(6.94746 0 0 -6.94746 229.802 31.391)"/><use xlink:href="#k" transform="matrix(6.94746 0 0 -6.94746 231.9 31.391)"/><use xlink:href="#l" transform="matrix(6.94746 0 0 -6.94746 235.79 31.558)"/><use xlink:href="#m" transform="matrix(6.94746 0 0 -6.94746 239.66 31.55)"/><use xlink:href="#m" transform="matrix(6.94746 0 0 -6.94746 243.523 31.55)"/></g><path stroke-width=".75" stroke-miterlimit="10" fill="none" stroke="#000" d="M32.882 193.613h217.701M32.882 188.52v5.093M37.236 191.067v2.546M41.59 191.067v2.546M45.944 191.067v2.546M50.298 191.067v2.546M54.652 188.52v5.093M59.006 191.067v2.546M63.36 191.067v2.546M67.714 191.067v2.546M72.068 191.067v2.546M76.422 188.52v5.093M80.776 191.067v2.546M85.13 191.067v2.546M89.484 191.067v2.546M93.838 191.067v2.546M98.192 188.52v5.093M102.546 191.067v2.546M106.9 191.067v2.546M111.254 191.067v2.546M115.608 191.067v2.546M119.962 188.52v5.093M124.316 191.067v2.546M128.67 191.067v2.546M133.024 191.067v2.546M137.378 191.067v2.546M141.732 188.52v5.093M146.086 191.067v2.546M150.44 191.067v2.546M154.794 191.067v2.546M159.148 191.067v2.546M163.502 188.52v5.093M167.856 191.067v2.546M172.21 191.067v2.546M176.564 191.067v2.546M180.918 191.067v2.546M185.272 188.52v5.093M189.626 191.067v2.546M193.98 191.067v2.546M198.334 191.067v2.546M202.689 191.067v2.546M207.043 188.52v5.093M211.397 191.067v2.546M215.751 191.067v2.546M220.105 191.067v2.546M224.459 191.067v2.546M228.813 188.52v5.093M233.167 191.067v2.546M237.521 191.067v2.546M241.875 191.067v2.546M246.229 191.067v2.546M250.583 188.52v5.093"/><clipPath id="n"><path transform="matrix(1 0 0 -1 0 217)" d="M5.67 2.165h272.125v212.213H5.67z"/></clipPath><g clip-path="url(#n)"><symbol id="o"><path d="M.299.175V0h.088v.175h.105v.079H.387v.469H.322L0 .268V.175h.299m0 .079H.077l.222.319V.254z"/></symbol><use xlink:href="#o" transform="matrix(6.94746 0 0 -6.94746 31.13 200.586)"/></g><clipPath id="p"><path transform="matrix(1 0 0 -1 0 217)" d="M5.67 2.165h272.125v212.213H5.67z"/></clipPath><g clip-path="url(#p)"><symbol id="q"><path d="M.441.732H.075L.022.346h.081c.041.049.075.066.131.066.095 0 .154-.065.154-.17C.388.14.329.078.233.078.156.078.109.117.088.197H0C.012.139.022.111.043.085A.236.236 0 0 1 .235 0c.143 0 .243.104.243.254C.478.394.385.49.249.49A.208.208 0 0 1 .118.447l.028.198h.295v.087z"/></symbol><use xlink:href="#q" transform="matrix(6.94746 0 0 -6.94746 52.643 200.745)"/></g><clipPath id="r"><path transform="matrix(1 0 0 -1 0 217)" d="M5.67 2.165h272.125v212.213H5.67z"/></clipPath><g clip-path="url(#r)"><symbol id="s"><path d="M.455.558C.438.676.362.746.254.746a.223.223 0 0 1-.19-.103A.52.52 0 0 1 0 .353C0 .231.017.154.06.09A.2.2 0 0 1 .238 0C.373 0 .47.101.47.242.47.375.38.469.253.469A.189.189 0 0 1 .09.39c.001.179.057.278.158.278.062 0 .105-.04.119-.11h.088M.242.391C.327.391.38.331.38.235.38.144.32.078.239.078.157.078.095.147.095.239c0 .09.06.152.147.152z"/></symbol><use xlink:href="#s" transform="matrix(6.94746 0 0 -6.94746 74.795 200.745)"/></g><clipPath id="t"><path transform="matrix(1 0 0 -1 0 217)" d="M5.67 2.165h272.125v212.213H5.67z"/></clipPath><g clip-path="url(#t)"><symbol id="u"><path d="M.474.709H0V.622h.383C.214.381.145.233.092 0h.094c.039.227.128.422.288.635v.074z"/></symbol><use xlink:href="#u" transform="matrix(6.94746 0 0 -6.94746 96.28 200.586)"/></g><clipPath id="v"><path transform="matrix(1 0 0 -1 0 217)" d="M5.67 2.165h272.125v212.213H5.67z"/></clipPath><g clip-path="url(#v)"><symbol id="w"><path d="M.354.404c.074.045.097.081.097.149 0 .114-.087.193-.213.193C.113.746.025.667.025.554c0-.069.023-.104.096-.15C.04.363 0 .304 0 .224 0 .092.097 0 .238 0c.14 0 .238.092.238.224 0 .08-.04.139-.122.18M.238.668C.313.668.361.623.361.551.361.483.312.438.238.438.163.438.115.483.115.553s.048.115.123.115m0-.304C.326.364.386.306.386.222.386.135.327.078.236.078.15.078.09.137.09.221c0 .086.059.143.148.143z"/></symbol><use xlink:href="#w" transform="matrix(6.94746 0 0 -6.94746 118.315 200.745)"/></g><clipPath id="x"><path transform="matrix(1 0 0 -1 0 217)" d="M5.67 2.165h272.125v212.213H5.67z"/></clipPath><g clip-path="url(#x)"><symbol id="y"><path d="M.015.188C.032.07.108 0 .216 0c.079 0 .149.038.191.103a.529.529 0 0 1 .064.29.453.453 0 0 1-.06.263.204.204 0 0 1-.179.09C.097.746 0 .645 0 .505 0 .372.09.278.218.278c.067 0 .117.024.162.079C.379.177.323.078.222.078c-.062 0-.105.04-.119.11H.015m.216.481C.313.669.375.6.375.507.375.418.315.356.228.356.143.356.09.416.09.512c0 .091.059.157.141.157z"/></symbol><use xlink:href="#y" transform="matrix(6.94746 0 0 -6.94746 139.787 200.745)"/></g><clipPath id="z"><path transform="matrix(1 0 0 -1 0 217)" d="M5.67 2.165h272.125v212.213H5.67z"/></clipPath><g clip-path="url(#z)"><symbol id="A"><path d="M.157.515V0h.088v.723H.187C.156.612.136.597 0 .579V.515h.157z"/></symbol><symbol id="B"><path d="M.232.746A.203.203 0 0 1 .069.667C.023.603 0 .507 0 .373 0 .129.08 0 .232 0c.15 0 .232.129.232.367 0 .14-.022.234-.069.3a.2.2 0 0 1-.163.079m0-.078C.327.668.374.571.374.375.374.169.328.073.23.073c-.093 0-.14.1-.14.299 0 .199.047.296.142.296z"/></symbol><use xlink:href="#A" transform="matrix(6.94746 0 0 -6.94746 159.803 200.586)"/><use xlink:href="#B" transform="matrix(6.94746 0 0 -6.94746 163.256 200.745)"/></g><clipPath id="C"><path transform="matrix(1 0 0 -1 0 217)" d="M5.67 2.165h272.125v212.213H5.67z"/></clipPath><g clip-path="url(#C)"><use xlink:href="#A" transform="matrix(6.94746 0 0 -6.94746 182.53 200.586)"/><use xlink:href="#A" transform="matrix(6.94746 0 0 -6.94746 186.392 200.586)"/></g><clipPath id="D"><path transform="matrix(1 0 0 -1 0 217)" d="M5.67 2.165h272.125v212.213H5.67z"/></clipPath><g clip-path="url(#D)"><symbol id="E"><path d="M.472.086H.099c.009.06.041.098.128.151l.1.056c.099.055.15.129.15.218a.21.21 0 0 1-.066.155.227.227 0 0 1-.161.056C.16.722.093.69.054.628A.282.282 0 0 1 .016.472h.088a.257.257 0 0 0 .021.102.135.135 0 0 0 .122.071c.08 0 .14-.058.14-.136C.387.451.354.401.291.365L.199.311C.051.226.008.158 0 0h.472v.086z"/></symbol><use xlink:href="#A" transform="matrix(6.94746 0 0 -6.94746 203.364 200.586)"/><use xlink:href="#E" transform="matrix(6.94746 0 0 -6.94746 206.754 200.579)"/></g><clipPath id="F"><path transform="matrix(1 0 0 -1 0 217)" d="M5.67 2.165h272.125v212.213H5.67z"/></clipPath><g clip-path="url(#F)"><symbol id="G"><path d="M.189.356h.048C.333.356.384.311.384.224.384.133.329.078.238.078c-.097 0-.144.049-.15.155H0A.307.307 0 0 1 .031.105C.068.035.137 0 .234 0c.146 0 .24.088.24.225 0 .092-.035.142-.12.172.066.027.099.077.099.15 0 .124-.081.199-.216.199C.094.746.018.666.015.513h.088a.206.206 0 0 0 .016.091c.02.041.064.065.119.065.078 0 .125-.047.125-.125C.363.493.345.462.306.445A.326.326 0 0 0 .189.43V.356z"/></symbol><use xlink:href="#A" transform="matrix(6.94746 0 0 -6.94746 225.46 200.586)"/><use xlink:href="#G" transform="matrix(6.94746 0 0 -6.94746 228.836 200.745)"/></g><clipPath id="H"><path transform="matrix(1 0 0 -1 0 217)" d="M5.67 2.165h272.125v212.213H5.67z"/></clipPath><g clip-path="url(#H)"><use xlink:href="#A" transform="matrix(6.94746 0 0 -6.94746 246.925 200.586)"/><use xlink:href="#o" transform="matrix(6.94746 0 0 -6.94746 250.273 200.586)"/></g><clipPath id="I"><path transform="matrix(1 0 0 -1 0 217)" d="M5.67 2.165h272.125v212.213H5.67z"/></clipPath><g clip-path="url(#I)"><use xlink:href="#E" transform="matrix(5.0527 0 0 -5.0527 247.02 213.838)"/></g><clipPath id="J"><path transform="matrix(1 0 0 -1 0 217)" d="M5.67 2.165h272.125v212.213H5.67z"/></clipPath><g clip-path="url(#J)"><symbol id="K"><path d="M.457.219.532 0h.104L.38.729H.26L0 0h.099l.077.219h.281M.431.297H.199l.12.332.112-.332z"/></symbol><use xlink:href="#K" transform="matrix(8.21063 0 0 -8.21063 241.306 211.95)"/></g><path stroke-width=".75" stroke-miterlimit="10" fill="none" stroke="#000" d="M32.882 193.613V23.843M39.413 193.613h-6.531M36.147 190.158h-3.265M36.147 186.704h-3.265M36.147 183.249h-3.265M36.147 179.794h-3.265M39.413 176.339h-6.531M36.147 172.884h-3.265M36.147 169.43h-3.265M36.147 165.975h-3.265M36.147 162.52h-3.265M39.413 159.065h-6.531M36.147 155.61h-3.265M36.147 152.155h-3.265M36.147 148.7h-3.265M36.147 145.245h-3.265M39.413 141.79h-6.531M36.147 138.336h-3.265M36.147 134.881h-3.265M36.147 131.426h-3.265M36.147 127.971h-3.265M39.413 124.516h-6.531M36.147 121.062h-3.265M36.147 117.607h-3.265M36.147 114.152h-3.265M36.147 110.697h-3.265M39.413 107.242h-6.531M36.147 103.787h-3.265M36.147 100.333h-3.265M36.147 96.878h-3.265M36.147 93.423h-3.265M39.413 89.968h-6.531M36.147 86.513h-3.265M36.147 83.058h-3.265M36.147 79.604h-3.265M36.147 76.149h-3.265M39.413 72.694h-6.531M36.147 69.239h-3.265M36.147 65.784h-3.265M36.147 62.329h-3.265M36.147 58.875h-3.265M39.413 55.42h-6.531M36.147 51.965h-3.265M36.147 48.51h-3.265M36.147 45.055h-3.265M36.147 41.6h-3.265M39.413 38.146h-6.531M39.413 38.146h-6.531M36.147 34.691h-3.265M36.147 31.236h-3.265M36.147 27.781h-3.265M36.147 24.326h-3.265"/><clipPath id="L"><path transform="matrix(1 0 0 -1 0 217)" d="M5.67 2.165h272.125v212.213H5.67z"/></clipPath><g clip-path="url(#L)"><use xlink:href="#m" transform="matrix(8.21063 0 0 -8.21063 26.754 196.355)"/></g><clipPath id="M"><path transform="matrix(1 0 0 -1 0 217)" d="M5.67 2.165h272.125v212.213H5.67z"/></clipPath><g clip-path="url(#M)"><symbol id="N"><path d="M.462.732H.083L.02.337h.126c.015.035.047.054.09.054C.307.391.35.34.35.254.35.171.307.12.236.12.175.12.141.151.138.208H0C.002.084.096 0 .234 0 .386 0 .49.104.49.257.49.403.4.502.269.502A.187.187 0 0 1 .146.459l.023.148h.293v.125z"/></symbol><use xlink:href="#N" transform="matrix(8.21063 0 0 -8.21063 22.318 179.31)"/><use xlink:href="#m" transform="matrix(8.21063 0 0 -8.21063 26.9 179.31)"/></g><clipPath id="O"><path transform="matrix(1 0 0 -1 0 217)" d="M5.67 2.165h272.125v212.213H5.67z"/></clipPath><g clip-path="url(#O)"><symbol id="P"><path d="M.17.489V0h.14v.709H.217C.195.625.122.582 0 .582V.489h.17z"/></symbol><use xlink:href="#P" transform="matrix(8.21063 0 0 -8.21063 17.604 162.075)"/><use xlink:href="#m" transform="matrix(8.21063 0 0 -8.21063 21.849 162.264)"/><use xlink:href="#m" transform="matrix(8.21063 0 0 -8.21063 26.414 162.264)"/></g><clipPath id="Q"><path transform="matrix(1 0 0 -1 0 217)" d="M5.67 2.165h272.125v212.213H5.67z"/></clipPath><g clip-path="url(#Q)"><use xlink:href="#P" transform="matrix(8.21063 0 0 -8.21063 17.604 144.398)"/><use xlink:href="#N" transform="matrix(8.21063 0 0 -8.21063 21.833 144.587)"/><use xlink:href="#m" transform="matrix(8.21063 0 0 -8.21063 26.414 144.587)"/></g><clipPath id="R"><path transform="matrix(1 0 0 -1 0 217)" d="M5.67 2.165h272.125v212.213H5.67z"/></clipPath><g clip-path="url(#R)"><symbol id="S"><path d="M.482.125H.181C.2.163.222.184.326.259c.123.09.159.143.159.24C.485.636.39.724.242.724.095.724.009.637.009.487V.462h.135v.023c0 .079.037.125.101.125.062 0 .1-.043.1-.114C.345.417.321.388.163.276.043.194.006.132 0 0h.482v.125z"/></symbol><use xlink:href="#S" transform="matrix(8.21063 0 0 -8.21063 17.292 127.352)"/><use xlink:href="#m" transform="matrix(8.21063 0 0 -8.21063 21.849 127.54)"/><use xlink:href="#m" transform="matrix(8.21063 0 0 -8.21063 26.414 127.54)"/></g><clipPath id="T"><path transform="matrix(1 0 0 -1 0 217)" d="M5.67 2.165h272.125v212.213H5.67z"/></clipPath><g clip-path="url(#T)"><use xlink:href="#S" transform="matrix(8.21063 0 0 -8.21063 17.292 110.306)"/><use xlink:href="#N" transform="matrix(8.21063 0 0 -8.21063 21.833 110.495)"/><use xlink:href="#m" transform="matrix(8.21063 0 0 -8.21063 26.414 110.495)"/></g><clipPath id="U"><path transform="matrix(1 0 0 -1 0 217)" d="M5.67 2.165h272.125v212.213H5.67z"/></clipPath><g clip-path="url(#U)"><symbol id="V"><path d="M.188.34C.242.34.245.34.27.333A.105.105 0 0 0 .347.227C.347.164.303.12.242.12.176.12.14.158.136.231H0C.001.089.093 0 .239 0 .39 0 .487.089.487.227.487.31.451.364.371.403c.065.041.093.086.093.151 0 .118-.088.193-.225.193C.136.747.057.702.026.625A.275.275 0 0 1 .009.509h.13A.21.21 0 0 0 .15.584c.013.031.045.05.086.05C.292.634.324.6.324.541.324.469.283.434.2.434H.188V.34z"/></symbol><use xlink:href="#V" transform="matrix(8.21063 0 0 -8.21063 17.284 92.818)"/><use xlink:href="#m" transform="matrix(8.21063 0 0 -8.21063 21.849 92.818)"/><use xlink:href="#m" transform="matrix(8.21063 0 0 -8.21063 26.414 92.818)"/></g><clipPath id="W"><path transform="matrix(1 0 0 -1 0 217)" d="M5.67 2.165h272.125v212.213H5.67z"/></clipPath><g clip-path="url(#W)"><use xlink:href="#V" transform="matrix(8.21063 0 0 -8.21063 17.284 75.772)"/><use xlink:href="#N" transform="matrix(8.21063 0 0 -8.21063 21.833 75.772)"/><use xlink:href="#m" transform="matrix(8.21063 0 0 -8.21063 26.414 75.772)"/></g><clipPath id="X"><path transform="matrix(1 0 0 -1 0 217)" d="M5.67 2.165h272.125v212.213H5.67z"/></clipPath><g clip-path="url(#X)"><use xlink:href="#k" transform="matrix(8.21063 0 0 -8.21063 17.243 58.538)"/><use xlink:href="#m" transform="matrix(8.21063 0 0 -8.21063 21.849 58.727)"/><use xlink:href="#m" transform="matrix(8.21063 0 0 -8.21063 26.414 58.727)"/></g><clipPath id="Y"><path transform="matrix(1 0 0 -1 0 217)" d="M5.67 2.165h272.125v212.213H5.67z"/></clipPath><g clip-path="url(#Y)"><use xlink:href="#k" transform="matrix(8.21063 0 0 -8.21063 17.243 40.861)"/><use xlink:href="#N" transform="matrix(8.21063 0 0 -8.21063 21.833 41.05)"/><use xlink:href="#m" transform="matrix(8.21063 0 0 -8.21063 26.414 41.05)"/></g><clipPath id="Z"><path transform="matrix(1 0 0 -1 0 217)" d="M5.67 2.165h272.125v212.213H5.67z"/></clipPath><g clip-path="url(#Z)"><symbol id="aa"><path d="M.35.764A.324.324 0 0 1 .102.663.414.414 0 0 1 0 .382C0 .273.037.17.102.101A.321.321 0 0 1 .351 0C.455 0 .537.033.6.101a.416.416 0 0 1 .102.276A.416.416 0 0 1 .6.663a.319.319 0 0 1-.25.101M.351.636c.123 0 .201-.1.201-.258 0-.15-.081-.25-.201-.25-.122 0-.201.1-.201.254s.079.254.201.254z"/></symbol><symbol id="ab"><path d="M.488.361C.478.493.391.572.255.572.093.572 0 .466 0 .282 0 .104.093 0 .253 0c.131 0 .222.081.235.21H.354C.337.14.309.113.253.113.182.113.14.176.14.282c0 .052.01.099.027.131.016.03.047.046.087.046.057 0 .084-.027.1-.098h.134z"/></symbol><symbol id="ac"><path d="M.266.572C.101.572 0 .463 0 .286 0 .108.101 0 .267 0c.165 0 .267.108.267.282 0 .183-.099.29-.268.29M.267.459C.344.459.394.39.394.284.394.183.342.113.267.113.191.113.14.182.14.286c0 .104.051.173.127.173z"/></symbol><symbol id="ad"><path d="M.438.54h-.42V.427h.249L0 .113V0h.447v.113H.173l.265.314V.54z"/></symbol><use xlink:href="#i" transform="matrix(0 -8.21063 -8.21063 0 14.52 71.164)"/><use xlink:href="#aa" transform="matrix(0 -8.21063 -8.21063 0 14.71 68.553)"/><use xlink:href="#ab" transform="matrix(0 -8.21063 -8.21063 0 14.71 62.214)"/><use xlink:href="#ab" transform="matrix(0 -8.21063 -8.21063 0 14.71 57.65)"/><use xlink:href="#ac" transform="matrix(0 -8.21063 -8.21063 0 14.71 53.076)"/><use xlink:href="#e" transform="matrix(0 -8.21063 -8.21063 0 14.52 47.83)"/><use xlink:href="#e" transform="matrix(0 -8.21063 -8.21063 0 14.52 44.635)"/><use xlink:href="#g" transform="matrix(0 -8.21063 -8.21063 0 14.71 41.778)"/><use xlink:href="#c" transform="matrix(0 -8.21063 -8.21063 0 14.52 36.876)"/><use xlink:href="#ad" transform="matrix(0 -8.21063 -8.21063 0 14.52 32.205)"/><use xlink:href="#g" transform="matrix(0 -8.21063 -8.21063 0 14.71 28.091)"/></g><path d="M196.157 34.453h54.425v-10.61h-54.425z" fill="#fff" fill-rule="evenodd"/><path stroke-width=".4" stroke-miterlimit="10" fill="none" stroke="#fff" d="M196.157 34.453h54.425v-10.61h-54.425z"/><path stroke-width=".75" stroke-miterlimit="10" fill="none" stroke="#000" d="M196.157 34.453h54.426M250.583 34.453v-10.61M250.583 23.843h-54.426M196.157 23.843v10.61"/><clipPath id="ae"><path transform="matrix(1 0 0 -1 0 217)" d="M5.67 2.165h272.125v212.213H5.67z"/></clipPath><g clip-path="url(#ae)"><use xlink:href="#b" transform="matrix(6.94746 0 0 -6.94746 199.416 32.022)"/><use xlink:href="#c" transform="matrix(6.94746 0 0 -6.94746 203.939 32.022)"/><use xlink:href="#d" transform="matrix(6.94746 0 0 -6.94746 207.843 32.182)"/><use xlink:href="#e" transform="matrix(6.94746 0 0 -6.94746 210.497 32.022)"/><use xlink:href="#f" transform="matrix(6.94746 0 0 -6.94746 213.227 32.022)"/><use xlink:href="#g" transform="matrix(6.94746 0 0 -6.94746 214.846 32.182)"/><use xlink:href="#h" transform="matrix(6.94746 0 0 -6.94746 218.758 32.182)"/><use xlink:href="#i" transform="matrix(6.94746 0 0 -6.94746 222.419 32.022)"/></g><clipPath id="af"><path transform="matrix(1 0 0 -1 0 217)" d="M5.67 2.165h272.125v212.213H5.67z"/></clipPath><g clip-path="url(#af)"><use xlink:href="#i" transform="matrix(6.94746 0 0 -6.94746 229.802 31.391)"/><use xlink:href="#k" transform="matrix(6.94746 0 0 -6.94746 231.9 31.391)"/><use xlink:href="#l" transform="matrix(6.94746 0 0 -6.94746 235.79 31.558)"/><use xlink:href="#m" transform="matrix(6.94746 0 0 -6.94746 239.66 31.55)"/><use xlink:href="#m" transform="matrix(6.94746 0 0 -6.94746 243.523 31.55)"/></g><path d="M128.126 47.186h122.457V23.843H128.126z" fill="#fff" fill-rule="evenodd"/><path stroke-width=".4" stroke-miterlimit="10" fill="none" stroke="#fff" d="M128.126 47.186h122.457V23.843H128.126z"/><path stroke-width=".75" stroke-miterlimit="10" fill="none" stroke="#000" d="M128.126 47.186h122.457M250.583 47.186V23.843M250.583 23.843H128.126M128.126 23.843v23.343"/><clipPath id="ag"><path transform="matrix(1 0 0 -1 0 217)" d="M5.67 2.165h272.125v212.213H5.67z"/></clipPath><g clip-path="url(#ag)"><symbol id="ah"><path d="M.15.729H0V0h.499v.125H.15v.604z"/></symbol><symbol id="ai"><path d="M.359.758V.675C.32.738.277.767.22.767A.199.199 0 0 1 .082.704.32.32 0 0 1 0 .475c0-.166.088-.28.217-.28.058 0 .093.019.142.078V.2C.359.135.313.09.247.09.197.09.166.112.155.153H.011C.012.111.027.082.064.052A.274.274 0 0 1 .242 0c.156 0 .25.075.25.2v.558H.359M.246.65C.312.65.361.577.361.477.361.379.314.312.244.312.183.312.14.379.14.477.14.579.183.65.246.65z"/></symbol><symbol id="aj"><path d="M.376.023h.14v.729h-.14V.493a.162.162 0 0 1-.149.079C.098.572 0 .448 0 .285 0 .212.022.138.058.086A.21.21 0 0 1 .227 0c.068 0 .114.024.149.078V.023M.258.455C.329.455.376.387.376.283.376.185.328.117.258.117.188.117.14.186.14.285c0 .101.048.17.118.17z"/></symbol><symbol id="ak"><path d="M.496.04C.472.063.464.079.464.106v.3c0 .11-.075.166-.221.166C.097.572.021.51.012.385h.135c.007.056.03.074.099.074C.3.459.327.441.327.405A.048.048 0 0 0 .303.363C.284.353.284.353.215.342L.159.332C.052.314 0 .259 0 .162 0 .065.065 0 .164 0c.06 0 .114.025.164.077 0-.028.003-.038.016-.054h.152V.04m-.169.2C.327.159.287.113.216.113.169.113.14.138.14.178.14.22.162.24.22.252l.048.009a.176.176 0 0 1 .059.017V.24z"/></symbol><use xlink:href="#ah" transform="matrix(7.57905 0 0 -7.57905 131.29 32.022)"/><use xlink:href="#g" transform="matrix(7.57905 0 0 -7.57905 135.482 32.196)"/><use xlink:href="#ai" transform="matrix(7.57905 0 0 -7.57905 139.84 33.674)"/><use xlink:href="#g" transform="matrix(7.57905 0 0 -7.57905 144.326 32.196)"/><use xlink:href="#c" transform="matrix(7.57905 0 0 -7.57905 148.851 32.022)"/><use xlink:href="#aj" transform="matrix(7.57905 0 0 -7.57905 153.224 32.196)"/><use xlink:href="#ak" transform="matrix(7.57905 0 0 -7.57905 157.847 32.196)"/></g><clipPath id="al"><path transform="matrix(1 0 0 -1 0 217)" d="M5.67 2.165h272.125v212.213H5.67z"/></clipPath><g clip-path="url(#al)"><symbol id="am"><path d="M0 0h.285c.111 0 .181.026.231.085a.432.432 0 0 1 .088.28.436.436 0 0 1-.088.28C.466.704.397.729.285.729H0V0m.15.125v.479h.135c.113 0 .169-.079.169-.24C.454.204.398.125.285.125H.15z"/></symbol><symbol id="an"><path d="M0 .752V.023h.14v.055A.162.162 0 0 1 .289 0c.129 0 .227.123.227.286a.361.361 0 0 1-.058.199.21.21 0 0 1-.169.087A.16.16 0 0 1 .14.493v.259H0M.258.455c.069 0 .118-.07.118-.17C.376.186.328.117.258.117.187.117.14.184.14.288c0 .099.048.167.118.167z"/></symbol><symbol id="ao"><path d="M.483.023v.54h-.14V.225C.343.161.299.119.23.119.17.119.14.151.14.216v.347H0V.187C0 .067.065 0 .181 0c.073 0 .122.026.162.087V.023h.14z"/></symbol><symbol id="ap"><path d="M.14.758H0V0h.14v.282A.16.16 0 0 1 .29.194c.13 0 .226.122.226.286a.36.36 0 0 1-.058.202.213.213 0 0 1-.168.085.16.16 0 0 1-.15-.089v.08M.258.65C.329.65.376.582.376.478.376.379.328.311.258.311.187.311.14.379.14.48c0 .102.047.17.118.17z"/></symbol><symbol id="aq"><path d="M.14.729H0V0h.14v.729z"/></symbol><use xlink:href="#am" transform="matrix(7.57905 0 0 -7.57905 159.046 43.386)"/><use xlink:href="#f" transform="matrix(7.57905 0 0 -7.57905 164.442 43.386)"/><use xlink:href="#h" transform="matrix(7.57905 0 0 -7.57905 166.26 43.56)"/><use xlink:href="#d" transform="matrix(7.57905 0 0 -7.57905 170.361 43.56)"/><use xlink:href="#e" transform="matrix(7.57905 0 0 -7.57905 173.256 43.386)"/><use xlink:href="#f" transform="matrix(7.57905 0 0 -7.57905 176.235 43.386)"/><use xlink:href="#an" transform="matrix(7.57905 0 0 -7.57905 178.281 43.56)"/><use xlink:href="#ao" transform="matrix(7.57905 0 0 -7.57905 182.904 43.56)"/><use xlink:href="#ad" transform="matrix(7.57905 0 0 -7.57905 187.255 43.386)"/><use xlink:href="#f" transform="matrix(7.57905 0 0 -7.57905 191.393 43.386)"/><use xlink:href="#ac" transform="matrix(7.57905 0 0 -7.57905 193.257 43.56)"/><use xlink:href="#c" transform="matrix(7.57905 0 0 -7.57905 198.1 43.386)"/><use xlink:href="#g" transform="matrix(7.57905 0 0 -7.57905 202.42 43.56)"/><use xlink:href="#i" transform="matrix(7.57905 0 0 -7.57905 206.468 43.386)"/><use xlink:href="#ap" transform="matrix(7.57905 0 0 -7.57905 209.014 45.038)"/><use xlink:href="#e" transform="matrix(7.57905 0 0 -7.57905 213.683 43.386)"/><use xlink:href="#g" transform="matrix(7.57905 0 0 -7.57905 216.32 43.56)"/><use xlink:href="#i" transform="matrix(7.57905 0 0 -7.57905 220.368 43.386)"/><use xlink:href="#d" transform="matrix(7.57905 0 0 -7.57905 222.58 43.56)"/><use xlink:href="#ak" transform="matrix(7.57905 0 0 -7.57905 225.21 43.56)"/><use xlink:href="#ai" transform="matrix(7.57905 0 0 -7.57905 229.523 45.038)"/><use xlink:href="#aq" transform="matrix(7.57905 0 0 -7.57905 234.351 43.386)"/><use xlink:href="#f" transform="matrix(7.57905 0 0 -7.57905 236.458 43.386)"/><use xlink:href="#ac" transform="matrix(7.57905 0 0 -7.57905 238.322 43.56)"/></g><path stroke-width="1.5" stroke-miterlimit="10" fill="none" stroke="#00f" d="M132.718 41.35h21.43"/><path d="M132.382 17.476h18.7V6.866h-18.7z" fill="#fff" fill-rule="evenodd"/><path stroke-width=".4" stroke-miterlimit="10" fill="none" stroke="#fff" d="M132.382 17.476h18.7V6.866h-18.7z"/><clipPath id="ar"><path transform="matrix(1 0 0 -1 0 217)" d="M5.67 2.165h272.125v212.213H5.67z"/></clipPath><g clip-path="url(#ar)"><symbol id="as"><path d="M0 0h.328c.084 0 .14.016.184.053A.211.211 0 0 1 .584.21c0 .072-.038.129-.121.177.072.046.1.088.1.15a.19.19 0 0 1-.066.139C.454.713.403.729.325.729H0V0m.15.604h.163c.07 0 .106-.028.106-.082C.419.467.383.439.313.439H.15v.165m0-.29h.179C.402.314.44.282.44.219.44.157.402.125.329.125H.15v.189z"/></symbol><use xlink:href="#as" transform="matrix(8.21063 0 0 -8.21063 136.408 14.976)"/><use xlink:href="#g" transform="matrix(8.21063 0 0 -8.21063 141.844 15.165)"/></g><path d="M289.134 214.835H561.26V2.622H289.134z" fill="#fff" fill-rule="evenodd"/><path stroke-width=".4" stroke-miterlimit="10" fill="none" stroke="#fff" d="M289.134 214.835H561.26V2.622H289.134z"/><path d="M316.346 193.613h217.701V23.843H316.346z" fill="#fff" fill-rule="evenodd"/><path stroke-width=".4" stroke-miterlimit="10" fill="none" stroke="#fff" d="M316.346 193.613h217.701V23.843H316.346z"/><path stroke-width=".75" stroke-miterlimit="10" fill="none" stroke="#000" d="M316.346 193.613h217.701V23.843H316.346z"/><path d="M316.346 193.613h217.701V23.843H316.346z" fill="#fff" fill-rule="evenodd"/><path stroke-width=".4" stroke-miterlimit="10" fill="none" stroke="#fff" d="M316.346 193.613h217.701V23.843H316.346z"/><path stroke-width=".75" stroke-miterlimit="10" fill="none" stroke="#000" d="M316.346 193.613h217.701V23.843H316.346z"/><path stroke-width="1.5" stroke-miterlimit="10" fill="none" stroke="#00f" d="M316.346 193.613H363.37v-.855h1.741v.855h1.742v-1.283h1.742v1.283h1.741v-.855h1.742v-1.711h1.741v-7.272h1.742V165.81h1.742v-59.884h1.741V31.927h1.742v18.821h1.741v46.623h1.742v72.289h1.742v13.687h1.741v6.844h1.742v.428h1.742v-3.422h1.741v-1.283h3.483v-.428h1.742v.856h1.742v-2.567h1.741v5.56h1.742v-.427h1.741v-4.277h1.742v-.856h1.742v2.994h1.741v.428h1.742v.428h1.741v-1.283h1.742v1.283h1.742v-3.85h1.741v-11.977h1.742v-14.115h1.741v-10.694h1.742v.428h1.742v13.26h1.741v19.249h1.742v10.265h1.741v2.567h1.742v.427h1.742v-.427h1.741v-.428h1.742v-3.85h1.742v-3.422h1.741v-8.127h1.742v-15.398h1.741v4.277h1.742v.428h1.742v7.271h1.741v6.844h1.742v13.26h81.855"/><path d="M479.622 34.453h54.425v-10.61h-54.425z" fill="#fff" fill-rule="evenodd"/><path stroke-width=".4" stroke-miterlimit="10" fill="none" stroke="#fff" d="M479.622 34.453h54.425v-10.61h-54.425z"/><path stroke-width=".75" stroke-miterlimit="10" fill="none" stroke="#000" d="M479.622 34.453h54.425M534.047 34.453v-10.61M534.047 23.843h-54.425M479.622 23.843v10.61"/><clipPath id="at"><path transform="matrix(1 0 0 -1 0 217)" d="M289.134 2.165H561.26v212.213H289.134z"/></clipPath><g clip-path="url(#at)"><use xlink:href="#b" transform="matrix(6.94746 0 0 -6.94746 482.88 32.022)"/><use xlink:href="#c" transform="matrix(6.94746 0 0 -6.94746 487.404 32.022)"/><use xlink:href="#d" transform="matrix(6.94746 0 0 -6.94746 491.308 32.182)"/><use xlink:href="#e" transform="matrix(6.94746 0 0 -6.94746 493.962 32.022)"/><use xlink:href="#f" transform="matrix(6.94746 0 0 -6.94746 496.692 32.022)"/><use xlink:href="#g" transform="matrix(6.94746 0 0 -6.94746 498.311 32.182)"/><use xlink:href="#h" transform="matrix(6.94746 0 0 -6.94746 502.223 32.182)"/><use xlink:href="#i" transform="matrix(6.94746 0 0 -6.94746 505.884 32.022)"/></g><clipPath id="au"><path transform="matrix(1 0 0 -1 0 217)" d="M289.134 2.165H561.26v212.213H289.134z"/></clipPath><g clip-path="url(#au)"><use xlink:href="#i" transform="matrix(6.94746 0 0 -6.94746 513.267 32.022)"/><use xlink:href="#S" transform="matrix(6.94746 0 0 -6.94746 515.407 32.022)"/><use xlink:href="#k" transform="matrix(6.94746 0 0 -6.94746 519.228 32.022)"/><use xlink:href="#k" transform="matrix(6.94746 0 0 -6.94746 523.09 32.022)"/><use xlink:href="#S" transform="matrix(6.94746 0 0 -6.94746 526.995 32.022)"/></g><path stroke-width=".75" stroke-miterlimit="10" fill="none" stroke="#000" d="M316.346 193.613h217.701M316.346 188.52v5.093M320.7 191.067v2.546M325.055 191.067v2.546M329.409 191.067v2.546M333.763 191.067v2.546M338.117 188.52v5.093M342.471 191.067v2.546M346.825 191.067v2.546M351.179 191.067v2.546M355.533 191.067v2.546M359.887 188.52v5.093M364.241 191.067v2.546M368.595 191.067v2.546M372.949 191.067v2.546M377.303 191.067v2.546M381.657 188.52v5.093M386.011 191.067v2.546M390.365 191.067v2.546M394.719 191.067v2.546M399.073 191.067v2.546M403.427 188.52v5.093M407.781 191.067v2.546M412.135 191.067v2.546M416.489 191.067v2.546M420.843 191.067v2.546M425.197 188.52v5.093M429.551 191.067v2.546M433.905 191.067v2.546M438.259 191.067v2.546M442.613 191.067v2.546M446.967 188.52v5.093M451.321 191.067v2.546M455.675 191.067v2.546M460.029 191.067v2.546M464.383 191.067v2.546M468.737 188.52v5.093M473.091 191.067v2.546M477.445 191.067v2.546M481.799 191.067v2.546M486.153 191.067v2.546M490.507 188.52v5.093M494.861 191.067v2.546M499.215 191.067v2.546M503.569 191.067v2.546M507.923 191.067v2.546M512.277 188.52v5.093M516.631 191.067v2.546M520.985 191.067v2.546M525.339 191.067v2.546M529.693 191.067v2.546M534.047 188.52v5.093"/><clipPath id="av"><path transform="matrix(1 0 0 -1 0 217)" d="M289.134 2.165H561.26v212.213H289.134z"/></clipPath><g clip-path="url(#av)"><use xlink:href="#o" transform="matrix(6.94746 0 0 -6.94746 314.594 200.586)"/></g><clipPath id="aw"><path transform="matrix(1 0 0 -1 0 217)" d="M289.134 2.165H561.26v212.213H289.134z"/></clipPath><g clip-path="url(#aw)"><use xlink:href="#q" transform="matrix(6.94746 0 0 -6.94746 336.107 200.745)"/></g><clipPath id="ax"><path transform="matrix(1 0 0 -1 0 217)" d="M289.134 2.165H561.26v212.213H289.134z"/></clipPath><g clip-path="url(#ax)"><use xlink:href="#s" transform="matrix(6.94746 0 0 -6.94746 358.26 200.745)"/></g><clipPath id="ay"><path transform="matrix(1 0 0 -1 0 217)" d="M289.134 2.165H561.26v212.213H289.134z"/></clipPath><g clip-path="url(#ay)"><use xlink:href="#u" transform="matrix(6.94746 0 0 -6.94746 379.746 200.586)"/></g><clipPath id="az"><path transform="matrix(1 0 0 -1 0 217)" d="M289.134 2.165H561.26v212.213H289.134z"/></clipPath><g clip-path="url(#az)"><use xlink:href="#w" transform="matrix(6.94746 0 0 -6.94746 401.78 200.745)"/></g><clipPath id="aA"><path transform="matrix(1 0 0 -1 0 217)" d="M289.134 2.165H561.26v212.213H289.134z"/></clipPath><g clip-path="url(#aA)"><use xlink:href="#y" transform="matrix(6.94746 0 0 -6.94746 423.251 200.745)"/></g><clipPath id="aB"><path transform="matrix(1 0 0 -1 0 217)" d="M289.134 2.165H561.26v212.213H289.134z"/></clipPath><g clip-path="url(#aB)"><use xlink:href="#A" transform="matrix(6.94746 0 0 -6.94746 443.267 200.586)"/><use xlink:href="#B" transform="matrix(6.94746 0 0 -6.94746 446.72 200.745)"/></g><clipPath id="aC"><path transform="matrix(1 0 0 -1 0 217)" d="M289.134 2.165H561.26v212.213H289.134z"/></clipPath><g clip-path="url(#aC)"><use xlink:href="#A" transform="matrix(6.94746 0 0 -6.94746 465.995 200.586)"/><use xlink:href="#A" transform="matrix(6.94746 0 0 -6.94746 469.857 200.586)"/></g><clipPath id="aD"><path transform="matrix(1 0 0 -1 0 217)" d="M289.134 2.165H561.26v212.213H289.134z"/></clipPath><g clip-path="url(#aD)"><use xlink:href="#A" transform="matrix(6.94746 0 0 -6.94746 486.829 200.586)"/><use xlink:href="#E" transform="matrix(6.94746 0 0 -6.94746 490.219 200.579)"/></g><clipPath id="aE"><path transform="matrix(1 0 0 -1 0 217)" d="M289.134 2.165H561.26v212.213H289.134z"/></clipPath><g clip-path="url(#aE)"><use xlink:href="#A" transform="matrix(6.94746 0 0 -6.94746 508.925 200.586)"/><use xlink:href="#G" transform="matrix(6.94746 0 0 -6.94746 512.301 200.745)"/></g><clipPath id="aF"><path transform="matrix(1 0 0 -1 0 217)" d="M289.134 2.165H561.26v212.213H289.134z"/></clipPath><g clip-path="url(#aF)"><use xlink:href="#A" transform="matrix(6.94746 0 0 -6.94746 530.39 200.586)"/><use xlink:href="#o" transform="matrix(6.94746 0 0 -6.94746 533.738 200.586)"/></g><clipPath id="aG"><path transform="matrix(1 0 0 -1 0 217)" d="M289.134 2.165H561.26v212.213H289.134z"/></clipPath><g clip-path="url(#aG)"><use xlink:href="#E" transform="matrix(5.0527 0 0 -5.0527 530.484 213.838)"/></g><clipPath id="aH"><path transform="matrix(1 0 0 -1 0 217)" d="M289.134 2.165H561.26v212.213H289.134z"/></clipPath><g clip-path="url(#aH)"><use xlink:href="#K" transform="matrix(8.21063 0 0 -8.21063 524.77 211.95)"/></g><path stroke-width=".75" stroke-miterlimit="10" fill="none" stroke="#000" d="M316.346 193.613V23.843M322.877 193.613h-6.531M319.612 189.336h-3.266M319.612 185.058h-3.266M319.612 180.781h-3.266M319.612 176.504h-3.266M322.877 172.226h-6.531M319.612 167.949h-3.266M319.612 163.671h-3.266M319.612 159.394h-3.266M319.612 155.117h-3.266M322.877 150.84h-6.531M319.612 146.562h-3.266M319.612 142.284h-3.266M319.612 138.007h-3.266M319.612 133.73h-3.266M322.877 129.452h-6.531M319.612 125.175h-3.266M319.612 120.897h-3.266M319.612 116.62h-3.266M319.612 112.342h-3.266M322.877 108.065h-6.531M319.612 103.787h-3.266M319.612 99.51h-3.266M319.612 95.233h-3.266M319.612 90.955h-3.266M322.877 86.678h-6.531M319.612 82.4h-3.266M319.612 78.123h-3.266M319.612 73.846h-3.266M319.612 69.568h-3.266M322.877 65.291h-6.531M319.612 61.013h-3.266M319.612 56.736h-3.266M319.612 52.458h-3.266M319.612 48.181h-3.266M322.877 43.904h-6.531M322.877 43.904h-6.531M319.612 39.626h-3.266M319.612 35.349h-3.266M319.612 31.071h-3.266M319.612 26.794h-3.266"/><clipPath id="aI"><path transform="matrix(1 0 0 -1 0 217)" d="M289.134 2.165H561.26v212.213H289.134z"/></clipPath><g clip-path="url(#aI)"><use xlink:href="#m" transform="matrix(8.21063 0 0 -8.21063 310.218 196.355)"/></g><clipPath id="aJ"><path transform="matrix(1 0 0 -1 0 217)" d="M289.134 2.165H561.26v212.213H289.134z"/></clipPath><g clip-path="url(#aJ)"><use xlink:href="#N" transform="matrix(8.21063 0 0 -8.21063 305.783 175.521)"/><use xlink:href="#m" transform="matrix(8.21063 0 0 -8.21063 310.364 175.521)"/></g><clipPath id="aK"><path transform="matrix(1 0 0 -1 0 217)" d="M289.134 2.165H561.26v212.213H289.134z"/></clipPath><g clip-path="url(#aK)"><use xlink:href="#P" transform="matrix(8.21063 0 0 -8.21063 301.068 153.868)"/><use xlink:href="#m" transform="matrix(8.21063 0 0 -8.21063 305.313 154.056)"/><use xlink:href="#m" transform="matrix(8.21063 0 0 -8.21063 309.878 154.056)"/></g><clipPath id="aL"><path transform="matrix(1 0 0 -1 0 217)" d="M289.134 2.165H561.26v212.213H289.134z"/></clipPath><g clip-path="url(#aL)"><use xlink:href="#P" transform="matrix(8.21063 0 0 -8.21063 301.068 132.403)"/><use xlink:href="#N" transform="matrix(8.21063 0 0 -8.21063 305.297 132.591)"/><use xlink:href="#m" transform="matrix(8.21063 0 0 -8.21063 309.878 132.591)"/></g><clipPath id="aM"><path transform="matrix(1 0 0 -1 0 217)" d="M289.134 2.165H561.26v212.213H289.134z"/></clipPath><g clip-path="url(#aM)"><use xlink:href="#S" transform="matrix(8.21063 0 0 -8.21063 300.756 110.938)"/><use xlink:href="#m" transform="matrix(8.21063 0 0 -8.21063 305.313 111.127)"/><use xlink:href="#m" transform="matrix(8.21063 0 0 -8.21063 309.878 111.127)"/></g><clipPath id="aN"><path transform="matrix(1 0 0 -1 0 217)" d="M289.134 2.165H561.26v212.213H289.134z"/></clipPath><g clip-path="url(#aN)"><use xlink:href="#S" transform="matrix(8.21063 0 0 -8.21063 300.756 89.473)"/><use xlink:href="#N" transform="matrix(8.21063 0 0 -8.21063 305.297 89.662)"/><use xlink:href="#m" transform="matrix(8.21063 0 0 -8.21063 309.878 89.662)"/></g><clipPath id="aO"><path transform="matrix(1 0 0 -1 0 217)" d="M289.134 2.165H561.26v212.213H289.134z"/></clipPath><g clip-path="url(#aO)"><use xlink:href="#V" transform="matrix(8.21063 0 0 -8.21063 300.748 68.196)"/><use xlink:href="#m" transform="matrix(8.21063 0 0 -8.21063 305.313 68.196)"/><use xlink:href="#m" transform="matrix(8.21063 0 0 -8.21063 309.878 68.196)"/></g><clipPath id="aP"><path transform="matrix(1 0 0 -1 0 217)" d="M289.134 2.165H561.26v212.213H289.134z"/></clipPath><g clip-path="url(#aP)"><use xlink:href="#V" transform="matrix(8.21063 0 0 -8.21063 300.748 46.73)"/><use xlink:href="#N" transform="matrix(8.21063 0 0 -8.21063 305.297 46.73)"/><use xlink:href="#m" transform="matrix(8.21063 0 0 -8.21063 309.878 46.73)"/></g><clipPath id="aQ"><path transform="matrix(1 0 0 -1 0 217)" d="M289.134 2.165H561.26v212.213H289.134z"/></clipPath><g clip-path="url(#aQ)"><use xlink:href="#i" transform="matrix(0 -8.21063 -8.21063 0 297.985 71.164)"/><use xlink:href="#aa" transform="matrix(0 -8.21063 -8.21063 0 298.174 68.553)"/><use xlink:href="#ab" transform="matrix(0 -8.21063 -8.21063 0 298.174 62.214)"/><use xlink:href="#ab" transform="matrix(0 -8.21063 -8.21063 0 298.174 57.65)"/><use xlink:href="#ac" transform="matrix(0 -8.21063 -8.21063 0 298.174 53.076)"/><use xlink:href="#e" transform="matrix(0 -8.21063 -8.21063 0 297.985 47.83)"/><use xlink:href="#e" transform="matrix(0 -8.21063 -8.21063 0 297.985 44.635)"/><use xlink:href="#g" transform="matrix(0 -8.21063 -8.21063 0 298.174 41.778)"/><use xlink:href="#c" transform="matrix(0 -8.21063 -8.21063 0 297.985 36.876)"/><use xlink:href="#ad" transform="matrix(0 -8.21063 -8.21063 0 297.985 32.205)"/><use xlink:href="#g" transform="matrix(0 -8.21063 -8.21063 0 298.174 28.091)"/></g><path d="M479.622 34.453h54.425v-10.61h-54.425z" fill="#fff" fill-rule="evenodd"/><path stroke-width=".4" stroke-miterlimit="10" fill="none" stroke="#fff" d="M479.622 34.453h54.425v-10.61h-54.425z"/><path stroke-width=".75" stroke-miterlimit="10" fill="none" stroke="#000" d="M479.622 34.453h54.425M534.047 34.453v-10.61M534.047 23.843h-54.425M479.622 23.843v10.61"/><clipPath id="aR"><path transform="matrix(1 0 0 -1 0 217)" d="M289.134 2.165H561.26v212.213H289.134z"/></clipPath><g clip-path="url(#aR)"><use xlink:href="#b" transform="matrix(6.94746 0 0 -6.94746 482.88 32.022)"/><use xlink:href="#c" transform="matrix(6.94746 0 0 -6.94746 487.404 32.022)"/><use xlink:href="#d" transform="matrix(6.94746 0 0 -6.94746 491.308 32.182)"/><use xlink:href="#e" transform="matrix(6.94746 0 0 -6.94746 493.962 32.022)"/><use xlink:href="#f" transform="matrix(6.94746 0 0 -6.94746 496.692 32.022)"/><use xlink:href="#g" transform="matrix(6.94746 0 0 -6.94746 498.311 32.182)"/><use xlink:href="#h" transform="matrix(6.94746 0 0 -6.94746 502.223 32.182)"/><use xlink:href="#i" transform="matrix(6.94746 0 0 -6.94746 505.884 32.022)"/></g><clipPath id="aS"><path transform="matrix(1 0 0 -1 0 217)" d="M289.134 2.165H561.26v212.213H289.134z"/></clipPath><g clip-path="url(#aS)"><use xlink:href="#i" transform="matrix(6.94746 0 0 -6.94746 513.267 32.022)"/><use xlink:href="#S" transform="matrix(6.94746 0 0 -6.94746 515.407 32.022)"/><use xlink:href="#k" transform="matrix(6.94746 0 0 -6.94746 519.228 32.022)"/><use xlink:href="#k" transform="matrix(6.94746 0 0 -6.94746 523.09 32.022)"/><use xlink:href="#S" transform="matrix(6.94746 0 0 -6.94746 526.995 32.022)"/></g><path stroke-width="1.5" stroke-miterlimit="10" fill="none" stroke="#000" d="M316.346 193.613H363.37v-.428h1.741v.428h1.742v-.855h1.742v.855h1.741v-.855h1.742v-.856h1.741v-6.416h1.742V173.51h1.742v-59.028h1.741V51.175h1.742v14.116h1.741v46.196h1.742v61.167h1.742v12.832h1.741v5.133h1.742v.428h1.742v-1.284h1.741v-2.566h1.742v.856h1.741v-.428h1.742v-.428h1.742v-3.422h1.741v5.56h3.483v-2.566h1.742v-.855h1.742v3.422h3.483v.855h1.741v-.428h1.742v1.284h1.742v-3.85h1.741v-11.121h1.742v-16.254h1.741v-9.838h3.484v13.26h1.741v19.248h1.742v8.555h1.741v1.71h1.742v.856h1.742v-.855h1.741v-.428h1.742v-3.85h1.742v-1.71h1.741v-9.411h1.742v-14.97h1.741v5.56h1.742v.855h1.742v6.844h1.741v6.416h1.742v8.983h1.741v2.138h1.742v.428h78.372"/><path d="M452.409 59.919h81.638V23.843h-81.638z" fill="#fff" fill-rule="evenodd"/><path stroke-width=".4" stroke-miterlimit="10" fill="none" stroke="#fff" d="M452.409 59.919h81.638V23.843h-81.638z"/><path stroke-width=".75" stroke-miterlimit="10" fill="none" stroke="#000" d="M452.409 59.919h81.638M534.047 59.919V23.843M534.047 23.843h-81.638M452.409 23.843v36.076"/><clipPath id="aT"><path transform="matrix(1 0 0 -1 0 217)" d="M289.134 2.165H561.26v212.213H289.134z"/></clipPath><g clip-path="url(#aT)"><use xlink:href="#ah" transform="matrix(8.21063 0 0 -8.21063 454.579 32.022)"/><use xlink:href="#g" transform="matrix(8.21063 0 0 -8.21063 459.12 32.21)"/><use xlink:href="#ai" transform="matrix(8.21063 0 0 -8.21063 463.84 33.812)"/><use xlink:href="#g" transform="matrix(8.21063 0 0 -8.21063 468.701 32.21)"/><use xlink:href="#c" transform="matrix(8.21063 0 0 -8.21063 473.603 32.022)"/><use xlink:href="#aj" transform="matrix(8.21063 0 0 -8.21063 478.34 32.21)"/><use xlink:href="#ak" transform="matrix(8.21063 0 0 -8.21063 483.349 32.21)"/></g><clipPath id="aU"><path transform="matrix(1 0 0 -1 0 217)" d="M289.134 2.165H561.26v212.213H289.134z"/></clipPath><g clip-path="url(#aU)"><symbol id="aV"><path d="M.371.604h.213v.125H0V.604h.221V0h.15v.604z"/></symbol><use xlink:href="#aV" transform="matrix(8.21063 0 0 -8.21063 472.345 44.017)"/><use xlink:href="#ak" transform="matrix(8.21063 0 0 -8.21063 477.477 44.206)"/><use xlink:href="#ai" transform="matrix(8.21063 0 0 -8.21063 482.148 45.807)"/><use xlink:href="#aq" transform="matrix(8.21063 0 0 -8.21063 487.379 44.017)"/><use xlink:href="#f" transform="matrix(8.21063 0 0 -8.21063 489.661 44.017)"/><use xlink:href="#ac" transform="matrix(8.21063 0 0 -8.21063 491.681 44.206)"/><use xlink:href="#i" transform="matrix(8.21063 0 0 -8.21063 496.41 44.017)"/><use xlink:href="#aj" transform="matrix(8.21063 0 0 -8.21063 498.931 44.206)"/><use xlink:href="#f" transform="matrix(8.21063 0 0 -8.21063 504.26 44.017)"/><use xlink:href="#i" transform="matrix(8.21063 0 0 -8.21063 505.992 44.017)"/><use xlink:href="#d" transform="matrix(8.21063 0 0 -8.21063 508.39 44.206)"/><use xlink:href="#f" transform="matrix(8.21063 0 0 -8.21063 511.559 44.017)"/><use xlink:href="#ap" transform="matrix(8.21063 0 0 -8.21063 513.768 45.807)"/><use xlink:href="#ac" transform="matrix(8.21063 0 0 -8.21063 518.595 44.206)"/><use xlink:href="#i" transform="matrix(8.21063 0 0 -8.21063 523.325 44.017)"/><use xlink:href="#P" transform="matrix(8.21063 0 0 -8.21063 526.166 44.017)"/></g><path stroke-width="1.5" stroke-miterlimit="10" fill="none" stroke="#000" d="M455.471 41.881h14.286"/><clipPath id="aW"><path transform="matrix(1 0 0 -1 0 217)" d="M289.134 2.165H561.26v212.213H289.134z"/></clipPath><g clip-path="url(#aW)"><use xlink:href="#aV" transform="matrix(8.21063 0 0 -8.21063 472.345 56.012)"/><use xlink:href="#ak" transform="matrix(8.21063 0 0 -8.21063 477.477 56.2)"/><use xlink:href="#ai" transform="matrix(8.21063 0 0 -8.21063 482.148 57.802)"/><use xlink:href="#aq" transform="matrix(8.21063 0 0 -8.21063 487.379 56.012)"/><use xlink:href="#f" transform="matrix(8.21063 0 0 -8.21063 489.661 56.012)"/><use xlink:href="#ac" transform="matrix(8.21063 0 0 -8.21063 491.681 56.2)"/><use xlink:href="#i" transform="matrix(8.21063 0 0 -8.21063 496.41 56.012)"/><use xlink:href="#aj" transform="matrix(8.21063 0 0 -8.21063 498.931 56.2)"/><use xlink:href="#f" transform="matrix(8.21063 0 0 -8.21063 504.26 56.012)"/><use xlink:href="#i" transform="matrix(8.21063 0 0 -8.21063 505.992 56.012)"/><use xlink:href="#d" transform="matrix(8.21063 0 0 -8.21063 508.39 56.2)"/><use xlink:href="#f" transform="matrix(8.21063 0 0 -8.21063 511.559 56.012)"/><use xlink:href="#ap" transform="matrix(8.21063 0 0 -8.21063 513.768 57.802)"/><use xlink:href="#ac" transform="matrix(8.21063 0 0 -8.21063 518.595 56.2)"/><use xlink:href="#i" transform="matrix(8.21063 0 0 -8.21063 523.325 56.012)"/><use xlink:href="#S" transform="matrix(8.21063 0 0 -8.21063 525.854 56.012)"/></g><path stroke-width="1.5" stroke-miterlimit="10" fill="none" stroke="#00f" d="M455.471 53.906h14.286"/><path d="M415.847 17.476h18.7V6.866h-18.7z" fill="#fff" fill-rule="evenodd"/><path stroke-width=".4" stroke-miterlimit="10" fill="none" stroke="#fff" d="M415.847 17.476h18.7V6.866h-18.7z"/><clipPath id="aX"><path transform="matrix(1 0 0 -1 0 217)" d="M289.134 2.165H561.26v212.213H289.134z"/></clipPath><g clip-path="url(#aX)"><use xlink:href="#as" transform="matrix(8.21063 0 0 -8.21063 419.872 14.976)"/><use xlink:href="#g" transform="matrix(8.21063 0 0 -8.21063 425.308 15.165)"/></g></svg>