<svg xmlns="http://www.w3.org/2000/svg" xmlns:xlink="http://www.w3.org/1999/xlink" width="756" height="217pt" viewBox="0 0 567 217"><path d="M0 217h566.929V.456H0z" fill="#fff" fill-rule="evenodd"/><path stroke-width=".4" stroke-miterlimit="10" fill="none" stroke="#fff" d="M0 217h566.929V.456H0z"/><path d="M5.67 214.835h272.125V2.622H5.67z" fill="#fff" fill-rule="evenodd"/><path stroke-width=".4" stroke-miterlimit="10" fill="none" stroke="#fff" d="M5.67 214.835h272.125V2.622H5.67z"/><path d="M32.882 193.613h217.7V23.843h-217.7z" fill="#fff" fill-rule="evenodd"/><path stroke-width=".4" stroke-miterlimit="10" fill="none" stroke="#fff" d="M32.882 193.613h217.7V23.843h-217.7z"/><path stroke-width=".75" stroke-miterlimit="10" fill="none" stroke="#000" d="M32.882 193.613h217.7V23.843h-217.7z"/><path d="M32.882 193.613h217.7V23.843h-217.7z" fill="#fff" fill-rule="evenodd"/><path stroke-width=".4" stroke-miterlimit="10" fill="none" stroke="#fff" d="M32.882 193.613h217.7V23.843h-217.7z"/><path stroke-width=".75" stroke-miterlimit="10" fill="none" stroke="#000" d="M32.882 193.613h217.7V23.843h-217.7z"/><path stroke-width="1.5" stroke-miterlimit="10" fill="none" stroke="#00f" d="M32.882 188.994h1.742v2.31h1.741v1.154h1.742v-4.62h1.741v3.465h1.742v1.155h1.741v-4.62h3.484v1.156h1.741v-5.775h3.484v1.155h1.741v-1.155h1.742v-1.155h3.483v-5.774h1.742v-1.155h1.741v-3.465h1.742v8.084h1.741v-5.774h1.742v-1.155h1.742v9.24h1.741v-6.93h1.742V162.43h1.741v1.155h1.742v8.084h1.742v-12.704h1.741v-4.62h1.742v1.155h1.741v8.085h1.742v-25.408h1.742v-2.31h1.741v-3.465h1.742v-18.478h1.742v9.24h1.741V83.896h1.742v-8.084h1.741V59.645h1.742v3.464h1.742V31.927h1.741v4.619h1.742v20.789h1.741v15.013h1.742v16.169h1.742v6.93h1.741v4.619h1.742v12.704h1.741v9.24h1.742v18.478h1.742v-8.085h1.741v-5.774h1.742v24.253h1.741v-10.394h1.742v5.774h1.742v-3.464h1.741v2.31h1.742v-4.62h1.741v3.464h1.742v-9.239h1.742v5.775h1.741v-13.86h1.742v-5.774h1.741v-2.31h1.742v8.085h1.742v2.31h1.741v-11.55h1.742v13.86h1.742v-2.31h1.741v12.704h1.742v-4.62h1.741v-6.93h1.742v3.465h1.742v12.704h1.741v-6.93h1.742v4.62h1.741v17.324h1.742v-15.014h1.742v2.31h1.741v16.169h1.742v-5.775h1.741v-2.31h1.742v8.085h1.742v4.62h1.741v-6.93h1.742v-3.465h3.483v9.24h1.742v4.619h1.741v4.62h1.742v-2.31h1.741v1.155h1.742v4.62h1.742v-9.24h1.741v1.155h1.742v1.155h1.741v3.465h1.742v-5.775h1.742v2.31h1.741v3.465h1.742v-2.31h1.742v5.774h1.741v6.93h1.742v-4.62h1.741v2.31h1.742v-2.31h1.742v2.31h1.741v3.465h3.483v-3.465h1.742v-8.084h1.742v3.464h1.741v4.62h1.742v-2.31h1.741v2.31h1.742v-2.31h1.742v-2.31h1.741v2.31h1.742v1.155h1.741v1.155h1.742v2.31h1.742v-6.93h1.741v4.62h1.742v-4.62h1.741v4.62h1.742v-3.465h1.742"/><path d="M196.157 34.453h54.425v-10.61h-54.425z" fill="#fff" fill-rule="evenodd"/><path stroke-width=".4" stroke-miterlimit="10" fill="none" stroke="#fff" d="M196.157 34.453h54.425v-10.61h-54.425z"/><path stroke-width=".75" stroke-miterlimit="10" fill="none" stroke="#000" d="M196.157 34.453h54.426M250.583 34.453v-10.61M250.583 23.843h-54.426M196.157 23.843v10.61"/><clipPath id="a"><path transform="matrix(1 0 0 -1 0 217)" d="M5.67 2.165h272.125v212.213H5.67z"/></clipPath><g clip-path="url(#a)"><symbol id="b"><path d="M.15.314h.349v.125H.15v.165h.377v.125H0V0h.545v.125H.15v.189z"/></symbol><symbol id="c"><path d="M0 .54V0h.14v.324C.14.388.184.43.253.43c.06 0 .09-.033.09-.097V0h.14v.362c0 .12-.065.187-.181.187A.176.176 0 0 1 .14.462V.54H0z"/></symbol><symbol id="d"><path d="M.287.552H.209v.145h-.14V.552H0V.459h.069V.127C.069.042.114 0 .206 0c.032 0 .055.003.081.011v.098C.273.107.266.106.255.106.218.106.209.117.209.165v.294h.078v.093z"/></symbol><symbol id="e"><path d="M0 .54V0h.14v.287C.14.369.181.41.263.41A.247.247 0 0 0 .307.406v.142L.29.549C.226.549.171.507.14.434V.54H0z"/></symbol><symbol id="f"><path d="M.14.54H0V0h.14v.54m0 .189H0V.604h.14v.125z"/></symbol><symbol id="g"><path d="M.502.249a.452.452 0 0 1-.02.166.237.237 0 0 1-.232.157C.095.572 0 .46 0 .279 0 .106.094 0 .247 0c.121 0 .219.068.25.175H.359C.342.132.303.107.252.107A.106.106 0 0 0 .16.154C.147.174.142.198.14.249h.362m-.36.093c.009.083.044.123.106.123C.312.465.35.422.357.342H.142z"/></symbol><symbol id="h"><path d="M.476.389C.474.503.386.572.241.572.104.572.019.503.019.392a.13.13 0 0 1 .03-.088C.068.285.085.276.137.259L.304.207C.339.196.351.185.351.163.351.13.312.11.247.11.21.11.182.116.164.129.149.14.143.151.137.18H0C.004.061.091 0 .255 0 .33 0 .387.016.427.048.467.08.491.13.491.183c0 .07-.035.115-.106.136L.208.37C.169.382.159.39.159.412c0 .03.032.05.081.05.067 0 .1-.024.101-.073h.135z"/></symbol><symbol id="i"><path d="M0 0z"/></symbol><use xlink:href="#b" transform="matrix(6.94746 0 0 -6.94746 199.416 32.022)"/><use xlink:href="#c" transform="matrix(6.94746 0 0 -6.94746 203.939 32.022)"/><use xlink:href="#d" transform="matrix(6.94746 0 0 -6.94746 207.843 32.182)"/><use xlink:href="#e" transform="matrix(6.94746 0 0 -6.94746 210.497 32.022)"/><use xlink:href="#f" transform="matrix(6.94746 0 0 -6.94746 213.227 32.022)"/><use xlink:href="#g" transform="matrix(6.94746 0 0 -6.94746 214.846 32.182)"/><use xlink:href="#h" transform="matrix(6.94746 0 0 -6.94746 218.758 32.182)"/><use xlink:href="#i" transform="matrix(6.94746 0 0 -6.94746 222.419 32.022)"/></g><clipPath id="j"><path transform="matrix(1 0 0 -1 0 217)" d="M5.67 2.165h272.125v212.213H5.67z"/></clipPath><g clip-path="url(#j)"><symbol id="k"><path d="M.498.273H.424v.436H.259L0 .275V.157h.284V0h.14v.157h.074v.116m-.214 0H.099l.185.303V.273z"/></symbol><symbol id="l"><path d="M.01.189C.013.08.105 0 .227 0a.22.22 0 0 1 .202.11c.037.063.059.17.059.284a.464.464 0 0 1-.049.238.224.224 0 0 1-.2.116C.097.748 0 .646 0 .498 0 .352.086.252.212.252c.036 0 .07.01.092.026a.248.248 0 0 1 .044.044C.348.185.31.12.231.12.181.12.148.147.145.189H.01m.225.445c.068 0 .11-.052.11-.136C.345.42.302.368.237.368.173.368.133.418.133.5s.039.134.102.134z"/></symbol><symbol id="m"><path d="M.244.747A.22.22 0 0 1 .06.656C.019.601 0 .511 0 .373 0 .247.016.159.05.105A.22.22 0 0 1 .244 0a.22.22 0 0 1 .184.09c.04.055.06.146.06.279 0 .13-.016.218-.05.273a.22.22 0 0 1-.194.105m0-.113C.28.634.309.614.326.577A.635.635 0 0 0 .348.372.717.717 0 0 0 .33.185C.314.143.284.12.244.12.207.12.179.139.162.175A.604.604 0 0 0 .14.374a.75.75 0 0 0 .018.193C.173.61.204.634.244.634z"/></symbol><use xlink:href="#i" transform="matrix(6.94746 0 0 -6.94746 229.802 31.391)"/><use xlink:href="#k" transform="matrix(6.94746 0 0 -6.94746 231.9 31.391)"/><use xlink:href="#l" transform="matrix(6.94746 0 0 -6.94746 235.79 31.558)"/><use xlink:href="#m" transform="matrix(6.94746 0 0 -6.94746 239.66 31.55)"/><use xlink:href="#m" transform="matrix(6.94746 0 0 -6.94746 243.523 31.55)"/></g><path stroke-width=".75" stroke-miterlimit="10" fill="none" stroke="#000" d="M32.882 193.613h217.701M32.882 188.52v5.093M37.236 191.067v2.546M41.59 191.067v2.546M45.944 191.067v2.546M50.298 191.067v2.546M54.652 188.52v5.093M59.006 191.067v2.546M63.36 191.067v2.546M67.714 191.067v2.546M72.068 191.067v2.546M76.422 188.52v5.093M80.776 191.067v2.546M85.13 191.067v2.546M89.484 191.067v2.546M93.838 191.067v2.546M98.192 188.52v5.093M102.546 191.067v2.546M106.9 191.067v2.546M111.254 191.067v2.546M115.608 191.067v2.546M119.962 188.52v5.093M124.316 191.067v2.546M128.67 191.067v2.546M133.024 191.067v2.546M137.378 191.067v2.546M141.732 188.52v5.093M146.086 191.067v2.546M150.44 191.067v2.546M154.794 191.067v2.546M159.148 191.067v2.546M163.502 188.52v5.093M167.856 191.067v2.546M172.21 191.067v2.546M176.564 191.067v2.546M180.918 191.067v2.546M185.272 188.52v5.093M189.626 191.067v2.546M193.98 191.067v2.546M198.334 191.067v2.546M202.689 191.067v2.546M207.043 188.52v5.093M211.397 191.067v2.546M215.751 191.067v2.546M220.105 191.067v2.546M224.459 191.067v2.546M228.813 188.52v5.093M233.167 191.067v2.546M237.521 191.067v2.546M241.875 191.067v2.546M246.229 191.067v2.546M250.583 188.52v5.093"/><clipPath id="n"><path transform="matrix(1 0 0 -1 0 217)" d="M5.67 2.165h272.125v212.213H5.67z"/></clipPath><g clip-path="url(#n)"><symbol id="o"><path d="M.299.175V0h.088v.175h.105v.079H.387v.469H.322L0 .268V.175h.299m0 .079H.077l.222.319V.254z"/></symbol><use xlink:href="#o" transform="matrix(6.94746 0 0 -6.94746 31.13 200.586)"/></g><clipPath id="p"><path transform="matrix(1 0 0 -1 0 217)" d="M5.67 2.165h272.125v212.213H5.67z"/></clipPath><g clip-path="url(#p)"><symbol id="q"><path d="M.441.732H.075L.022.346h.081c.041.049.075.066.131.066.095 0 .154-.065.154-.17C.388.14.329.078.233.078.156.078.109.117.088.197H0C.012.139.022.111.043.085A.236.236 0 0 1 .235 0c.143 0 .243.104.243.254C.478.394.385.49.249.49A.208.208 0 0 1 .118.447l.028.198h.295v.087z"/></symbol><use xlink:href="#q" transform="matrix(6.94746 0 0 -6.94746 52.643 200.745)"/></g><clipPath id="r"><path transform="matrix(1 0 0 -1 0 217)" d="M5.67 2.165h272.125v212.213H5.67z"/></clipPath><g clip-path="url(#r)"><symbol id="s"><path d="M.455.558C.438.676.362.746.254.746a.223.223 0 0 1-.19-.103A.52.52 0 0 1 0 .353C0 .231.017.154.06.09A.2.2 0 0 1 .238 0C.373 0 .47.101.47.242.47.375.38.469.253.469A.189.189 0 0 1 .09.39c.001.179.057.278.158.278.062 0 .105-.04.119-.11h.088M.242.391C.327.391.38.331.38.235.38.144.32.078.239.078.157.078.095.147.095.239c0 .09.06.152.147.152z"/></symbol><use xlink:href="#s" transform="matrix(6.94746 0 0 -6.94746 74.795 200.745)"/></g><clipPath id="t"><path transform="matrix(1 0 0 -1 0 217)" d="M5.67 2.165h272.125v212.213H5.67z"/></clipPath><g clip-path="url(#t)"><symbol id="u"><path d="M.474.709H0V.622h.383C.214.381.145.233.092 0h.094c.039.227.128.422.288.635v.074z"/></symbol><use xlink:href="#u" transform="matrix(6.94746 0 0 -6.94746 96.28 200.586)"/></g><clipPath id="v"><path transform="matrix(1 0 0 -1 0 217)" d="M5.67 2.165h272.125v212.213H5.67z"/></clipPath><g clip-path="url(#v)"><symbol id="w"><path d="M.354.404c.074.045.097.081.097.149 0 .114-.087.193-.213.193C.113.746.025.667.025.554c0-.069.023-.104.096-.15C.04.363 0 .304 0 .224 0 .092.097 0 .238 0c.14 0 .238.092.238.224 0 .08-.04.139-.122.18M.238.668C.313.668.361.623.361.551.361.483.312.438.238.438.163.438.115.483.115.553s.048.115.123.115m0-.304C.326.364.386.306.386.222.386.135.327.078.236.078.15.078.09.137.09.221c0 .086.059.143.148.143z"/></symbol><use xlink:href="#w" transform="matrix(6.94746 0 0 -6.94746 118.315 200.745)"/></g><clipPath id="x"><path transform="matrix(1 0 0 -1 0 217)" d="M5.67 2.165h272.125v212.213H5.67z"/></clipPath><g clip-path="url(#x)"><symbol id="y"><path d="M.015.188C.032.07.108 0 .216 0c.079 0 .149.038.191.103a.529.529 0 0 1 .064.29.453.453 0 0 1-.06.263.204.204 0 0 1-.179.09C.097.746 0 .645 0 .505 0 .372.09.278.218.278c.067 0 .117.024.162.079C.379.177.323.078.222.078c-.062 0-.105.04-.119.11H.015m.216.481C.313.669.375.6.375.507.375.418.315.356.228.356.143.356.09.416.09.512c0 .091.059.157.141.157z"/></symbol><use xlink:href="#y" transform="matrix(6.94746 0 0 -6.94746 139.787 200.745)"/></g><clipPath id="z"><path transform="matrix(1 0 0 -1 0 217)" d="M5.67 2.165h272.125v212.213H5.67z"/></clipPath><g clip-path="url(#z)"><symbol id="A"><path d="M.157.515V0h.088v.723H.187C.156.612.136.597 0 .579V.515h.157z"/></symbol><symbol id="B"><path d="M.232.746A.203.203 0 0 1 .069.667C.023.603 0 .507 0 .373 0 .129.08 0 .232 0c.15 0 .232.129.232.367 0 .14-.022.234-.069.3a.2.2 0 0 1-.163.079m0-.078C.327.668.374.571.374.375.374.169.328.073.23.073c-.093 0-.14.1-.14.299 0 .199.047.296.142.296z"/></symbol><use xlink:href="#A" transform="matrix(6.94746 0 0 -6.94746 159.803 200.586)"/><use xlink:href="#B" transform="matrix(6.94746 0 0 -6.94746 163.256 200.745)"/></g><clipPath id="C"><path transform="matrix(1 0 0 -1 0 217)" d="M5.67 2.165h272.125v212.213H5.67z"/></clipPath><g clip-path="url(#C)"><use xlink:href="#A" transform="matrix(6.94746 0 0 -6.94746 182.53 200.586)"/><use xlink:href="#A" transform="matrix(6.94746 0 0 -6.94746 186.392 200.586)"/></g><clipPath id="D"><path transform="matrix(1 0 0 -1 0 217)" d="M5.67 2.165h272.125v212.213H5.67z"/></clipPath><g clip-path="url(#D)"><symbol id="E"><path d="M.472.086H.099c.009.06.041.098.128.151l.1.056c.099.055.15.129.15.218a.21.21 0 0 1-.066.155.227.227 0 0 1-.161.056C.16.722.093.69.054.628A.282.282 0 0 1 .016.472h.088a.257.257 0 0 0 .021.102.135.135 0 0 0 .122.071c.08 0 .14-.058.14-.136C.387.451.354.401.291.365L.199.311C.051.226.008.158 0 0h.472v.086z"/></symbol><use xlink:href="#A" transform="matrix(6.94746 0 0 -6.94746 203.364 200.586)"/><use xlink:href="#E" transform="matrix(6.94746 0 0 -6.94746 206.754 200.579)"/></g><clipPath id="F"><path transform="matrix(1 0 0 -1 0 217)" d="M5.67 2.165h272.125v212.213H5.67z"/></clipPath><g clip-path="url(#F)"><symbol id="G"><path d="M.189.356h.048C.333.356.384.311.384.224.384.133.329.078.238.078c-.097 0-.144.049-.15.155H0A.307.307 0 0 1 .031.105C.068.035.137 0 .234 0c.146 0 .24.088.24.225 0 .092-.035.142-.12.172.066.027.099.077.099.15 0 .124-.081.199-.216.199C.094.746.018.666.015.513h.088a.206.206 0 0 0 .016.091c.02.041.064.065.119.065.078 0 .125-.047.125-.125C.363.493.345.462.306.445A.326.326 0 0 0 .189.43V.356z"/></symbol><use xlink:href="#A" transform="matrix(6.94746 0 0 -6.94746 225.46 200.586)"/><use xlink:href="#G" transform="matrix(6.94746 0 0 -6.94746 228.836 200.745)"/></g><clipPath id="H"><path transform="matrix(1 0 0 -1 0 217)" d="M5.67 2.165h272.125v212.213H5.67z"/></clipPath><g clip-path="url(#H)"><use xlink:href="#A" transform="matrix(6.94746 0 0 -6.94746 246.925 200.586)"/><use xlink:href="#o" transform="matrix(6.94746 0 0 -6.94746 250.273 200.586)"/></g><clipPath id="I"><path transform="matrix(1 0 0 -1 0 217)" d="M5.67 2.165h272.125v212.213H5.67z"/></clipPath><g clip-path="url(#I)"><use xlink:href="#G" transform="matrix(5.0527 0 0 -5.0527 247.01 213.96)"/></g><clipPath id="J"><path transform="matrix(1 0 0 -1 0 217)" d="M5.67 2.165h272.125v212.213H5.67z"/></clipPath><g clip-path="url(#J)"><symbol id="K"><path d="M.457.219.532 0h.104L.38.729H.26L0 0h.099l.077.219h.281M.431.297H.199l.12.332.112-.332z"/></symbol><use xlink:href="#K" transform="matrix(8.21063 0 0 -8.21063 241.306 211.318)"/></g><path stroke-width=".75" stroke-miterlimit="10" fill="none" stroke="#000" d="M32.882 193.613V23.843M39.413 193.613h-6.531M36.147 187.839h-3.265M36.147 182.064h-3.265M36.147 176.29h-3.265M39.413 170.515h-6.531M36.147 164.74h-3.265M36.147 158.966h-3.265M36.147 153.192h-3.265M39.413 147.417h-6.531M36.147 141.643h-3.265M36.147 135.868h-3.265M36.147 130.094h-3.265M39.413 124.32h-6.531M36.147 118.545h-3.265M36.147 112.77h-3.265M36.147 106.996h-3.265M39.413 101.221h-6.531M36.147 95.447h-3.265M36.147 89.672h-3.265M36.147 83.897h-3.265M39.413 78.123h-6.531M36.147 72.348h-3.265M36.147 66.574h-3.265M36.147 60.799h-3.265M39.413 55.025h-6.531M36.147 49.25h-3.265M36.147 43.476h-3.265M36.147 37.701h-3.265M39.413 31.927h-6.531M39.413 31.927h-6.531M36.147 26.152h-3.265"/><clipPath id="L"><path transform="matrix(1 0 0 -1 0 217)" d="M5.67 2.165h272.125v212.213H5.67z"/></clipPath><g clip-path="url(#L)"><use xlink:href="#m" transform="matrix(8.21063 0 0 -8.21063 26.754 196.355)"/></g><clipPath id="M"><path transform="matrix(1 0 0 -1 0 217)" d="M5.67 2.165h272.125v212.213H5.67z"/></clipPath><g clip-path="url(#M)"><symbol id="N"><path d="M.482.125H.181C.2.163.222.184.326.259c.123.09.159.143.159.24C.485.636.39.724.242.724.095.724.009.637.009.487V.462h.135v.023c0 .079.037.125.101.125.062 0 .1-.043.1-.114C.345.417.321.388.163.276.043.194.006.132 0 0h.482v.125z"/></symbol><use xlink:href="#N" transform="matrix(8.21063 0 0 -8.21063 22.343 173.439)"/><use xlink:href="#m" transform="matrix(8.21063 0 0 -8.21063 26.9 173.627)"/></g><clipPath id="O"><path transform="matrix(1 0 0 -1 0 217)" d="M5.67 2.165h272.125v212.213H5.67z"/></clipPath><g clip-path="url(#O)"><use xlink:href="#k" transform="matrix(8.21063 0 0 -8.21063 22.293 150.08)"/><use xlink:href="#m" transform="matrix(8.21063 0 0 -8.21063 26.9 150.268)"/></g><clipPath id="P"><path transform="matrix(1 0 0 -1 0 217)" d="M5.67 2.165h272.125v212.213H5.67z"/></clipPath><g clip-path="url(#P)"><symbol id="Q"><path d="M.475.571a.2.2 0 0 1-.034.095.216.216 0 0 1-.179.081.228.228 0 0 1-.203-.11A.5.5 0 0 1 0 .36C0 .238.015.162.051.105A.23.23 0 0 1 .25 0c.141 0 .237.105.237.26 0 .136-.084.23-.206.23A.175.175 0 0 1 .14.427l.001.015a.32.32 0 0 0 .015.114c.019.052.053.078.102.078.045 0 .069-.018.087-.063h.13M.246.379C.312.379.354.329.354.25.354.175.308.12.246.12.182.12.138.172.138.248c0 .077.044.131.108.131z"/></symbol><use xlink:href="#Q" transform="matrix(8.21063 0 0 -8.21063 22.359 127.54)"/><use xlink:href="#m" transform="matrix(8.21063 0 0 -8.21063 26.9 127.54)"/></g><clipPath id="R"><path transform="matrix(1 0 0 -1 0 217)" d="M5.67 2.165h272.125v212.213H5.67z"/></clipPath><g clip-path="url(#R)"><symbol id="S"><path d="M.387.409c.024.013.035.02.046.03.029.027.046.07.046.116 0 .111-.096.192-.227.192C.12.747.024.666.024.554c0-.068.028-.111.092-.145C.034.364 0 .311 0 .227 0 .093.103 0 .252 0 .4 0 .503.093.503.227c0 .084-.034.137-.116.182M.253.634C.315.634.358.596.358.541.358.487.314.448.253.448.19.448.147.486.147.542c0 .054.043.092.106.092M.251.353C.32.353.363.307.363.233.363.165.319.12.251.12S.14.165.14.235c0 .072.043.118.111.118z"/></symbol><use xlink:href="#S" transform="matrix(8.21063 0 0 -8.21063 22.277 104.182)"/><use xlink:href="#m" transform="matrix(8.21063 0 0 -8.21063 26.9 104.182)"/></g><clipPath id="T"><path transform="matrix(1 0 0 -1 0 217)" d="M5.67 2.165h272.125v212.213H5.67z"/></clipPath><g clip-path="url(#T)"><symbol id="U"><path d="M.17.489V0h.14v.709H.217C.195.625.122.582 0 .582V.489h.17z"/></symbol><use xlink:href="#U" transform="matrix(8.21063 0 0 -8.21063 17.604 81.265)"/><use xlink:href="#m" transform="matrix(8.21063 0 0 -8.21063 21.849 81.454)"/><use xlink:href="#m" transform="matrix(8.21063 0 0 -8.21063 26.414 81.454)"/></g><clipPath id="V"><path transform="matrix(1 0 0 -1 0 217)" d="M5.67 2.165h272.125v212.213H5.67z"/></clipPath><g clip-path="url(#V)"><use xlink:href="#U" transform="matrix(8.21063 0 0 -8.21063 17.604 57.906)"/><use xlink:href="#N" transform="matrix(8.21063 0 0 -8.21063 21.857 57.906)"/><use xlink:href="#m" transform="matrix(8.21063 0 0 -8.21063 26.414 58.095)"/></g><clipPath id="W"><path transform="matrix(1 0 0 -1 0 217)" d="M5.67 2.165h272.125v212.213H5.67z"/></clipPath><g clip-path="url(#W)"><use xlink:href="#U" transform="matrix(8.21063 0 0 -8.21063 17.604 34.547)"/><use xlink:href="#k" transform="matrix(8.21063 0 0 -8.21063 21.808 34.547)"/><use xlink:href="#m" transform="matrix(8.21063 0 0 -8.21063 26.414 34.736)"/></g><clipPath id="X"><path transform="matrix(1 0 0 -1 0 217)" d="M5.67 2.165h272.125v212.213H5.67z"/></clipPath><g clip-path="url(#X)"><symbol id="Y"><path d="M.35.764A.324.324 0 0 1 .102.663.414.414 0 0 1 0 .382C0 .273.037.17.102.101A.321.321 0 0 1 .351 0C.455 0 .537.033.6.101a.416.416 0 0 1 .102.276A.416.416 0 0 1 .6.663a.319.319 0 0 1-.25.101M.351.636c.123 0 .201-.1.201-.258 0-.15-.081-.25-.201-.25-.122 0-.201.1-.201.254s.079.254.201.254z"/></symbol><symbol id="Z"><path d="M.488.361C.478.493.391.572.255.572.093.572 0 .466 0 .282 0 .104.093 0 .253 0c.131 0 .222.081.235.21H.354C.337.14.309.113.253.113.182.113.14.176.14.282c0 .052.01.099.027.131.016.03.047.046.087.046.057 0 .084-.027.1-.098h.134z"/></symbol><symbol id="aa"><path d="M.266.572C.101.572 0 .463 0 .286 0 .108.101 0 .267 0c.165 0 .267.108.267.282 0 .183-.099.29-.268.29M.267.459C.344.459.394.39.394.284.394.183.342.113.267.113.191.113.14.182.14.286c0 .104.051.173.127.173z"/></symbol><symbol id="ab"><path d="M.438.54h-.42V.427h.249L0 .113V0h.447v.113H.173l.265.314V.54z"/></symbol><use xlink:href="#i" transform="matrix(0 -8.21063 -8.21063 0 14.52 71.164)"/><use xlink:href="#Y" transform="matrix(0 -8.21063 -8.21063 0 14.71 68.553)"/><use xlink:href="#Z" transform="matrix(0 -8.21063 -8.21063 0 14.71 62.214)"/><use xlink:href="#Z" transform="matrix(0 -8.21063 -8.21063 0 14.71 57.65)"/><use xlink:href="#aa" transform="matrix(0 -8.21063 -8.21063 0 14.71 53.076)"/><use xlink:href="#e" transform="matrix(0 -8.21063 -8.21063 0 14.52 47.83)"/><use xlink:href="#e" transform="matrix(0 -8.21063 -8.21063 0 14.52 44.635)"/><use xlink:href="#g" transform="matrix(0 -8.21063 -8.21063 0 14.71 41.778)"/><use xlink:href="#c" transform="matrix(0 -8.21063 -8.21063 0 14.52 36.876)"/><use xlink:href="#ab" transform="matrix(0 -8.21063 -8.21063 0 14.52 32.205)"/><use xlink:href="#g" transform="matrix(0 -8.21063 -8.21063 0 14.71 28.091)"/></g><path d="M196.157 34.453h54.425v-10.61h-54.425z" fill="#fff" fill-rule="evenodd"/><path stroke-width=".4" stroke-miterlimit="10" fill="none" stroke="#fff" d="M196.157 34.453h54.425v-10.61h-54.425z"/><path stroke-width=".75" stroke-miterlimit="10" fill="none" stroke="#000" d="M196.157 34.453h54.426M250.583 34.453v-10.61M250.583 23.843h-54.426M196.157 23.843v10.61"/><clipPath id="ac"><path transform="matrix(1 0 0 -1 0 217)" d="M5.67 2.165h272.125v212.213H5.67z"/></clipPath><g clip-path="url(#ac)"><use xlink:href="#b" transform="matrix(6.94746 0 0 -6.94746 199.416 32.022)"/><use xlink:href="#c" transform="matrix(6.94746 0 0 -6.94746 203.939 32.022)"/><use xlink:href="#d" transform="matrix(6.94746 0 0 -6.94746 207.843 32.182)"/><use xlink:href="#e" transform="matrix(6.94746 0 0 -6.94746 210.497 32.022)"/><use xlink:href="#f" transform="matrix(6.94746 0 0 -6.94746 213.227 32.022)"/><use xlink:href="#g" transform="matrix(6.94746 0 0 -6.94746 214.846 32.182)"/><use xlink:href="#h" transform="matrix(6.94746 0 0 -6.94746 218.758 32.182)"/><use xlink:href="#i" transform="matrix(6.94746 0 0 -6.94746 222.419 32.022)"/></g><clipPath id="ad"><path transform="matrix(1 0 0 -1 0 217)" d="M5.67 2.165h272.125v212.213H5.67z"/></clipPath><g clip-path="url(#ad)"><use xlink:href="#i" transform="matrix(6.94746 0 0 -6.94746 229.802 31.391)"/><use xlink:href="#k" transform="matrix(6.94746 0 0 -6.94746 231.9 31.391)"/><use xlink:href="#l" transform="matrix(6.94746 0 0 -6.94746 235.79 31.558)"/><use xlink:href="#m" transform="matrix(6.94746 0 0 -6.94746 239.66 31.55)"/><use xlink:href="#m" transform="matrix(6.94746 0 0 -6.94746 243.523 31.55)"/></g><path d="M128.126 47.186h122.457V23.843H128.126z" fill="#fff" fill-rule="evenodd"/><path stroke-width=".4" stroke-miterlimit="10" fill="none" stroke="#fff" d="M128.126 47.186h122.457V23.843H128.126z"/><path stroke-width=".75" stroke-miterlimit="10" fill="none" stroke="#000" d="M128.126 47.186h122.457M250.583 47.186V23.843M250.583 23.843H128.126M128.126 23.843v23.343"/><clipPath id="ae"><path transform="matrix(1 0 0 -1 0 217)" d="M5.67 2.165h272.125v212.213H5.67z"/></clipPath><g clip-path="url(#ae)"><symbol id="af"><path d="M.15.729H0V0h.499v.125H.15v.604z"/></symbol><symbol id="ag"><path d="M.359.758V.675C.32.738.277.767.22.767A.199.199 0 0 1 .082.704.32.32 0 0 1 0 .475c0-.166.088-.28.217-.28.058 0 .093.019.142.078V.2C.359.135.313.09.247.09.197.09.166.112.155.153H.011C.012.111.027.082.064.052A.274.274 0 0 1 .242 0c.156 0 .25.075.25.2v.558H.359M.246.65C.312.65.361.577.361.477.361.379.314.312.244.312.183.312.14.379.14.477.14.579.183.65.246.65z"/></symbol><symbol id="ah"><path d="M.376.023h.14v.729h-.14V.493a.162.162 0 0 1-.149.079C.098.572 0 .448 0 .285 0 .212.022.138.058.086A.21.21 0 0 1 .227 0c.068 0 .114.024.149.078V.023M.258.455C.329.455.376.387.376.283.376.185.328.117.258.117.188.117.14.186.14.285c0 .101.048.17.118.17z"/></symbol><symbol id="ai"><path d="M.496.04C.472.063.464.079.464.106v.3c0 .11-.075.166-.221.166C.097.572.021.51.012.385h.135c.007.056.03.074.099.074C.3.459.327.441.327.405A.048.048 0 0 0 .303.363C.284.353.284.353.215.342L.159.332C.052.314 0 .259 0 .162 0 .065.065 0 .164 0c.06 0 .114.025.164.077 0-.028.003-.038.016-.054h.152V.04m-.169.2C.327.159.287.113.216.113.169.113.14.138.14.178.14.22.162.24.22.252l.048.009a.176.176 0 0 1 .059.017V.24z"/></symbol><use xlink:href="#af" transform="matrix(7.57905 0 0 -7.57905 131.29 32.022)"/><use xlink:href="#g" transform="matrix(7.57905 0 0 -7.57905 135.482 32.196)"/><use xlink:href="#ag" transform="matrix(7.57905 0 0 -7.57905 139.84 33.674)"/><use xlink:href="#g" transform="matrix(7.57905 0 0 -7.57905 144.326 32.196)"/><use xlink:href="#c" transform="matrix(7.57905 0 0 -7.57905 148.851 32.022)"/><use xlink:href="#ah" transform="matrix(7.57905 0 0 -7.57905 153.224 32.196)"/><use xlink:href="#ai" transform="matrix(7.57905 0 0 -7.57905 157.847 32.196)"/></g><clipPath id="aj"><path transform="matrix(1 0 0 -1 0 217)" d="M5.67 2.165h272.125v212.213H5.67z"/></clipPath><g clip-path="url(#aj)"><symbol id="ak"><path d="M0 0h.285c.111 0 .181.026.231.085a.432.432 0 0 1 .088.28.436.436 0 0 1-.088.28C.466.704.397.729.285.729H0V0m.15.125v.479h.135c.113 0 .169-.079.169-.24C.454.204.398.125.285.125H.15z"/></symbol><symbol id="al"><path d="M0 .752V.023h.14v.055A.162.162 0 0 1 .289 0c.129 0 .227.123.227.286a.361.361 0 0 1-.058.199.21.21 0 0 1-.169.087A.16.16 0 0 1 .14.493v.259H0M.258.455c.069 0 .118-.07.118-.17C.376.186.328.117.258.117.187.117.14.184.14.288c0 .099.048.167.118.167z"/></symbol><symbol id="am"><path d="M.483.023v.54h-.14V.225C.343.161.299.119.23.119.17.119.14.151.14.216v.347H0V.187C0 .067.065 0 .181 0c.073 0 .122.026.162.087V.023h.14z"/></symbol><symbol id="an"><path d="M.14.758H0V0h.14v.282A.16.16 0 0 1 .29.194c.13 0 .226.122.226.286a.36.36 0 0 1-.058.202.213.213 0 0 1-.168.085.16.16 0 0 1-.15-.089v.08M.258.65C.329.65.376.582.376.478.376.379.328.311.258.311.187.311.14.379.14.48c0 .102.047.17.118.17z"/></symbol><symbol id="ao"><path d="M.14.729H0V0h.14v.729z"/></symbol><use xlink:href="#ak" transform="matrix(7.57905 0 0 -7.57905 159.046 43.386)"/><use xlink:href="#f" transform="matrix(7.57905 0 0 -7.57905 164.442 43.386)"/><use xlink:href="#h" transform="matrix(7.57905 0 0 -7.57905 166.26 43.56)"/><use xlink:href="#d" transform="matrix(7.57905 0 0 -7.57905 170.361 43.56)"/><use xlink:href="#e" transform="matrix(7.57905 0 0 -7.57905 173.256 43.386)"/><use xlink:href="#f" transform="matrix(7.57905 0 0 -7.57905 176.235 43.386)"/><use xlink:href="#al" transform="matrix(7.57905 0 0 -7.57905 178.281 43.56)"/><use xlink:href="#am" transform="matrix(7.57905 0 0 -7.57905 182.904 43.56)"/><use xlink:href="#ab" transform="matrix(7.57905 0 0 -7.57905 187.255 43.386)"/><use xlink:href="#f" transform="matrix(7.57905 0 0 -7.57905 191.393 43.386)"/><use xlink:href="#aa" transform="matrix(7.57905 0 0 -7.57905 193.257 43.56)"/><use xlink:href="#c" transform="matrix(7.57905 0 0 -7.57905 198.1 43.386)"/><use xlink:href="#g" transform="matrix(7.57905 0 0 -7.57905 202.42 43.56)"/><use xlink:href="#i" transform="matrix(7.57905 0 0 -7.57905 206.468 43.386)"/><use xlink:href="#an" transform="matrix(7.57905 0 0 -7.57905 209.014 45.038)"/><use xlink:href="#e" transform="matrix(7.57905 0 0 -7.57905 213.683 43.386)"/><use xlink:href="#g" transform="matrix(7.57905 0 0 -7.57905 216.32 43.56)"/><use xlink:href="#i" transform="matrix(7.57905 0 0 -7.57905 220.368 43.386)"/><use xlink:href="#d" transform="matrix(7.57905 0 0 -7.57905 222.58 43.56)"/><use xlink:href="#ai" transform="matrix(7.57905 0 0 -7.57905 225.21 43.56)"/><use xlink:href="#ag" transform="matrix(7.57905 0 0 -7.57905 229.523 45.038)"/><use xlink:href="#ao" transform="matrix(7.57905 0 0 -7.57905 234.351 43.386)"/><use xlink:href="#f" transform="matrix(7.57905 0 0 -7.57905 236.458 43.386)"/><use xlink:href="#aa" transform="matrix(7.57905 0 0 -7.57905 238.322 43.56)"/></g><path stroke-width="1.5" stroke-miterlimit="10" fill="none" stroke="#00f" d="M132.718 41.35h21.43"/><path d="M132.382 17.476h18.7V6.866h-18.7z" fill="#fff" fill-rule="evenodd"/><path stroke-width=".4" stroke-miterlimit="10" fill="none" stroke="#fff" d="M132.382 17.476h18.7V6.866h-18.7z"/><clipPath id="ap"><path transform="matrix(1 0 0 -1 0 217)" d="M5.67 2.165h272.125v212.213H5.67z"/></clipPath><g clip-path="url(#ap)"><symbol id="aq"><path d="M0 0h.328c.084 0 .14.016.184.053A.211.211 0 0 1 .584.21c0 .072-.038.129-.121.177.072.046.1.088.1.15a.19.19 0 0 1-.066.139C.454.713.403.729.325.729H0V0m.15.604h.163c.07 0 .106-.028.106-.082C.419.467.383.439.313.439H.15v.165m0-.29h.179C.402.314.44.282.44.219.44.157.402.125.329.125H.15v.189z"/></symbol><use xlink:href="#aq" transform="matrix(8.21063 0 0 -8.21063 136.408 14.976)"/><use xlink:href="#g" transform="matrix(8.21063 0 0 -8.21063 141.844 15.165)"/></g><path d="M289.134 214.835H561.26V2.622H289.134z" fill="#fff" fill-rule="evenodd"/><path stroke-width=".4" stroke-miterlimit="10" fill="none" stroke="#fff" d="M289.134 214.835H561.26V2.622H289.134z"/><path d="M316.346 193.613h217.701V23.843H316.346z" fill="#fff" fill-rule="evenodd"/><path stroke-width=".4" stroke-miterlimit="10" fill="none" stroke="#fff" d="M316.346 193.613h217.701V23.843H316.346z"/><path stroke-width=".75" stroke-miterlimit="10" fill="none" stroke="#000" d="M316.346 193.613h217.701V23.843H316.346z"/><path d="M316.346 193.613h217.701V23.843H316.346z" fill="#fff" fill-rule="evenodd"/><path stroke-width=".4" stroke-miterlimit="10" fill="none" stroke="#fff" d="M316.346 193.613h217.701V23.843H316.346z"/><path stroke-width=".75" stroke-miterlimit="10" fill="none" stroke="#000" d="M316.346 193.613h217.701V23.843H316.346z"/><path stroke-width="1.5" stroke-miterlimit="10" fill="none" stroke="#00f" d="M316.346 193.613H359.887v-1.37h1.741v-2.74h1.742v-8.222h3.483v-1.37h1.742v-12.332h1.741v-13.702h1.742v-9.592h1.741v-24.664h1.742v19.183h1.742V97.698h1.741V82.625h1.742V67.553h1.741v2.74h1.742V31.927h1.742v8.221h1.741v19.183h1.742v5.481h1.742v20.554h1.741v4.11h3.483v10.962h1.742v21.924h1.742v16.442h1.741v1.37h1.742v12.333h1.741v24.663h1.742v-4.11h1.742v8.221h1.741v-9.591h1.742v-8.222h1.741v-4.11h1.742v1.37h1.742v-13.702h1.741v19.183h1.742v-24.664h1.741v4.11h1.742v-16.442h1.742v13.702h1.741v-5.48h1.742v2.74h1.741v9.591h1.742v-9.591h1.742v16.442h1.741v-8.221h1.742v-1.37h1.742v4.11h1.741v8.222h1.742v-9.592h1.741v4.11h1.742v9.592h1.742v-1.37h1.741v1.37h1.742v16.443h1.741v-2.74h1.742v-1.37h1.742v1.37h1.741v4.11h1.742v-2.74h1.741v6.85h1.742v-2.74h1.742v6.852h1.741v-4.111h1.742v6.851h1.741v-1.37h1.742v2.74H534.047"/><path d="M479.622 34.453h54.425v-10.61h-54.425z" fill="#fff" fill-rule="evenodd"/><path stroke-width=".4" stroke-miterlimit="10" fill="none" stroke="#fff" d="M479.622 34.453h54.425v-10.61h-54.425z"/><path stroke-width=".75" stroke-miterlimit="10" fill="none" stroke="#000" d="M479.622 34.453h54.425M534.047 34.453v-10.61M534.047 23.843h-54.425M479.622 23.843v10.61"/><clipPath id="ar"><path transform="matrix(1 0 0 -1 0 217)" d="M289.134 2.165H561.26v212.213H289.134z"/></clipPath><g clip-path="url(#ar)"><use xlink:href="#b" transform="matrix(6.94746 0 0 -6.94746 482.88 32.022)"/><use xlink:href="#c" transform="matrix(6.94746 0 0 -6.94746 487.404 32.022)"/><use xlink:href="#d" transform="matrix(6.94746 0 0 -6.94746 491.308 32.182)"/><use xlink:href="#e" transform="matrix(6.94746 0 0 -6.94746 493.962 32.022)"/><use xlink:href="#f" transform="matrix(6.94746 0 0 -6.94746 496.692 32.022)"/><use xlink:href="#g" transform="matrix(6.94746 0 0 -6.94746 498.311 32.182)"/><use xlink:href="#h" transform="matrix(6.94746 0 0 -6.94746 502.223 32.182)"/><use xlink:href="#i" transform="matrix(6.94746 0 0 -6.94746 505.884 32.022)"/></g><clipPath id="as"><path transform="matrix(1 0 0 -1 0 217)" d="M289.134 2.165H561.26v212.213H289.134z"/></clipPath><g clip-path="url(#as)"><use xlink:href="#i" transform="matrix(6.94746 0 0 -6.94746 514.529 31.391)"/><use xlink:href="#N" transform="matrix(6.94746 0 0 -6.94746 516.669 31.391)"/><use xlink:href="#N" transform="matrix(6.94746 0 0 -6.94746 520.532 31.391)"/><use xlink:href="#S" transform="matrix(6.94746 0 0 -6.94746 524.339 31.55)"/><use xlink:href="#U" transform="matrix(6.94746 0 0 -6.94746 528.521 31.391)"/></g><path stroke-width=".75" stroke-miterlimit="10" fill="none" stroke="#000" d="M316.346 193.613h217.701M316.346 188.52v5.093M320.7 191.067v2.546M325.055 191.067v2.546M329.409 191.067v2.546M333.763 191.067v2.546M338.117 188.52v5.093M342.471 191.067v2.546M346.825 191.067v2.546M351.179 191.067v2.546M355.533 191.067v2.546M359.887 188.52v5.093M364.241 191.067v2.546M368.595 191.067v2.546M372.949 191.067v2.546M377.303 191.067v2.546M381.657 188.52v5.093M386.011 191.067v2.546M390.365 191.067v2.546M394.719 191.067v2.546M399.073 191.067v2.546M403.427 188.52v5.093M407.781 191.067v2.546M412.135 191.067v2.546M416.489 191.067v2.546M420.843 191.067v2.546M425.197 188.52v5.093M429.551 191.067v2.546M433.905 191.067v2.546M438.259 191.067v2.546M442.613 191.067v2.546M446.967 188.52v5.093M451.321 191.067v2.546M455.675 191.067v2.546M460.029 191.067v2.546M464.383 191.067v2.546M468.737 188.52v5.093M473.091 191.067v2.546M477.445 191.067v2.546M481.799 191.067v2.546M486.153 191.067v2.546M490.507 188.52v5.093M494.861 191.067v2.546M499.215 191.067v2.546M503.569 191.067v2.546M507.923 191.067v2.546M512.277 188.52v5.093M516.631 191.067v2.546M520.985 191.067v2.546M525.339 191.067v2.546M529.693 191.067v2.546M534.047 188.52v5.093"/><clipPath id="at"><path transform="matrix(1 0 0 -1 0 217)" d="M289.134 2.165H561.26v212.213H289.134z"/></clipPath><g clip-path="url(#at)"><use xlink:href="#o" transform="matrix(6.94746 0 0 -6.94746 314.594 200.586)"/></g><clipPath id="au"><path transform="matrix(1 0 0 -1 0 217)" d="M289.134 2.165H561.26v212.213H289.134z"/></clipPath><g clip-path="url(#au)"><use xlink:href="#q" transform="matrix(6.94746 0 0 -6.94746 336.107 200.745)"/></g><clipPath id="av"><path transform="matrix(1 0 0 -1 0 217)" d="M289.134 2.165H561.26v212.213H289.134z"/></clipPath><g clip-path="url(#av)"><use xlink:href="#s" transform="matrix(6.94746 0 0 -6.94746 358.26 200.745)"/></g><clipPath id="aw"><path transform="matrix(1 0 0 -1 0 217)" d="M289.134 2.165H561.26v212.213H289.134z"/></clipPath><g clip-path="url(#aw)"><use xlink:href="#u" transform="matrix(6.94746 0 0 -6.94746 379.746 200.586)"/></g><clipPath id="ax"><path transform="matrix(1 0 0 -1 0 217)" d="M289.134 2.165H561.26v212.213H289.134z"/></clipPath><g clip-path="url(#ax)"><use xlink:href="#w" transform="matrix(6.94746 0 0 -6.94746 401.78 200.745)"/></g><clipPath id="ay"><path transform="matrix(1 0 0 -1 0 217)" d="M289.134 2.165H561.26v212.213H289.134z"/></clipPath><g clip-path="url(#ay)"><use xlink:href="#y" transform="matrix(6.94746 0 0 -6.94746 423.251 200.745)"/></g><clipPath id="az"><path transform="matrix(1 0 0 -1 0 217)" d="M289.134 2.165H561.26v212.213H289.134z"/></clipPath><g clip-path="url(#az)"><use xlink:href="#A" transform="matrix(6.94746 0 0 -6.94746 443.267 200.586)"/><use xlink:href="#B" transform="matrix(6.94746 0 0 -6.94746 446.72 200.745)"/></g><clipPath id="aA"><path transform="matrix(1 0 0 -1 0 217)" d="M289.134 2.165H561.26v212.213H289.134z"/></clipPath><g clip-path="url(#aA)"><use xlink:href="#A" transform="matrix(6.94746 0 0 -6.94746 465.995 200.586)"/><use xlink:href="#A" transform="matrix(6.94746 0 0 -6.94746 469.857 200.586)"/></g><clipPath id="aB"><path transform="matrix(1 0 0 -1 0 217)" d="M289.134 2.165H561.26v212.213H289.134z"/></clipPath><g clip-path="url(#aB)"><use xlink:href="#A" transform="matrix(6.94746 0 0 -6.94746 486.829 200.586)"/><use xlink:href="#E" transform="matrix(6.94746 0 0 -6.94746 490.219 200.579)"/></g><clipPath id="aC"><path transform="matrix(1 0 0 -1 0 217)" d="M289.134 2.165H561.26v212.213H289.134z"/></clipPath><g clip-path="url(#aC)"><use xlink:href="#A" transform="matrix(6.94746 0 0 -6.94746 508.925 200.586)"/><use xlink:href="#G" transform="matrix(6.94746 0 0 -6.94746 512.301 200.745)"/></g><clipPath id="aD"><path transform="matrix(1 0 0 -1 0 217)" d="M289.134 2.165H561.26v212.213H289.134z"/></clipPath><g clip-path="url(#aD)"><use xlink:href="#A" transform="matrix(6.94746 0 0 -6.94746 530.39 200.586)"/><use xlink:href="#o" transform="matrix(6.94746 0 0 -6.94746 533.738 200.586)"/></g><clipPath id="aE"><path transform="matrix(1 0 0 -1 0 217)" d="M289.134 2.165H561.26v212.213H289.134z"/></clipPath><g clip-path="url(#aE)"><use xlink:href="#G" transform="matrix(5.0527 0 0 -5.0527 530.474 213.96)"/></g><clipPath id="aF"><path transform="matrix(1 0 0 -1 0 217)" d="M289.134 2.165H561.26v212.213H289.134z"/></clipPath><g clip-path="url(#aF)"><use xlink:href="#K" transform="matrix(8.21063 0 0 -8.21063 524.77 211.318)"/></g><path stroke-width=".75" stroke-miterlimit="10" fill="none" stroke="#000" d="M316.346 193.613V23.843M322.877 193.613h-6.531M319.612 186.762h-3.266M319.612 179.911h-3.266M319.612 173.06h-3.266M322.877 166.209h-6.531M319.612 159.358h-3.266M319.612 152.507h-3.266M319.612 145.655h-3.266M322.877 138.804h-6.531M319.612 131.953h-3.266M319.612 125.102h-3.266M319.612 118.25h-3.266M322.877 111.4h-6.531M319.612 104.549h-3.266M319.612 97.698h-3.266M319.612 90.846h-3.266M322.877 83.995h-6.531M319.612 77.144h-3.266M319.612 70.293h-3.266M319.612 63.442h-3.266M322.877 56.591h-6.531M319.612 49.74h-3.266M319.612 42.889h-3.266M319.612 36.038h-3.266M322.877 29.186h-6.531M322.877 29.186h-6.531"/><clipPath id="aG"><path transform="matrix(1 0 0 -1 0 217)" d="M289.134 2.165H561.26v212.213H289.134z"/></clipPath><g clip-path="url(#aG)"><use xlink:href="#m" transform="matrix(8.21063 0 0 -8.21063 310.218 196.355)"/></g><clipPath id="aH"><path transform="matrix(1 0 0 -1 0 217)" d="M289.134 2.165H561.26v212.213H289.134z"/></clipPath><g clip-path="url(#aH)"><use xlink:href="#N" transform="matrix(8.21063 0 0 -8.21063 305.807 169.02)"/><use xlink:href="#m" transform="matrix(8.21063 0 0 -8.21063 310.364 169.208)"/></g><clipPath id="aI"><path transform="matrix(1 0 0 -1 0 217)" d="M289.134 2.165H561.26v212.213H289.134z"/></clipPath><g clip-path="url(#aI)"><use xlink:href="#k" transform="matrix(8.21063 0 0 -8.21063 305.758 141.872)"/><use xlink:href="#m" transform="matrix(8.21063 0 0 -8.21063 310.364 142.061)"/></g><clipPath id="aJ"><path transform="matrix(1 0 0 -1 0 217)" d="M289.134 2.165H561.26v212.213H289.134z"/></clipPath><g clip-path="url(#aJ)"><use xlink:href="#Q" transform="matrix(8.21063 0 0 -8.21063 305.824 114.283)"/><use xlink:href="#m" transform="matrix(8.21063 0 0 -8.21063 310.364 114.283)"/></g><clipPath id="aK"><path transform="matrix(1 0 0 -1 0 217)" d="M289.134 2.165H561.26v212.213H289.134z"/></clipPath><g clip-path="url(#aK)"><use xlink:href="#S" transform="matrix(8.21063 0 0 -8.21063 305.742 87.136)"/><use xlink:href="#m" transform="matrix(8.21063 0 0 -8.21063 310.364 87.136)"/></g><clipPath id="aL"><path transform="matrix(1 0 0 -1 0 217)" d="M289.134 2.165H561.26v212.213H289.134z"/></clipPath><g clip-path="url(#aL)"><use xlink:href="#U" transform="matrix(8.21063 0 0 -8.21063 301.068 59.169)"/><use xlink:href="#m" transform="matrix(8.21063 0 0 -8.21063 305.313 59.358)"/><use xlink:href="#m" transform="matrix(8.21063 0 0 -8.21063 309.878 59.358)"/></g><clipPath id="aM"><path transform="matrix(1 0 0 -1 0 217)" d="M289.134 2.165H561.26v212.213H289.134z"/></clipPath><g clip-path="url(#aM)"><use xlink:href="#U" transform="matrix(8.21063 0 0 -8.21063 301.068 32.022)"/><use xlink:href="#N" transform="matrix(8.21063 0 0 -8.21063 305.321 32.022)"/><use xlink:href="#m" transform="matrix(8.21063 0 0 -8.21063 309.878 32.21)"/></g><clipPath id="aN"><path transform="matrix(1 0 0 -1 0 217)" d="M289.134 2.165H561.26v212.213H289.134z"/></clipPath><g clip-path="url(#aN)"><use xlink:href="#i" transform="matrix(0 -8.21063 -8.21063 0 297.985 71.164)"/><use xlink:href="#Y" transform="matrix(0 -8.21063 -8.21063 0 298.174 68.553)"/><use xlink:href="#Z" transform="matrix(0 -8.21063 -8.21063 0 298.174 62.214)"/><use xlink:href="#Z" transform="matrix(0 -8.21063 -8.21063 0 298.174 57.65)"/><use xlink:href="#aa" transform="matrix(0 -8.21063 -8.21063 0 298.174 53.076)"/><use xlink:href="#e" transform="matrix(0 -8.21063 -8.21063 0 297.985 47.83)"/><use xlink:href="#e" transform="matrix(0 -8.21063 -8.21063 0 297.985 44.635)"/><use xlink:href="#g" transform="matrix(0 -8.21063 -8.21063 0 298.174 41.778)"/><use xlink:href="#c" transform="matrix(0 -8.21063 -8.21063 0 297.985 36.876)"/><use xlink:href="#ab" transform="matrix(0 -8.21063 -8.21063 0 297.985 32.205)"/><use xlink:href="#g" transform="matrix(0 -8.21063 -8.21063 0 298.174 28.091)"/></g><path d="M479.622 34.453h54.425v-10.61h-54.425z" fill="#fff" fill-rule="evenodd"/><path stroke-width=".4" stroke-miterlimit="10" fill="none" stroke="#fff" d="M479.622 34.453h54.425v-10.61h-54.425z"/><path stroke-width=".75" stroke-miterlimit="10" fill="none" stroke="#000" d="M479.622 34.453h54.425M534.047 34.453v-10.61M534.047 23.843h-54.425M479.622 23.843v10.61"/><clipPath id="aO"><path transform="matrix(1 0 0 -1 0 217)" d="M289.134 2.165H561.26v212.213H289.134z"/></clipPath><g clip-path="url(#aO)"><use xlink:href="#b" transform="matrix(6.94746 0 0 -6.94746 482.88 32.022)"/><use xlink:href="#c" transform="matrix(6.94746 0 0 -6.94746 487.404 32.022)"/><use xlink:href="#d" transform="matrix(6.94746 0 0 -6.94746 491.308 32.182)"/><use xlink:href="#e" transform="matrix(6.94746 0 0 -6.94746 493.962 32.022)"/><use xlink:href="#f" transform="matrix(6.94746 0 0 -6.94746 496.692 32.022)"/><use xlink:href="#g" transform="matrix(6.94746 0 0 -6.94746 498.311 32.182)"/><use xlink:href="#h" transform="matrix(6.94746 0 0 -6.94746 502.223 32.182)"/><use xlink:href="#i" transform="matrix(6.94746 0 0 -6.94746 505.884 32.022)"/></g><clipPath id="aP"><path transform="matrix(1 0 0 -1 0 217)" d="M289.134 2.165H561.26v212.213H289.134z"/></clipPath><g clip-path="url(#aP)"><use xlink:href="#i" transform="matrix(6.94746 0 0 -6.94746 514.529 31.391)"/><use xlink:href="#N" transform="matrix(6.94746 0 0 -6.94746 516.669 31.391)"/><use xlink:href="#N" transform="matrix(6.94746 0 0 -6.94746 520.532 31.391)"/><use xlink:href="#S" transform="matrix(6.94746 0 0 -6.94746 524.339 31.55)"/><use xlink:href="#U" transform="matrix(6.94746 0 0 -6.94746 528.521 31.391)"/></g><path stroke-width="1.5" stroke-miterlimit="10" fill="none" stroke="#000" d="M316.346 193.613H366.853v-1.37h1.742v-1.37h1.741V175.8h1.742v-23.293h1.741V119.62h1.742v19.183h1.742V97.698h1.741V83.995h1.742V67.553h1.741v4.11h1.742V33.297h1.742v9.592h1.741v21.923h1.742v5.481h1.742v19.183h1.741v9.592h1.742v4.11h1.741v19.184h1.742v20.553h1.742v30.145h1.741v-4.11h1.742v-1.371h3.483v-6.851h1.742v2.74h1.741v-8.221h1.742v-2.74h1.741v-2.74h1.742v2.74h1.742v-12.333h1.741v23.294h1.742v-21.923h1.741v8.221h1.742v-17.813h1.742v10.962h1.741v-4.11h1.742v2.74h1.741v8.221h1.742v-9.591h1.742v16.442h1.741v-8.221h1.742v-1.37h1.742v4.11h1.741v8.222h1.742v-9.592h1.741v5.481h1.742v9.591h3.483v1.37h1.742v13.703h1.741v-1.37h1.742v-1.37h3.483v4.11h1.742v-1.37h1.741v5.48h1.742v-1.37h1.742v6.852h1.741v1.37h3.483v1.37H534.047"/><path d="M452.409 59.919h81.638V23.843h-81.638z" fill="#fff" fill-rule="evenodd"/><path stroke-width=".4" stroke-miterlimit="10" fill="none" stroke="#fff" d="M452.409 59.919h81.638V23.843h-81.638z"/><path stroke-width=".75" stroke-miterlimit="10" fill="none" stroke="#000" d="M452.409 59.919h81.638M534.047 59.919V23.843M534.047 23.843h-81.638M452.409 23.843v36.076"/><clipPath id="aQ"><path transform="matrix(1 0 0 -1 0 217)" d="M289.134 2.165H561.26v212.213H289.134z"/></clipPath><g clip-path="url(#aQ)"><use xlink:href="#af" transform="matrix(8.21063 0 0 -8.21063 454.579 32.022)"/><use xlink:href="#g" transform="matrix(8.21063 0 0 -8.21063 459.12 32.21)"/><use xlink:href="#ag" transform="matrix(8.21063 0 0 -8.21063 463.84 33.812)"/><use xlink:href="#g" transform="matrix(8.21063 0 0 -8.21063 468.701 32.21)"/><use xlink:href="#c" transform="matrix(8.21063 0 0 -8.21063 473.603 32.022)"/><use xlink:href="#ah" transform="matrix(8.21063 0 0 -8.21063 478.34 32.21)"/><use xlink:href="#ai" transform="matrix(8.21063 0 0 -8.21063 483.349 32.21)"/></g><clipPath id="aR"><path transform="matrix(1 0 0 -1 0 217)" d="M289.134 2.165H561.26v212.213H289.134z"/></clipPath><g clip-path="url(#aR)"><symbol id="aS"><path d="M.371.604h.213v.125H0V.604h.221V0h.15v.604z"/></symbol><use xlink:href="#aS" transform="matrix(8.21063 0 0 -8.21063 472.345 44.017)"/><use xlink:href="#ai" transform="matrix(8.21063 0 0 -8.21063 477.477 44.206)"/><use xlink:href="#ag" transform="matrix(8.21063 0 0 -8.21063 482.148 45.807)"/><use xlink:href="#ao" transform="matrix(8.21063 0 0 -8.21063 487.379 44.017)"/><use xlink:href="#f" transform="matrix(8.21063 0 0 -8.21063 489.661 44.017)"/><use xlink:href="#aa" transform="matrix(8.21063 0 0 -8.21063 491.681 44.206)"/><use xlink:href="#i" transform="matrix(8.21063 0 0 -8.21063 496.41 44.017)"/><use xlink:href="#ah" transform="matrix(8.21063 0 0 -8.21063 498.931 44.206)"/><use xlink:href="#f" transform="matrix(8.21063 0 0 -8.21063 504.26 44.017)"/><use xlink:href="#i" transform="matrix(8.21063 0 0 -8.21063 505.992 44.017)"/><use xlink:href="#d" transform="matrix(8.21063 0 0 -8.21063 508.39 44.206)"/><use xlink:href="#f" transform="matrix(8.21063 0 0 -8.21063 511.559 44.017)"/><use xlink:href="#an" transform="matrix(8.21063 0 0 -8.21063 513.768 45.807)"/><use xlink:href="#aa" transform="matrix(8.21063 0 0 -8.21063 518.595 44.206)"/><use xlink:href="#i" transform="matrix(8.21063 0 0 -8.21063 523.325 44.017)"/><use xlink:href="#U" transform="matrix(8.21063 0 0 -8.21063 526.166 44.017)"/></g><path stroke-width="1.5" stroke-miterlimit="10" fill="none" stroke="#000" d="M455.471 41.881h14.286"/><clipPath id="aT"><path transform="matrix(1 0 0 -1 0 217)" d="M289.134 2.165H561.26v212.213H289.134z"/></clipPath><g clip-path="url(#aT)"><use xlink:href="#aS" transform="matrix(8.21063 0 0 -8.21063 472.345 56.012)"/><use xlink:href="#ai" transform="matrix(8.21063 0 0 -8.21063 477.477 56.2)"/><use xlink:href="#ag" transform="matrix(8.21063 0 0 -8.21063 482.148 57.802)"/><use xlink:href="#ao" transform="matrix(8.21063 0 0 -8.21063 487.379 56.012)"/><use xlink:href="#f" transform="matrix(8.21063 0 0 -8.21063 489.661 56.012)"/><use xlink:href="#aa" transform="matrix(8.21063 0 0 -8.21063 491.681 56.2)"/><use xlink:href="#i" transform="matrix(8.21063 0 0 -8.21063 496.41 56.012)"/><use xlink:href="#ah" transform="matrix(8.21063 0 0 -8.21063 498.931 56.2)"/><use xlink:href="#f" transform="matrix(8.21063 0 0 -8.21063 504.26 56.012)"/><use xlink:href="#i" transform="matrix(8.21063 0 0 -8.21063 505.992 56.012)"/><use xlink:href="#d" transform="matrix(8.21063 0 0 -8.21063 508.39 56.2)"/><use xlink:href="#f" transform="matrix(8.21063 0 0 -8.21063 511.559 56.012)"/><use xlink:href="#an" transform="matrix(8.21063 0 0 -8.21063 513.768 57.802)"/><use xlink:href="#aa" transform="matrix(8.21063 0 0 -8.21063 518.595 56.2)"/><use xlink:href="#i" transform="matrix(8.21063 0 0 -8.21063 523.325 56.012)"/><use xlink:href="#N" transform="matrix(8.21063 0 0 -8.21063 525.854 56.012)"/></g><path stroke-width="1.5" stroke-miterlimit="10" fill="none" stroke="#00f" d="M455.471 53.906h14.286"/><path d="M415.847 17.476h18.7V6.866h-18.7z" fill="#fff" fill-rule="evenodd"/><path stroke-width=".4" stroke-miterlimit="10" fill="none" stroke="#fff" d="M415.847 17.476h18.7V6.866h-18.7z"/><clipPath id="aU"><path transform="matrix(1 0 0 -1 0 217)" d="M289.134 2.165H561.26v212.213H289.134z"/></clipPath><g clip-path="url(#aU)"><use xlink:href="#aq" transform="matrix(8.21063 0 0 -8.21063 419.872 14.976)"/><use xlink:href="#g" transform="matrix(8.21063 0 0 -8.21063 425.308 15.165)"/></g></svg>