<?xml version="1.0" encoding="UTF-8" standalone="no"?>
<!-- Created with Inkscape (http://www.inkscape.org/) -->

<svg
   version="1.1"
   id="svg1"
   width="237.384"
   height="143.02399"
   viewBox="0 0 237.384 143.02398"
   sodipodi:docname="c_Total_black_blue3He6.svg"
   inkscape:version="1.3.2 (091e20e, 2023-11-25, custom)"
   xmlns:inkscape="http://www.inkscape.org/namespaces/inkscape"
   xmlns:sodipodi="http://sodipodi.sourceforge.net/DTD/sodipodi-0.dtd"
   xmlns="http://www.w3.org/2000/svg"
   xmlns:svg="http://www.w3.org/2000/svg">
  <defs
     id="defs1">
    <clipPath
       clipPathUnits="userSpaceOnUse"
       id="clipPath1">
      <path
         d="M 272.19731,-107.05467 H 2289.3274 V 334.48795 H 272.19731 Z"
         id="path1" />
    </clipPath>
    <clipPath
       clipPathUnits="userSpaceOnUse"
       id="clipPath58">
      <path
         d="m 5.66929,113.547 h 177.638 V 220.415 H 5.66929 Z"
         transform="matrix(1,0,0,-1,-25.872699,123.916)"
         id="path58" />
    </clipPath>
    <clipPath
       clipPathUnits="userSpaceOnUse"
       id="clipPath60">
      <path
         d="m 5.66929,113.547 h 177.638 V 220.415 H 5.66929 Z"
         transform="matrix(1,0,0,-1,-39.716799,123.916)"
         id="path60" />
    </clipPath>
    <clipPath
       clipPathUnits="userSpaceOnUse"
       id="clipPath62">
      <path
         d="m 5.66929,113.547 h 177.638 V 220.415 H 5.66929 Z"
         transform="matrix(1,0,0,-1,-56.738304,123.916)"
         id="path62" />
    </clipPath>
    <clipPath
       clipPathUnits="userSpaceOnUse"
       id="clipPath64">
      <path
         d="m 5.66929,113.547 h 177.638 V 220.415 H 5.66929 Z"
         transform="matrix(1,0,0,-1,-70.3555,123.916)"
         id="path64" />
    </clipPath>
    <clipPath
       clipPathUnits="userSpaceOnUse"
       id="clipPath66">
      <path
         d="m 5.66929,113.547 h 177.638 V 220.415 H 5.66929 Z"
         transform="matrix(1,0,0,-1,-87.377005,123.916)"
         id="path66" />
    </clipPath>
    <clipPath
       clipPathUnits="userSpaceOnUse"
       id="clipPath68">
      <path
         d="m 5.66929,113.547 h 177.638 V 220.415 H 5.66929 Z"
         transform="matrix(1,0,0,-1,-100.99401,123.916)"
         id="path68" />
    </clipPath>
    <clipPath
       clipPathUnits="userSpaceOnUse"
       id="clipPath70">
      <path
         d="m 5.66929,113.547 h 177.638 V 220.415 H 5.66929 Z"
         transform="matrix(1,0,0,-1,-118.01601,123.916)"
         id="path70" />
    </clipPath>
    <clipPath
       clipPathUnits="userSpaceOnUse"
       id="clipPath72">
      <path
         d="m 5.66929,113.547 h 177.638 V 220.415 H 5.66929 Z"
         transform="matrix(1,0,0,-1,-131.63301,123.916)"
         id="path72" />
    </clipPath>
    <clipPath
       clipPathUnits="userSpaceOnUse"
       id="clipPath74">
      <path
         d="m 5.66929,113.547 h 177.638 V 220.415 H 5.66929 Z"
         transform="matrix(1,0,0,-1,-148.654,123.916)"
         id="path74" />
    </clipPath>
    <clipPath
       clipPathUnits="userSpaceOnUse"
       id="clipPath76">
      <path
         d="m 5.66929,113.547 h 177.638 V 220.415 H 5.66929 Z"
         transform="matrix(1,0,0,-1,-162.27201,123.916)"
         id="path76" />
    </clipPath>
    <clipPath
       clipPathUnits="userSpaceOnUse"
       id="clipPath78">
      <path
         d="m 5.66929,113.547 h 177.638 V 220.415 H 5.66929 Z"
         transform="matrix(1,0,0,-1,-162.27201,113.25)"
         id="path78" />
    </clipPath>
    <clipPath
       clipPathUnits="userSpaceOnUse"
       id="clipPath80">
      <path
         d="m 5.66929,113.547 h 177.638 V 220.415 H 5.66929 Z"
         transform="matrix(1,0,0,-1,-156.37101,115.746)"
         id="path80" />
    </clipPath>
    <clipPath
       clipPathUnits="userSpaceOnUse"
       id="clipPath133">
      <path
         d="m 5.66929,113.547 h 177.638 V 220.415 H 5.66929 Z"
         transform="matrix(1,0,0,-1,-23.603101,125.959)"
         id="path133" />
    </clipPath>
    <clipPath
       clipPathUnits="userSpaceOnUse"
       id="clipPath135">
      <path
         d="m 5.66929,113.547 h 177.638 V 220.415 H 5.66929 Z"
         transform="matrix(1,0,0,-1,-21.333601,134.356)"
         id="path135" />
    </clipPath>
    <clipPath
       clipPathUnits="userSpaceOnUse"
       id="clipPath137">
      <path
         d="m 5.66929,113.547 h 177.638 V 220.415 H 5.66929 Z"
         transform="matrix(1,0,0,-1,-19.064101,142.754)"
         id="path137" />
    </clipPath>
    <clipPath
       clipPathUnits="userSpaceOnUse"
       id="clipPath139">
      <path
         d="m 5.66929,113.547 h 177.638 V 220.415 H 5.66929 Z"
         transform="matrix(1,0,0,-1,-19.064101,151.151)"
         id="path139" />
    </clipPath>
    <clipPath
       clipPathUnits="userSpaceOnUse"
       id="clipPath141">
      <path
         d="m 5.66929,113.547 h 177.638 V 220.415 H 5.66929 Z"
         transform="matrix(1,0,0,-1,-19.064101,159.775)"
         id="path141" />
    </clipPath>
    <clipPath
       clipPathUnits="userSpaceOnUse"
       id="clipPath143">
      <path
         d="m 5.66929,113.547 h 177.638 V 220.415 H 5.66929 Z"
         transform="matrix(1,0,0,-1,-19.064101,168.172)"
         id="path143" />
    </clipPath>
    <clipPath
       clipPathUnits="userSpaceOnUse"
       id="clipPath145">
      <path
         d="m 5.66929,113.547 h 177.638 V 220.415 H 5.66929 Z"
         transform="matrix(1,0,0,-1,-19.064101,176.57)"
         id="path145" />
    </clipPath>
    <clipPath
       clipPathUnits="userSpaceOnUse"
       id="clipPath147">
      <path
         d="m 5.66929,113.547 h 177.638 V 220.415 H 5.66929 Z"
         transform="matrix(1,0,0,-1,-19.064101,184.967)"
         id="path147" />
    </clipPath>
    <clipPath
       clipPathUnits="userSpaceOnUse"
       id="clipPath149">
      <path
         d="m 5.66929,113.547 h 177.638 V 220.415 H 5.66929 Z"
         transform="matrix(1,0,0,-1,-19.064101,193.364)"
         id="path149" />
    </clipPath>
    <clipPath
       clipPathUnits="userSpaceOnUse"
       id="clipPath151">
      <path
         d="m 5.66929,113.547 h 177.638 V 220.415 H 5.66929 Z"
         transform="matrix(1,0,0,-1,-19.064101,201.76101)"
         id="path151" />
    </clipPath>
    <clipPath
       clipPathUnits="userSpaceOnUse"
       id="clipPath153">
      <path
         d="m 5.66929,113.547 h 177.638 V 220.415 H 5.66929 Z"
         transform="matrix(0,1,1,0,-161.364,-12.255503)"
         id="path153" />
    </clipPath>
    <clipPath
       clipPathUnits="userSpaceOnUse"
       id="clipPath166">
      <path
         d="m 5.66929,113.547 h 177.638 V 220.415 H 5.66929 Z"
         transform="matrix(1,0,0,-1,-64.227805,157.279)"
         id="path166" />
    </clipPath>
    <clipPath
       clipPathUnits="userSpaceOnUse"
       id="clipPath168">
      <path
         d="m 5.66929,113.547 h 177.638 V 220.415 H 5.66929 Z"
         transform="matrix(1,0,0,-1,-61.958199,161.364)"
         id="path168" />
    </clipPath>
    <clipPath
       clipPathUnits="userSpaceOnUse"
       id="clipPath171">
      <path
         d="m 5.66929,113.547 h 177.638 V 220.415 H 5.66929 Z"
         transform="matrix(1,0,0,-1,-64.681705,157.279)"
         id="path171" />
    </clipPath>
    <clipPath
       clipPathUnits="userSpaceOnUse"
       id="clipPath173">
      <path
         d="m 5.66929,113.547 h 177.638 V 220.415 H 5.66929 Z"
         transform="matrix(1,0,0,-1,-61.504299,161.364)"
         id="path173" />
    </clipPath>
    <clipPath
       clipPathUnits="userSpaceOnUse"
       id="clipPath176">
      <path
         d="m 5.66929,113.547 h 177.638 V 220.415 H 5.66929 Z"
         transform="matrix(1,0,0,-1,-64.681705,157.279)"
         id="path176" />
    </clipPath>
    <clipPath
       clipPathUnits="userSpaceOnUse"
       id="clipPath178">
      <path
         d="m 5.66929,113.547 h 177.638 V 220.415 H 5.66929 Z"
         transform="matrix(1,0,0,-1,-61.504299,161.591)"
         id="path178" />
    </clipPath>
    <clipPath
       clipPathUnits="userSpaceOnUse"
       id="clipPath180">
      <path
         d="m 5.66929,113.547 h 177.638 V 220.415 H 5.66929 Z"
         transform="matrix(1,0,0,-1,-87.603903,211.97401)"
         id="path180" />
    </clipPath>
    <clipPath
       clipPathUnits="userSpaceOnUse"
       id="clipPath213">
      <path
         d="M 194.646,113.547 H 372.284 V 220.415 H 194.646 Z"
         transform="matrix(1,0,0,-1,-215.152,123.916)"
         id="path213" />
    </clipPath>
    <clipPath
       clipPathUnits="userSpaceOnUse"
       id="clipPath215">
      <path
         d="M 194.646,113.547 H 372.284 V 220.415 H 194.646 Z"
         transform="matrix(1,0,0,-1,-245.79001,123.916)"
         id="path215" />
    </clipPath>
    <clipPath
       clipPathUnits="userSpaceOnUse"
       id="clipPath217">
      <path
         d="M 194.646,113.547 H 372.284 V 220.415 H 194.646 Z"
         transform="matrix(1,0,0,-1,-279.379,123.916)"
         id="path217" />
    </clipPath>
    <clipPath
       clipPathUnits="userSpaceOnUse"
       id="clipPath219">
      <path
         d="M 194.646,113.547 H 372.284 V 220.415 H 194.646 Z"
         transform="matrix(1,0,0,-1,-309.79101,123.916)"
         id="path219" />
    </clipPath>
    <clipPath
       clipPathUnits="userSpaceOnUse"
       id="clipPath221">
      <path
         d="M 194.646,113.547 H 372.284 V 220.415 H 194.646 Z"
         transform="matrix(1,0,0,-1,-343.60701,123.916)"
         id="path221" />
    </clipPath>
    <clipPath
       clipPathUnits="userSpaceOnUse"
       id="clipPath223">
      <path
         d="M 194.646,113.547 H 372.284 V 220.415 H 194.646 Z"
         transform="matrix(1,0,0,-1,-351.32401,113.25)"
         id="path223" />
    </clipPath>
    <clipPath
       clipPathUnits="userSpaceOnUse"
       id="clipPath225">
      <path
         d="M 194.646,113.547 H 372.284 V 220.415 H 194.646 Z"
         transform="matrix(1,0,0,-1,-345.42301,115.746)"
         id="path225" />
    </clipPath>
    <clipPath
       clipPathUnits="userSpaceOnUse"
       id="clipPath255">
      <path
         d="M 194.646,113.547 H 372.284 V 220.415 H 194.646 Z"
         transform="matrix(1,0,0,-1,-212.65501,125.959)"
         id="path255" />
    </clipPath>
    <clipPath
       clipPathUnits="userSpaceOnUse"
       id="clipPath257">
      <path
         d="M 194.646,113.547 H 372.284 V 220.415 H 194.646 Z"
         transform="matrix(1,0,0,-1,-212.65501,138.895)"
         id="path257" />
    </clipPath>
    <clipPath
       clipPathUnits="userSpaceOnUse"
       id="clipPath259">
      <path
         d="M 194.646,113.547 H 372.284 V 220.415 H 194.646 Z"
         transform="matrix(1,0,0,-1,-212.65501,152.059)"
         id="path259" />
    </clipPath>
    <clipPath
       clipPathUnits="userSpaceOnUse"
       id="clipPath261">
      <path
         d="M 194.646,113.547 H 372.284 V 220.415 H 194.646 Z"
         transform="matrix(1,0,0,-1,-212.65501,165.222)"
         id="path261" />
    </clipPath>
    <clipPath
       clipPathUnits="userSpaceOnUse"
       id="clipPath263">
      <path
         d="M 194.646,113.547 H 372.284 V 220.415 H 194.646 Z"
         transform="matrix(1,0,0,-1,-212.65501,178.158)"
         id="path263" />
    </clipPath>
    <clipPath
       clipPathUnits="userSpaceOnUse"
       id="clipPath265">
      <path
         d="M 194.646,113.547 H 372.284 V 220.415 H 194.646 Z"
         transform="matrix(1,0,0,-1,-210.38601,191.322)"
         id="path265" />
    </clipPath>
    <clipPath
       clipPathUnits="userSpaceOnUse"
       id="clipPath267">
      <path
         d="M 194.646,113.547 H 372.284 V 220.415 H 194.646 Z"
         transform="matrix(1,0,0,-1,-210.38601,204.03101)"
         id="path267" />
    </clipPath>
    <clipPath
       clipPathUnits="userSpaceOnUse"
       id="clipPath269">
      <path
         d="M 194.646,113.547 H 372.284 V 220.415 H 194.646 Z"
         transform="matrix(0,1,1,0,-161.364,-201.307)"
         id="path269" />
    </clipPath>
    <clipPath
       clipPathUnits="userSpaceOnUse"
       id="clipPath275">
      <path
         d="M 194.646,113.547 H 372.284 V 220.415 H 194.646 Z"
         transform="matrix(1,0,0,-1,-276.202,211.97401)"
         id="path275" />
    </clipPath>
    <clipPath
       clipPathUnits="userSpaceOnUse"
       id="clipPath335">
      <path
         d="M 383.622,113.547 H 561.26 V 220.415 H 383.622 Z"
         transform="matrix(1,0,0,-1,-400.34501,123.916)"
         id="path335" />
    </clipPath>
    <clipPath
       clipPathUnits="userSpaceOnUse"
       id="clipPath337">
      <path
         d="M 383.622,113.547 H 561.26 V 220.415 H 383.622 Z"
         transform="matrix(1,0,0,-1,-414.64401,123.916)"
         id="path337" />
    </clipPath>
    <clipPath
       clipPathUnits="userSpaceOnUse"
       id="clipPath339">
      <path
         d="M 383.622,113.547 H 561.26 V 220.415 H 383.622 Z"
         transform="matrix(1,0,0,-1,-428.71501,123.916)"
         id="path339" />
    </clipPath>
    <clipPath
       clipPathUnits="userSpaceOnUse"
       id="clipPath341">
      <path
         d="M 383.622,113.547 H 561.26 V 220.415 H 383.622 Z"
         transform="matrix(1,0,0,-1,-443.01301,123.916)"
         id="path341" />
    </clipPath>
    <clipPath
       clipPathUnits="userSpaceOnUse"
       id="clipPath343">
      <path
         d="M 383.622,113.547 H 561.26 V 220.415 H 383.622 Z"
         transform="matrix(1,0,0,-1,-457.31101,123.916)"
         id="path343" />
    </clipPath>
    <clipPath
       clipPathUnits="userSpaceOnUse"
       id="clipPath345">
      <path
         d="M 383.622,113.547 H 561.26 V 220.415 H 383.622 Z"
         transform="matrix(1,0,0,-1,-471.38201,123.916)"
         id="path345" />
    </clipPath>
    <clipPath
       clipPathUnits="userSpaceOnUse"
       id="clipPath347">
      <path
         d="M 383.622,113.547 H 561.26 V 220.415 H 383.622 Z"
         transform="matrix(1,0,0,-1,-485.68001,123.916)"
         id="path347" />
    </clipPath>
    <clipPath
       clipPathUnits="userSpaceOnUse"
       id="clipPath349">
      <path
         d="M 383.622,113.547 H 561.26 V 220.415 H 383.622 Z"
         transform="matrix(1,0,0,-1,-499.75102,123.916)"
         id="path349" />
    </clipPath>
    <clipPath
       clipPathUnits="userSpaceOnUse"
       id="clipPath351">
      <path
         d="M 383.622,113.547 H 561.26 V 220.415 H 383.622 Z"
         transform="matrix(1,0,0,-1,-513.14101,123.916)"
         id="path351" />
    </clipPath>
    <clipPath
       clipPathUnits="userSpaceOnUse"
       id="clipPath353">
      <path
         d="M 383.622,113.547 H 561.26 V 220.415 H 383.622 Z"
         transform="matrix(1,0,0,-1,-527.66602,123.916)"
         id="path353" />
    </clipPath>
    <clipPath
       clipPathUnits="userSpaceOnUse"
       id="clipPath355">
      <path
         d="M 383.622,113.547 H 561.26 V 220.415 H 383.622 Z"
         transform="matrix(1,0,0,-1,-541.28302,123.916)"
         id="path355" />
    </clipPath>
    <clipPath
       clipPathUnits="userSpaceOnUse"
       id="clipPath357">
      <path
         d="M 383.622,113.547 H 561.26 V 220.415 H 383.622 Z"
         transform="matrix(1,0,0,-1,-540.14902,113.25)"
         id="path357" />
    </clipPath>
    <clipPath
       clipPathUnits="userSpaceOnUse"
       id="clipPath359">
      <path
         d="M 383.622,113.547 H 561.26 V 220.415 H 383.622 Z"
         transform="matrix(1,0,0,-1,-534.24802,115.746)"
         id="path359" />
    </clipPath>
    <clipPath
       clipPathUnits="userSpaceOnUse"
       id="clipPath396">
      <path
         d="M 383.622,113.547 H 561.26 V 220.415 H 383.622 Z"
         transform="matrix(1,0,0,-1,-398.07601,125.959)"
         id="path396" />
    </clipPath>
    <clipPath
       clipPathUnits="userSpaceOnUse"
       id="clipPath398">
      <path
         d="M 383.622,113.547 H 561.26 V 220.415 H 383.622 Z"
         transform="matrix(1,0,0,-1,-395.80601,135.945)"
         id="path398" />
    </clipPath>
    <clipPath
       clipPathUnits="userSpaceOnUse"
       id="clipPath400">
      <path
         d="M 383.622,113.547 H 561.26 V 220.415 H 383.622 Z"
         transform="matrix(1,0,0,-1,-395.80601,146.158)"
         id="path400" />
    </clipPath>
    <clipPath
       clipPathUnits="userSpaceOnUse"
       id="clipPath402">
      <path
         d="M 383.622,113.547 H 561.26 V 220.415 H 383.622 Z"
         transform="matrix(1,0,0,-1,-395.80601,156.144)"
         id="path402" />
    </clipPath>
    <clipPath
       clipPathUnits="userSpaceOnUse"
       id="clipPath404">
      <path
         d="M 383.622,113.547 H 561.26 V 220.415 H 383.622 Z"
         transform="matrix(1,0,0,-1,-395.80601,166.13)"
         id="path404" />
    </clipPath>
    <clipPath
       clipPathUnits="userSpaceOnUse"
       id="clipPath406">
      <path
         d="M 383.622,113.547 H 561.26 V 220.415 H 383.622 Z"
         transform="matrix(1,0,0,-1,-393.53701,176.116)"
         id="path406" />
    </clipPath>
    <clipPath
       clipPathUnits="userSpaceOnUse"
       id="clipPath408">
      <path
         d="M 383.622,113.547 H 561.26 V 220.415 H 383.622 Z"
         transform="matrix(1,0,0,-1,-393.53701,186.329)"
         id="path408" />
    </clipPath>
    <clipPath
       clipPathUnits="userSpaceOnUse"
       id="clipPath410">
      <path
         d="M 383.622,113.547 H 561.26 V 220.415 H 383.622 Z"
         transform="matrix(1,0,0,-1,-393.53701,196.31501)"
         id="path410" />
    </clipPath>
    <clipPath
       clipPathUnits="userSpaceOnUse"
       id="clipPath412">
      <path
         d="M 383.622,113.547 H 561.26 V 220.415 H 383.622 Z"
         transform="matrix(1,0,0,-1,-393.53701,206.30001)"
         id="path412" />
    </clipPath>
    <clipPath
       clipPathUnits="userSpaceOnUse"
       id="clipPath414">
      <path
         d="M 383.622,113.547 H 561.26 V 220.415 H 383.622 Z"
         transform="matrix(0,1,1,0,-161.364,-386.72801)"
         id="path414" />
    </clipPath>
    <clipPath
       clipPathUnits="userSpaceOnUse"
       id="clipPath427">
      <path
         d="M 383.622,113.547 H 561.26 V 220.415 H 383.622 Z"
         transform="matrix(1,0,0,-1,-424.40301,155.917)"
         id="path427" />
    </clipPath>
    <clipPath
       clipPathUnits="userSpaceOnUse"
       id="clipPath429">
      <path
         d="M 383.622,113.547 H 561.26 V 220.415 H 383.622 Z"
         transform="matrix(1,0,0,-1,-421.22501,160.229)"
         id="path429" />
    </clipPath>
    <clipPath
       clipPathUnits="userSpaceOnUse"
       id="clipPath432">
      <path
         d="M 383.622,113.547 H 561.26 V 220.415 H 383.622 Z"
         transform="matrix(1,0,0,-1,-424.40301,155.917)"
         id="path432" />
    </clipPath>
    <clipPath
       clipPathUnits="userSpaceOnUse"
       id="clipPath434">
      <path
         d="M 383.622,113.547 H 561.26 V 220.415 H 383.622 Z"
         transform="matrix(1,0,0,-1,-421.22501,160.002)"
         id="path434" />
    </clipPath>
    <clipPath
       clipPathUnits="userSpaceOnUse"
       id="clipPath437">
      <path
         d="M 383.622,113.547 H 561.26 V 220.415 H 383.622 Z"
         transform="matrix(1,0,0,-1,-424.40301,155.917)"
         id="path437" />
    </clipPath>
    <clipPath
       clipPathUnits="userSpaceOnUse"
       id="clipPath439">
      <path
         d="M 383.622,113.547 H 561.26 V 220.415 H 383.622 Z"
         transform="matrix(1,0,0,-1,-421.22501,160.229)"
         id="path439" />
    </clipPath>
    <clipPath
       clipPathUnits="userSpaceOnUse"
       id="clipPath441">
      <path
         d="M 383.622,113.547 H 561.26 V 220.415 H 383.622 Z"
         transform="matrix(1,0,0,-1,-465.02701,211.97401)"
         id="path441" />
    </clipPath>
    <clipPath
       clipPathUnits="userSpaceOnUse"
       id="clipPath501">
      <path
         d="m 5.66929,2.22641 h 177.638 v 106.868 H 5.66929 Z"
         transform="matrix(1,0,0,-1,-25.872699,12.709403)"
         id="path501" />
    </clipPath>
    <clipPath
       clipPathUnits="userSpaceOnUse"
       id="clipPath503">
      <path
         d="m 5.66929,2.22641 h 177.638 v 106.868 H 5.66929 Z"
         transform="matrix(1,0,0,-1,-39.716799,12.709403)"
         id="path503" />
    </clipPath>
    <clipPath
       clipPathUnits="userSpaceOnUse"
       id="clipPath505">
      <path
         d="m 5.66929,2.22641 h 177.638 v 106.868 H 5.66929 Z"
         transform="matrix(1,0,0,-1,-53.787902,12.709403)"
         id="path505" />
    </clipPath>
    <clipPath
       clipPathUnits="userSpaceOnUse"
       id="clipPath507">
      <path
         d="m 5.66929,2.22641 h 177.638 v 106.868 H 5.66929 Z"
         transform="matrix(1,0,0,-1,-67.6321,12.709403)"
         id="path507" />
    </clipPath>
    <clipPath
       clipPathUnits="userSpaceOnUse"
       id="clipPath509">
      <path
         d="m 5.66929,2.22641 h 177.638 v 106.868 H 5.66929 Z"
         transform="matrix(1,0,0,-1,-81.4762,12.709403)"
         id="path509" />
    </clipPath>
    <clipPath
       clipPathUnits="userSpaceOnUse"
       id="clipPath511">
      <path
         d="m 5.66929,2.22641 h 177.638 v 106.868 H 5.66929 Z"
         transform="matrix(1,0,0,-1,-95.320405,12.709403)"
         id="path511" />
    </clipPath>
    <clipPath
       clipPathUnits="userSpaceOnUse"
       id="clipPath513">
      <path
         d="m 5.66929,2.22641 h 177.638 v 106.868 H 5.66929 Z"
         transform="matrix(1,0,0,-1,-108.25701,12.709403)"
         id="path513" />
    </clipPath>
    <clipPath
       clipPathUnits="userSpaceOnUse"
       id="clipPath515">
      <path
         d="m 5.66929,2.22641 h 177.638 v 106.868 H 5.66929 Z"
         transform="matrix(1,0,0,-1,-122.328,12.709403)"
         id="path515" />
    </clipPath>
    <clipPath
       clipPathUnits="userSpaceOnUse"
       id="clipPath517">
      <path
         d="m 5.66929,2.22641 h 177.638 v 106.868 H 5.66929 Z"
         transform="matrix(1,0,0,-1,-135.718,12.709403)"
         id="path517" />
    </clipPath>
    <clipPath
       clipPathUnits="userSpaceOnUse"
       id="clipPath519">
      <path
         d="m 5.66929,2.22641 h 177.638 v 106.868 H 5.66929 Z"
         transform="matrix(1,0,0,-1,-149.78901,12.709403)"
         id="path519" />
    </clipPath>
    <clipPath
       clipPathUnits="userSpaceOnUse"
       id="clipPath521">
      <path
         d="m 5.66929,2.22641 h 177.638 v 106.868 H 5.66929 Z"
         transform="matrix(1,0,0,-1,-163.40601,12.709403)"
         id="path521" />
    </clipPath>
    <clipPath
       clipPathUnits="userSpaceOnUse"
       id="clipPath523">
      <path
         d="m 5.66929,2.22641 h 177.638 v 106.868 H 5.66929 Z"
         transform="matrix(1,0,0,-1,-162.27201,1.8156298)"
         id="path523" />
    </clipPath>
    <clipPath
       clipPathUnits="userSpaceOnUse"
       id="clipPath525">
      <path
         d="m 5.66929,2.22641 h 177.638 v 106.868 H 5.66929 Z"
         transform="matrix(1,0,0,-1,-156.37101,4.3121098)"
         id="path525" />
    </clipPath>
    <clipPath
       clipPathUnits="userSpaceOnUse"
       id="clipPath554">
      <path
         d="m 5.66929,2.22641 h 177.638 v 106.868 H 5.66929 Z"
         transform="matrix(1,0,0,-1,-23.603101,14.751998)"
         id="path554" />
    </clipPath>
    <clipPath
       clipPathUnits="userSpaceOnUse"
       id="clipPath556">
      <path
         d="m 5.66929,2.22641 h 177.638 v 106.868 H 5.66929 Z"
         transform="matrix(1,0,0,-1,-21.333601,27.915203)"
         id="path556" />
    </clipPath>
    <clipPath
       clipPathUnits="userSpaceOnUse"
       id="clipPath558">
      <path
         d="m 5.66929,2.22641 h 177.638 v 106.868 H 5.66929 Z"
         transform="matrix(1,0,0,-1,-21.333601,41.305501)"
         id="path558" />
    </clipPath>
    <clipPath
       clipPathUnits="userSpaceOnUse"
       id="clipPath560">
      <path
         d="m 5.66929,2.22641 h 177.638 v 106.868 H 5.66929 Z"
         transform="matrix(1,0,0,-1,-21.333601,54.468804)"
         id="path560" />
    </clipPath>
    <clipPath
       clipPathUnits="userSpaceOnUse"
       id="clipPath562">
      <path
         d="m 5.66929,2.22641 h 177.638 v 106.868 H 5.66929 Z"
         transform="matrix(1,0,0,-1,-21.333601,67.859002)"
         id="path562" />
    </clipPath>
    <clipPath
       clipPathUnits="userSpaceOnUse"
       id="clipPath564">
      <path
         d="m 5.66929,2.22641 h 177.638 v 106.868 H 5.66929 Z"
         transform="matrix(1,0,0,-1,-19.064101,81.022302)"
         id="path564" />
    </clipPath>
    <clipPath
       clipPathUnits="userSpaceOnUse"
       id="clipPath566">
      <path
         d="m 5.66929,2.22641 h 177.638 v 106.868 H 5.66929 Z"
         transform="matrix(1,0,0,-1,-19.064101,94.412503)"
         id="path566" />
    </clipPath>
    <clipPath
       clipPathUnits="userSpaceOnUse"
       id="clipPath568">
      <path
         d="m 5.66929,2.22641 h 177.638 v 106.868 H 5.66929 Z"
         transform="matrix(0,1,1,0,-49.929698,-12.255503)"
         id="path568" />
    </clipPath>
    <clipPath
       clipPathUnits="userSpaceOnUse"
       id="clipPath581">
      <path
         d="m 5.66929,2.22641 h 177.638 v 106.868 H 5.66929 Z"
         transform="matrix(1,0,0,-1,-58.553904,32.000401)"
         id="path581" />
    </clipPath>
    <clipPath
       clipPathUnits="userSpaceOnUse"
       id="clipPath583">
      <path
         d="m 5.66929,2.22641 h 177.638 v 106.868 H 5.66929 Z"
         transform="matrix(1,0,0,-1,-55.376604,35.858603)"
         id="path583" />
    </clipPath>
    <clipPath
       clipPathUnits="userSpaceOnUse"
       id="clipPath586">
      <path
         d="m 5.66929,2.22641 h 177.638 v 106.868 H 5.66929 Z"
         transform="matrix(1,0,0,-1,-58.553904,32.000401)"
         id="path586" />
    </clipPath>
    <clipPath
       clipPathUnits="userSpaceOnUse"
       id="clipPath588">
      <path
         d="m 5.66929,2.22641 h 177.638 v 106.868 H 5.66929 Z"
         transform="matrix(1,0,0,-1,-55.376604,36.085598)"
         id="path588" />
    </clipPath>
    <clipPath
       clipPathUnits="userSpaceOnUse"
       id="clipPath591">
      <path
         d="m 5.66929,2.22641 h 177.638 v 106.868 H 5.66929 Z"
         transform="matrix(1,0,0,-1,-60.142599,32.000401)"
         id="path591" />
    </clipPath>
    <clipPath
       clipPathUnits="userSpaceOnUse"
       id="clipPath593">
      <path
         d="m 5.66929,2.22641 h 177.638 v 106.868 H 5.66929 Z"
         transform="matrix(1,0,0,-1,-53.787902,36.085598)"
         id="path593" />
    </clipPath>
    <clipPath
       clipPathUnits="userSpaceOnUse"
       id="clipPath595">
      <path
         d="m 5.66929,2.22641 h 177.638 v 106.868 H 5.66929 Z"
         transform="matrix(1,0,0,-1,-87.150003,100.767)"
         id="path595" />
    </clipPath>
    <clipPath
       clipPathUnits="userSpaceOnUse"
       id="clipPath632">
      <path
         d="m 194.646,2.22641 h 177.638 v 106.868 H 194.646 Z"
         transform="matrix(1,0,0,-1,-214.92501,12.709403)"
         id="path632" />
    </clipPath>
    <clipPath
       clipPathUnits="userSpaceOnUse"
       id="clipPath634">
      <path
         d="m 194.646,2.22641 h 177.638 v 106.868 H 194.646 Z"
         transform="matrix(1,0,0,-1,-236.25801,12.709403)"
         id="path634" />
    </clipPath>
    <clipPath
       clipPathUnits="userSpaceOnUse"
       id="clipPath636">
      <path
         d="m 194.646,2.22641 h 177.638 v 106.868 H 194.646 Z"
         transform="matrix(1,0,0,-1,-257.365,12.709403)"
         id="path636" />
    </clipPath>
    <clipPath
       clipPathUnits="userSpaceOnUse"
       id="clipPath638">
      <path
         d="m 194.646,2.22641 h 177.638 v 106.868 H 194.646 Z"
         transform="matrix(1,0,0,-1,-277.79101,12.709403)"
         id="path638" />
    </clipPath>
    <clipPath
       clipPathUnits="userSpaceOnUse"
       id="clipPath640">
      <path
         d="m 194.646,2.22641 h 177.638 v 106.868 H 194.646 Z"
         transform="matrix(1,0,0,-1,-298.67001,12.709403)"
         id="path640" />
    </clipPath>
    <clipPath
       clipPathUnits="userSpaceOnUse"
       id="clipPath642">
      <path
         d="m 194.646,2.22641 h 177.638 v 106.868 H 194.646 Z"
         transform="matrix(1,0,0,-1,-320.00401,12.709403)"
         id="path642" />
    </clipPath>
    <clipPath
       clipPathUnits="userSpaceOnUse"
       id="clipPath644">
      <path
         d="m 194.646,2.22641 h 177.638 v 106.868 H 194.646 Z"
         transform="matrix(1,0,0,-1,-341.11101,12.709403)"
         id="path644" />
    </clipPath>
    <clipPath
       clipPathUnits="userSpaceOnUse"
       id="clipPath646">
      <path
         d="m 194.646,2.22641 h 177.638 v 106.868 H 194.646 Z"
         transform="matrix(1,0,0,-1,-351.32401,1.8156298)"
         id="path646" />
    </clipPath>
    <clipPath
       clipPathUnits="userSpaceOnUse"
       id="clipPath648">
      <path
         d="m 194.646,2.22641 h 177.638 v 106.868 H 194.646 Z"
         transform="matrix(1,0,0,-1,-345.42301,4.3121098)"
         id="path648" />
    </clipPath>
    <clipPath
       clipPathUnits="userSpaceOnUse"
       id="clipPath692">
      <path
         d="m 194.646,2.22641 h 177.638 v 106.868 H 194.646 Z"
         transform="matrix(1,0,0,-1,-212.65501,14.751998)"
         id="path692" />
    </clipPath>
    <clipPath
       clipPathUnits="userSpaceOnUse"
       id="clipPath694">
      <path
         d="m 194.646,2.22641 h 177.638 v 106.868 H 194.646 Z"
         transform="matrix(1,0,0,-1,-210.38601,24.964898)"
         id="path694" />
    </clipPath>
    <clipPath
       clipPathUnits="userSpaceOnUse"
       id="clipPath696">
      <path
         d="m 194.646,2.22641 h 177.638 v 106.868 H 194.646 Z"
         transform="matrix(1,0,0,-1,-208.11601,35.404703)"
         id="path696" />
    </clipPath>
    <clipPath
       clipPathUnits="userSpaceOnUse"
       id="clipPath698">
      <path
         d="m 194.646,2.22641 h 177.638 v 106.868 H 194.646 Z"
         transform="matrix(1,0,0,-1,-208.11601,45.844501)"
         id="path698" />
    </clipPath>
    <clipPath
       clipPathUnits="userSpaceOnUse"
       id="clipPath700">
      <path
         d="m 194.646,2.22641 h 177.638 v 106.868 H 194.646 Z"
         transform="matrix(1,0,0,-1,-208.11601,56.057401)"
         id="path700" />
    </clipPath>
    <clipPath
       clipPathUnits="userSpaceOnUse"
       id="clipPath702">
      <path
         d="m 194.646,2.22641 h 177.638 v 106.868 H 194.646 Z"
         transform="matrix(1,0,0,-1,-208.11601,66.497304)"
         id="path702" />
    </clipPath>
    <clipPath
       clipPathUnits="userSpaceOnUse"
       id="clipPath704">
      <path
         d="m 194.646,2.22641 h 177.638 v 106.868 H 194.646 Z"
         transform="matrix(1,0,0,-1,-208.11601,76.937102)"
         id="path704" />
    </clipPath>
    <clipPath
       clipPathUnits="userSpaceOnUse"
       id="clipPath706">
      <path
         d="m 194.646,2.22641 h 177.638 v 106.868 H 194.646 Z"
         transform="matrix(1,0,0,-1,-208.11601,87.150002)"
         id="path706" />
    </clipPath>
    <clipPath
       clipPathUnits="userSpaceOnUse"
       id="clipPath708">
      <path
         d="m 194.646,2.22641 h 177.638 v 106.868 H 194.646 Z"
         transform="matrix(0,1,1,0,-49.929698,-201.307)"
         id="path708" />
    </clipPath>
    <clipPath
       clipPathUnits="userSpaceOnUse"
       id="clipPath721">
      <path
         d="m 194.646,2.22641 h 177.638 v 106.868 H 194.646 Z"
         transform="matrix(1,0,0,-1,-241.93201,56.511301)"
         id="path721" />
    </clipPath>
    <clipPath
       clipPathUnits="userSpaceOnUse"
       id="clipPath723">
      <path
         d="m 194.646,2.22641 h 177.638 v 106.868 H 194.646 Z"
         transform="matrix(1,0,0,-1,-238.75501,60.823501)"
         id="path723" />
    </clipPath>
    <clipPath
       clipPathUnits="userSpaceOnUse"
       id="clipPath726">
      <path
         d="m 194.646,2.22641 h 177.638 v 106.868 H 194.646 Z"
         transform="matrix(1,0,0,-1,-243.52101,56.511301)"
         id="path726" />
    </clipPath>
    <clipPath
       clipPathUnits="userSpaceOnUse"
       id="clipPath728">
      <path
         d="m 194.646,2.22641 h 177.638 v 106.868 H 194.646 Z"
         transform="matrix(1,0,0,-1,-237.166,60.823501)"
         id="path728" />
    </clipPath>
    <clipPath
       clipPathUnits="userSpaceOnUse"
       id="clipPath731">
      <path
         d="m 194.646,2.22641 h 177.638 v 106.868 H 194.646 Z"
         transform="matrix(1,0,0,-1,-243.067,56.511301)"
         id="path731" />
    </clipPath>
    <clipPath
       clipPathUnits="userSpaceOnUse"
       id="clipPath733">
      <path
         d="m 194.646,2.22641 h 177.638 v 106.868 H 194.646 Z"
         transform="matrix(1,0,0,-1,-237.39301,60.596499)"
         id="path733" />
    </clipPath>
    <clipPath
       clipPathUnits="userSpaceOnUse"
       id="clipPath735">
      <path
         d="m 194.646,2.22641 h 177.638 v 106.868 H 194.646 Z"
         transform="matrix(1,0,0,-1,-276.202,100.767)"
         id="path735" />
    </clipPath>
    <clipPath
       clipPathUnits="userSpaceOnUse"
       id="clipPath771">
      <path
         d="M 383.622,2.22641 H 561.26 v 106.868 H 383.622 Z"
         transform="matrix(1,0,0,-1,-403.97701,12.709403)"
         id="path771" />
    </clipPath>
    <clipPath
       clipPathUnits="userSpaceOnUse"
       id="clipPath773">
      <path
         d="M 383.622,2.22641 H 561.26 v 106.868 H 383.622 Z"
         transform="matrix(1,0,0,-1,-425.31001,12.709403)"
         id="path773" />
    </clipPath>
    <clipPath
       clipPathUnits="userSpaceOnUse"
       id="clipPath775">
      <path
         d="M 383.622,2.22641 H 561.26 v 106.868 H 383.622 Z"
         transform="matrix(1,0,0,-1,-445.73601,12.709403)"
         id="path775" />
    </clipPath>
    <clipPath
       clipPathUnits="userSpaceOnUse"
       id="clipPath777">
      <path
         d="M 383.622,2.22641 H 561.26 v 106.868 H 383.622 Z"
         transform="matrix(1,0,0,-1,-466.84301,12.709403)"
         id="path777" />
    </clipPath>
    <clipPath
       clipPathUnits="userSpaceOnUse"
       id="clipPath779">
      <path
         d="M 383.622,2.22641 H 561.26 v 106.868 H 383.622 Z"
         transform="matrix(1,0,0,-1,-487.94902,12.709403)"
         id="path779" />
    </clipPath>
    <clipPath
       clipPathUnits="userSpaceOnUse"
       id="clipPath781">
      <path
         d="M 383.622,2.22641 H 561.26 v 106.868 H 383.622 Z"
         transform="matrix(1,0,0,-1,-509.28301,12.709403)"
         id="path781" />
    </clipPath>
    <clipPath
       clipPathUnits="userSpaceOnUse"
       id="clipPath783">
      <path
         d="M 383.622,2.22641 H 561.26 v 106.868 H 383.622 Z"
         transform="matrix(1,0,0,-1,-530.61701,12.709403)"
         id="path783" />
    </clipPath>
    <clipPath
       clipPathUnits="userSpaceOnUse"
       id="clipPath785">
      <path
         d="M 383.622,2.22641 H 561.26 v 106.868 H 383.622 Z"
         transform="matrix(1,0,0,-1,-540.14902,1.8156298)"
         id="path785" />
    </clipPath>
    <clipPath
       clipPathUnits="userSpaceOnUse"
       id="clipPath787">
      <path
         d="M 383.622,2.22641 H 561.26 v 106.868 H 383.622 Z"
         transform="matrix(1,0,0,-1,-534.24802,4.3121098)"
         id="path787" />
    </clipPath>
    <clipPath
       clipPathUnits="userSpaceOnUse"
       id="clipPath818">
      <path
         d="M 383.622,2.22641 H 561.26 v 106.868 H 383.622 Z"
         transform="matrix(1,0,0,-1,-401.70701,14.751998)"
         id="path818" />
    </clipPath>
    <clipPath
       clipPathUnits="userSpaceOnUse"
       id="clipPath820">
      <path
         d="M 383.622,2.22641 H 561.26 v 106.868 H 383.622 Z"
         transform="matrix(1,0,0,-1,-399.43801,27.007403)"
         id="path820" />
    </clipPath>
    <clipPath
       clipPathUnits="userSpaceOnUse"
       id="clipPath822">
      <path
         d="M 383.622,2.22641 H 561.26 v 106.868 H 383.622 Z"
         transform="matrix(1,0,0,-1,-399.43801,39.489901)"
         id="path822" />
    </clipPath>
    <clipPath
       clipPathUnits="userSpaceOnUse"
       id="clipPath824">
      <path
         d="M 383.622,2.22641 H 561.26 v 106.868 H 383.622 Z"
         transform="matrix(1,0,0,-1,-399.43801,51.972301)"
         id="path824" />
    </clipPath>
    <clipPath
       clipPathUnits="userSpaceOnUse"
       id="clipPath826">
      <path
         d="M 383.622,2.22641 H 561.26 v 106.868 H 383.622 Z"
         transform="matrix(1,0,0,-1,-399.43801,64.454701)"
         id="path826" />
    </clipPath>
    <clipPath
       clipPathUnits="userSpaceOnUse"
       id="clipPath828">
      <path
         d="M 383.622,2.22641 H 561.26 v 106.868 H 383.622 Z"
         transform="matrix(1,0,0,-1,-397.16801,76.937102)"
         id="path828" />
    </clipPath>
    <clipPath
       clipPathUnits="userSpaceOnUse"
       id="clipPath830">
      <path
         d="M 383.622,2.22641 H 561.26 v 106.868 H 383.622 Z"
         transform="matrix(1,0,0,-1,-397.16801,89.419602)"
         id="path830" />
    </clipPath>
    <clipPath
       clipPathUnits="userSpaceOnUse"
       id="clipPath832">
      <path
         d="M 383.622,2.22641 H 561.26 v 106.868 H 383.622 Z"
         transform="matrix(1,0,0,-1,-411.69301,101.221)"
         id="path832" />
    </clipPath>
    <clipPath
       clipPathUnits="userSpaceOnUse"
       id="clipPath834">
      <path
         d="M 383.622,2.22641 H 561.26 v 106.868 H 383.622 Z"
         transform="matrix(1,0,0,-1,-407.15401,98.951602)"
         id="path834" />
    </clipPath>
    <clipPath
       clipPathUnits="userSpaceOnUse"
       id="clipPath836">
      <path
         d="M 383.622,2.22641 H 561.26 v 106.868 H 383.622 Z"
         transform="matrix(1,0,0,-1,-404.88501,98.951602)"
         id="path836" />
    </clipPath>
    <clipPath
       clipPathUnits="userSpaceOnUse"
       id="clipPath838">
      <path
         d="M 383.622,2.22641 H 561.26 v 106.868 H 383.622 Z"
         transform="matrix(0,1,1,0,-49.929698,-390.36001)"
         id="path838" />
    </clipPath>
    <clipPath
       clipPathUnits="userSpaceOnUse"
       id="clipPath845">
      <path
         d="M 383.622,2.22641 H 561.26 v 106.868 H 383.622 Z"
         transform="matrix(1,0,0,-1,-432.57301,58.780899)"
         id="path845" />
    </clipPath>
    <clipPath
       clipPathUnits="userSpaceOnUse"
       id="clipPath847">
      <path
         d="M 383.622,2.22641 H 561.26 v 106.868 H 383.622 Z"
         transform="matrix(1,0,0,-1,-426.21801,62.639101)"
         id="path847" />
    </clipPath>
    <clipPath
       clipPathUnits="userSpaceOnUse"
       id="clipPath849">
      <path
         d="M 383.622,2.22641 H 561.26 v 106.868 H 383.622 Z"
         transform="matrix(1,0,0,-1,-465.02701,100.767)"
         id="path849" />
    </clipPath>
  </defs>
  <sodipodi:namedview
     id="namedview1"
     pagecolor="#ffffff"
     bordercolor="#000000"
     borderopacity="0.25"
     inkscape:showpageshadow="2"
     inkscape:pageopacity="0.0"
     inkscape:pagecheckerboard="0"
     inkscape:deskcolor="#d1d1d1"
     inkscape:zoom="2.0502355"
     inkscape:cx="123.40046"
     inkscape:cy="22.680321"
     inkscape:window-width="1280"
     inkscape:window-height="971"
     inkscape:window-x="1358"
     inkscape:window-y="-8"
     inkscape:window-maximized="1"
     inkscape:current-layer="g1">
    <inkscape:page
       x="0"
       y="0"
       inkscape:label="1"
       id="page1"
       width="237.384"
       height="143.02399"
       margin="0"
       bleed="0" />
  </sodipodi:namedview>
  <g
     id="g1"
     inkscape:groupmode="layer"
     inkscape:label="1"
     clip-path="url(#clipPath1)"
     transform="translate(-531.45864,103.87467)">
    <path
       id="path181"
       d="M 194.646,113.547 H 372.284 V 220.415 H 194.646 Z"
       style="fill:#ffffff;fill-opacity:1;fill-rule:evenodd;stroke:#ffffff;stroke-width:0.4;stroke-linecap:butt;stroke-linejoin:miter;stroke-miterlimit:10;stroke-dasharray:none;stroke-opacity:1"
       transform="matrix(1.3333333,0,0,-1.3333333,272.19731,190.27866)" />
    <path
       id="path182"
       d="m 215.962,127.44 h 138.557 v 82.2882 H 215.962 Z"
       style="fill:#ffffff;fill-opacity:1;fill-rule:evenodd;stroke:#ffffff;stroke-width:0.4;stroke-linecap:butt;stroke-linejoin:miter;stroke-miterlimit:10;stroke-dasharray:none;stroke-opacity:1"
       transform="matrix(1.3333333,0,0,-1.3333333,272.19731,190.27866)" />
    <path
       id="path183"
       d="m 215.962,127.44 h 138.557 v 82.2882 H 215.962 Z"
       style="fill:none;stroke:#000000;stroke-width:0.75;stroke-linecap:butt;stroke-linejoin:miter;stroke-miterlimit:10;stroke-dasharray:none;stroke-opacity:1"
       transform="matrix(1.3333333,0,0,-1.3333333,272.19731,190.27866)" />
    <path
       id="path184"
       d="m 215.962,127.44 h 138.557 v 82.2882 H 215.962 Z"
       style="fill:#ffffff;fill-opacity:1;fill-rule:evenodd;stroke:#ffffff;stroke-width:0.4;stroke-linecap:butt;stroke-linejoin:miter;stroke-miterlimit:10;stroke-dasharray:none;stroke-opacity:1"
       transform="matrix(1.3333333,0,0,-1.3333333,272.19731,190.27866)" />
    <path
       id="path185"
       d="m 215.962,127.44 h 138.557 v 82.2882 H 215.962 Z"
       style="fill:none;stroke:#000000;stroke-width:0.75;stroke-linecap:butt;stroke-linejoin:miter;stroke-miterlimit:10;stroke-dasharray:none;stroke-opacity:1"
       transform="matrix(1.3333333,0,0,-1.3333333,272.19731,190.27866)" />
    <path
       id="path186"
       d="m 215.962,153.563 h 2.887 v 6.531 h 2.886 v -26.123 h 2.887 v 0 h 2.887 v 0 h 2.886 v 6.53 h 2.887 v 0 h 2.887 v 32.654 h 2.886 v -26.123 h 2.887 v 0 h 2.886 v -6.531 h 2.887 v 13.062 h 2.887 v 32.654 h 2.886 v -19.592 h 2.887 v -6.531 h 2.886 v 19.592 h 2.887 V 127.44 h 2.887 v 32.654 h 2.886 v 45.715 h 2.887 v -45.715 h 2.886 v 6.531 h 2.887 v 19.592 h 2.887 v -26.123 h 2.886 v -6.531 h 2.887 v 6.531 h 2.887 v -6.531 h 2.886 v 13.062 h 2.887 v -6.531 h 2.886 v -19.593 h 2.887 V 127.44 h 2.887 v 6.531 h 2.886 v 6.53 h 2.887 v 13.062 h 2.886 V 127.44 h 2.887 v 0 h 2.887 v 13.061 h 2.886 v 0 h 2.887 V 127.44 h 2.887 v 0 h 2.886 v 0 h 2.887 v 0 h 2.886 v 0 h 2.887 v 0 h 2.887 v 0 h 2.886 v 0 h 2.887 v 0 h 2.886 v 0 h 2.887 v 0 h 2.887"
       style="fill:none;stroke:#0000ff;stroke-width:1.5;stroke-linecap:butt;stroke-linejoin:miter;stroke-miterlimit:10;stroke-dasharray:none;stroke-opacity:1"
       transform="matrix(1.3333333,0,0,-1.3333333,272.19731,190.27866)" />
    <path
       id="path187"
       d="M 215.962,127.44 H 354.52"
       style="fill:none;stroke:#000000;stroke-width:0.75;stroke-linecap:butt;stroke-linejoin:miter;stroke-miterlimit:10;stroke-dasharray:none;stroke-opacity:1"
       transform="matrix(1.3333333,0,0,-1.3333333,272.19731,190.27866)" />
    <path
       id="path188"
       d="m 216.283,129.94 v -2.5"
       style="fill:none;stroke:#000000;stroke-width:0.75;stroke-linecap:butt;stroke-linejoin:miter;stroke-miterlimit:10;stroke-dasharray:none;stroke-opacity:1"
       transform="matrix(1.3333333,0,0,-1.3333333,272.19731,190.27866)" />
    <path
       id="path189"
       d="m 222.698,128.69 v -1.25"
       style="fill:none;stroke:#000000;stroke-width:0.75;stroke-linecap:butt;stroke-linejoin:miter;stroke-miterlimit:10;stroke-dasharray:none;stroke-opacity:1"
       transform="matrix(1.3333333,0,0,-1.3333333,272.19731,190.27866)" />
    <path
       id="path190"
       d="m 229.112,128.69 v -1.25"
       style="fill:none;stroke:#000000;stroke-width:0.75;stroke-linecap:butt;stroke-linejoin:miter;stroke-miterlimit:10;stroke-dasharray:none;stroke-opacity:1"
       transform="matrix(1.3333333,0,0,-1.3333333,272.19731,190.27866)" />
    <path
       id="path191"
       d="m 235.527,128.69 v -1.25"
       style="fill:none;stroke:#000000;stroke-width:0.75;stroke-linecap:butt;stroke-linejoin:miter;stroke-miterlimit:10;stroke-dasharray:none;stroke-opacity:1"
       transform="matrix(1.3333333,0,0,-1.3333333,272.19731,190.27866)" />
    <path
       id="path192"
       d="m 241.942,128.69 v -1.25"
       style="fill:none;stroke:#000000;stroke-width:0.75;stroke-linecap:butt;stroke-linejoin:miter;stroke-miterlimit:10;stroke-dasharray:none;stroke-opacity:1"
       transform="matrix(1.3333333,0,0,-1.3333333,272.19731,190.27866)" />
    <path
       id="path193"
       d="m 248.356,129.94 v -2.5"
       style="fill:none;stroke:#000000;stroke-width:0.75;stroke-linecap:butt;stroke-linejoin:miter;stroke-miterlimit:10;stroke-dasharray:none;stroke-opacity:1"
       transform="matrix(1.3333333,0,0,-1.3333333,272.19731,190.27866)" />
    <path
       id="path194"
       d="m 254.771,128.69 v -1.25"
       style="fill:none;stroke:#000000;stroke-width:0.75;stroke-linecap:butt;stroke-linejoin:miter;stroke-miterlimit:10;stroke-dasharray:none;stroke-opacity:1"
       transform="matrix(1.3333333,0,0,-1.3333333,272.19731,190.27866)" />
    <path
       id="path195"
       d="m 261.186,128.69 v -1.25"
       style="fill:none;stroke:#000000;stroke-width:0.75;stroke-linecap:butt;stroke-linejoin:miter;stroke-miterlimit:10;stroke-dasharray:none;stroke-opacity:1"
       transform="matrix(1.3333333,0,0,-1.3333333,272.19731,190.27866)" />
    <path
       id="path196"
       d="m 267.601,128.69 v -1.25"
       style="fill:none;stroke:#000000;stroke-width:0.75;stroke-linecap:butt;stroke-linejoin:miter;stroke-miterlimit:10;stroke-dasharray:none;stroke-opacity:1"
       transform="matrix(1.3333333,0,0,-1.3333333,272.19731,190.27866)" />
    <path
       id="path197"
       d="m 274.015,128.69 v -1.25"
       style="fill:none;stroke:#000000;stroke-width:0.75;stroke-linecap:butt;stroke-linejoin:miter;stroke-miterlimit:10;stroke-dasharray:none;stroke-opacity:1"
       transform="matrix(1.3333333,0,0,-1.3333333,272.19731,190.27866)" />
    <path
       id="path198"
       d="m 280.43,129.94 v -2.5"
       style="fill:none;stroke:#000000;stroke-width:0.75;stroke-linecap:butt;stroke-linejoin:miter;stroke-miterlimit:10;stroke-dasharray:none;stroke-opacity:1"
       transform="matrix(1.3333333,0,0,-1.3333333,272.19731,190.27866)" />
    <path
       id="path199"
       d="m 286.845,128.69 v -1.25"
       style="fill:none;stroke:#000000;stroke-width:0.75;stroke-linecap:butt;stroke-linejoin:miter;stroke-miterlimit:10;stroke-dasharray:none;stroke-opacity:1"
       transform="matrix(1.3333333,0,0,-1.3333333,272.19731,190.27866)" />
    <path
       id="path200"
       d="m 293.259,128.69 v -1.25"
       style="fill:none;stroke:#000000;stroke-width:0.75;stroke-linecap:butt;stroke-linejoin:miter;stroke-miterlimit:10;stroke-dasharray:none;stroke-opacity:1"
       transform="matrix(1.3333333,0,0,-1.3333333,272.19731,190.27866)" />
    <path
       id="path201"
       d="m 299.674,128.69 v -1.25"
       style="fill:none;stroke:#000000;stroke-width:0.75;stroke-linecap:butt;stroke-linejoin:miter;stroke-miterlimit:10;stroke-dasharray:none;stroke-opacity:1"
       transform="matrix(1.3333333,0,0,-1.3333333,272.19731,190.27866)" />
    <path
       id="path202"
       d="m 306.089,128.69 v -1.25"
       style="fill:none;stroke:#000000;stroke-width:0.75;stroke-linecap:butt;stroke-linejoin:miter;stroke-miterlimit:10;stroke-dasharray:none;stroke-opacity:1"
       transform="matrix(1.3333333,0,0,-1.3333333,272.19731,190.27866)" />
    <path
       id="path203"
       d="m 312.503,129.94 v -2.5"
       style="fill:none;stroke:#000000;stroke-width:0.75;stroke-linecap:butt;stroke-linejoin:miter;stroke-miterlimit:10;stroke-dasharray:none;stroke-opacity:1"
       transform="matrix(1.3333333,0,0,-1.3333333,272.19731,190.27866)" />
    <path
       id="path204"
       d="m 318.918,128.69 v -1.25"
       style="fill:none;stroke:#000000;stroke-width:0.75;stroke-linecap:butt;stroke-linejoin:miter;stroke-miterlimit:10;stroke-dasharray:none;stroke-opacity:1"
       transform="matrix(1.3333333,0,0,-1.3333333,272.19731,190.27866)" />
    <path
       id="path205"
       d="m 325.333,128.69 v -1.25"
       style="fill:none;stroke:#000000;stroke-width:0.75;stroke-linecap:butt;stroke-linejoin:miter;stroke-miterlimit:10;stroke-dasharray:none;stroke-opacity:1"
       transform="matrix(1.3333333,0,0,-1.3333333,272.19731,190.27866)" />
    <path
       id="path206"
       d="m 331.747,128.69 v -1.25"
       style="fill:none;stroke:#000000;stroke-width:0.75;stroke-linecap:butt;stroke-linejoin:miter;stroke-miterlimit:10;stroke-dasharray:none;stroke-opacity:1"
       transform="matrix(1.3333333,0,0,-1.3333333,272.19731,190.27866)" />
    <path
       id="path207"
       d="m 338.162,128.69 v -1.25"
       style="fill:none;stroke:#000000;stroke-width:0.75;stroke-linecap:butt;stroke-linejoin:miter;stroke-miterlimit:10;stroke-dasharray:none;stroke-opacity:1"
       transform="matrix(1.3333333,0,0,-1.3333333,272.19731,190.27866)" />
    <path
       id="path208"
       d="m 344.577,129.94 v -2.5"
       style="fill:none;stroke:#000000;stroke-width:0.75;stroke-linecap:butt;stroke-linejoin:miter;stroke-miterlimit:10;stroke-dasharray:none;stroke-opacity:1"
       transform="matrix(1.3333333,0,0,-1.3333333,272.19731,190.27866)" />
    <path
       id="path209"
       d="m 216.283,129.94 v -2.5"
       style="fill:none;stroke:#000000;stroke-width:0.75;stroke-linecap:butt;stroke-linejoin:miter;stroke-miterlimit:10;stroke-dasharray:none;stroke-opacity:1"
       transform="matrix(1.3333333,0,0,-1.3333333,272.19731,190.27866)" />
    <path
       id="path210"
       d="m 344.577,129.94 v -2.5"
       style="fill:none;stroke:#000000;stroke-width:0.75;stroke-linecap:butt;stroke-linejoin:miter;stroke-miterlimit:10;stroke-dasharray:none;stroke-opacity:1"
       transform="matrix(1.3333333,0,0,-1.3333333,272.19731,190.27866)" />
    <path
       id="path211"
       d="m 350.992,128.69 v -1.25"
       style="fill:none;stroke:#000000;stroke-width:0.75;stroke-linecap:butt;stroke-linejoin:miter;stroke-miterlimit:10;stroke-dasharray:none;stroke-opacity:1"
       transform="matrix(1.3333333,0,0,-1.3333333,272.19731,190.27866)" />
    <path
       id="path212"
       d="m 0.14194531,-0.64357031 0.31640625,-0.0234375 c 0.0234375,0.15820312 0.0761719,0.27539062 0.1640625,0.3515625 0.0849609,0.0791016 0.1875,0.1171875 0.3046875,0.1171875 0.14062504,0 0.26074224,-0.0527344 0.36328124,-0.1640625 0.099609,-0.10839844 0.1523438,-0.25195313 0.1523438,-0.43359375 0,-0.16992188 -0.052734,-0.30761714 -0.1523438,-0.41015624 -0.09375,-0.099609 -0.2167969,-0.1523438 -0.36328124,-0.1523438 -0.10253906,0 -0.19335937,0.023437 -0.26953125,0.070312 -0.0791016,0.046875 -0.13769531,0.1054688 -0.17578125,0.1757813 l -0.28125,-0.035156 0.234375,-1.2539062 H 1.6419453 v 0.28125 H 0.66928906 l -0.12890625,0.65625 c 0.14648438,-0.099609 0.29882813,-0.1523438 0.45703125,-0.1523438 0.21679684,0 0.39843754,0.076172 0.53906254,0.2226563 0.1464843,0.1494141 0.2226562,0.3369141 0.2226562,0.56249999 0,0.22851562 -0.064453,0.41894531 -0.1875,0.57421875 -0.1582031,0.20507812 -0.3720703,0.3046875 -0.64453124,0.3046875 -0.21972656,0 -0.3984375,-0.06152344 -0.5390625,-0.1875 -0.140625,-0.12304688 -0.22265625,-0.29296875 -0.24609375,-0.50390605 z m 0,0"
       style="fill:#000000;fill-opacity:1;fill-rule:nonzero;stroke:none"
       aria-label="5"
       transform="matrix(1.3333333,0,0,1.3333333,559.06664,25.057326)"
       clip-path="url(#clipPath213)" />
    <path
       id="path214"
       d="m 0.1396875,-0.64357031 0.31640625,-0.0234375 c 0.0234375,0.15820312 0.0761719,0.27539062 0.1640625,0.3515625 0.0849609,0.0791016 0.1875,0.1171875 0.3046875,0.1171875 0.14062505,0 0.26074215,-0.0527344 0.36328125,-0.1640625 0.099609,-0.10839844 0.1523438,-0.25195313 0.1523438,-0.43359375 0,-0.16992188 -0.052734,-0.30761714 -0.1523438,-0.41015624 -0.09375,-0.099609 -0.2167969,-0.1523438 -0.36328125,-0.1523438 -0.10253906,0 -0.19335937,0.023437 -0.26953125,0.070312 -0.0791016,0.046875 -0.13769531,0.1054688 -0.17578125,0.1757813 l -0.28125,-0.035156 0.234375,-1.2539062 H 1.6396875 v 0.28125 H 0.66703125 L 0.538125,-1.463883 c 0.14648438,-0.099609 0.29882813,-0.1523438 0.45703125,-0.1523438 0.21679685,0 0.39843755,0.076172 0.53906255,0.2226563 0.1464843,0.1494141 0.2226562,0.3369141 0.2226562,0.56249999 0,0.22851562 -0.064453,0.41894531 -0.1875,0.57421875 -0.1582031,0.20507812 -0.3720703,0.3046875 -0.64453125,0.3046875 -0.21972656,0 -0.3984375,-0.06152344 -0.5390625,-0.1875 C 0.24515625,-0.26271094 0.163125,-0.43263281 0.1396875,-0.64357031 Z m 2.0625,0.6445312475 V -0.33888281 H 2.55375 V 9.609375e-4 Z M 2.9844141,-0.64357031 3.3008203,-0.66700781 c 0.023437,0.15820312 0.076172,0.27539062 0.1640625,0.3515625 0.084961,0.0791016 0.1875,0.1171875 0.3046875,0.1171875 0.140625,0 0.2607422,-0.0527344 0.3632813,-0.1640625 0.099609,-0.10839844 0.1523437,-0.25195313 0.1523437,-0.43359375 0,-0.16992188 -0.052734,-0.30761714 -0.1523437,-0.41015624 -0.09375,-0.099609 -0.2167969,-0.1523438 -0.3632813,-0.1523438 -0.102539,0 -0.1933594,0.023437 -0.2695312,0.070312 -0.079102,0.046875 -0.1376953,0.1054688 -0.1757813,0.1757813 l -0.28125,-0.035156 0.234375,-1.2539062 h 1.2070313 v 0.28125 H 3.5117578 l -0.1289062,0.65625 c 0.1464843,-0.099609 0.2988281,-0.1523438 0.4570312,-0.1523438 0.2167969,0 0.3984375,0.076172 0.5390625,0.2226563 0.1464844,0.1494141 0.2226563,0.3369141 0.2226563,0.56249999 0,0.22851562 -0.064453,0.41894531 -0.1875,0.57421875 -0.1582032,0.20507812 -0.3720703,0.3046875 -0.6445313,0.3046875 -0.2197265,0 -0.3984375,-0.06152344 -0.5390625,-0.1875 -0.140625,-0.12304688 -0.2226562,-0.29296875 -0.2460937,-0.50390605 z m 0,0"
       style="fill:#000000;fill-opacity:1;fill-rule:nonzero;stroke:none"
       aria-label="5.5"
       transform="matrix(1.3333333,0,0,1.3333333,599.91731,25.057326)"
       clip-path="url(#clipPath215)" />
    <path
       id="path216"
       d="m 1.6981484,-1.8388828 -0.3046875,0.023437 c -0.023437,-0.1171875 -0.058594,-0.2021484 -0.1054687,-0.2578125 -0.087891,-0.084961 -0.1875,-0.1289063 -0.30468751,-0.1289063 -0.09375,0 -0.17578125,0.029297 -0.24609375,0.082031 -0.09375,0.070312 -0.16992188,0.1728516 -0.22265625,0.3046875 -0.0556641,0.1259766 -0.0878906,0.3134766 -0.09375,0.5625 0.0761719,-0.1083984 0.16699218,-0.1904297 0.26953125,-0.2460938 0.0996094,-0.052734 0.2109375,-0.082031 0.32812496,-0.082031 0.2021485,0 0.3691407,0.076172 0.5039063,0.2226562 0.140625,0.1494141 0.2109375,0.3369141 0.2109375,0.56250004 0,0.15820312 -0.032227,0.30175781 -0.09375,0.43359375 -0.064453,0.13476562 -0.1523438,0.234375 -0.2695313,0.3046875 -0.1171875,0.0703125 -0.2519531,0.10546875 -0.39843746,0.10546875 -0.25195313,0 -0.45410157,-0.08789063 -0.609375,-0.26953125 -0.15820313,-0.1875 -0.234375,-0.4921875 -0.234375,-0.91406249 0,-0.4746094 0.0849609,-0.8203125 0.2578125,-1.03125 0.15527343,-0.1875 0.36328125,-0.28125 0.62109376,-0.28125 0.1875,0 0.3427734,0.055664 0.46875,0.1640625 0.1230469,0.1025391 0.1992187,0.2519531 0.2226562,0.4453131 z m -1.23046871,1.05468749 c 0,0.10253906 0.0234375,0.19921875 0.0703125,0.29296875 0.046875,0.09375 0.10839843,0.16992187 0.1875,0.22265625 0.0761719,0.046875 0.15820312,0.0703125 0.24609375,0.0703125 0.12304686,0 0.22851566,-0.0498047 0.31640626,-0.15234375 0.09375,-0.10839844 0.140625,-0.24902344 0.140625,-0.421875 0,-0.16992188 -0.046875,-0.30468754 -0.140625,-0.39843754 -0.087891,-0.099609 -0.1962891,-0.1523437 -0.32812501,-0.1523437 -0.13476563,0 -0.25195313,0.052734 -0.3515625,0.1523437 -0.09375,0.09375 -0.140625,0.22265629 -0.140625,0.38671879 z m 0,0"
       style="fill:#000000;fill-opacity:1;fill-rule:nonzero;stroke:none"
       aria-label="6"
       transform="matrix(1.3333333,0,0,1.3333333,644.70264,25.057326)"
       clip-path="url(#clipPath217)" />
    <path
       id="path218"
       d="m 1.6992344,-1.8388828 -0.3046875,0.023437 c -0.023437,-0.1171875 -0.058594,-0.2021484 -0.1054688,-0.2578125 -0.087891,-0.084961 -0.1875,-0.1289063 -0.30468747,-0.1289063 -0.09375,0 -0.17578125,0.029297 -0.24609375,0.082031 -0.09375,0.070312 -0.16992188,0.1728516 -0.22265625,0.3046875 -0.0556641,0.1259766 -0.0878906,0.3134766 -0.09375,0.5625 0.0761719,-0.1083984 0.16699218,-0.1904297 0.26953125,-0.2460938 0.0996094,-0.052734 0.2109375,-0.082031 0.32812502,-0.082031 0.2021484,0 0.3691406,0.076172 0.5039062,0.2226562 0.140625,0.1494141 0.2109375,0.3369141 0.2109375,0.56250004 0,0.15820312 -0.032226,0.30175781 -0.09375,0.43359375 -0.064453,0.13476562 -0.1523437,0.234375 -0.2695312,0.3046875 -0.1171875,0.0703125 -0.2519531,0.10546875 -0.39843752,0.10546875 -0.25195313,0 -0.45410157,-0.08789063 -0.609375,-0.26953125 -0.15820313,-0.1875 -0.234375,-0.4921875 -0.234375,-0.91406249 0,-0.4746094 0.0849609,-0.8203125 0.2578125,-1.03125 0.15527343,-0.1875 0.36328125,-0.28125 0.62109372,-0.28125 0.1875,0 0.3427735,0.055664 0.46875,0.1640625 0.1230469,0.1025391 0.1992188,0.2519531 0.2226563,0.4453131 z m -1.23046877,1.05468749 c 0,0.10253906 0.0234375,0.19921875 0.0703125,0.29296875 0.046875,0.09375 0.10839843,0.16992187 0.1875,0.22265625 0.0761719,0.046875 0.15820312,0.0703125 0.24609375,0.0703125 0.12304692,0 0.22851562,-0.0498047 0.31640622,-0.15234375 0.09375,-0.10839844 0.140625,-0.24902344 0.140625,-0.421875 0,-0.16992188 -0.046875,-0.30468754 -0.140625,-0.39843754 -0.087891,-0.099609 -0.196289,-0.1523437 -0.32812497,-0.1523437 -0.13476563,0 -0.25195313,0.052734 -0.3515625,0.1523437 -0.09375,0.09375 -0.140625,0.22265629 -0.140625,0.38671879 z M 2.2002109,9.609375e-4 V -0.33888281 H 2.5517734 V 9.609375e-4 Z M 2.9853672,-0.64357031 3.3017734,-0.66700781 c 0.023437,0.15820312 0.076172,0.27539062 0.1640625,0.3515625 0.084961,0.0791016 0.1875,0.1171875 0.3046875,0.1171875 0.140625,0 0.2607422,-0.0527344 0.3632813,-0.1640625 0.099609,-0.10839844 0.1523437,-0.25195313 0.1523437,-0.43359375 0,-0.16992188 -0.052734,-0.30761714 -0.1523437,-0.41015624 -0.09375,-0.099609 -0.2167969,-0.1523438 -0.3632813,-0.1523438 -0.102539,0 -0.1933593,0.023437 -0.2695312,0.070312 -0.079102,0.046875 -0.1376953,0.1054688 -0.1757813,0.1757813 l -0.28125,-0.035156 0.234375,-1.2539062 h 1.2070313 v 0.28125 H 3.5127109 l -0.1289062,0.65625 c 0.1464844,-0.099609 0.2988281,-0.1523438 0.4570312,-0.1523438 0.2167969,0 0.3984375,0.076172 0.5390625,0.2226563 0.1464844,0.1494141 0.2226563,0.3369141 0.2226563,0.56249999 0,0.22851562 -0.064453,0.41894531 -0.1875,0.57421875 -0.1582031,0.20507812 -0.3720703,0.3046875 -0.6445313,0.3046875 -0.2197265,0 -0.3984375,-0.06152344 -0.5390625,-0.1875 -0.140625,-0.12304688 -0.2226562,-0.29296875 -0.2460937,-0.50390605 z m 0,0"
       style="fill:#000000;fill-opacity:1;fill-rule:nonzero;stroke:none"
       aria-label="6.5"
       transform="matrix(1.3333333,0,0,1.3333333,685.25198,25.057326)"
       clip-path="url(#clipPath219)" />
    <path
       id="path220"
       d="M 0.16546094,-2.1201328 V -2.4131016 H 1.7474922 v 0.234375 c -0.1582031,0.1640625 -0.3134766,0.3867188 -0.46875,0.6679688 -0.1494141,0.2753906 -0.2666016,0.55664061 -0.35156251,0.84374999 -0.0644531,0.20507812 -0.10253907,0.42773437 -0.1171875,0.6679687475 h -0.3046875 c 0,-0.1933593775 0.0351563,-0.4248046875 0.10546875,-0.6914062475 C 0.68694531,-0.96290625 0.79241406,-1.2236484 0.92717969,-1.4756016 1.0590156,-1.7334141 1.2025703,-1.9472812 1.3607734,-2.1201328 Z m 0,0"
       style="fill:#000000;fill-opacity:1;fill-rule:nonzero;stroke:none"
       aria-label="7"
       transform="matrix(1.3333333,0,0,1.3333333,730.33998,25.057326)"
       clip-path="url(#clipPath221)" />
    <path
       id="path222"
       d="m 0.24728906,-1.1142578 0.515625,-0.070312 c 0.0615234,0.29882811 0.1640625,0.5126953 0.30468754,0.64453124 0.1464843,0.12597656 0.3222656,0.1875 0.5273437,0.1875 0.2402344,0 0.4453125,-0.0849609 0.609375,-0.2578125 0.1699219,-0.16992188 0.2578125,-0.38085938 0.2578125,-0.63281254 0,-0.234375 -0.079102,-0.4277343 -0.234375,-0.5859375 -0.1494141,-0.1552734 -0.3457031,-0.234375 -0.5859375,-0.234375 -0.1025391,0 -0.2226562,0.020508 -0.3632812,0.058594 l 0.046875,-0.4570313 c 0.038086,0.00879 0.070312,0.011719 0.09375,0.011719 0.2167968,0 0.4130859,-0.058594 0.5859375,-0.1757813 0.1787109,-0.1171875 0.2695312,-0.2929687 0.2695312,-0.5273437 0,-0.1933594 -0.067383,-0.3544922 -0.1992187,-0.4804688 -0.1259766,-0.1230468 -0.2900391,-0.1875 -0.4921875,-0.1875 -0.2050782,0 -0.3720704,0.067383 -0.5039063,0.1992188 -0.13476561,0.1259766 -0.21972655,0.3134766 -0.25781249,0.5625 l -0.515625,-0.09375 c 0.0615234,-0.3427734 0.20214844,-0.609375 0.421875,-0.796875 0.22558594,-0.1933594 0.50683589,-0.2929688 0.84374999,-0.2929688 0.234375,0 0.4453125,0.052734 0.6328125,0.1523438 0.1933594,0.09375 0.3427734,0.2285156 0.4453125,0.3984375 0.1083984,0.1728516 0.1640625,0.3574219 0.1640625,0.5507812 0,0.1816407 -0.052734,0.3457032 -0.1523437,0.4921875 -0.09375,0.1494141 -0.2402344,0.2695313 -0.4335938,0.3632813 0.2490234,0.055664 0.4394531,0.1728516 0.5742188,0.3515625 0.140625,0.1816406 0.2109375,0.4072266 0.2109375,0.6796875 0,0.37499999 -0.1347657,0.69140624 -0.3984375,0.94921874 -0.2666016,0.25195312 -0.6064454,0.375 -1.0195313,0.375 -0.375,0 -0.68554686,-0.10839844 -0.92578124,-0.328125 C 0.426,-0.47558594 0.285375,-0.76269531 0.24728906,-1.1142578 Z m 0,0"
       style="fill:#000000;fill-opacity:1;fill-rule:nonzero;stroke:none"
       aria-label="3"
       transform="matrix(1.3333333,0,0,1.3333333,740.62931,39.27866)"
       clip-path="url(#clipPath223)" />
    <path
       id="path224"
       d="M -0.01284375,-0.00107031 2.4246563,-6.3526328 H 3.327 l 2.6015625,6.35156249 H 4.967625 L 4.2293438,-1.9229453 H 1.5809063 L 0.87778125,-0.00107031 Z M 1.8152813,-2.6143516 h 2.15625 L 3.3035625,-4.3721641 c -0.1962891,-0.5302734 -0.3457031,-0.9667968 -0.4453125,-1.3125 -0.079102,0.4072266 -0.1933594,0.8144532 -0.3398437,1.21875 z m 0,0"
       style="fill:#000000;fill-opacity:1;fill-rule:nonzero;stroke:none"
       aria-label="A"
       transform="matrix(1.3333333,0,0,1.3333333,732.76131,35.95066)"
       clip-path="url(#clipPath225)" />
    <path
       id="path226"
       d="m 215.962,127.44 v 82.288"
       style="fill:none;stroke:#000000;stroke-width:0.75;stroke-linecap:butt;stroke-linejoin:miter;stroke-miterlimit:10;stroke-dasharray:none;stroke-opacity:1"
       transform="matrix(1.3333333,0,0,-1.3333333,272.19731,190.27866)" />
    <path
       id="path227"
       d="m 220.066,127.44 h -4.104"
       style="fill:none;stroke:#000000;stroke-width:0.75;stroke-linecap:butt;stroke-linejoin:miter;stroke-miterlimit:10;stroke-dasharray:none;stroke-opacity:1"
       transform="matrix(1.3333333,0,0,-1.3333333,272.19731,190.27866)" />
    <path
       id="path228"
       d="m 218.014,130.705 h -2.052"
       style="fill:none;stroke:#000000;stroke-width:0.75;stroke-linecap:butt;stroke-linejoin:miter;stroke-miterlimit:10;stroke-dasharray:none;stroke-opacity:1"
       transform="matrix(1.3333333,0,0,-1.3333333,272.19731,190.27866)" />
    <path
       id="path229"
       d="m 218.014,133.971 h -2.052"
       style="fill:none;stroke:#000000;stroke-width:0.75;stroke-linecap:butt;stroke-linejoin:miter;stroke-miterlimit:10;stroke-dasharray:none;stroke-opacity:1"
       transform="matrix(1.3333333,0,0,-1.3333333,272.19731,190.27866)" />
    <path
       id="path230"
       d="m 218.014,137.236 h -2.052"
       style="fill:none;stroke:#000000;stroke-width:0.75;stroke-linecap:butt;stroke-linejoin:miter;stroke-miterlimit:10;stroke-dasharray:none;stroke-opacity:1"
       transform="matrix(1.3333333,0,0,-1.3333333,272.19731,190.27866)" />
    <path
       id="path231"
       d="m 220.066,140.501 h -4.104"
       style="fill:none;stroke:#000000;stroke-width:0.75;stroke-linecap:butt;stroke-linejoin:miter;stroke-miterlimit:10;stroke-dasharray:none;stroke-opacity:1"
       transform="matrix(1.3333333,0,0,-1.3333333,272.19731,190.27866)" />
    <path
       id="path232"
       d="m 218.014,143.767 h -2.052"
       style="fill:none;stroke:#000000;stroke-width:0.75;stroke-linecap:butt;stroke-linejoin:miter;stroke-miterlimit:10;stroke-dasharray:none;stroke-opacity:1"
       transform="matrix(1.3333333,0,0,-1.3333333,272.19731,190.27866)" />
    <path
       id="path233"
       d="m 218.014,147.032 h -2.052"
       style="fill:none;stroke:#000000;stroke-width:0.75;stroke-linecap:butt;stroke-linejoin:miter;stroke-miterlimit:10;stroke-dasharray:none;stroke-opacity:1"
       transform="matrix(1.3333333,0,0,-1.3333333,272.19731,190.27866)" />
    <path
       id="path234"
       d="m 218.014,150.298 h -2.052"
       style="fill:none;stroke:#000000;stroke-width:0.75;stroke-linecap:butt;stroke-linejoin:miter;stroke-miterlimit:10;stroke-dasharray:none;stroke-opacity:1"
       transform="matrix(1.3333333,0,0,-1.3333333,272.19731,190.27866)" />
    <path
       id="path235"
       d="m 220.066,153.563 h -4.104"
       style="fill:none;stroke:#000000;stroke-width:0.75;stroke-linecap:butt;stroke-linejoin:miter;stroke-miterlimit:10;stroke-dasharray:none;stroke-opacity:1"
       transform="matrix(1.3333333,0,0,-1.3333333,272.19731,190.27866)" />
    <path
       id="path236"
       d="m 218.014,156.828 h -2.052"
       style="fill:none;stroke:#000000;stroke-width:0.75;stroke-linecap:butt;stroke-linejoin:miter;stroke-miterlimit:10;stroke-dasharray:none;stroke-opacity:1"
       transform="matrix(1.3333333,0,0,-1.3333333,272.19731,190.27866)" />
    <path
       id="path237"
       d="m 218.014,160.094 h -2.052"
       style="fill:none;stroke:#000000;stroke-width:0.75;stroke-linecap:butt;stroke-linejoin:miter;stroke-miterlimit:10;stroke-dasharray:none;stroke-opacity:1"
       transform="matrix(1.3333333,0,0,-1.3333333,272.19731,190.27866)" />
    <path
       id="path238"
       d="m 218.014,163.359 h -2.052"
       style="fill:none;stroke:#000000;stroke-width:0.75;stroke-linecap:butt;stroke-linejoin:miter;stroke-miterlimit:10;stroke-dasharray:none;stroke-opacity:1"
       transform="matrix(1.3333333,0,0,-1.3333333,272.19731,190.27866)" />
    <path
       id="path239"
       d="m 220.066,166.625 h -4.104"
       style="fill:none;stroke:#000000;stroke-width:0.75;stroke-linecap:butt;stroke-linejoin:miter;stroke-miterlimit:10;stroke-dasharray:none;stroke-opacity:1"
       transform="matrix(1.3333333,0,0,-1.3333333,272.19731,190.27866)" />
    <path
       id="path240"
       d="m 218.014,169.89 h -2.052"
       style="fill:none;stroke:#000000;stroke-width:0.75;stroke-linecap:butt;stroke-linejoin:miter;stroke-miterlimit:10;stroke-dasharray:none;stroke-opacity:1"
       transform="matrix(1.3333333,0,0,-1.3333333,272.19731,190.27866)" />
    <path
       id="path241"
       d="m 218.014,173.155 h -2.052"
       style="fill:none;stroke:#000000;stroke-width:0.75;stroke-linecap:butt;stroke-linejoin:miter;stroke-miterlimit:10;stroke-dasharray:none;stroke-opacity:1"
       transform="matrix(1.3333333,0,0,-1.3333333,272.19731,190.27866)" />
    <path
       id="path242"
       d="m 218.014,176.421 h -2.052"
       style="fill:none;stroke:#000000;stroke-width:0.75;stroke-linecap:butt;stroke-linejoin:miter;stroke-miterlimit:10;stroke-dasharray:none;stroke-opacity:1"
       transform="matrix(1.3333333,0,0,-1.3333333,272.19731,190.27866)" />
    <path
       id="path243"
       d="m 220.066,179.686 h -4.104"
       style="fill:none;stroke:#000000;stroke-width:0.75;stroke-linecap:butt;stroke-linejoin:miter;stroke-miterlimit:10;stroke-dasharray:none;stroke-opacity:1"
       transform="matrix(1.3333333,0,0,-1.3333333,272.19731,190.27866)" />
    <path
       id="path244"
       d="m 218.014,182.952 h -2.052"
       style="fill:none;stroke:#000000;stroke-width:0.75;stroke-linecap:butt;stroke-linejoin:miter;stroke-miterlimit:10;stroke-dasharray:none;stroke-opacity:1"
       transform="matrix(1.3333333,0,0,-1.3333333,272.19731,190.27866)" />
    <path
       id="path245"
       d="m 218.014,186.217 h -2.052"
       style="fill:none;stroke:#000000;stroke-width:0.75;stroke-linecap:butt;stroke-linejoin:miter;stroke-miterlimit:10;stroke-dasharray:none;stroke-opacity:1"
       transform="matrix(1.3333333,0,0,-1.3333333,272.19731,190.27866)" />
    <path
       id="path246"
       d="m 218.014,189.482 h -2.052"
       style="fill:none;stroke:#000000;stroke-width:0.75;stroke-linecap:butt;stroke-linejoin:miter;stroke-miterlimit:10;stroke-dasharray:none;stroke-opacity:1"
       transform="matrix(1.3333333,0,0,-1.3333333,272.19731,190.27866)" />
    <path
       id="path247"
       d="m 220.066,192.748 h -4.104"
       style="fill:none;stroke:#000000;stroke-width:0.75;stroke-linecap:butt;stroke-linejoin:miter;stroke-miterlimit:10;stroke-dasharray:none;stroke-opacity:1"
       transform="matrix(1.3333333,0,0,-1.3333333,272.19731,190.27866)" />
    <path
       id="path248"
       d="m 218.014,196.013 h -2.052"
       style="fill:none;stroke:#000000;stroke-width:0.75;stroke-linecap:butt;stroke-linejoin:miter;stroke-miterlimit:10;stroke-dasharray:none;stroke-opacity:1"
       transform="matrix(1.3333333,0,0,-1.3333333,272.19731,190.27866)" />
    <path
       id="path249"
       d="m 218.014,199.279 h -2.052"
       style="fill:none;stroke:#000000;stroke-width:0.75;stroke-linecap:butt;stroke-linejoin:miter;stroke-miterlimit:10;stroke-dasharray:none;stroke-opacity:1"
       transform="matrix(1.3333333,0,0,-1.3333333,272.19731,190.27866)" />
    <path
       id="path250"
       d="m 218.014,202.544 h -2.052"
       style="fill:none;stroke:#000000;stroke-width:0.75;stroke-linecap:butt;stroke-linejoin:miter;stroke-miterlimit:10;stroke-dasharray:none;stroke-opacity:1"
       transform="matrix(1.3333333,0,0,-1.3333333,272.19731,190.27866)" />
    <path
       id="path251"
       d="m 220.066,205.809 h -4.104"
       style="fill:none;stroke:#000000;stroke-width:0.75;stroke-linecap:butt;stroke-linejoin:miter;stroke-miterlimit:10;stroke-dasharray:none;stroke-opacity:1"
       transform="matrix(1.3333333,0,0,-1.3333333,272.19731,190.27866)" />
    <path
       id="path252"
       d="m 220.066,205.809 h -4.104"
       style="fill:none;stroke:#000000;stroke-width:0.75;stroke-linecap:butt;stroke-linejoin:miter;stroke-miterlimit:10;stroke-dasharray:none;stroke-opacity:1"
       transform="matrix(1.3333333,0,0,-1.3333333,272.19731,190.27866)" />
    <path
       id="path253"
       d="m 218.014,209.075 h -2.052"
       style="fill:none;stroke:#000000;stroke-width:0.75;stroke-linecap:butt;stroke-linejoin:miter;stroke-miterlimit:10;stroke-dasharray:none;stroke-opacity:1"
       transform="matrix(1.3333333,0,0,-1.3333333,272.19731,190.27866)" />
    <path
       id="path254"
       d="m 1.1242969,-2.9423672 c 0.28125,0 0.5039062,0.1025391 0.6679687,0.3046875 0.1875,0.2431641 0.28125,0.6416016 0.28125,1.1953125 0,0.55664064 -0.099609,0.95507814 -0.2929687,1.19531251 -0.1582031,0.19628907 -0.375,0.29296875 -0.65625,0.29296875 -0.29003909,0 -0.5214844,-0.10839843 -0.69140627,-0.328125 -0.17285157,-0.21679687 -0.2578125,-0.609375 -0.2578125,-1.17187496 0,-0.5449219 0.09375,-0.9404297 0.28125,-1.1835938 0.15527343,-0.2021484 0.37792968,-0.3046875 0.66796877,-0.3046875 z m 0,0.46875 c -0.070312,0 -0.13476565,0.023437 -0.18750002,0.070312 -0.0556641,0.041016 -0.09375,0.1142578 -0.1171875,0.2226563 -0.0410156,0.149414 -0.0585938,0.3955078 -0.0585938,0.7382812 0,0.3457031 0.0146484,0.58300783 0.046875,0.71484376 0.0380859,0.12597657 0.0820313,0.2109375 0.12890625,0.2578125 0.0527344,0.0410156 0.11718757,0.0585938 0.18749997,0.0585938 0.061523,0 0.1201172,-0.0234375 0.1757812,-0.0703125 0.052734,-0.046875 0.09668,-0.12304687 0.1289063,-0.234375 0.038086,-0.140625 0.058594,-0.38085936 0.058594,-0.72656246 0,-0.3427734 -0.020508,-0.5771485 -0.058594,-0.7031251 -0.032227,-0.1318359 -0.076172,-0.2167968 -0.1289063,-0.2578125 -0.055664,-0.046875 -0.1142578,-0.070312 -0.1757811,-0.070312 z m 0,0"
       style="fill:#000000;fill-opacity:1;fill-rule:nonzero;stroke:none"
       aria-label="0"
       transform="matrix(1.3333333,0,0,1.3333333,555.73731,22.333326)"
       clip-path="url(#clipPath255)" />
    <path
       id="path256"
       d="m 2.0735156,-0.51515625 v 0.515625 H 0.10476563 c 0.0146484,-0.19335937 0.0761719,-0.37792969 0.1875,-0.55078125 0.10839843,-0.17871094 0.31933593,-0.41601562 0.6328125,-0.7148437 0.24902347,-0.234375 0.40429687,-0.3925782 0.46874997,-0.4804688 0.070312,-0.1083984 0.1054688,-0.2226562 0.1054688,-0.3398437 0,-0.1230469 -0.035156,-0.2167969 -0.1054688,-0.28125 -0.064453,-0.070312 -0.1523437,-0.1054688 -0.2695312,-0.1054688 -0.1171875,0 -0.21093752,0.035156 -0.28125002,0.1054688 -0.0703125,0.070312 -0.11132813,0.1875 -0.1171875,0.3515625 l -0.5625,-0.058594 c 0.0380859,-0.3046875 0.14355468,-0.5214844 0.31640625,-0.65625 0.17871093,-0.140625 0.3984375,-0.2109375 0.65624997,-0.2109375 0.2871094,0 0.515625,0.079102 0.6796875,0.234375 0.1699219,0.1582031 0.2578125,0.3515625 0.2578125,0.5859375 0,0.1347656 -0.029297,0.2578125 -0.082031,0.375 -0.046875,0.1171875 -0.1230469,0.2431641 -0.2226563,0.375 -0.064453,0.087891 -0.1845703,0.2109375 -0.3632812,0.375 -0.1816406,0.15820313 -0.2929688,0.26367188 -0.3398438,0.31640625 -0.046875,0.0556641 -0.0878906,0.11132813 -0.11718747,0.1640625 z m 0,0"
       style="fill:#000000;fill-opacity:1;fill-rule:nonzero;stroke:none"
       aria-label="2"
       transform="matrix(1.3333333,0,0,1.3333333,555.73731,5.0853263)"
       clip-path="url(#clipPath257)" />
    <path
       id="path258"
       d="m 1.2766406,0.00138281 v -0.5859375 H 0.06960938 V -1.0767422 L 1.3469531,-2.9400234 h 0.46875 v 1.8632812 h 0.3632813 v 0.49218751 H 1.8157031 v 0.5859375 z m 0,-1.07812501 v -1.0078125 l -0.67968747,1.0078125 z m 0,0"
       style="fill:#000000;fill-opacity:1;fill-rule:nonzero;stroke:none"
       aria-label="4"
       transform="matrix(1.3333333,0,0,1.3333333,555.73731,-12.466674)"
       clip-path="url(#clipPath259)" />
    <path
       id="path260"
       d="m 2.0735156,-2.2135469 -0.5390625,0.058594 c -0.017578,-0.1083985 -0.052734,-0.1875 -0.1054687,-0.234375 -0.055664,-0.052734 -0.1289063,-0.082031 -0.2226563,-0.082031 -0.1171875,0 -0.21972654,0.055664 -0.30468747,0.1640625 -0.0791016,0.1025391 -0.12890625,0.3222657 -0.15234375,0.65625 0.140625,-0.1640625 0.31640622,-0.2460937 0.52734372,-0.2460937 0.234375,0 0.4335938,0.09082 0.5976563,0.2695312 0.1699219,0.1728516 0.2578125,0.4042969 0.2578125,0.69140628 0,0.29882812 -0.09082,0.53613281 -0.2695313,0.71484375 -0.1728515,0.18164062 -0.3984375,0.26953125 -0.6796875,0.26953125 -0.29003904,0 -0.5332031,-0.11132813 -0.72656247,-0.33984375 -0.1875,-0.234375 -0.28125,-0.61230469 -0.28125,-1.13671873 0,-0.5302735 0.0966797,-0.9140625 0.29296875,-1.1484375 0.20214843,-0.2402344 0.45996093,-0.3632813 0.77343752,-0.3632813 0.2255859,0 0.4101562,0.064453 0.5507812,0.1875 0.1464844,0.1259766 0.2402344,0.3046875 0.28125,0.539062 z m -1.26562497,1.23046878 c 0,0.18164062 0.0380859,0.32226562 0.1171875,0.421875 0.084961,0.10253906 0.18164067,0.15234375 0.29296877,0.15234375 0.099609,0 0.1875,-0.0380859 0.2578125,-0.1171875 0.070312,-0.0849609 0.1054687,-0.22265625 0.1054687,-0.41015625 0,-0.18749998 -0.041016,-0.32226558 -0.1171875,-0.41015628 -0.070312,-0.09375 -0.1640625,-0.140625 -0.28125,-0.140625 -0.102539,0 -0.19335935,0.043945 -0.26953122,0.1289063 -0.0703125,0.087891 -0.10546875,0.2109375 -0.10546875,0.37499998 z m 0,0"
       style="fill:#000000;fill-opacity:1;fill-rule:nonzero;stroke:none"
       aria-label="6"
       transform="matrix(1.3333333,0,0,1.3333333,555.73731,-30.01734)"
       clip-path="url(#clipPath261)" />
    <path
       id="path262"
       d="m 0.65554688,-1.5822344 c -0.14941407,-0.061523 -0.2578125,-0.1435547 -0.328125,-0.2460937 -0.0644531,-0.1083985 -0.09375,-0.225586 -0.09375,-0.3515625 0,-0.2167969 0.0732422,-0.3984375 0.22265625,-0.5390625 0.15527343,-0.1464844 0.375,-0.2226563 0.65624997,-0.2226563 0.28125,0 0.4951172,0.076172 0.6445313,0.2226563 0.1552734,0.140625 0.234375,0.3222656 0.234375,0.5390625 0,0.1347656 -0.035156,0.2548828 -0.1054688,0.3632812 -0.070312,0.1025391 -0.1699218,0.1816407 -0.2929687,0.234375 0.1640625,0.070312 0.2841797,0.1699219 0.3632812,0.2929688 0.084961,0.1259765 0.1289063,0.2695312 0.1289063,0.43359373 0,0.26660156 -0.087891,0.48632812 -0.2578125,0.65625 -0.1728516,0.1640625 -0.3984375,0.24609375 -0.6796875,0.24609375 -0.26660159,0 -0.48925784,-0.06445313 -0.66796877,-0.19921875 -0.2109375,-0.16992188 -0.31640625,-0.3984375 -0.31640625,-0.6796875 0,-0.1640625 0.0380859,-0.31054683 0.1171875,-0.44531253 0.0761719,-0.1318359 0.20214843,-0.234375 0.375,-0.3046875 z m 0.1171875,-0.5625 c 0,0.1113282 0.0292969,0.1962891 0.09375,0.2578125 0.0615234,0.064453 0.14355472,0.09375 0.24609372,0.09375 0.1083985,0 0.1933594,-0.029297 0.2578125,-0.09375 0.061524,-0.061523 0.09375,-0.1464843 0.09375,-0.2578125 0,-0.1083984 -0.032226,-0.1933593 -0.09375,-0.2578125 -0.064453,-0.061523 -0.1464843,-0.09375 -0.2460937,-0.09375 -0.1113281,0 -0.19628909,0.035156 -0.25781252,0.1054688 -0.0644531,0.064453 -0.09375,0.1464844 -0.09375,0.2460937 z m -0.0585938,1.25390628 c 0,0.15820312 0.0380859,0.27832031 0.1171875,0.36328125 0.0849609,0.0878906 0.18749992,0.12890625 0.30468742,0.12890625 0.1171875,0 0.2109375,-0.0380859 0.28125,-0.1171875 0.076172,-0.0849609 0.1171875,-0.20507813 0.1171875,-0.36328125 0,-0.14062503 -0.041016,-0.24902343 -0.1171875,-0.32812503 -0.079101,-0.084961 -0.1757812,-0.1289062 -0.2929687,-0.1289062 -0.1347656,0 -0.23437497,0.046875 -0.30468747,0.140625 -0.0703125,0.09375 -0.10546875,0.19628904 -0.10546875,0.30468748 z m 0,0"
       style="fill:#000000;fill-opacity:1;fill-rule:nonzero;stroke:none"
       aria-label="8"
       transform="matrix(1.3333333,0,0,1.3333333,555.73731,-47.26534)"
       clip-path="url(#clipPath263)" />
    <path
       id="path264"
       d="m 1.6061875,7.109375e-4 h -0.5625 V -2.1086641 c -0.20507813,0.1875 -0.44238281,0.328125 -0.71484375,0.421875 v -0.515625 c 0.140625,-0.046875 0.29589844,-0.1347656 0.46875,-0.2695312 0.16992187,-0.1318359 0.28710935,-0.2871094 0.35156245,-0.46875 H 1.6061875 Z M 3.3991562,-2.9406953 c 0.28125,0 0.5039063,0.1025391 0.6679688,0.3046875 0.1875,0.2431641 0.28125,0.6416016 0.28125,1.1953125 0,0.55664061 -0.099609,0.95507811 -0.2929688,1.19531249 -0.1582031,0.19628906 -0.375,0.29296875 -0.65625,0.29296875 -0.290039,0 -0.5214843,-0.10839844 -0.6914062,-0.328125 -0.1728516,-0.21679688 -0.2578125,-0.609375 -0.2578125,-1.17187504 0,-0.5449218 0.09375,-0.9404296 0.28125,-1.1835937 0.1552734,-0.2021484 0.3779297,-0.3046875 0.6679687,-0.3046875 z m 0,0.46875 c -0.070312,0 -0.1347656,0.023437 -0.1875,0.070312 -0.055664,0.041016 -0.09375,0.1142578 -0.1171875,0.2226562 -0.041016,0.1494141 -0.058594,0.3955079 -0.058594,0.7382813 0,0.3457031 0.014648,0.5830078 0.046875,0.71484374 0.038086,0.12597656 0.082031,0.2109375 0.1289062,0.2578125 0.052734,0.0410156 0.1171875,0.0585938 0.1875,0.0585938 0.061523,0 0.1201172,-0.0234375 0.1757813,-0.0703125 0.052734,-0.046875 0.09668,-0.12304688 0.1289062,-0.234375 0.038086,-0.140625 0.058594,-0.38085934 0.058594,-0.72656244 0,-0.3427734 -0.020508,-0.5771484 -0.058594,-0.703125 -0.032227,-0.1318359 -0.076172,-0.2167969 -0.1289062,-0.2578125 -0.055664,-0.046875 -0.1142578,-0.070312 -0.175781,-0.070312 z m 0,0"
       style="fill:#000000;fill-opacity:1;fill-rule:nonzero;stroke:none"
       aria-label="10"
       transform="matrix(1.3333333,0,0,1.3333333,552.71198,-64.81734)"
       clip-path="url(#clipPath265)" />
    <path
       id="path266"
       d="m 1.6061875,7.265625e-4 h -0.5625 V -2.1086484 c -0.20507813,0.1875 -0.44238281,0.328125 -0.71484375,0.421875 v -0.515625 c 0.140625,-0.046875 0.29589844,-0.1347657 0.46875,-0.2695313 0.16992187,-0.1318359 0.28710935,-0.2871094 0.35156245,-0.46875 H 1.6061875 Z M 4.348375,-0.51489844 V 7.265625e-4 H 2.379625 C 2.3942734,-0.19263281 2.4557969,-0.37720312 2.567125,-0.55005469 2.6755234,-0.72876562 2.8864609,-0.96607031 3.1999375,-1.2648984 c 0.2490234,-0.234375 0.4042969,-0.3925782 0.46875,-0.4804688 0.070312,-0.1083984 0.1054687,-0.2226562 0.1054687,-0.3398437 0,-0.1230469 -0.035156,-0.2167969 -0.1054687,-0.28125 -0.064453,-0.070312 -0.1523438,-0.1054688 -0.2695313,-0.1054688 -0.1171875,0 -0.2109375,0.035156 -0.28125,0.1054688 -0.070312,0.070312 -0.1113281,0.1875 -0.1171875,0.3515625 l -0.5625,-0.058594 c 0.038086,-0.3046875 0.1435547,-0.5214844 0.3164063,-0.65625 0.1787109,-0.140625 0.3984375,-0.2109375 0.65625,-0.2109375 0.2871094,0 0.515625,0.079102 0.6796875,0.234375 0.1699219,0.1582031 0.2578125,0.3515625 0.2578125,0.5859375 0,0.1347656 -0.029297,0.2578125 -0.082031,0.375 -0.046875,0.1171875 -0.1230468,0.2431641 -0.2226562,0.375 -0.064453,0.087891 -0.1845703,0.2109375 -0.3632813,0.37500001 -0.1816406,0.15820313 -0.2929687,0.26367188 -0.3398437,0.31640625 -0.046875,0.0556641 -0.087891,0.11132813 -0.1171875,0.1640625 z m 0,0"
       style="fill:#000000;fill-opacity:1;fill-rule:nonzero;stroke:none"
       aria-label="12"
       transform="matrix(1.3333333,0,0,1.3333333,552.71198,-81.762674)"
       clip-path="url(#clipPath267)" />
    <path
       id="path268"
       d="m 0.38795312,-3.1400078 c 0,-0.6386719 0.0966797,-1.1835938 0.29296875,-1.6289063 0.140625,-0.3193359 0.33398433,-0.609375 0.58593753,-0.8671875 0.2490234,-0.2578125 0.5214843,-0.4482422 0.8203125,-0.5742187 0.3984375,-0.1640625 0.8554687,-0.2460938 1.3710937,-0.2460938 0.9375,0 1.6875,0.2900391 2.25,0.8671875 0.5625,0.5800782 0.84375,1.3886719 0.84375,2.4257813 0,1.0253906 -0.28125,1.8251953 -0.84375,2.40234374 -0.5566406,0.58007812 -1.3007812,0.8671875 -2.2382812,0.8671875 -0.9375,0 -1.6875,-0.28417969 -2.25,-0.85546875 C 0.66334375,-1.3265313 0.38795312,-2.1234063 0.38795312,-3.1400078 Z m 1.32421878,-0.035156 c 0,0.7207032 0.1640625,1.265625 0.4921875,1.640625 0.3339843,0.3691407 0.7558593,0.55078129 1.265625,0.55078129 0.5068359,0 0.9257812,-0.18164059 1.2539062,-0.55078129 0.328125,-0.375 0.4921875,-0.9287109 0.4921875,-1.6640625 0,-0.7265625 -0.1611328,-1.2685547 -0.4804687,-1.6289062 C 4.4221328,-5.1849294 4.0002578,-5.36657 3.4699844,-5.36657 c -0.5332032,0 -0.9580078,0.1845703 -1.2773438,0.5507812 -0.3222656,0.3603516 -0.4804687,0.9082032 -0.4804687,1.640625 z m 9.8378901,-0.058594 -1.207031,0.2109375 c -0.04101,-0.2402344 -0.134765,-0.421875 -0.28125,-0.5390625 -0.1406248,-0.1230469 -0.3251951,-0.1875 -0.550781,-0.1875 -0.3046875,0 -0.5478516,0.1054687 -0.7265625,0.3164062 -0.1816406,0.2109375 -0.2695313,0.5625 -0.2695313,1.0546875 0,0.5478516 0.087891,0.9345703 0.2695313,1.1601563 0.1875,0.21972655 0.4365234,0.32812499 0.75,0.32812499 0.2255859,0 0.4130859,-0.0615234 0.5624995,-0.18749999 0.146485,-0.131836 0.251954,-0.3574219 0.316407,-0.6796875 l 1.195312,0.1992187 c -0.125976,0.5478516 -0.363281,0.96093754 -0.714844,1.24218754 -0.351562,0.28125 -0.826171,0.421875 -1.4179683,0.421875 -0.6738281,0 -1.2128906,-0.2109375 -1.6171875,-0.6328125 C 7.4602187,-0.95446094 7.261,-1.5462578 7.261,-2.2962578 c 0,-0.7558594 0.1992187,-1.3476563 0.5976562,-1.7695313 0.4042969,-0.421875 0.9521485,-0.6328125 1.640625,-0.6328125 0.5537108,0 0.9960938,0.1230469 1.3242188,0.3632813 0.333984,0.234375 0.577148,0.6035156 0.726562,1.1015625 z m 4.930665,0 -1.207032,0.2109375 c -0.04101,-0.2402344 -0.134765,-0.421875 -0.28125,-0.5390625 -0.140625,-0.1230469 -0.325195,-0.1875 -0.550781,-0.1875 -0.304687,0 -0.547852,0.1054687 -0.726562,0.3164062 -0.181641,0.2109375 -0.269532,0.5625 -0.269532,1.0546875 0,0.5478516 0.08789,0.9345703 0.269532,1.1601563 0.1875,0.21972655 0.436523,0.32812499 0.75,0.32812499 0.225585,0 0.413085,-0.0615234 0.5625,-0.18749999 0.146484,-0.131836 0.251953,-0.3574219 0.316406,-0.6796875 l 1.195312,0.1992187 c -0.125976,0.5478516 -0.363281,0.96093754 -0.714843,1.24218754 -0.351563,0.28125 -0.826172,0.421875 -1.417969,0.421875 -0.673828,0 -1.212891,-0.2109375 -1.617188,-0.6328125 -0.398437,-0.42773438 -0.597656,-1.01953124 -0.597656,-1.76953124 0,-0.7558594 0.199219,-1.3476563 0.597656,-1.7695313 0.404297,-0.421875 0.952149,-0.6328125 1.640625,-0.6328125 0.553711,0 0.996094,0.1230469 1.324219,0.3632813 0.333984,0.234375 0.577148,0.6035156 0.726563,1.1015625 z m 0.629882,0.8671875 c 0,-0.4042969 0.09668,-0.796875 0.292969,-1.171875 0.202149,-0.375 0.486328,-0.6591797 0.855469,-0.8554688 0.366211,-0.2021484 0.773437,-0.3046875 1.21875,-0.3046875 0.703125,0 1.271484,0.2285157 1.710937,0.6796875 0.445313,0.4453125 0.667969,1.0166016 0.667969,1.7109375 0,0.6972657 -0.228516,1.2744141 -0.679687,1.73437504 -0.445313,0.45410156 -1.007813,0.6796875 -1.6875,0.6796875 -0.421875,0 -0.826172,-0.09375 -1.207032,-0.28125 -0.383789,-0.19335938 -0.676757,-0.47460938 -0.878906,-0.84375004 -0.196289,-0.3662109 -0.292969,-0.8144531 -0.292969,-1.3476562 z m 1.253907,0.070312 c 0,0.4541015 0.105468,0.8027344 0.316406,1.0429687 0.216797,0.2431641 0.486328,0.36328129 0.808594,0.36328129 0.319336,0 0.585937,-0.12011719 0.796875,-0.36328129 0.216796,-0.2402343 0.328125,-0.5917968 0.328125,-1.0546875 0,-0.4511718 -0.111329,-0.7998047 -0.328125,-1.0429687 -0.210938,-0.2402344 -0.477539,-0.3632813 -0.796875,-0.3632813 -0.322266,0 -0.591797,0.1230469 -0.808594,0.3632813 -0.210938,0.243164 -0.316406,0.5947265 -0.316406,1.0546875 z m 5.61914,2.2968749875 h -1.21875 V -4.6048516 h 1.125 v 0.65625 c 0.19336,-0.3046875 0.369141,-0.5039062 0.527344,-0.5976562 0.155273,-0.099609 0.331055,-0.1523438 0.527344,-0.1523438 0.272461,0 0.539062,0.076172 0.796875,0.2226563 l -0.375,1.0664062 c -0.205078,-0.1318359 -0.395508,-0.1992187 -0.574219,-0.1992187 -0.172852,0 -0.316406,0.046875 -0.433594,0.140625 -0.117187,0.09375 -0.210937,0.2666015 -0.28125,0.515625 -0.06445,0.243164 -0.09375,0.7558594 -0.09375,1.5351562 z m 3.448242,0 h -1.21875 V -4.6048516 h 1.125 v 0.65625 c 0.19336,-0.3046875 0.369141,-0.5039062 0.527344,-0.5976562 0.155274,-0.099609 0.331055,-0.1523438 0.527344,-0.1523438 0.272461,0 0.539062,0.076172 0.796875,0.2226563 l -0.375,1.0664062 c -0.205078,-0.1318359 -0.395508,-0.1992187 -0.574219,-0.1992187 -0.172851,0 -0.316406,0.046875 -0.433594,0.140625 -0.117187,0.09375 -0.210937,0.2666015 -0.28125,0.515625 -0.06445,0.243164 -0.09375,0.7558594 -0.09375,1.5351562 z M 32.38307,-1.4642266 l 1.207032,0.1992188 c -0.158204,0.44531249 -0.404297,0.78515624 -0.738282,1.01953124 -0.336914,0.234375 -0.758789,0.3515625 -1.265625,0.3515625 -0.796875,0 -1.388672,-0.26074219 -1.769531,-0.78515625 -0.304687,-0.42187499 -0.457031,-0.94921879 -0.457031,-1.58203129 0,-0.7646484 0.199219,-1.3623047 0.597656,-1.7929687 0.398438,-0.4277344 0.902344,-0.6445313 1.511719,-0.6445313 0.685547,0 1.224609,0.2285157 1.617187,0.6796875 0.398438,0.4453125 0.588867,1.1367188 0.574219,2.0742188 H 30.60182 c 0.01465,0.3603515 0.117188,0.6416015 0.304688,0.84375 0.1875,0.19628905 0.416015,0.29296874 0.691406,0.29296874 0.193359,0 0.354492,-0.0498047 0.480469,-0.15234375 0.131836,-0.0996094 0.234375,-0.26953129 0.304687,-0.50390629 z m 0.07031,-1.2304687 c -0.01758,-0.3515625 -0.111328,-0.6152344 -0.28125,-0.796875 -0.172852,-0.1875 -0.383789,-0.28125 -0.632813,-0.28125 -0.266601,0 -0.486328,0.099609 -0.65625,0.2929687 -0.172851,0.1962891 -0.257812,0.4570313 -0.257812,0.7851563 z M 38.82545,6.171875e-4 H 37.618422 V -2.3431328 c 0,-0.4980469 -0.0293,-0.8203125 -0.08203,-0.9609375 -0.05566,-0.1464844 -0.140625,-0.2607422 -0.257813,-0.3398438 -0.117187,-0.084961 -0.257812,-0.1289062 -0.421875,-0.1289062 -0.210937,0 -0.404297,0.058594 -0.574219,0.1757812 -0.164062,0.1171875 -0.27832,0.2695313 -0.339843,0.4570313 -0.06445,0.1875 -0.09375,0.5390625 -0.09375,1.0546875 V 6.171875e-4 H 34.641859 V -4.6048516 h 1.125 v 0.6796875 c 0.398438,-0.515625 0.902344,-0.7734375 1.511719,-0.7734375 0.272461,0 0.518555,0.046875 0.738281,0.140625 0.225586,0.09375 0.392578,0.2197266 0.503907,0.375 0.117187,0.1494141 0.193359,0.3222657 0.234375,0.515625 0.04687,0.1875 0.07031,0.4570313 0.07031,0.8085938 z m 0.75293,0 V -0.94860156 l 1.722656,-1.98046874 c 0.28125,-0.319336 0.486328,-0.5507813 0.621094,-0.6914063 -0.140625,0.00879 -0.325196,0.017578 -0.550781,0.023437 l -1.628907,0.011719 v -1.0195313 h 3.808594 v 0.8671875 l -1.769531,2.0273438 -0.609375,0.6679687 c 0.333984,-0.014648 0.541992,-0.023437 0.621094,-0.023437 h 1.886718 V 6.171875e-4 Z m 7.584961,-1.4648437875 1.207031,0.1992188 c -0.158203,0.44531249 -0.404297,0.78515624 -0.738281,1.01953124 -0.336914,0.234375 -0.758789,0.3515625 -1.265625,0.3515625 -0.796875,0 -1.388672,-0.26074219 -1.769532,-0.78515625 -0.304687,-0.42187499 -0.457031,-0.94921879 -0.457031,-1.58203129 0,-0.7646484 0.199219,-1.3623047 0.597656,-1.7929687 0.398438,-0.4277344 0.902344,-0.6445313 1.511719,-0.6445313 0.685547,0 1.22461,0.2285157 1.617188,0.6796875 0.398437,0.4453125 0.588867,1.1367188 0.574218,2.0742188 h -3.058593 c 0.01465,0.3603515 0.117187,0.6416015 0.304687,0.84375 0.1875,0.19628905 0.416016,0.29296874 0.691406,0.29296874 0.19336,0 0.354493,-0.0498047 0.480469,-0.15234375 0.131836,-0.0996094 0.234375,-0.26953129 0.304688,-0.50390629 z m 0.07031,-1.2304687 c -0.01758,-0.3515625 -0.111328,-0.6152344 -0.28125,-0.796875 -0.172851,-0.1875 -0.383789,-0.28125 -0.632812,-0.28125 -0.266602,0 -0.486328,0.099609 -0.65625,0.2929687 -0.172852,0.1962891 -0.257813,0.4570313 -0.257813,0.7851563 z m 0,0"
       style="fill:#000000;fill-opacity:1;fill-rule:nonzero;stroke:none"
       aria-label="Occorrenze"
       transform="matrix(0,-1.3333333,1.3333333,0,540.60664,-24.87334)"
       clip-path="url(#clipPath269)" />
    <path
       id="path270"
       d="m 221.735,127.44 v 6.531 h 2.887 v 0 h 2.887 v 0 h 2.886 v 6.53 h 2.887 v 0 h 2.887 v 32.654 h 2.886 v -26.123 h 2.887 v -6.531 h 2.886 v 0 h 2.887 v 6.531 h 2.887 v 39.185 h 2.886 v -19.592 h 2.887 v -6.531 h 2.886 v 19.592 h 2.887 V 127.44 h 2.887 v 26.123 h 2.886 v 52.246 h 2.887 v -45.715 h 2.886 v 6.531 h 2.887 v 19.592 h 2.887 v -26.123 h 2.886 v -6.531 h 2.887 v 6.531 h 2.887 v -6.531 h 2.886 v 13.062 h 2.887 v -6.531 h 2.886 v -19.593 h 2.887 V 127.44 h 2.887 v 6.531 h 2.886 v 0 h 2.887 v 19.592 h 2.886 V 127.44 h 2.887 v 0 h 2.887 v 6.531 h 2.886 v 6.53 h 2.887 V 127.44 h 2.887 v 0 h 2.886 v 0 h 2.887 v 0 h 2.886 v 0 h 2.887 v 0 h 2.887 v 0 h 2.886 v 0 h 2.887 v 0 h 2.886 v 0"
       style="fill:none;stroke:#000000;stroke-width:1.5;stroke-linecap:butt;stroke-linejoin:miter;stroke-miterlimit:10;stroke-dasharray:none;stroke-opacity:1"
       transform="matrix(1.3333333,0,0,-1.3333333,272.19731,190.27866)" />
    <path
       id="path271"
       d="m 229.626,135.766 1.026,0.687 1.026,0.723 1.027,0.76 1.026,0.797 1.026,0.831 1.027,0.867 1.026,0.899 1.026,0.932 1.027,0.961 1.026,0.989 1.026,1.015 1.027,1.037 1.026,1.057 1.026,1.073 1.027,1.086 1.026,1.094 1.026,1.099 1.027,1.099 1.026,1.095 1.027,1.085 1.026,1.071 1.026,1.051 1.027,1.028 1.026,0.997 1.026,0.963 1.027,0.924 1.026,0.878 1.026,0.829 1.027,0.776 1.026,0.716 1.026,0.654 1.027,0.587 1.026,0.517 1.026,0.445 1.027,0.368 1.026,0.291 1.027,0.21 1.026,0.13 1.026,0.048 1.027,-0.035 1.026,-0.116 1.026,-0.197 1.027,-0.278 1.026,-0.356 1.026,-0.432 1.027,-0.505 1.026,-0.576 1.026,-0.643 1.027,-0.707"
       style="fill:none;stroke:#ff0000;stroke-width:0.75;stroke-linecap:butt;stroke-linejoin:miter;stroke-miterlimit:10;stroke-dasharray:3, 3;stroke-dashoffset:0;stroke-opacity:1"
       transform="matrix(1.3333333,0,0,-1.3333333,272.19731,190.27866)" />
    <path
       id="path272"
       d="m 279.917,163.59 1.026,-0.765 1.026,-0.821 1.027,-0.871 1.026,-0.916 1.026,-0.957 1.027,-0.992 1.026,-1.023 1.027,-1.048 1.026,-1.068 1.026,-1.083 1.027,-1.093 1.026,-1.099 1.026,-1.099 1.027,-1.096 1.026,-1.087 1.026,-1.075 1.027,-1.06 1.026,-1.041 1.026,-1.019 1.027,-0.993 1.026,-0.966 1.026,-0.937 1.027,-0.905 1.026,-0.871 1.027,-0.838 1.026,-0.802 1.026,-0.766 1.027,-0.73 1.026,-0.693 1.026,-0.656 1.027,-0.62 1.026,-0.585 1.026,-0.548 1.027,-0.515 1.026,-0.481 1.026,-0.448 1.027,-0.417 1.026,-0.387 1.026,-0.358 1.027,-0.33 1.026,-0.304 1.027,-0.28 1.026,-0.256 1.026,-0.234 1.027,-0.213 1.026,-0.195 1.026,-0.176 1.027,-0.159 1.026,-0.144"
       style="fill:none;stroke:#ff0000;stroke-width:0.75;stroke-linecap:butt;stroke-linejoin:miter;stroke-miterlimit:10;stroke-dasharray:3, 3;stroke-dashoffset:0;stroke-opacity:1"
       transform="matrix(1.3333333,0,0,-1.3333333,272.19731,190.27866)" />
    <path
       id="path273"
       d="m 330.208,128.57 1.026,-0.13"
       style="fill:none;stroke:#ff0000;stroke-width:0.75;stroke-linecap:butt;stroke-linejoin:miter;stroke-miterlimit:10;stroke-dasharray:3, 3;stroke-dashoffset:0;stroke-opacity:1"
       transform="matrix(1.3333333,0,0,-1.3333333,272.19731,190.27866)" />
    <path
       id="path274"
       d="M 0.09389844,0.00134375 V -1.1002188 L 3.2579609,-5.0025625 H 0.44546094 V -6.0220938 H 4.8517109 v 0.9492188 l -3.2929687,4.0546875 h 3.421875 V 0.00134375 Z M 5.4933125,-3.3502188 V -4.416625 h 4.2070313 v 1.0664062 z m 0,1.828125 V -2.5885 h 4.2070313 v 1.0664062 z m 8.8154295,0.4453125 v 1.07812505 h -4.042969 c 0.03809,-0.40429688 0.166993,-0.78808594 0.386719,-1.14843755 0.225586,-0.3662109 0.65918,-0.8496093 1.300781,-1.453125 0.521485,-0.4833984 0.84375,-0.8115234 0.960938,-0.984375 0.155273,-0.234375 0.234375,-0.46875 0.234375,-0.703125 0,-0.2578125 -0.07031,-0.4511718 -0.210938,-0.5859375 -0.134765,-0.140625 -0.322265,-0.2109375 -0.5625,-0.2109375 -0.243164,0 -0.439453,0.076172 -0.585937,0.2226563 -0.140625,0.140625 -0.219727,0.3808594 -0.234375,0.7148437 L 10.39468,-4.2642813 c 0.07031,-0.6328125 0.284179,-1.0839843 0.644531,-1.359375 0.366211,-0.28125 0.820312,-0.421875 1.359375,-0.421875 0.591797,0 1.057617,0.1611329 1.394531,0.4804688 0.342774,0.3222656 0.515625,0.7207031 0.515625,1.1953125 0,0.2753906 -0.05273,0.5332031 -0.152344,0.7734375 -0.09375,0.2431641 -0.246093,0.5009766 -0.457031,0.7734375 -0.140625,0.1816406 -0.395508,0.4394531 -0.761719,0.7734375 -0.360351,0.328125 -0.591796,0.5478516 -0.691406,0.65625 -0.09375,0.1113281 -0.169922,0.2167969 -0.222656,0.3164062 z m 0,0"
       style="fill:#000000;fill-opacity:1;fill-rule:nonzero;stroke:none"
       aria-label="Z=2"
       transform="matrix(1.3333333,0,0,1.3333333,640.46664,-92.35334)"
       clip-path="url(#clipPath275)" />
  </g>
</svg>
