<?xml version="1.0" encoding="UTF-8" standalone="no"?>
<!-- Created with Inkscape (http://www.inkscape.org/) -->

<svg
   version="1.1"
   id="svg1"
   width="756.43866"
   height="436.80798"
   viewBox="0 0 756.43866 436.80798"
   sodipodi:docname="c_z_error.svg"
   inkscape:version="1.3.2 (091e20e, 2023-11-25, custom)"
   xmlns:inkscape="http://www.inkscape.org/namespaces/inkscape"
   xmlns:sodipodi="http://sodipodi.sourceforge.net/DTD/sodipodi-0.dtd"
   xmlns="http://www.w3.org/2000/svg"
   xmlns:svg="http://www.w3.org/2000/svg">
  <defs
     id="defs1">
    <clipPath
       clipPathUnits="userSpaceOnUse"
       id="clipPath1">
      <path
         d="M 340,26.666667 H 1715.5963 V 674.13051 H 340 Z"
         id="path1" />
    </clipPath>
    <clipPath
       clipPathUnits="userSpaceOnUse"
       id="clipPath42">
      <path
         d="M 0,0 H 566.929 V 327.206 H 0 Z"
         transform="matrix(1,0,0,-1,-78.393002,21.018403)"
         id="path42" />
    </clipPath>
    <clipPath
       clipPathUnits="userSpaceOnUse"
       id="clipPath44">
      <path
         d="M 0,0 H 566.929 V 327.206 H 0 Z"
         transform="matrix(1,0,0,-1,-158.49,21.018403)"
         id="path44" />
    </clipPath>
    <clipPath
       clipPathUnits="userSpaceOnUse"
       id="clipPath46">
      <path
         d="M 0,0 H 566.929 V 327.206 H 0 Z"
         transform="matrix(1,0,0,-1,-239.155,21.018403)"
         id="path46" />
    </clipPath>
    <clipPath
       clipPathUnits="userSpaceOnUse"
       id="clipPath48">
      <path
         d="M 0,0 H 566.929 V 327.206 H 0 Z"
         transform="matrix(1,0,0,-1,-319.82101,21.018403)"
         id="path48" />
    </clipPath>
    <clipPath
       clipPathUnits="userSpaceOnUse"
       id="clipPath50">
      <path
         d="M 0,0 H 566.929 V 327.206 H 0 Z"
         transform="matrix(1,0,0,-1,-400.48601,21.018403)"
         id="path50" />
    </clipPath>
    <clipPath
       clipPathUnits="userSpaceOnUse"
       id="clipPath52">
      <path
         d="M 0,0 H 566.929 V 327.206 H 0 Z"
         transform="matrix(1,0,0,-1,-481.15101,21.018403)"
         id="path52" />
    </clipPath>
    <clipPath
       clipPathUnits="userSpaceOnUse"
       id="clipPath54">
      <path
         d="M 0,0 H 566.929 V 327.206 H 0 Z"
         transform="matrix(1,0,0,-1,-493.36792,5.1125901)"
         id="path54" />
    </clipPath>
    <clipPath
       clipPathUnits="userSpaceOnUse"
       id="clipPath87">
      <path
         d="M 0,0 H 566.929 V 327.206 H 0 Z"
         transform="matrix(1,0,0,-1,-26.130998,28.403301)"
         id="path87" />
    </clipPath>
    <clipPath
       clipPathUnits="userSpaceOnUse"
       id="clipPath89">
      <path
         d="M 0,0 H 566.929 V 327.206 H 0 Z"
         transform="matrix(1,0,0,-1,-27.835201,74.984602)"
         id="path89" />
    </clipPath>
    <clipPath
       clipPathUnits="userSpaceOnUse"
       id="clipPath91">
      <path
         d="M 0,0 H 566.929 V 327.206 H 0 Z"
         transform="matrix(1,0,0,-1,-26.130998,121.566)"
         id="path91" />
    </clipPath>
    <clipPath
       clipPathUnits="userSpaceOnUse"
       id="clipPath93">
      <path
         d="M 0,0 H 566.929 V 327.206 H 0 Z"
         transform="matrix(1,0,0,-1,-26.130998,168.71501)"
         id="path93" />
    </clipPath>
    <clipPath
       clipPathUnits="userSpaceOnUse"
       id="clipPath95">
      <path
         d="M 0,0 H 566.929 V 327.206 H 0 Z"
         transform="matrix(1,0,0,-1,-26.130998,215.29701)"
         id="path95" />
    </clipPath>
    <clipPath
       clipPathUnits="userSpaceOnUse"
       id="clipPath97">
      <path
         d="M 0,0 H 566.929 V 327.206 H 0 Z"
         transform="matrix(1,0,0,-1,-26.130998,262.446)"
         id="path97" />
    </clipPath>
    <clipPath
       clipPathUnits="userSpaceOnUse"
       id="clipPath99">
      <path
         d="M 0,0 H 566.929 V 327.206 H 0 Z"
         transform="matrix(0,1,1,0,-232.62591,-14.201603)"
         id="path99" />
    </clipPath>
    <clipPath
       clipPathUnits="userSpaceOnUse"
       id="clipPath112">
      <path
         d="M 0,0 H 566.929 V 327.206 H 0 Z"
         transform="matrix(1,0,0,-1,-426.04901,275.51201)"
         id="path112" />
    </clipPath>
    <clipPath
       clipPathUnits="userSpaceOnUse"
       id="clipPath114">
      <path
         d="M 0,0 H 566.929 V 327.206 H 0 Z"
         transform="matrix(1,0,0,-1,-451.61201,240.86001)"
         id="path114" />
    </clipPath>
    <clipPath
       clipPathUnits="userSpaceOnUse"
       id="clipPath117">
      <path
         d="M 0,0 H 566.929 V 327.206 H 0 Z"
         transform="matrix(1,0,0,-1,-100.548,303.91501)"
         id="path117" />
    </clipPath>
  </defs>
  <sodipodi:namedview
     id="namedview1"
     pagecolor="#ffffff"
     bordercolor="#000000"
     borderopacity="0.25"
     inkscape:showpageshadow="2"
     inkscape:pageopacity="0.0"
     inkscape:pagecheckerboard="0"
     inkscape:deskcolor="#d1d1d1"
     inkscape:zoom="0.72486772"
     inkscape:cx="365.58394"
     inkscape:cy="192.44891"
     inkscape:window-width="1280"
     inkscape:window-height="971"
     inkscape:window-x="1358"
     inkscape:window-y="-8"
     inkscape:window-maximized="1"
     inkscape:current-layer="g1">
    <inkscape:page
       x="0"
       y="0"
       inkscape:label="1"
       id="page1"
       width="756.43866"
       height="436.80798"
       margin="0"
       bleed="0" />
  </sodipodi:namedview>
  <g
     id="g1"
     inkscape:groupmode="layer"
     inkscape:label="1"
     clip-path="url(#clipPath1)"
     transform="translate(-339.73334,-26.125347)">
    <path
       id="path2"
       d="M 0,0 H 566.929 V 327.206 H 0 Z"
       style="fill:#ffffff;fill-opacity:1;fill-rule:evenodd;stroke:#ffffff;stroke-width:0.4;stroke-linecap:butt;stroke-linejoin:miter;stroke-miterlimit:10;stroke-dasharray:none;stroke-opacity:1"
       transform="matrix(1.3333333,0,0,-1.3333333,340,462.66667)" />
    <path
       id="path3"
       d="m 35.7881,32.9478 h 501.034 v 261.878 H 35.7881 Z"
       style="fill:#ffffff;fill-opacity:1;fill-rule:evenodd;stroke:#ffffff;stroke-width:0.4;stroke-linecap:butt;stroke-linejoin:miter;stroke-miterlimit:10;stroke-dasharray:none;stroke-opacity:1"
       transform="matrix(1.3333333,0,0,-1.3333333,340,462.66667)" />
    <path
       id="path4"
       d="m 35.7881,32.9478 h 501.034 v 261.878 H 35.7881 Z"
       style="fill:none;stroke:#000000;stroke-width:0.75;stroke-linecap:butt;stroke-linejoin:miter;stroke-miterlimit:10;stroke-dasharray:none;stroke-opacity:1"
       transform="matrix(1.3333333,0,0,-1.3333333,340,462.66667)" />
    <path
       id="path5"
       d="m 35.7881,32.9478 h 501.034 v 261.878 H 35.7881 Z"
       style="fill:#ffffff;fill-opacity:1;fill-rule:evenodd;stroke:#ffffff;stroke-width:0.4;stroke-linecap:butt;stroke-linejoin:miter;stroke-miterlimit:10;stroke-dasharray:none;stroke-opacity:1"
       transform="matrix(1.3333333,0,0,-1.3333333,340,462.66667)" />
    <path
       id="path6"
       d="m 35.7881,32.9478 h 501.034 v 261.878 H 35.7881 Z"
       style="fill:none;stroke:#000000;stroke-width:0.75;stroke-linecap:butt;stroke-linejoin:miter;stroke-miterlimit:10;stroke-dasharray:none;stroke-opacity:1"
       transform="matrix(1.3333333,0,0,-1.3333333,340,462.66667)" />
    <path
       id="path7"
       d="M 35.7881,32.9478 H 536.822"
       style="fill:none;stroke:#000000;stroke-width:0.75;stroke-linecap:butt;stroke-linejoin:miter;stroke-miterlimit:10;stroke-dasharray:none;stroke-opacity:1"
       transform="matrix(1.3333333,0,0,-1.3333333,340,462.66667)" />
    <path
       id="path8"
       d="M 81.5892,41.623 V 32.9478"
       style="fill:none;stroke:#000000;stroke-width:0.75;stroke-linecap:butt;stroke-linejoin:miter;stroke-miterlimit:10;stroke-dasharray:none;stroke-opacity:1"
       transform="matrix(1.3333333,0,0,-1.3333333,340,462.66667)" />
    <path
       id="path9"
       d="M 97.7091,37.2854 V 32.9478"
       style="fill:none;stroke:#000000;stroke-width:0.75;stroke-linecap:butt;stroke-linejoin:miter;stroke-miterlimit:10;stroke-dasharray:none;stroke-opacity:1"
       transform="matrix(1.3333333,0,0,-1.3333333,340,462.66667)" />
    <path
       id="path10"
       d="M 113.829,37.2854 V 32.9478"
       style="fill:none;stroke:#000000;stroke-width:0.75;stroke-linecap:butt;stroke-linejoin:miter;stroke-miterlimit:10;stroke-dasharray:none;stroke-opacity:1"
       transform="matrix(1.3333333,0,0,-1.3333333,340,462.66667)" />
    <path
       id="path11"
       d="M 129.949,37.2854 V 32.9478"
       style="fill:none;stroke:#000000;stroke-width:0.75;stroke-linecap:butt;stroke-linejoin:miter;stroke-miterlimit:10;stroke-dasharray:none;stroke-opacity:1"
       transform="matrix(1.3333333,0,0,-1.3333333,340,462.66667)" />
    <path
       id="path12"
       d="M 146.069,37.2854 V 32.9478"
       style="fill:none;stroke:#000000;stroke-width:0.75;stroke-linecap:butt;stroke-linejoin:miter;stroke-miterlimit:10;stroke-dasharray:none;stroke-opacity:1"
       transform="matrix(1.3333333,0,0,-1.3333333,340,462.66667)" />
    <path
       id="path13"
       d="M 162.189,41.623 V 32.9478"
       style="fill:none;stroke:#000000;stroke-width:0.75;stroke-linecap:butt;stroke-linejoin:miter;stroke-miterlimit:10;stroke-dasharray:none;stroke-opacity:1"
       transform="matrix(1.3333333,0,0,-1.3333333,340,462.66667)" />
    <path
       id="path14"
       d="M 178.309,37.2854 V 32.9478"
       style="fill:none;stroke:#000000;stroke-width:0.75;stroke-linecap:butt;stroke-linejoin:miter;stroke-miterlimit:10;stroke-dasharray:none;stroke-opacity:1"
       transform="matrix(1.3333333,0,0,-1.3333333,340,462.66667)" />
    <path
       id="path15"
       d="M 194.429,37.2854 V 32.9478"
       style="fill:none;stroke:#000000;stroke-width:0.75;stroke-linecap:butt;stroke-linejoin:miter;stroke-miterlimit:10;stroke-dasharray:none;stroke-opacity:1"
       transform="matrix(1.3333333,0,0,-1.3333333,340,462.66667)" />
    <path
       id="path16"
       d="M 210.549,37.2854 V 32.9478"
       style="fill:none;stroke:#000000;stroke-width:0.75;stroke-linecap:butt;stroke-linejoin:miter;stroke-miterlimit:10;stroke-dasharray:none;stroke-opacity:1"
       transform="matrix(1.3333333,0,0,-1.3333333,340,462.66667)" />
    <path
       id="path17"
       d="M 226.668,37.2854 V 32.9478"
       style="fill:none;stroke:#000000;stroke-width:0.75;stroke-linecap:butt;stroke-linejoin:miter;stroke-miterlimit:10;stroke-dasharray:none;stroke-opacity:1"
       transform="matrix(1.3333333,0,0,-1.3333333,340,462.66667)" />
    <path
       id="path18"
       d="M 242.788,41.623 V 32.9478"
       style="fill:none;stroke:#000000;stroke-width:0.75;stroke-linecap:butt;stroke-linejoin:miter;stroke-miterlimit:10;stroke-dasharray:none;stroke-opacity:1"
       transform="matrix(1.3333333,0,0,-1.3333333,340,462.66667)" />
    <path
       id="path19"
       d="M 258.908,37.2854 V 32.9478"
       style="fill:none;stroke:#000000;stroke-width:0.75;stroke-linecap:butt;stroke-linejoin:miter;stroke-miterlimit:10;stroke-dasharray:none;stroke-opacity:1"
       transform="matrix(1.3333333,0,0,-1.3333333,340,462.66667)" />
    <path
       id="path20"
       d="M 275.028,37.2854 V 32.9478"
       style="fill:none;stroke:#000000;stroke-width:0.75;stroke-linecap:butt;stroke-linejoin:miter;stroke-miterlimit:10;stroke-dasharray:none;stroke-opacity:1"
       transform="matrix(1.3333333,0,0,-1.3333333,340,462.66667)" />
    <path
       id="path21"
       d="M 291.148,37.2854 V 32.9478"
       style="fill:none;stroke:#000000;stroke-width:0.75;stroke-linecap:butt;stroke-linejoin:miter;stroke-miterlimit:10;stroke-dasharray:none;stroke-opacity:1"
       transform="matrix(1.3333333,0,0,-1.3333333,340,462.66667)" />
    <path
       id="path22"
       d="M 307.268,37.2854 V 32.9478"
       style="fill:none;stroke:#000000;stroke-width:0.75;stroke-linecap:butt;stroke-linejoin:miter;stroke-miterlimit:10;stroke-dasharray:none;stroke-opacity:1"
       transform="matrix(1.3333333,0,0,-1.3333333,340,462.66667)" />
    <path
       id="path23"
       d="M 323.388,41.623 V 32.9478"
       style="fill:none;stroke:#000000;stroke-width:0.75;stroke-linecap:butt;stroke-linejoin:miter;stroke-miterlimit:10;stroke-dasharray:none;stroke-opacity:1"
       transform="matrix(1.3333333,0,0,-1.3333333,340,462.66667)" />
    <path
       id="path24"
       d="M 339.508,37.2854 V 32.9478"
       style="fill:none;stroke:#000000;stroke-width:0.75;stroke-linecap:butt;stroke-linejoin:miter;stroke-miterlimit:10;stroke-dasharray:none;stroke-opacity:1"
       transform="matrix(1.3333333,0,0,-1.3333333,340,462.66667)" />
    <path
       id="path25"
       d="M 355.628,37.2854 V 32.9478"
       style="fill:none;stroke:#000000;stroke-width:0.75;stroke-linecap:butt;stroke-linejoin:miter;stroke-miterlimit:10;stroke-dasharray:none;stroke-opacity:1"
       transform="matrix(1.3333333,0,0,-1.3333333,340,462.66667)" />
    <path
       id="path26"
       d="M 371.748,37.2854 V 32.9478"
       style="fill:none;stroke:#000000;stroke-width:0.75;stroke-linecap:butt;stroke-linejoin:miter;stroke-miterlimit:10;stroke-dasharray:none;stroke-opacity:1"
       transform="matrix(1.3333333,0,0,-1.3333333,340,462.66667)" />
    <path
       id="path27"
       d="M 387.868,37.2854 V 32.9478"
       style="fill:none;stroke:#000000;stroke-width:0.75;stroke-linecap:butt;stroke-linejoin:miter;stroke-miterlimit:10;stroke-dasharray:none;stroke-opacity:1"
       transform="matrix(1.3333333,0,0,-1.3333333,340,462.66667)" />
    <path
       id="path28"
       d="M 403.988,41.623 V 32.9478"
       style="fill:none;stroke:#000000;stroke-width:0.75;stroke-linecap:butt;stroke-linejoin:miter;stroke-miterlimit:10;stroke-dasharray:none;stroke-opacity:1"
       transform="matrix(1.3333333,0,0,-1.3333333,340,462.66667)" />
    <path
       id="path29"
       d="M 420.107,37.2854 V 32.9478"
       style="fill:none;stroke:#000000;stroke-width:0.75;stroke-linecap:butt;stroke-linejoin:miter;stroke-miterlimit:10;stroke-dasharray:none;stroke-opacity:1"
       transform="matrix(1.3333333,0,0,-1.3333333,340,462.66667)" />
    <path
       id="path30"
       d="M 436.227,37.2854 V 32.9478"
       style="fill:none;stroke:#000000;stroke-width:0.75;stroke-linecap:butt;stroke-linejoin:miter;stroke-miterlimit:10;stroke-dasharray:none;stroke-opacity:1"
       transform="matrix(1.3333333,0,0,-1.3333333,340,462.66667)" />
    <path
       id="path31"
       d="M 452.347,37.2854 V 32.9478"
       style="fill:none;stroke:#000000;stroke-width:0.75;stroke-linecap:butt;stroke-linejoin:miter;stroke-miterlimit:10;stroke-dasharray:none;stroke-opacity:1"
       transform="matrix(1.3333333,0,0,-1.3333333,340,462.66667)" />
    <path
       id="path32"
       d="M 468.467,37.2854 V 32.9478"
       style="fill:none;stroke:#000000;stroke-width:0.75;stroke-linecap:butt;stroke-linejoin:miter;stroke-miterlimit:10;stroke-dasharray:none;stroke-opacity:1"
       transform="matrix(1.3333333,0,0,-1.3333333,340,462.66667)" />
    <path
       id="path33"
       d="M 484.587,41.623 V 32.9478"
       style="fill:none;stroke:#000000;stroke-width:0.75;stroke-linecap:butt;stroke-linejoin:miter;stroke-miterlimit:10;stroke-dasharray:none;stroke-opacity:1"
       transform="matrix(1.3333333,0,0,-1.3333333,340,462.66667)" />
    <path
       id="path34"
       d="M 81.5892,41.623 V 32.9478"
       style="fill:none;stroke:#000000;stroke-width:0.75;stroke-linecap:butt;stroke-linejoin:miter;stroke-miterlimit:10;stroke-dasharray:none;stroke-opacity:1"
       transform="matrix(1.3333333,0,0,-1.3333333,340,462.66667)" />
    <path
       id="path35"
       d="M 65.4693,37.2854 V 32.9478"
       style="fill:none;stroke:#000000;stroke-width:0.75;stroke-linecap:butt;stroke-linejoin:miter;stroke-miterlimit:10;stroke-dasharray:none;stroke-opacity:1"
       transform="matrix(1.3333333,0,0,-1.3333333,340,462.66667)" />
    <path
       id="path36"
       d="M 49.3493,37.2854 V 32.9478"
       style="fill:none;stroke:#000000;stroke-width:0.75;stroke-linecap:butt;stroke-linejoin:miter;stroke-miterlimit:10;stroke-dasharray:none;stroke-opacity:1"
       transform="matrix(1.3333333,0,0,-1.3333333,340,462.66667)" />
    <path
       id="path37"
       d="M 484.587,41.623 V 32.9478"
       style="fill:none;stroke:#000000;stroke-width:0.75;stroke-linecap:butt;stroke-linejoin:miter;stroke-miterlimit:10;stroke-dasharray:none;stroke-opacity:1"
       transform="matrix(1.3333333,0,0,-1.3333333,340,462.66667)" />
    <path
       id="path38"
       d="M 500.707,37.2854 V 32.9478"
       style="fill:none;stroke:#000000;stroke-width:0.75;stroke-linecap:butt;stroke-linejoin:miter;stroke-miterlimit:10;stroke-dasharray:none;stroke-opacity:1"
       transform="matrix(1.3333333,0,0,-1.3333333,340,462.66667)" />
    <path
       id="path39"
       d="M 516.827,37.2854 V 32.9478"
       style="fill:none;stroke:#000000;stroke-width:0.75;stroke-linecap:butt;stroke-linejoin:miter;stroke-miterlimit:10;stroke-dasharray:none;stroke-opacity:1"
       transform="matrix(1.3333333,0,0,-1.3333333,340,462.66667)" />
    <path
       id="path40"
       d="M 532.947,37.2854 V 32.9478"
       style="fill:none;stroke:#000000;stroke-width:0.75;stroke-linecap:butt;stroke-linejoin:miter;stroke-miterlimit:10;stroke-dasharray:none;stroke-opacity:1"
       transform="matrix(1.3333333,0,0,-1.3333333,340,462.66667)" />
    <path
       id="path41"
       d="M 4.9214531,8.21875e-4 H 3.1987969 V -6.4562094 C 2.5718437,-5.8702719 1.8335625,-5.4366781 0.98395312,-5.1554281 V -6.7140219 C 1.435125,-6.8605062 1.9243828,-7.1388266 2.4487969,-7.5460531 2.9702812,-7.95035 3.3306328,-8.4278891 3.5269219,-8.9757406 h 1.3945312 z m 0,0"
       style="fill:#000000;fill-opacity:1;fill-rule:nonzero;stroke:none"
       aria-label="1"
       transform="matrix(1.3333333,0,0,1.3333333,444.524,434.64213)"
       clip-path="url(#clipPath42)" />
    <path
       id="path43"
       d="M 6.3166406,-1.5929281 V 8.21875e-4 H 0.31664062 C 0.37816406,-0.59976406 0.56859375,-1.1710531 0.89085937,-1.7101156 1.2189844,-2.2491781 1.8635156,-2.9640219 2.8244531,-3.8546469 c 0.7734375,-0.7177734 1.2451172,-1.2070312 1.4179688,-1.4648437 0.234375,-0.3515625 0.3515625,-0.6972656 0.3515625,-1.0429688 0,-0.3808593 -0.1025391,-0.6738281 -0.3046875,-0.8789062 -0.2050782,-0.2109375 -0.4863282,-0.3164063 -0.84375,-0.3164063 -0.3603516,0 -0.6445313,0.1113282 -0.8554688,0.328125 -0.2109375,0.2109375 -0.336914,0.5683594 -0.375,1.0664063 L 0.51585937,-6.3273031 c 0.0996094,-0.9433594 0.41601563,-1.6201172 0.94921873,-2.0273438 0.5390625,-0.4130859 1.209961,-0.6210937 2.015625,-0.6210937 0.881836,0 1.5732422,0.2402344 2.0742188,0.7148437 0.5068359,0.4775391 0.7617187,1.0664063 0.7617187,1.7695313 0,0.4072265 -0.076172,0.7939453 -0.2226562,1.1601562 -0.140625,0.3603516 -0.3691407,0.7382813 -0.6796875,1.1367188 -0.2050782,0.2666015 -0.5800782,0.6503906 -1.125,1.1484375 -0.5390625,0.4921875 -0.8847657,0.8203125 -1.03125,0.984375 -0.140625,0.1582031 -0.2548828,0.3134765 -0.3398438,0.46875 z m 0,0"
       style="fill:#000000;fill-opacity:1;fill-rule:nonzero;stroke:none"
       aria-label="2"
       transform="matrix(1.3333333,0,0,1.3333333,551.32,434.64213)"
       clip-path="url(#clipPath44)" />
    <path
       id="path45"
       d="m 0.47,-2.3663656 1.6640625,-0.2109375 c 0.046875,0.421875 0.1875,0.7470703 0.421875,0.9726562 0.234375,0.2285157 0.515625,0.3398438 0.84375,0.3398438 0.3515625,0 0.6474609,-0.131836 0.890625,-0.3984375 0.2402344,-0.272461 0.3632812,-0.6357422 0.3632812,-1.0898438 0,-0.4277343 -0.1171875,-0.7675781 -0.3515625,-1.0195312 -0.2285156,-0.2578125 -0.5097656,-0.3867188 -0.84375,-0.3867188 -0.2197265,0 -0.4804687,0.043945 -0.7851562,0.1289063 l 0.1875,-1.3945313 c 0.4599609,0.00879 0.8115234,-0.09375 1.0546875,-0.3046875 0.2490234,-0.2109375 0.375,-0.4951172 0.375,-0.8554687 0,-0.2958985 -0.09082,-0.5332031 -0.2695313,-0.7148438 -0.1816406,-0.1787109 -0.4189453,-0.2695312 -0.7148437,-0.2695312 -0.2900391,0 -0.5390625,0.102539 -0.75,0.3046875 -0.2050781,0.2050781 -0.328125,0.5009765 -0.375,0.890625 L 0.59890625,-6.6437094 c 0.10839844,-0.5390625 0.27246094,-0.9667968 0.49218745,-1.2890625 0.225586,-0.328125 0.5332032,-0.5800781 0.9257813,-0.7617187 0.3984375,-0.1875 0.84375,-0.28125 1.3359375,-0.28125 0.84375,0 1.5175781,0.2695312 2.0273437,0.8085937 0.421875,0.4394532 0.6328125,0.9345703 0.6328125,1.4882813 0,0.7822265 -0.430664,1.40625 -1.2890625,1.875 0.506836,0.1113281 0.9140625,0.3574219 1.21875,0.7382812 0.3105469,0.3837891 0.46875,0.84375 0.46875,1.3828125 0,0.7822266 -0.290039,1.4501953 -0.8671875,2.00390628 -0.571289,0.55664062 -1.2832031,0.83203125 -2.1328125,0.83203125 -0.8144531,0 -1.4853515,-0.22851563 -2.015625,-0.69140625 C 0.86257812,-1.0069906 0.55496094,-1.6163656 0.47,-2.3663656 Z m 0,0"
       style="fill:#000000;fill-opacity:1;fill-rule:nonzero;stroke:none"
       aria-label="3"
       transform="matrix(1.3333333,0,0,1.3333333,658.87333,434.64213)"
       clip-path="url(#clipPath46)" />
    <path
       id="path47"
       d="M 3.8918906,8.21875e-4 V -1.8038656 H 0.23564063 v -1.5 l 3.87890627,-5.671875 h 1.4414062 v 5.671875 h 1.1015625 v 1.5 H 5.5559531 V 8.21875e-4 Z m 0,-3.304687475 v -3.0585938 l -2.0507812,3.0585938 z m 0,0"
       style="fill:#000000;fill-opacity:1;fill-rule:nonzero;stroke:none"
       aria-label="4"
       transform="matrix(1.3333333,0,0,1.3333333,766.428,434.64213)"
       clip-path="url(#clipPath48)" />
    <path
       id="path49"
       d="M 0.55013281,-2.2960531 2.2610703,-2.4718344 c 0.046875,0.3837891 0.1904297,0.6884766 0.4335938,0.9140625 0.2402343,0.2285157 0.5185547,0.3398438 0.8320312,0.3398438 0.3574219,0 0.6591797,-0.1435547 0.9023438,-0.4335938 0.2490234,-0.2958984 0.375,-0.7324218 0.375,-1.3125 0,-0.5537109 -0.1259766,-0.9667968 -0.375,-1.2421875 -0.2431641,-0.2724609 -0.5595703,-0.4101562 -0.9492188,-0.4101562 -0.4921875,0 -0.9345703,0.2197265 -1.3242187,0.65625 L 0.76107031,-4.1710531 1.6399766,-8.8233969 h 4.5351562 v 1.6054688 h -3.234375 l -0.2695312,1.5234375 c 0.3808593,-0.1933594 0.7734375,-0.2929688 1.171875,-0.2929688 0.7558593,0 1.4003906,0.2783203 1.9335937,0.8320313 0.5302735,0.5566406 0.796875,1.274414 0.796875,2.15625 0,0.7353515 -0.2167969,1.3916015 -0.6445312,1.96875 -0.5800782,0.7910156 -1.3886719,1.18359373 -2.4257813,1.18359373 -0.8203125,0 -1.4941406,-0.21679688 -2.015625,-0.65625 C 0.96321875,-0.94839687 0.64974219,-1.5460531 0.55013281,-2.2960531 Z m 0,0"
       style="fill:#000000;fill-opacity:1;fill-rule:nonzero;stroke:none"
       aria-label="5"
       transform="matrix(1.3333333,0,0,1.3333333,873.98133,434.64213)"
       clip-path="url(#clipPath50)" />
    <path
       id="path51"
       d="m 6.3402109,-6.7491781 -1.6640625,0.1757812 c -0.041016,-0.3339843 -0.1464843,-0.5859375 -0.3164062,-0.75 -0.1728516,-0.1640625 -0.3955078,-0.2460937 -0.6679688,-0.2460937 -0.3603515,0 -0.665039,0.1640625 -0.9140625,0.4921875 -0.2519531,0.3222656 -0.4072265,0.9960937 -0.46875,2.0273437 0.421875,-0.5068359 0.9521485,-0.7617187 1.59375,-0.7617187 0.7089844,0 1.3183594,0.2753906 1.828125,0.8203125 0.515625,0.5478515 0.7734375,1.2509765 0.7734375,2.109375 0,0.9140625 -0.2695312,1.649414 -0.8085937,2.20312498 -0.5390625,0.55664062 -1.2275391,0.83203125 -2.0625,0.83203125 -0.9082031,0 -1.6523438,-0.3515625 -2.2382813,-1.0546875 C 0.81482031,-1.6046469 0.52771094,-2.7530844 0.52771094,-4.3468344 c 0,-1.640625 0.29882812,-2.8183593 0.90234376,-3.5390625 0.609375,-0.7265625 1.3974609,-1.0898437 2.3671875,-1.0898437 0.6796875,0 1.2421875,0.1933594 1.6875,0.5742187 0.4453125,0.375 0.7294922,0.9257813 0.8554687,1.6523438 z m -3.890625,3.7382812 c 0,0.5566407 0.1289063,0.984375 0.3867188,1.2890625 0.2578125,0.3046875 0.5507812,0.4570313 0.8789062,0.4570313 0.319336,0 0.5859375,-0.1230469 0.796875,-0.375 0.2109375,-0.2490235 0.3164063,-0.65625 0.3164063,-1.21875 0,-0.5859375 -0.1171875,-1.0107422 -0.3515625,-1.2773438 -0.2285156,-0.2724609 -0.5097656,-0.4101562 -0.84375,-0.4101562 -0.328125,0 -0.609375,0.1289062 -0.84375,0.3867187 -0.2285156,0.2578125 -0.3398438,0.6416016 -0.3398438,1.1484375 z m 0,0"
       style="fill:#000000;fill-opacity:1;fill-rule:nonzero;stroke:none"
       aria-label="6"
       transform="matrix(1.3333333,0,0,1.3333333,981.53467,434.64213)"
       clip-path="url(#clipPath52)" />
    <path
       id="path53"
       d="M 1.0900994,2.853125e-4 V -10.980183 h 3.3164063 l 1.9921875,7.4882808 1.96875,-7.4882808 H 11.695568 V 2.853125e-4 H 9.6330682 V -8.6481522 L 7.4533807,2.853125e-4 H 5.3205682 L 3.1408807,-8.6481522 V 2.853125e-4 Z M 18.483654,-2.5309647 20.58131,-2.1794022 c -0.27539,0.7675781 -0.700195,1.35351564 -1.277343,1.75781251 -0.580079,0.3984375 -1.306641,0.59765625 -2.179688,0.59765625 -1.382812,0 -2.408203,-0.44824218 -3.070312,-1.34765626 -0.524414,-0.7265625 -0.785157,-1.640625 -0.785157,-2.7421875 0,-1.3183594 0.342774,-2.3496094 1.03125,-3.09375 0.685547,-0.75 1.558594,-1.125 2.613282,-1.125 1.177734,0 2.109375,0.3925781 2.789062,1.171875 0.685547,0.7822266 1.019531,1.9775391 0.996094,3.5859375 H 15.42506 c 0.01465,0.6269531 0.181641,1.1132813 0.503907,1.4648438 0.328125,0.3457031 0.732421,0.515625 1.21875,0.515625 0.328125,0 0.600586,-0.087891 0.820312,-0.2695313 0.225586,-0.1787109 0.398438,-0.46875 0.515625,-0.8671875 z m 0.117188,-2.1328125 c -0.01758,-0.609375 -0.172852,-1.0693359 -0.46875,-1.3828125 -0.298829,-0.3193359 -0.66211,-0.4804687 -1.089844,-0.4804687 -0.462891,0 -0.84082,0.1699218 -1.136719,0.5039062 -0.304687,0.3369141 -0.454101,0.7910156 -0.445312,1.359375 z M 29.695568,2.853125e-4 H 27.750256 V -1.1715897 c -0.328125,0.45410158 -0.714844,0.79394533 -1.160157,1.01953126 -0.439453,0.21679688 -0.884765,0.328125 -1.335937,0.328125 -0.908203,0 -1.6875,-0.36621093 -2.34375,-1.1015625 -0.650391,-0.73242186 -0.972656,-1.76074216 -0.972656,-3.08203126 0,-1.3505859 0.316406,-2.3730469 0.949218,-3.0703125 0.632813,-0.703125 1.432618,-1.0546875 2.402344,-1.0546875 0.890625,0 1.658203,0.3691406 2.308594,1.1015625 v -3.9492183 h 2.097656 z M 24.082287,-4.1481522 c 0,0.8525391 0.117187,1.4648438 0.351562,1.8398438 0.342774,0.5478515 0.820313,0.8203125 1.429688,0.8203125 0.483398,0 0.893555,-0.2021485 1.230469,-0.609375 0.342773,-0.413086 0.515625,-1.03125 0.515625,-1.8515625 0,-0.9140625 -0.169922,-1.5703125 -0.503907,-1.96875 -0.328125,-0.4042969 -0.75,-0.609375 -1.265625,-0.609375 -0.500976,0 -0.919921,0.1992187 -1.253906,0.5976562 -0.336914,0.3984375 -0.503906,0.9931641 -0.503906,1.78125 z m 7.696289,-4.8867187 v -1.9453121 h 2.109375 v 1.9453121 z m 0,9.0351562125 V -7.9567459 h 2.109375 V 2.853125e-4 Z M 37.611584,-5.5309647 35.701428,-5.8708084 c 0.216796,-0.7734375 0.588867,-1.3417969 1.113281,-1.7109375 0.521484,-0.366211 1.300781,-0.5507813 2.332031,-0.5507813 0.9375,0 1.634766,0.1142578 2.097656,0.3398438 0.459961,0.2197265 0.785157,0.5009765 0.972657,0.84375 0.1875,0.336914 0.28125,0.9609375 0.28125,1.875 l -0.02344,2.4609375 c 0,0.6972656 0.0293,1.2128906 0.09375,1.546875 0.07031,0.32812496 0.199219,0.68554684 0.386719,1.0664062125 H 40.869396 C 40.813732,-0.14033969 40.746349,-0.34541781 40.670178,-0.62080844 c -0.04102,-0.12304687 -0.06445,-0.20507812 -0.07031,-0.24609375 -0.360352,0.3515625 -0.74707,0.61523438 -1.160156,0.78515625 -0.407227,0.16992188 -0.84375,0.2578125 -1.3125,0.2578125 -0.820313,0 -1.464844,-0.21679687 -1.933594,-0.65625 -0.46875,-0.4453125 -0.703125,-1.00781246 -0.703125,-1.68749996 0,-0.4511719 0.105469,-0.8554688 0.316406,-1.2070313 0.216797,-0.3515625 0.518555,-0.6210937 0.902344,-0.8085937 0.389648,-0.1875 0.949219,-0.3515625 1.675781,-0.4921875 0.984375,-0.178711 1.666992,-0.3515625 2.050782,-0.515625 v -0.2109375 c 0,-0.4042969 -0.10254,-0.694336 -0.304688,-0.8671875 -0.205078,-0.1699219 -0.583008,-0.2578125 -1.136719,-0.2578125 -0.375,0 -0.667968,0.076172 -0.878906,0.2226562 -0.205078,0.1494141 -0.37207,0.4072266 -0.503906,0.7734375 z m 2.824219,1.7109375 c -0.275391,0.09375 -0.703125,0.2050781 -1.289063,0.328125 -0.585937,0.1171875 -0.969727,0.2402344 -1.148437,0.3632813 -0.275391,0.196289 -0.410157,0.4423828 -0.410157,0.7382812 0,0.2988281 0.108399,0.5566406 0.328125,0.7734375 0.225586,0.2109375 0.506836,0.3164063 0.84375,0.3164063 0.38086,0 0.744141,-0.1230469 1.089844,-0.375 0.249023,-0.1875 0.413086,-0.421875 0.492188,-0.703125 0.06152,-0.178711 0.09375,-0.5185547 0.09375,-1.0195313 z m 0,0"
       style="fill:#000000;fill-opacity:1;fill-rule:nonzero;stroke:none"
       aria-label=" Media"
       transform="matrix(1.3333333,0,0,1.3333333,997.82388,455.84988)"
       clip-path="url(#clipPath54)" />
    <path
       id="path55"
       d="M 35.7881,32.9478 V 294.826"
       style="fill:none;stroke:#000000;stroke-width:0.75;stroke-linecap:butt;stroke-linejoin:miter;stroke-miterlimit:10;stroke-dasharray:none;stroke-opacity:1"
       transform="matrix(1.3333333,0,0,-1.3333333,340,462.66667)" />
    <path
       id="path56"
       d="M 49.4003,32.9478 H 35.7881"
       style="fill:none;stroke:#000000;stroke-width:0.75;stroke-linecap:butt;stroke-linejoin:miter;stroke-miterlimit:10;stroke-dasharray:none;stroke-opacity:1"
       transform="matrix(1.3333333,0,0,-1.3333333,340,462.66667)" />
    <path
       id="path57"
       d="M 42.5942,42.3006 H 35.7881"
       style="fill:none;stroke:#000000;stroke-width:0.75;stroke-linecap:butt;stroke-linejoin:miter;stroke-miterlimit:10;stroke-dasharray:none;stroke-opacity:1"
       transform="matrix(1.3333333,0,0,-1.3333333,340,462.66667)" />
    <path
       id="path58"
       d="M 42.5942,51.6534 H 35.7881"
       style="fill:none;stroke:#000000;stroke-width:0.75;stroke-linecap:butt;stroke-linejoin:miter;stroke-miterlimit:10;stroke-dasharray:none;stroke-opacity:1"
       transform="matrix(1.3333333,0,0,-1.3333333,340,462.66667)" />
    <path
       id="path59"
       d="M 42.5942,61.0061 H 35.7881"
       style="fill:none;stroke:#000000;stroke-width:0.75;stroke-linecap:butt;stroke-linejoin:miter;stroke-miterlimit:10;stroke-dasharray:none;stroke-opacity:1"
       transform="matrix(1.3333333,0,0,-1.3333333,340,462.66667)" />
    <path
       id="path60"
       d="M 42.5942,70.3589 H 35.7881"
       style="fill:none;stroke:#000000;stroke-width:0.75;stroke-linecap:butt;stroke-linejoin:miter;stroke-miterlimit:10;stroke-dasharray:none;stroke-opacity:1"
       transform="matrix(1.3333333,0,0,-1.3333333,340,462.66667)" />
    <path
       id="path61"
       d="M 49.4003,79.7117 H 35.7881"
       style="fill:none;stroke:#000000;stroke-width:0.75;stroke-linecap:butt;stroke-linejoin:miter;stroke-miterlimit:10;stroke-dasharray:none;stroke-opacity:1"
       transform="matrix(1.3333333,0,0,-1.3333333,340,462.66667)" />
    <path
       id="path62"
       d="M 42.5942,89.0645 H 35.7881"
       style="fill:none;stroke:#000000;stroke-width:0.75;stroke-linecap:butt;stroke-linejoin:miter;stroke-miterlimit:10;stroke-dasharray:none;stroke-opacity:1"
       transform="matrix(1.3333333,0,0,-1.3333333,340,462.66667)" />
    <path
       id="path63"
       d="M 42.5942,98.4173 H 35.7881"
       style="fill:none;stroke:#000000;stroke-width:0.75;stroke-linecap:butt;stroke-linejoin:miter;stroke-miterlimit:10;stroke-dasharray:none;stroke-opacity:1"
       transform="matrix(1.3333333,0,0,-1.3333333,340,462.66667)" />
    <path
       id="path64"
       d="M 42.5942,107.77 H 35.7881"
       style="fill:none;stroke:#000000;stroke-width:0.75;stroke-linecap:butt;stroke-linejoin:miter;stroke-miterlimit:10;stroke-dasharray:none;stroke-opacity:1"
       transform="matrix(1.3333333,0,0,-1.3333333,340,462.66667)" />
    <path
       id="path65"
       d="M 42.5942,117.123 H 35.7881"
       style="fill:none;stroke:#000000;stroke-width:0.75;stroke-linecap:butt;stroke-linejoin:miter;stroke-miterlimit:10;stroke-dasharray:none;stroke-opacity:1"
       transform="matrix(1.3333333,0,0,-1.3333333,340,462.66667)" />
    <path
       id="path66"
       d="M 49.4003,126.476 H 35.7881"
       style="fill:none;stroke:#000000;stroke-width:0.75;stroke-linecap:butt;stroke-linejoin:miter;stroke-miterlimit:10;stroke-dasharray:none;stroke-opacity:1"
       transform="matrix(1.3333333,0,0,-1.3333333,340,462.66667)" />
    <path
       id="path67"
       d="M 42.5942,135.828 H 35.7881"
       style="fill:none;stroke:#000000;stroke-width:0.75;stroke-linecap:butt;stroke-linejoin:miter;stroke-miterlimit:10;stroke-dasharray:none;stroke-opacity:1"
       transform="matrix(1.3333333,0,0,-1.3333333,340,462.66667)" />
    <path
       id="path68"
       d="M 42.5942,145.181 H 35.7881"
       style="fill:none;stroke:#000000;stroke-width:0.75;stroke-linecap:butt;stroke-linejoin:miter;stroke-miterlimit:10;stroke-dasharray:none;stroke-opacity:1"
       transform="matrix(1.3333333,0,0,-1.3333333,340,462.66667)" />
    <path
       id="path69"
       d="M 42.5942,154.534 H 35.7881"
       style="fill:none;stroke:#000000;stroke-width:0.75;stroke-linecap:butt;stroke-linejoin:miter;stroke-miterlimit:10;stroke-dasharray:none;stroke-opacity:1"
       transform="matrix(1.3333333,0,0,-1.3333333,340,462.66667)" />
    <path
       id="path70"
       d="M 42.5942,163.887 H 35.7881"
       style="fill:none;stroke:#000000;stroke-width:0.75;stroke-linecap:butt;stroke-linejoin:miter;stroke-miterlimit:10;stroke-dasharray:none;stroke-opacity:1"
       transform="matrix(1.3333333,0,0,-1.3333333,340,462.66667)" />
    <path
       id="path71"
       d="M 49.4003,173.24 H 35.7881"
       style="fill:none;stroke:#000000;stroke-width:0.75;stroke-linecap:butt;stroke-linejoin:miter;stroke-miterlimit:10;stroke-dasharray:none;stroke-opacity:1"
       transform="matrix(1.3333333,0,0,-1.3333333,340,462.66667)" />
    <path
       id="path72"
       d="M 42.5942,182.592 H 35.7881"
       style="fill:none;stroke:#000000;stroke-width:0.75;stroke-linecap:butt;stroke-linejoin:miter;stroke-miterlimit:10;stroke-dasharray:none;stroke-opacity:1"
       transform="matrix(1.3333333,0,0,-1.3333333,340,462.66667)" />
    <path
       id="path73"
       d="M 42.5942,191.945 H 35.7881"
       style="fill:none;stroke:#000000;stroke-width:0.75;stroke-linecap:butt;stroke-linejoin:miter;stroke-miterlimit:10;stroke-dasharray:none;stroke-opacity:1"
       transform="matrix(1.3333333,0,0,-1.3333333,340,462.66667)" />
    <path
       id="path74"
       d="M 42.5942,201.298 H 35.7881"
       style="fill:none;stroke:#000000;stroke-width:0.75;stroke-linecap:butt;stroke-linejoin:miter;stroke-miterlimit:10;stroke-dasharray:none;stroke-opacity:1"
       transform="matrix(1.3333333,0,0,-1.3333333,340,462.66667)" />
    <path
       id="path75"
       d="M 42.5942,210.651 H 35.7881"
       style="fill:none;stroke:#000000;stroke-width:0.75;stroke-linecap:butt;stroke-linejoin:miter;stroke-miterlimit:10;stroke-dasharray:none;stroke-opacity:1"
       transform="matrix(1.3333333,0,0,-1.3333333,340,462.66667)" />
    <path
       id="path76"
       d="M 49.4003,220.004 H 35.7881"
       style="fill:none;stroke:#000000;stroke-width:0.75;stroke-linecap:butt;stroke-linejoin:miter;stroke-miterlimit:10;stroke-dasharray:none;stroke-opacity:1"
       transform="matrix(1.3333333,0,0,-1.3333333,340,462.66667)" />
    <path
       id="path77"
       d="M 42.5942,229.356 H 35.7881"
       style="fill:none;stroke:#000000;stroke-width:0.75;stroke-linecap:butt;stroke-linejoin:miter;stroke-miterlimit:10;stroke-dasharray:none;stroke-opacity:1"
       transform="matrix(1.3333333,0,0,-1.3333333,340,462.66667)" />
    <path
       id="path78"
       d="M 42.5942,238.709 H 35.7881"
       style="fill:none;stroke:#000000;stroke-width:0.75;stroke-linecap:butt;stroke-linejoin:miter;stroke-miterlimit:10;stroke-dasharray:none;stroke-opacity:1"
       transform="matrix(1.3333333,0,0,-1.3333333,340,462.66667)" />
    <path
       id="path79"
       d="M 42.5942,248.062 H 35.7881"
       style="fill:none;stroke:#000000;stroke-width:0.75;stroke-linecap:butt;stroke-linejoin:miter;stroke-miterlimit:10;stroke-dasharray:none;stroke-opacity:1"
       transform="matrix(1.3333333,0,0,-1.3333333,340,462.66667)" />
    <path
       id="path80"
       d="M 42.5942,257.415 H 35.7881"
       style="fill:none;stroke:#000000;stroke-width:0.75;stroke-linecap:butt;stroke-linejoin:miter;stroke-miterlimit:10;stroke-dasharray:none;stroke-opacity:1"
       transform="matrix(1.3333333,0,0,-1.3333333,340,462.66667)" />
    <path
       id="path81"
       d="M 49.4003,266.768 H 35.7881"
       style="fill:none;stroke:#000000;stroke-width:0.75;stroke-linecap:butt;stroke-linejoin:miter;stroke-miterlimit:10;stroke-dasharray:none;stroke-opacity:1"
       transform="matrix(1.3333333,0,0,-1.3333333,340,462.66667)" />
    <path
       id="path82"
       d="M 49.4003,266.768 H 35.7881"
       style="fill:none;stroke:#000000;stroke-width:0.75;stroke-linecap:butt;stroke-linejoin:miter;stroke-miterlimit:10;stroke-dasharray:none;stroke-opacity:1"
       transform="matrix(1.3333333,0,0,-1.3333333,340,462.66667)" />
    <path
       id="path83"
       d="M 42.5942,276.12 H 35.7881"
       style="fill:none;stroke:#000000;stroke-width:0.75;stroke-linecap:butt;stroke-linejoin:miter;stroke-miterlimit:10;stroke-dasharray:none;stroke-opacity:1"
       transform="matrix(1.3333333,0,0,-1.3333333,340,462.66667)" />
    <path
       id="path84"
       d="M 42.5942,285.473 H 35.7881"
       style="fill:none;stroke:#000000;stroke-width:0.75;stroke-linecap:butt;stroke-linejoin:miter;stroke-miterlimit:10;stroke-dasharray:none;stroke-opacity:1"
       transform="matrix(1.3333333,0,0,-1.3333333,340,462.66667)" />
    <path
       id="path85"
       d="M 42.5942,294.826 H 35.7881"
       style="fill:none;stroke:#000000;stroke-width:0.75;stroke-linecap:butt;stroke-linejoin:miter;stroke-miterlimit:10;stroke-dasharray:none;stroke-opacity:1"
       transform="matrix(1.3333333,0,0,-1.3333333,340,462.66667)" />
    <path
       id="path86"
       d="m 3.4324766,-8.9765828 c 0.8583984,0 1.5351562,0.3105469 2.0273437,0.9257812 0.5771484,0.7353516 0.8671875,1.9511719 0.8671875,3.6445313 0,1.6875 -0.2929687,2.9033203 -0.8789062,3.64453124 -0.4863282,0.609375 -1.1572266,0.9140625 -2.015625,0.9140625 -0.8759766,0 -1.5791016,-0.33105469 -2.109375,-0.99609375 C 0.78989844,-1.5146687 0.52622656,-2.7099812 0.52622656,-4.4297078 c 0,-1.6787109 0.29296875,-2.8886719 0.87890624,-3.6328125 0.4833984,-0.609375 1.1601563,-0.9140625 2.0273438,-0.9140625 z m 0,1.4179687 c -0.2109375,0 -0.3984375,0.067383 -0.5625,0.1992188 -0.1640625,0.1347656 -0.2900391,0.3720703 -0.375,0.7148437 -0.1171875,0.4394532 -0.1757813,1.1835938 -0.1757813,2.2382813 0,1.0488281 0.049805,1.7666016 0.1523438,2.15625 0.1083984,0.3925781 0.2402343,0.6533203 0.3984375,0.7851562 0.1640625,0.1347657 0.3515625,0.1992188 0.5625,0.1992188 0.2021484,0 0.3867187,-0.064453 0.5507812,-0.1992188 0.1640625,-0.1318359 0.2871094,-0.3691406 0.375,-0.7148437 0.1171875,-0.4365234 0.1757813,-1.1777344 0.1757813,-2.2265625 0,-1.0546875 -0.055664,-1.7753906 -0.1640625,-2.1679688 C 4.2674375,-6.9638875 4.1356016,-7.2246297 3.9715391,-7.3593953 3.8133359,-7.4912312 3.634625,-7.5586141 3.4324766,-7.5586141 Z m 0,0"
       style="fill:#000000;fill-opacity:1;fill-rule:nonzero;stroke:none"
       aria-label="0"
       transform="matrix(1.3333333,0,0,1.3333333,374.84133,424.7956)"
       clip-path="url(#clipPath87)" />
    <path
       id="path88"
       d="M 4.9216359,-7.515625e-4 H 3.1989797 V -6.4577828 C 2.5720266,-5.8718453 1.8337453,-5.4382516 0.98413594,-5.1570016 V -6.7155953 C 1.4353078,-6.8620797 1.9245656,-7.1404 2.4489797,-7.5476266 2.9704641,-7.9519234 3.3308156,-8.4294625 3.5271047,-8.9773141 h 1.3945312 z m 0,0"
       style="fill:#000000;fill-opacity:1;fill-rule:nonzero;stroke:none"
       aria-label="1"
       transform="matrix(1.3333333,0,0,1.3333333,377.1136,362.6872)"
       clip-path="url(#clipPath89)" />
    <path
       id="path90"
       d="m 6.3152891,-1.5951328 v 1.59374999 H 0.31528906 C 0.3768125,-0.60196875 0.56724219,-1.1732578 0.88950781,-1.7123203 1.2176328,-2.2513828 1.8621641,-2.9662266 2.8231016,-3.8568516 3.5965391,-4.574625 4.0682187,-5.0638828 4.2410703,-5.3216953 c 0.234375,-0.3515625 0.3515625,-0.6972656 0.3515625,-1.0429688 0,-0.3808593 -0.1025391,-0.6738281 -0.3046875,-0.8789062 -0.2050781,-0.2109375 -0.4863281,-0.3164063 -0.84375,-0.3164063 -0.3603516,0 -0.6445312,0.1113282 -0.8554687,0.328125 -0.2109375,0.2109375 -0.3369141,0.5683594 -0.375,1.0664063 L 0.51450781,-6.3295078 c 0.0996094,-0.9433594 0.41601563,-1.6201172 0.94921879,-2.0273438 0.5390625,-0.4130859 1.2099609,-0.6210937 2.015625,-0.6210937 0.8818359,0 1.5732421,0.2402344 2.0742187,0.7148437 0.5068359,0.4775391 0.7617188,1.0664063 0.7617188,1.7695313 0,0.4072266 -0.076172,0.7939453 -0.2226563,1.1601562 -0.140625,0.3603516 -0.3691406,0.7382813 -0.6796875,1.1367188 -0.2050781,0.2666016 -0.5800781,0.6503906 -1.125,1.1484375 -0.5390625,0.4921875 -0.8847656,0.8203125 -1.03125,0.984375 -0.140625,0.1582031 -0.2548828,0.3134766 -0.3398437,0.46875 z m 0,0"
       style="fill:#000000;fill-opacity:1;fill-rule:nonzero;stroke:none"
       aria-label="2"
       transform="matrix(1.3333333,0,0,1.3333333,374.84133,300.57867)"
       clip-path="url(#clipPath91)" />
    <path
       id="path92"
       d="M 0.46763281,-2.3670312 2.1316953,-2.5779687 c 0.046875,0.421875 0.1875,0.7470703 0.421875,0.9726562 0.234375,0.2285156 0.515625,0.3398438 0.84375,0.3398438 0.3515625,0 0.6474609,-0.131836 0.890625,-0.3984375 0.2402344,-0.272461 0.3632813,-0.6357422 0.3632813,-1.0898438 0,-0.4277344 -0.1171875,-0.7675781 -0.3515625,-1.0195312 C 4.0711484,-4.0310937 3.7898984,-4.16 3.4559141,-4.16 c -0.2197266,0 -0.4804688,0.043945 -0.7851563,0.1289063 l 0.1875,-1.3945313 c 0.4599609,0.00879 0.8115234,-0.09375 1.0546875,-0.3046875 0.2490234,-0.2109375 0.375,-0.4951172 0.375,-0.8554687 0,-0.2958985 -0.09082,-0.5332032 -0.2695312,-0.7148438 -0.1816407,-0.1787109 -0.4189454,-0.2695312 -0.7148438,-0.2695312 -0.2900391,0 -0.5390625,0.102539 -0.75,0.3046875 -0.2050781,0.2050781 -0.328125,0.5009765 -0.375,0.890625 L 0.59653906,-6.644375 C 0.7049375,-7.1834375 0.869,-7.6111719 1.0887266,-7.9334375 c 0.2255859,-0.328125 0.5332031,-0.5800781 0.9257812,-0.7617187 0.3984375,-0.1875 0.84375,-0.28125 1.3359375,-0.28125 0.84375,0 1.5175781,0.2695312 2.0273438,0.8085937 0.421875,0.4394531 0.6328125,0.9345703 0.6328125,1.4882813 0,0.7822265 -0.4306641,1.40625 -1.2890625,1.875 0.5068359,0.1113281 0.9140625,0.3574218 1.21875,0.7382812 0.3105468,0.3837891 0.46875,0.84375 0.46875,1.3828125 0,0.7822266 -0.2900391,1.4501953 -0.8671875,2.00390625 C 4.9705625,-0.12289062 4.2586484,0.1525 3.4090391,0.1525 2.5945859,0.1525 1.9236875,-0.07601562 1.3934141,-0.53890625 0.86021094,-1.0076562 0.55259375,-1.6170312 0.46763281,-2.3670312 Z m 0,0"
       style="fill:#000000;fill-opacity:1;fill-rule:nonzero;stroke:none"
       aria-label="3"
       transform="matrix(1.3333333,0,0,1.3333333,374.84133,237.71333)"
       clip-path="url(#clipPath93)" />
    <path
       id="path94"
       d="M 3.8895078,1.25e-4 V -1.8045625 H 0.23325781 v -1.5 l 3.87890629,-5.671875 h 1.4414062 v 5.671875 h 1.1015625 v 1.5 H 5.5535703 V 1.25e-4 Z m 0,-3.3046875 v -3.0585937 l -2.0507812,3.0585937 z m 0,0"
       style="fill:#000000;fill-opacity:1;fill-rule:nonzero;stroke:none"
       aria-label="4"
       transform="matrix(1.3333333,0,0,1.3333333,374.84133,175.604)"
       clip-path="url(#clipPath95)" />
    <path
       id="path96"
       d="M 0.54966406,-2.2981406 2.2606016,-2.4739219 c 0.046875,0.3837891 0.1904296,0.6884766 0.4335937,0.9140625 0.2402344,0.2285156 0.5185547,0.3398438 0.8320313,0.3398438 0.3574218,0 0.6591796,-0.1435547 0.9023437,-0.4335938 0.2490234,-0.2958984 0.375,-0.7324219 0.375,-1.3125 0,-0.5537109 -0.1259766,-0.9667969 -0.375,-1.2421875 C 4.1854062,-4.4807578 3.869,-4.6184531 3.4793516,-4.6184531 c -0.4921875,0 -0.9345704,0.2197265 -1.3242188,0.65625 L 0.76060156,-4.1731406 1.6395078,-8.8254844 h 4.5351563 v 1.6054688 h -3.234375 l -0.2695313,1.5234375 c 0.3808594,-0.1933594 0.7734375,-0.2929688 1.171875,-0.2929688 0.7558594,0 1.4003906,0.2783203 1.9335938,0.8320313 0.5302734,0.5566406 0.796875,1.274414 0.796875,2.15625 0,0.7353515 -0.2167969,1.3916015 -0.6445313,1.96875 C 5.3484922,-0.2415 4.5398984,0.15107812 3.5027891,0.15107812 c -0.8203125,0 -1.4941407,-0.21679687 -2.015625,-0.65625 C 0.96275,-0.95048438 0.64927344,-1.5481406 0.54966406,-2.2981406 Z m 0,0"
       style="fill:#000000;fill-opacity:1;fill-rule:nonzero;stroke:none"
       aria-label="5"
       transform="matrix(1.3333333,0,0,1.3333333,374.84133,112.73867)"
       clip-path="url(#clipPath97)" />
    <path
       id="path98"
       d="m 5.7070994,-2.5326547 2.0976563,0.3515625 c -0.2753907,0.7675781 -0.7001954,1.35351564 -1.2773438,1.75781251 -0.5800781,0.3984375 -1.3066406,0.59765625 -2.1796875,0.59765625 -1.3828125,0 -2.4082031,-0.44824218 -3.0703125,-1.34765626 -0.52441405,-0.7265625 -0.78515624,-1.640625 -0.78515624,-2.7421875 0,-1.3183594 0.34277344,-2.3496094 1.03125004,-3.09375 0.6855468,-0.75 1.5585937,-1.125 2.6132812,-1.125 1.1777344,0 2.109375,0.3925781 2.7890625,1.171875 0.6855469,0.7822266 1.0195313,1.9775391 0.9960938,3.5859375 H 2.6485057 c 0.014648,0.6269531 0.1816406,1.1132813 0.5039062,1.4648438 0.328125,0.3457031 0.7324219,0.515625 1.21875,0.515625 0.328125,0 0.6005859,-0.087891 0.8203125,-0.2695313 0.2255859,-0.1787109 0.3984375,-0.46875 0.515625,-0.8671875 z m 0.1171875,-2.1328125 c -0.017578,-0.609375 -0.1728516,-1.0693359 -0.46875,-1.3828125 -0.2988281,-0.3193359 -0.6621094,-0.4804687 -1.0898437,-0.4804687 -0.4628907,0 -0.8408204,0.1699218 -1.1367188,0.5039062 -0.3046875,0.3369141 -0.4541016,0.7910156 -0.4453125,1.359375 z m 5.8212891,4.66406251 H 9.536201 V -7.9584359 h 1.957031 v 1.1367187 c 0.333985,-0.5390625 0.635742,-0.890625 0.902344,-1.0546875 0.263672,-0.1699219 0.568359,-0.2578125 0.914062,-0.2578125 0.47461,0 0.9375,0.1347656 1.382813,0.3984375 l -0.65625,1.828125 c -0.351563,-0.2255859 -0.679688,-0.3398437 -0.984375,-0.3398437 -0.298828,0 -0.547852,0.082031 -0.75,0.2460937 -0.205078,0.1582031 -0.363281,0.4511719 -0.480469,0.8789063 -0.117187,0.421875 -0.175781,1.3095703 -0.175781,2.6601562 z m 5.964844,0 H 15.501045 V -7.9584359 h 1.957031 v 1.1367187 c 0.333984,-0.5390625 0.635742,-0.890625 0.902344,-1.0546875 0.263672,-0.1699219 0.568359,-0.2578125 0.914062,-0.2578125 0.47461,0 0.9375,0.1347656 1.382813,0.3984375 l -0.65625,1.828125 c -0.351563,-0.2255859 -0.679688,-0.3398437 -0.984375,-0.3398437 -0.298828,0 -0.547852,0.082031 -0.75,0.2460937 -0.205078,0.1582031 -0.363282,0.4511719 -0.480469,0.8789063 -0.117188,0.421875 -0.175781,1.3095703 -0.175781,2.6601562 z m 3.459961,-4.08984371 c 0,-0.694336 0.169922,-1.3710938 0.515625,-2.0273438 0.351562,-0.65625 0.83789,-1.1542969 1.464843,-1.5 0.632813,-0.3427734 1.338868,-0.515625 2.121094,-0.515625 1.201172,0 2.185547,0.3925781 2.953125,1.171875 0.773438,0.7822266 1.160156,1.7695313 1.160156,2.9648438 0,1.2041015 -0.392578,2.2001953 -1.171875,2.9882812 -0.773437,0.79101564 -1.751953,1.18359376 -2.929687,1.18359376 -0.726563,0 -1.423828,-0.1640625 -2.085938,-0.4921875 -0.65625,-0.328125 -1.160156,-0.80859376 -1.511718,-1.44140626 -0.345703,-0.6386719 -0.515625,-1.4179687 -0.515625,-2.3320312 z m 2.15625,0.1171875 c 0,0.7910156 0.1875,1.3945312 0.5625,1.8164062 0.375,0.4160156 0.83789,0.6210938 1.394531,0.6210938 0.544922,0 1.001953,-0.2050782 1.371094,-0.6210938 0.375,-0.421875 0.5625,-1.0341797 0.5625,-1.8398437 0,-0.7734375 -0.1875,-1.3710938 -0.5625,-1.7929688 -0.369141,-0.421875 -0.826172,-0.6328125 -1.371094,-0.6328125 -0.556641,0 -1.019531,0.2109375 -1.394531,0.6328125 -0.375,0.421875 -0.5625,1.0283203 -0.5625,1.8164063 z m 9.723632,3.97265621 H 30.840888 V -7.9584359 h 1.957032 v 1.1367187 c 0.333984,-0.5390625 0.635742,-0.890625 0.902343,-1.0546875 0.263672,-0.1699219 0.56836,-0.2578125 0.914063,-0.2578125 0.474609,0 0.9375,0.1347656 1.382812,0.3984375 l -0.65625,1.828125 c -0.351562,-0.2255859 -0.679687,-0.3398437 -0.984375,-0.3398437 -0.298828,0 -0.547851,0.082031 -0.75,0.2460937 -0.205078,0.1582031 -0.363281,0.4511719 -0.480468,0.8789063 -0.117188,0.421875 -0.175782,1.3095703 -0.175782,2.6601562 z m 8.554688,-2.53125001 2.097656,0.3515625 c -0.27539,0.7675781 -0.700195,1.35351564 -1.277344,1.75781251 -0.580078,0.3984375 -1.30664,0.59765625 -2.179687,0.59765625 -1.382813,0 -2.408203,-0.44824218 -3.070313,-1.34765626 -0.524414,-0.7265625 -0.785156,-1.640625 -0.785156,-2.7421875 0,-1.3183594 0.342774,-2.3496094 1.03125,-3.09375 0.685547,-0.75 1.558594,-1.125 2.613281,-1.125 1.177735,0 2.109375,0.3925781 2.789063,1.171875 0.685547,0.7822266 1.019531,1.9775391 0.996094,3.5859375 h -5.273438 c 0.01465,0.6269531 0.181641,1.1132813 0.503906,1.4648438 0.328125,0.3457031 0.732422,0.515625 1.21875,0.515625 0.328125,0 0.600586,-0.087891 0.820313,-0.2695313 0.225586,-0.1787109 0.398437,-0.46875 0.515625,-0.8671875 z m 0.117187,-2.1328125 c -0.01758,-0.609375 -0.172851,-1.0693359 -0.46875,-1.3828125 -0.298828,-0.3193359 -0.662109,-0.4804687 -1.089843,-0.4804687 -0.462891,0 -0.840821,0.1699218 -1.136719,0.5039062 -0.304688,0.3369141 -0.454102,0.7910156 -0.445313,1.359375 z m 7.634766,-3.609375 c 0,-0.984375 0.213867,-1.7109375 0.644531,-2.1796878 0.427735,-0.474609 1.013672,-0.714843 1.757813,-0.714843 0.764648,0 1.362305,0.240234 1.792969,0.714843 0.427734,0.4687503 0.644531,1.1953128 0.644531,2.1796878 0,0.984375 -0.216797,1.7167969 -0.644531,2.1914063 -0.430664,0.477539 -1.016602,0.7148437 -1.757813,0.7148437 -0.767578,0 -1.365234,-0.234375 -1.792969,-0.703125 -0.430664,-0.4746094 -0.644531,-1.2099609 -0.644531,-2.203125 z m 1.640625,-0.011719 c 0,0.711914 0.08203,1.1923828 0.246094,1.4414062 0.123047,0.1816406 0.295898,0.2695313 0.515625,0.2695313 0.225586,0 0.401367,-0.087891 0.527344,-0.2695313 0.155273,-0.2490234 0.234375,-0.7294922 0.234375,-1.4414062 0,-0.7089844 -0.0791,-1.1865235 -0.234375,-1.4296875 -0.125977,-0.1875 -0.301758,-0.28125 -0.527344,-0.28125 -0.219727,0 -0.392578,0.09082 -0.515625,0.2695312 -0.164063,0.2519531 -0.246094,0.7324219 -0.246094,1.4414063 z m 2.367188,8.70703121 H 51.706123 L 57.553779,-11.169373 h 1.511719 z m 3.398437,-2.88281251 c 0,-0.984375 0.213867,-1.7138672 0.644531,-2.1914062 0.436524,-0.4746094 1.025391,-0.7148438 1.769532,-0.7148438 0.755859,0 1.350586,0.2402344 1.78125,0.7148438 0.436523,0.477539 0.65625,1.2070312 0.65625,2.1914062 0,0.984375 -0.219727,1.71679689 -0.65625,2.19140626 -0.430664,0.47460938 -1.016602,0.71484375 -1.757813,0.71484375 -0.758789,0 -1.356445,-0.24023437 -1.792969,-0.71484375 -0.430664,-0.47460937 -0.644531,-1.20703126 -0.644531,-2.19140626 z m 1.640625,-0.011719 c 0,0.711914 0.08203,1.1894531 0.246094,1.4296875 0.123047,0.18749996 0.295898,0.28124996 0.515625,0.28124996 0.225586,0 0.398437,-0.0878906 0.515625,-0.26953126 0.164062,-0.2490234 0.246094,-0.7294922 0.246094,-1.4414062 0,-0.7089844 -0.0791,-1.1894532 -0.234375,-1.4414063 -0.125977,-0.1787109 -0.301758,-0.2695312 -0.527344,-0.2695312 -0.228516,0 -0.398438,0.09082 -0.515625,0.2695312 -0.164063,0.2519531 -0.246094,0.7324219 -0.246094,1.4414063 z m 0,0"
       style="fill:#000000;fill-opacity:1;fill-rule:nonzero;stroke:none"
       aria-label=" errore %"
       transform="matrix(0,-1.3333333,1.3333333,0,358.93547,152.49879)"
       clip-path="url(#clipPath99)" />
    <path
       id="path100"
       d="m 78.6804,282.571 c 0,3.939 5.9079,3.939 5.9079,0 0,-3.938 -5.9079,-3.938 -5.9079,0 z"
       style="fill:#ff0000;fill-opacity:1;fill-rule:nonzero;stroke:none"
       transform="matrix(1.3333333,0,0,-1.3333333,340,462.66667)" />
    <path
       id="path101"
       d="m 160.635,211.006 c 0,3.938 5.908,3.938 5.908,0 0,-3.939 -5.908,-3.939 -5.908,0 z"
       style="fill:#ff0000;fill-opacity:1;fill-rule:nonzero;stroke:none"
       transform="matrix(1.3333333,0,0,-1.3333333,340,462.66667)" />
    <path
       id="path102"
       d="m 240.121,214.893 c 0,3.939 5.908,3.939 5.908,0 0,-3.939 -5.908,-3.939 -5.908,0 z"
       style="fill:#ff0000;fill-opacity:1;fill-rule:nonzero;stroke:none"
       transform="matrix(1.3333333,0,0,-1.3333333,340,462.66667)" />
    <path
       id="path103"
       d="m 322.388,187.989 c 0,3.939 5.908,3.939 5.908,0 0,-3.938 -5.908,-3.938 -5.908,0 z"
       style="fill:#ff0000;fill-opacity:1;fill-rule:nonzero;stroke:none"
       transform="matrix(1.3333333,0,0,-1.3333333,340,462.66667)" />
    <path
       id="path104"
       d="m 404.895,153.99 c 0,3.938 5.908,3.938 5.908,0 0,-3.939 -5.908,-3.939 -5.908,0 z"
       style="fill:#ff0000;fill-opacity:1;fill-rule:nonzero;stroke:none"
       transform="matrix(1.3333333,0,0,-1.3333333,340,462.66667)" />
    <path
       id="path105"
       d="m 488.022,139.211 c 0,3.939 5.907,3.939 5.907,0 0,-3.939 -5.907,-3.939 -5.907,0 z"
       style="fill:#ff0000;fill-opacity:1;fill-rule:nonzero;stroke:none"
       transform="matrix(1.3333333,0,0,-1.3333333,340,462.66667)" />
    <path
       id="path106"
       d="m 423.209,229.498 h 113.613 v 65.3275 H 423.209 Z"
       style="fill:#ffffff;fill-opacity:1;fill-rule:evenodd;stroke:#ffffff;stroke-width:0.4;stroke-linecap:butt;stroke-linejoin:miter;stroke-miterlimit:10;stroke-dasharray:none;stroke-opacity:1"
       transform="matrix(1.3333333,0,0,-1.3333333,340,462.66667)" />
    <path
       id="path107"
       d="M 423.209,229.498 H 536.822"
       style="fill:none;stroke:#000000;stroke-width:0.75;stroke-linecap:butt;stroke-linejoin:miter;stroke-miterlimit:10;stroke-dasharray:none;stroke-opacity:1"
       transform="matrix(1.3333333,0,0,-1.3333333,340,462.66667)" />
    <path
       id="path108"
       d="m 536.822,229.498 v 65.328"
       style="fill:none;stroke:#000000;stroke-width:0.75;stroke-linecap:butt;stroke-linejoin:miter;stroke-miterlimit:10;stroke-dasharray:none;stroke-opacity:1"
       transform="matrix(1.3333333,0,0,-1.3333333,340,462.66667)" />
    <path
       id="path109"
       d="M 536.822,294.826 H 423.209"
       style="fill:none;stroke:#000000;stroke-width:0.75;stroke-linecap:butt;stroke-linejoin:miter;stroke-miterlimit:10;stroke-dasharray:none;stroke-opacity:1"
       transform="matrix(1.3333333,0,0,-1.3333333,340,462.66667)" />
    <path
       id="path110"
       d="M 423.209,294.826 V 229.498"
       style="fill:none;stroke:#000000;stroke-width:0.75;stroke-linecap:butt;stroke-linejoin:miter;stroke-miterlimit:10;stroke-dasharray:none;stroke-opacity:1"
       transform="matrix(1.3333333,0,0,-1.3333333,340,462.66667)" />
    <path
       id="path111"
       d="M 0.99689844,0.00125781 V -9.2799922 H 2.8953359 v 7.7109375 h 4.6875 V 0.00125781 Z M 12.847484,-2.1549922 l 1.78125,0.3046875 c -0.228515,0.6503906 -0.591796,1.14550783 -1.089843,1.48828126 -0.492188,0.34570313 -1.110352,0.515625 -1.851563,0.515625 -1.180664,0 -2.0507811,-0.38085937 -2.6132811,-1.1484375 C 8.6199453,-1.6100703 8.3943594,-2.3922969 8.3943594,-3.3385859 c 0,-1.116211 0.2929687,-1.9921875 0.8789062,-2.625 0.5917969,-0.6386719 1.3388674,-0.9609375 2.2382814,-0.9609375 1.007812,0 1.798828,0.3339843 2.378906,0.9960937 0.585938,0.6650391 0.861328,1.6845703 0.832031,3.0585938 h -4.488281 c 0.01465,0.5332031 0.158203,0.946289 0.433594,1.2421875 0.28125,0.2988281 0.624023,0.4453125 1.03125,0.4453125 0.28125,0 0.515625,-0.073242 0.703125,-0.2226563 0.193359,-0.1552734 0.342773,-0.4042969 0.445312,-0.75 z m 0.105469,-1.8164062 c -0.01758,-0.515625 -0.152344,-0.9052735 -0.410156,-1.171875 -0.251953,-0.272461 -0.55957,-0.4101563 -0.925781,-0.4101563 -0.392578,0 -0.714844,0.140625 -0.972657,0.421875 -0.257812,0.2900391 -0.383789,0.6767578 -0.375,1.1601563 z m 3.067383,4.41796871 2.050781,0.24609375 c 0.0293,0.24023438 0.108399,0.40429684 0.234375,0.49218754 0.169922,0.1318359 0.436524,0.1992187 0.796875,0.1992187 0.46875,0 0.820313,-0.070312 1.054688,-0.2109375 0.155273,-0.09375 0.27539,-0.24609374 0.363281,-0.45703124 0.05273,-0.14941406 0.08203,-0.421875 0.08203,-0.8203125 V -1.1003047 c -0.539062,0.73535158 -1.21582,1.10156251 -2.027344,1.10156251 -0.914062,0 -1.637695,-0.38671875 -2.167968,-1.16015621 -0.416016,-0.600586 -0.621094,-1.3535157 -0.621094,-2.2617188 0,-1.1396484 0.272461,-2.0068359 0.820312,-2.6015625 0.544922,-0.6005859 1.22461,-0.9023437 2.039063,-0.9023437 0.834961,0 1.526367,0.3691406 2.074219,1.1015625 v -0.9492188 h 1.675781 v 6.08203126 c 0,0.796875 -0.06738,1.38867188 -0.199219,1.78125004 -0.134765,0.3984375 -0.322265,0.7089843 -0.5625,0.9375 -0.234375,0.2255859 -0.550781,0.4013672 -0.949219,0.5273437 -0.398437,0.131836 -0.902343,0.1992188 -1.511718,0.1992188 -1.148438,0 -1.965821,-0.1992188 -2.449219,-0.5976563 -0.477539,-0.3925781 -0.714844,-0.8876953 -0.714844,-1.48828124 0,-0.0644531 0.0029,-0.13769531 0.01172,-0.22265625 z m 1.605469,-3.97265621 c 0,0.7207031 0.134765,1.2480468 0.410156,1.5820312 0.28125,0.328125 0.624023,0.4921875 1.03125,0.4921875 0.436523,0 0.808594,-0.1669922 1.113281,-0.5039062 0.304688,-0.3427735 0.457031,-0.8496094 0.457031,-1.5234375 0,-0.703125 -0.149414,-1.2216797 -0.445312,-1.5585938 -0.290039,-0.3427734 -0.65332,-0.515625 -1.089844,-0.515625 -0.430664,0 -0.785156,0.1699219 -1.066406,0.5039063 -0.275391,0.328125 -0.410156,0.8378906 -0.410156,1.5234375 z m 10.467773,1.3710937 1.78125,0.3046875 c -0.228515,0.6503906 -0.591797,1.14550783 -1.089844,1.48828126 -0.492187,0.34570313 -1.110351,0.515625 -1.851562,0.515625 -1.180664,0 -2.050781,-0.38085937 -2.613281,-1.1484375 -0.454102,-0.61523436 -0.679688,-1.39746096 -0.679688,-2.34374996 0,-1.116211 0.292969,-1.9921875 0.878906,-2.625 0.591797,-0.6386719 1.338868,-0.9609375 2.238282,-0.9609375 1.007812,0 1.798828,0.3339843 2.378906,0.9960937 0.585937,0.6650391 0.861328,1.6845703 0.832031,3.0585938 h -4.488281 c 0.01465,0.5332031 0.158203,0.946289 0.433594,1.2421875 0.28125,0.2988281 0.624023,0.4453125 1.03125,0.4453125 0.28125,0 0.515625,-0.073242 0.703125,-0.2226563 0.193359,-0.1552734 0.342773,-0.4042969 0.445312,-0.75 z m 0.105469,-1.8164062 c -0.01758,-0.515625 -0.152344,-0.9052735 -0.410156,-1.171875 -0.251953,-0.272461 -0.559571,-0.4101563 -0.925782,-0.4101563 -0.392578,0 -0.714843,0.140625 -0.972656,0.421875 -0.257812,0.2900391 -0.383789,0.6767578 -0.375,1.1601563 z m 9.398437,3.97265621 H 35.804516 V -3.4557734 c 0,-0.7324219 -0.04102,-1.2070313 -0.117188,-1.4179688 -0.0791,-0.2167969 -0.205078,-0.3867187 -0.375,-0.5039062 -0.172851,-0.1171875 -0.380859,-0.1757813 -0.621094,-0.1757813 -0.313476,0 -0.594726,0.087891 -0.84375,0.2578125 -0.243164,0.1640625 -0.410156,0.3867188 -0.503906,0.6679688 -0.08789,0.28125 -0.128906,0.8027343 -0.128906,1.5585937 V 0.00125781 H 31.421703 V -6.7721797 h 1.664063 v 0.9960938 c 0.591797,-0.7646485 1.338867,-1.1484375 2.238281,-1.1484375 0.389648,0 0.75,0.070312 1.078125,0.2109375 0.328125,0.140625 0.574219,0.3251953 0.738281,0.5507812 0.169922,0.2197266 0.28711,0.46875 0.351563,0.75 0.07031,0.28125 0.105468,0.6855469 0.105468,1.2070313 z m 8.030274,0 h -1.664063 v -0.99609375 c -0.27539,0.39257813 -0.603515,0.6796875 -0.984375,0.8671875 -0.375,0.1875 -0.755859,0.28125 -1.136718,0.28125 -0.773438,0 -1.438477,-0.31054687 -1.992188,-0.9375 -0.556641,-0.63281246 -0.832031,-1.50585936 -0.832031,-2.62499996 0,-1.1484375 0.269531,-2.0185547 0.808594,-2.6132813 0.539062,-0.6005859 1.221679,-0.9023437 2.050781,-0.9023437 0.755859,0 1.40918,0.3134765 1.957031,0.9375 v -3.3632813 h 1.792969 z m -4.78125,-3.53906251 c 0,0.7265625 0.09961,1.2509766 0.304687,1.5703125 0.28711,0.46875 0.691407,0.703125 1.207032,0.703125 0.413086,0 0.764648,-0.1757812 1.054687,-0.5273437 0.287109,-0.3515625 0.433594,-0.8730469 0.433594,-1.5703125 0,-0.7792969 -0.140625,-1.3388672 -0.421875,-1.6757813 -0.28125,-0.3427734 -0.641602,-0.515625 -1.078125,-0.515625 -0.430664,0 -0.791016,0.1699219 -1.078125,0.5039063 -0.28125,0.336914 -0.421875,0.8408203 -0.421875,1.5117187 z m 7.886719,-1.171875 -1.617188,-0.2929687 c 0.178711,-0.65625 0.492188,-1.1396485 0.9375,-1.453125 0.445313,-0.3105469 1.107422,-0.46875 1.992188,-0.46875 0.796875,0 1.388671,0.09375 1.78125,0.28125 0.398437,0.1875 0.673828,0.430664 0.832031,0.7265625 0.155273,0.290039 0.234375,0.8203125 0.234375,1.59375 l -0.01172,2.0976562 c 0,0.5947266 0.02637,1.0371094 0.08203,1.32421876 0.05273,0.28125 0.164063,0.58300782 0.328125,0.90234375 h -1.78125 c -0.04687,-0.1171875 -0.105468,-0.29296875 -0.175781,-0.52734375 -0.02344,-0.10839843 -0.04395,-0.17871093 -0.05859,-0.2109375 -0.304687,0.29882813 -0.632812,0.52148438 -0.984375,0.66796875 -0.345703,0.14648438 -0.714843,0.22265625 -1.113281,0.22265625 -0.697266,0 -1.248047,-0.1875 -1.652344,-0.5625 -0.398437,-0.38085937 -0.597656,-0.86132816 -0.597656,-1.44140626 0,-0.3808594 0.08789,-0.7207031 0.269531,-1.0195312 0.1875,-0.3046875 0.445313,-0.5332032 0.773438,-0.6914063 0.328125,-0.1552734 0.799805,-0.2958984 1.417969,-0.421875 0.84375,-0.1552734 1.423828,-0.2988281 1.746093,-0.4335937 v -0.1875 c 0,-0.3427735 -0.08789,-0.5859375 -0.257812,-0.7265625 -0.164063,-0.1464844 -0.486328,-0.2226563 -0.960938,-0.2226563 -0.322265,0 -0.571289,0.064453 -0.75,0.1875 -0.172851,0.1259766 -0.316406,0.3457031 -0.433593,0.65625 z m 2.402343,1.453125 c -0.228515,0.079102 -0.591797,0.1728516 -1.089843,0.28125 -0.500977,0.1025391 -0.826172,0.2050781 -0.972657,0.3046875 -0.234375,0.1728516 -0.351562,0.3837891 -0.351562,0.6328125 0,0.2519531 0.09375,0.46875 0.28125,0.65625 0.1875,0.1816406 0.424805,0.2695313 0.714844,0.2695313 0.319336,0 0.626953,-0.1054688 0.925781,-0.3164063 0.210937,-0.1640625 0.351562,-0.3632812 0.421875,-0.5976562 0.04687,-0.1464844 0.07031,-0.4365235 0.07031,-0.8671875 z m 0,0"
       style="fill:#000000;fill-opacity:1;fill-rule:nonzero;stroke:none"
       aria-label="Legenda"
       transform="matrix(1.3333333,0,0,1.3333333,908.06533,95.317333)"
       clip-path="url(#clipPath112)" />
    <path
       id="path113"
       d="M 0.13995313,-0.00132812 V -1.7005469 L 5.0501094,-7.7708594 H 0.69073438 V -9.3528906 H 7.5462031 v 1.4648437 l -5.1328125,6.3164063 h 5.3203125 v 1.57031248 z m 14.12402387,0 H 12.471008 V -6.7747656 h 1.675781 v 0.9609375 c 0.28125,-0.4511719 0.533203,-0.75 0.761719,-0.890625 0.225586,-0.1464844 0.483398,-0.2226563 0.773437,-0.2226563 0.413086,0 0.808594,0.1142578 1.183594,0.3398438 l -0.550781,1.5585937 c -0.304688,-0.1933593 -0.585938,-0.2929687 -0.84375,-0.2929687 -0.251953,0 -0.46582,0.070312 -0.644531,0.2109375 -0.172852,0.1347656 -0.310547,0.383789 -0.410157,0.75 -0.102539,0.3603515 -0.152343,1.1132812 -0.152343,2.2617187 z m 3.37207,-7.69921878 v -1.6523437 h 1.792969 v 1.6523437 z m 0,7.69921878 V -6.7747656 h 1.792969 v 6.77343748 z m 9.539062,-4.76953128 -1.769531,0.3164063 c -0.05566,-0.3515625 -0.1875,-0.6152344 -0.398437,-0.796875 -0.210938,-0.178711 -0.486328,-0.2695313 -0.820313,-0.2695313 -0.445312,0 -0.802734,0.1582032 -1.066406,0.46875 -0.266602,0.3046875 -0.398438,0.8203125 -0.398438,1.546875 0,0.796875 0.131836,1.3652344 0.398438,1.6992188 0.272461,0.328125 0.635742,0.4921875 1.089844,0.4921875 0.342773,0 0.621093,-0.09375 0.832031,-0.28125 0.216797,-0.1933594 0.375,-0.5302735 0.46875,-1.0078125 l 1.757812,0.3046875 c -0.1875,0.805664 -0.539062,1.41503904 -1.054687,1.82812498 -0.515625,0.41601562 -1.212891,0.62109375 -2.085938,0.62109375 -0.993164,0 -1.787109,-0.31054688 -2.378906,-0.9375 -0.585937,-0.62402343 -0.878906,-1.49121093 -0.878906,-2.60156253 0,-1.1162109 0.295898,-1.9833984 0.890625,-2.6015625 0.591797,-0.6240234 1.394531,-0.9375 2.402344,-0.9375 0.820312,0 1.470703,0.1816407 1.957031,0.5390625 0.492187,0.3515625 0.84375,0.890625 1.054687,1.6171875 z m 0.946289,1.2890625 c 0,-0.5917968 0.143555,-1.1660156 0.433594,-1.7226562 0.295899,-0.5625 0.714844,-0.9873047 1.253906,-1.2773438 0.539063,-0.2958984 1.136719,-0.4453125 1.792969,-0.4453125 1.03125,0 1.869141,0.3339844 2.519531,0.9960938 0.65625,0.665039 0.984375,1.5058594 0.984375,2.5195312 0,1.0253907 -0.333984,1.875 -0.996093,2.55468753 -0.65625,0.67382812 -1.485352,1.0078125 -2.484375,1.0078125 -0.626953,0 -1.21875,-0.140625 -1.78125,-0.421875 -0.5625,-0.28125 -0.993164,-0.69140625 -1.289063,-1.23046873 -0.290039,-0.5449219 -0.433594,-1.2070313 -0.433594,-1.9804688 z m 1.828125,0.09375 c 0,0.6738282 0.158204,1.1894532 0.480469,1.546875 0.319336,0.3515625 0.714844,0.5273438 1.183594,0.5273438 0.46875,0 0.858398,-0.1757813 1.171875,-0.5273438 0.319336,-0.3574218 0.480469,-0.8789062 0.480469,-1.5585937 0,-0.6621094 -0.161133,-1.1748047 -0.480469,-1.5351563 -0.313477,-0.3574218 -0.703125,-0.5390625 -1.171875,-0.5390625 -0.46875,0 -0.864258,0.1816407 -1.183594,0.5390625 -0.322265,0.3603516 -0.480469,0.8759766 -0.480469,1.546875 z m 5.932618,1.453125 1.804687,-0.2695312 c 0.07031,0.3457031 0.222656,0.609375 0.457031,0.796875 0.234375,0.1816406 0.5625,0.2695312 0.984375,0.2695312 0.46875,0 0.820313,-0.084961 1.054688,-0.2578125 0.155273,-0.1171875 0.234375,-0.2753906 0.234375,-0.4804687 0,-0.131836 -0.04395,-0.2460938 -0.128906,-0.3398438 -0.09375,-0.084961 -0.292969,-0.1640625 -0.597657,-0.234375 -1.447265,-0.3193359 -2.364257,-0.6123047 -2.753906,-0.8789062 -0.539062,-0.3574219 -0.808594,-0.8671875 -0.808594,-1.5234375 0,-0.5859375 0.228516,-1.078125 0.691407,-1.4765625 0.46875,-0.3984375 1.189453,-0.5976563 2.167968,-0.5976563 0.919922,0 1.608399,0.1523438 2.0625,0.4570313 0.451172,0.2988281 0.764649,0.7441406 0.9375,1.3359375 l -1.699218,0.3046875 c -0.07031,-0.2578125 -0.208008,-0.4570313 -0.410157,-0.5976563 -0.205078,-0.140625 -0.492187,-0.2109375 -0.867187,-0.2109375 -0.46875,0 -0.805664,0.067383 -1.007813,0.1992188 -0.140625,0.09375 -0.210937,0.2167969 -0.210937,0.3632812 0,0.1259766 0.06152,0.2314453 0.1875,0.3164063 0.155273,0.1259765 0.708984,0.2988281 1.664062,0.515625 0.960938,0.2109375 1.628907,0.4746094 2.003907,0.7851562 0.375,0.3222657 0.5625,0.7675782 0.5625,1.3359375 0,0.6269532 -0.263672,1.16015628 -0.785157,1.60546878 -0.515625,0.4453125 -1.283203,0.66796875 -2.296875,0.66796875 -0.922851,0 -1.652343,-0.1875 -2.191406,-0.5625 -0.539062,-0.375 -0.890625,-0.88183593 -1.054687,-1.52343753 z m 11.003906,-4.8398437 v 1.4296875 h -1.21875 v 2.7304687 c 0,0.5566407 0.01172,0.8789063 0.03516,0.9726563 0.02344,0.087891 0.07324,0.1611328 0.152344,0.2226562 0.08496,0.055664 0.1875,0.082031 0.304687,0.082031 0.164063,0 0.404297,-0.052734 0.726563,-0.1640625 l 0.152344,1.38281248 c -0.421875,0.17871093 -0.896485,0.26953125 -1.417969,0.26953125 -0.328125,0 -0.621094,-0.05566407 -0.878906,-0.1640625 -0.257813,-0.10839844 -0.451172,-0.24902344 -0.574219,-0.421875 -0.117188,-0.16992188 -0.199219,-0.40136719 -0.246094,-0.69140623 -0.04102,-0.2109375 -0.05859,-0.6328125 -0.05859,-1.265625 v -2.953125 h -0.820312 v -1.4296875 h 0.820312 v -1.3476563 l 1.804688,-1.0429687 v 2.390625 z m 2.956055,6.77343748 H 48.049133 V -6.7747656 h 1.675781 v 0.9609375 c 0.28125,-0.4511719 0.533203,-0.75 0.761719,-0.890625 0.225586,-0.1464844 0.483398,-0.2226563 0.773437,-0.2226563 0.413086,0 0.808594,0.1142578 1.183594,0.3398438 l -0.550781,1.5585937 c -0.304688,-0.1933593 -0.585938,-0.2929687 -0.84375,-0.2929687 -0.251953,0 -0.46582,0.070312 -0.644531,0.2109375 -0.172852,0.1347656 -0.310547,0.383789 -0.410157,0.75 -0.102539,0.3603515 -0.152343,1.1132812 -0.152343,2.2617187 z m 7.833984,0 V -1.0208594 c -0.251953,0.36914065 -0.580078,0.65625003 -0.984375,0.86718753 -0.398438,0.20214843 -0.820313,0.3046875 -1.265625,0.3046875 -0.454102,0 -0.864258,-0.09960938 -1.230469,-0.29296875 -0.360351,-0.20214844 -0.621094,-0.48339844 -0.785156,-0.84375 C 53.252258,-1.3519141 53.176086,-1.8528906 53.176086,-2.4857031 v -4.2890625 h 1.792969 v 3.1054687 c 0,0.9550782 0.0293,1.5410157 0.09375,1.7578125 0.07031,0.2109375 0.190429,0.3837891 0.363281,0.515625 0.169922,0.1259766 0.392578,0.1875 0.667969,0.1875 0.304687,0 0.577148,-0.082031 0.820312,-0.2460937 0.240235,-0.1699219 0.404297,-0.3808594 0.492188,-0.6328125 0.09375,-0.2490235 0.140625,-0.8583985 0.140625,-1.828125 v -2.859375 h 1.792968 v 6.77343748 z m 3.518555,-7.69921878 v -1.6523437 h 1.792968 v 1.6523437 z m 0,7.69921878 V -6.7747656 h 1.792968 v 6.77343748 z m 6.738281,-6.77343748 v 1.4296875 h -1.21875 v 2.7304687 c 0,0.5566407 0.01172,0.8789063 0.03516,0.9726563 0.02344,0.087891 0.07324,0.1611328 0.152344,0.2226562 0.08496,0.055664 0.1875,0.082031 0.304687,0.082031 0.164063,0 0.404297,-0.052734 0.726563,-0.1640625 l 0.152344,1.38281248 c -0.421875,0.17871093 -0.896485,0.26953125 -1.417969,0.26953125 -0.328125,0 -0.621094,-0.05566407 -0.878906,-0.1640625 -0.257813,-0.10839844 -0.451172,-0.24902344 -0.574219,-0.421875 -0.117188,-0.16992188 -0.199219,-0.40136719 -0.246094,-0.69140623 -0.04102,-0.2109375 -0.05859,-0.6328125 -0.05859,-1.265625 v -2.953125 H 64.08918 v -1.4296875 h 0.820312 v -1.3476563 l 1.804688,-1.0429687 v 2.390625 z m 0.834961,3.2929687 c 0,-0.5917968 0.143555,-1.1660156 0.433594,-1.7226562 0.295898,-0.5625 0.714843,-0.9873047 1.253906,-1.2773438 0.539062,-0.2958984 1.136719,-0.4453125 1.792969,-0.4453125 1.03125,0 1.86914,0.3339844 2.519531,0.9960938 0.65625,0.665039 0.984375,1.5058594 0.984375,2.5195312 0,1.0253907 -0.333985,1.875 -0.996094,2.55468753 -0.65625,0.67382812 -1.485351,1.0078125 -2.484375,1.0078125 -0.626953,0 -1.21875,-0.140625 -1.78125,-0.421875 -0.5625,-0.28125 -0.993164,-0.69140625 -1.289062,-1.23046873 -0.290039,-0.5449219 -0.433594,-1.2070313 -0.433594,-1.9804688 z m 1.828125,0.09375 c 0,0.6738282 0.158203,1.1894532 0.480469,1.546875 0.319336,0.3515625 0.714843,0.5273438 1.183593,0.5273438 0.46875,0 0.858399,-0.1757813 1.171875,-0.5273438 0.319336,-0.3574218 0.480469,-0.8789062 0.480469,-1.5585937 0,-0.6621094 -0.161133,-1.1748047 -0.480469,-1.5351563 -0.313476,-0.3574218 -0.703125,-0.5390625 -1.171875,-0.5390625 -0.46875,0 -0.864257,0.1816407 -1.183593,0.5390625 -0.322266,0.3603516 -0.480469,0.8759766 -0.480469,1.546875 z m 0,0"
       style="fill:#000000;fill-opacity:1;fill-rule:nonzero;stroke:none"
       aria-label="Z ricostruito"
       transform="matrix(1.3333333,0,0,1.3333333,942.14933,141.52)"
       clip-path="url(#clipPath114)" />
    <path
       id="path115"
       d="m 434.456,245.83 c 0,3.939 5.908,3.939 5.908,0 0,-3.938 -5.908,-3.938 -5.908,0 z"
       style="fill:#ff0000;fill-opacity:1;fill-rule:nonzero;stroke:none"
       transform="matrix(1.3333333,0,0,-1.3333333,340,462.66667)" />
    <path
       id="path116"
       d="M 1.5691875,9.375e-4 V -15.456094 H 13.030125 v 2.625 h -8.34375 v 3.4218752 h 7.757812 v 2.6015625 H 4.686375 v 4.2070313 h 8.636719 V 9.375e-4 Z m 17.2119145,0 H 15.816258 V -11.190469 h 2.753906 v 1.5937502 c 0.46875,-0.7558592 0.890625,-1.2539062 1.265625,-1.4882812 0.380859,-0.240234 0.811523,-0.363281 1.289063,-0.363281 0.670898,0 1.318359,0.1875 1.945312,0.5625 l -0.914062,2.5781247 C 21.655125,-8.6269922 21.189305,-8.788125 20.76157,-8.788125 c -0.416015,0 -0.767578,0.1142578 -1.054687,0.3398437 -0.290039,0.2285157 -0.515625,0.6416016 -0.679688,1.2421875 -0.164062,0.5947266 -0.246093,1.8457032 -0.246093,3.75 z m 8.396484,0 H 24.212742 V -11.190469 h 2.753906 v 1.5937502 c 0.46875,-0.7558592 0.890625,-1.2539062 1.265625,-1.4882812 0.38086,-0.240234 0.811524,-0.363281 1.289063,-0.363281 0.670898,0 1.318359,0.1875 1.945312,0.5625 l -0.914062,2.5781247 c -0.500977,-0.3193359 -0.966797,-0.4804687 -1.394531,-0.4804687 -0.416016,0 -0.767578,0.1142578 -1.054688,0.3398437 -0.290039,0.2285157 -0.515625,0.6416016 -0.679687,1.2421875 -0.164063,0.5947266 -0.246094,1.8457032 -0.246094,3.75 z m 4.880859,-5.7539063 c 0,-0.984375 0.240235,-1.9365234 0.726563,-2.859375 0.483398,-0.9199218 1.166015,-1.6230472 2.050781,-2.1093752 0.890625,-0.483398 1.886719,-0.726562 2.988281,-0.726562 1.6875,0 3.073242,0.550781 4.160157,1.6523435 1.083984,1.1015625 1.628906,2.4931641 1.628906,4.171875 0,1.6875 -0.547852,3.0908203 -1.640625,4.2070312 -1.095703,1.11914067 -2.469727,1.6757813 -4.125,1.6757813 -1.03125,0 -2.012696,-0.23144531 -2.941406,-0.69140625 -0.931641,-0.46875 -1.637696,-1.14843755 -2.121094,-2.03906255 -0.486328,-0.8964843 -0.726563,-1.9921875 -0.726563,-3.28125 z m 3.035157,0.1523438 c 0,1.1191406 0.260742,1.9746094 0.785156,2.5664062 0.530273,0.5859375 1.183594,0.8789063 1.957031,0.8789063 0.773438,0 1.420898,-0.2929688 1.945313,-0.8789063 0.521484,-0.5917968 0.785156,-1.453125 0.785156,-2.578125 0,-1.1015625 -0.263672,-1.9453125 -0.785156,-2.53125 -0.524415,-0.5917968 -1.171875,-0.890625 -1.945313,-0.890625 -0.773437,0 -1.426758,0.2988282 -1.957031,0.890625 -0.524414,0.5859375 -0.785156,1.4355469 -0.785156,2.5429688 z M 48.763523,9.375e-4 H 45.79868 V -11.190469 h 2.753906 v 1.5937502 c 0.46875,-0.7558592 0.890625,-1.2539062 1.265625,-1.4882812 0.380859,-0.240234 0.811523,-0.363281 1.289062,-0.363281 0.670899,0 1.31836,0.1875 1.945313,0.5625 l -0.914063,2.5781247 c -0.500976,-0.3193359 -0.966796,-0.4804687 -1.394531,-0.4804687 -0.416015,0 -0.767578,0.1142578 -1.054687,0.3398437 -0.290039,0.2285157 -0.515625,0.6416016 -0.679688,1.2421875 -0.164062,0.5947266 -0.246094,1.8457032 -0.246094,3.75 z M 54.327,-12.713906 v -2.742188 h 2.964844 v 2.742188 z m 0,12.7148435 V -11.190469 h 2.964844 V 9.375e-4 Z M 66.244969,-11.190469 h 2.765625 v 1.6406252 c 0.357422,-0.5625002 0.84375,-1.0195312 1.453125,-1.3710942 0.609375,-0.351562 1.283203,-0.527343 2.027343,-0.527343 1.303711,0 2.408204,0.512695 3.316407,1.535156 0.905273,1.0166016 1.359375,2.4345703 1.359375,4.2539062 0,1.8691407 -0.457032,3.3222657 -1.371094,4.359375 -0.914063,1.04003911 -2.021484,1.5585938 -3.316406,1.5585938 -0.626953,0 -1.189453,-0.12304688 -1.6875,-0.36328125 -0.500977,-0.24902344 -1.028321,-0.67382813 -1.582032,-1.27734375 v 5.6367187 h -2.964843 z m 2.929687,5.402344 c 0,1.2597656 0.249024,2.1884766 0.75,2.7890625 0.498047,0.6035156 1.107422,0.9023437 1.828125,0.9023437 0.685547,0 1.256836,-0.2724609 1.710938,-0.8203125 0.459961,-0.5537109 0.691406,-1.4589843 0.691406,-2.71875 0,-1.171875 -0.240234,-2.0419921 -0.714844,-2.6132812 -0.46875,-0.5683594 -1.051758,-0.8554688 -1.746094,-0.8554688 -0.726562,0 -1.330078,0.28125 -1.804687,0.84375 -0.477539,0.5566407 -0.714844,1.3798829 -0.714844,2.4726563 z m 16.822266,2.2265625 2.953125,0.4921875 c -0.375,1.0869141 -0.972656,1.9160156 -1.792969,2.484375 -0.820312,0.5625 -1.845703,0.84375 -3.070312,0.84375 -1.945313,0 -3.386719,-0.63574219 -4.324219,-1.9101563 C 79.018406,-2.6738672 78.649266,-3.96 78.649266,-5.506875 c 0,-1.8574219 0.483398,-3.3105469 1.453125,-4.359375 0.975586,-1.054688 2.203125,-1.582031 3.679687,-1.582031 1.669922,0 2.988281,0.550781 3.949219,1.6523435 0.960937,1.1015625 1.420898,2.7861328 1.382812,5.0507812 h -7.429687 c 0.02344,0.8847657 0.260742,1.5703125 0.714844,2.0625 0.459961,0.4863282 1.03125,0.7265625 1.710937,0.7265625 0.46875,0 0.858399,-0.1230468 1.171875,-0.375 0.319336,-0.2578125 0.556641,-0.6679687 0.714844,-1.2304687 z m 0.175781,-2.9882813 c -0.02344,-0.8583984 -0.246094,-1.5117187 -0.667969,-1.9570312 -0.421875,-0.4453125 -0.93457,-0.6679688 -1.535156,-0.6679688 -0.650391,0 -1.183594,0.234375 -1.605469,0.703125 -0.421875,0.46875 -0.629882,1.1103516 -0.621093,1.921875 z M 94.35532,9.375e-4 H 91.390477 V -11.190469 h 2.753906 v 1.5937502 c 0.46875,-0.7558592 0.890625,-1.2539062 1.265625,-1.4882812 0.380859,-0.240234 0.811523,-0.363281 1.289062,-0.363281 0.670899,0 1.31836,0.1875 1.945313,0.5625 l -0.914063,2.5781247 c -0.500976,-0.3193359 -0.966797,-0.4804687 -1.394531,-0.4804687 -0.416016,0 -0.767578,0.1142578 -1.054687,0.3398437 -0.29004,0.2285157 -0.515625,0.6416016 -0.679688,1.2421875 -0.164062,0.5947266 -0.246094,1.8457032 -0.246094,3.75 z m 15.32227,-7.8867188 -2.91797,0.5273438 c -0.10254,-0.5771484 -0.32813,-1.0136719 -0.67969,-1.3125 -0.3457,-0.2958984 -0.79395,-0.4453125 -1.34766,-0.4453125 -0.73535,0 -1.32422,0.2548828 -1.76953,0.7617187 -0.43945,0.5097657 -0.65625,1.359375 -0.65625,2.5546875 0,1.3300782 0.22266,2.2705079 0.66797,2.8242188 0.45117,0.5478516 1.05469,0.8203125 1.80469,0.8203125 0.5625,0 1.02246,-0.1582031 1.38281,-0.4804688 0.35742,-0.3193359 0.60938,-0.8701171 0.75,-1.6523437 l 2.91797,0.4921875 c -0.30469,1.3359375 -0.8877,2.3496094 -1.74609,3.03515625 -0.85254,0.6796875 -2.00098,1.01953125 -3.44532,1.01953125 -1.63476,0 -2.93847,-0.515625 -3.91406,-1.546875 -0.978515,-1.0371094 -1.464843,-2.4726563 -1.464843,-4.3007813 0,-1.8427734 0.486328,-3.28125 1.464843,-4.3125 0.97559,-1.0312497 2.29981,-1.5468747 3.97266,-1.5468747 1.35937,0 2.44043,0.292968 3.24609,0.878906 0.80274,0.5859375 1.38281,1.4824219 1.73438,2.6835937 z m 8.72168,4.3242188 2.95312,0.4921875 c -0.375,1.0869141 -0.97266,1.9160156 -1.79297,2.484375 -0.82031,0.5625 -1.8457,0.84375 -3.07031,0.84375 -1.94531,0 -3.38672,-0.63574219 -4.32422,-1.9101563 -0.74414,-1.0224609 -1.11328,-2.3085937 -1.11328,-3.8554687 0,-1.8574219 0.4834,-3.3105469 1.45312,-4.359375 0.97559,-1.054688 2.20313,-1.582031 3.67969,-1.582031 1.66992,0 2.98828,0.550781 3.94922,1.6523435 0.96094,1.1015625 1.4209,2.7861328 1.38281,5.0507812 h -7.42968 c 0.0234,0.8847657 0.26074,1.5703125 0.71484,2.0625 0.45996,0.4863282 1.03125,0.7265625 1.71094,0.7265625 0.46875,0 0.8584,-0.1230468 1.17187,-0.375 0.31934,-0.2578125 0.55664,-0.6679687 0.71485,-1.2304687 z m 0.17578,-2.9882813 c -0.0234,-0.8583984 -0.2461,-1.5117187 -0.66797,-1.9570312 -0.42188,-0.4453125 -0.93457,-0.6679688 -1.53516,-0.6679688 -0.65039,0 -1.18359,0.234375 -1.60547,0.703125 -0.42187,0.46875 -0.62988,1.1103516 -0.62109,1.921875 z m 15.53027,6.5507813 h -2.96484 v -5.7070313 c 0,-1.2099609 -0.0645,-1.9921875 -0.1875,-2.34375 -0.12598,-0.3574218 -0.33399,-0.6357421 -0.6211,-0.8320312 -0.28125,-0.1933594 -0.62109,-0.2929688 -1.01953,-0.2929688 -0.51562,0 -0.97851,0.140625 -1.38281,0.421875 -0.40723,0.28125 -0.68848,0.6533204 -0.84375,1.1132813 -0.14942,0.4628906 -0.22266,1.3183594 -0.22266,2.5664062 V 9.375e-4 h -2.96484 V -11.190469 h 2.75391 v 1.6406252 c 0.97558,-1.2656252 2.20605,-1.8984372 3.6914,-1.8984372 0.65625,0 1.25391,0.117187 1.79297,0.351562 0.53906,0.234375 0.94336,0.536133 1.21875,0.902344 0.28125,0.3691406 0.47461,0.7851562 0.58594,1.2539062 0.1084,0.4628907 0.16406,1.1220704 0.16406,1.9804688 z m 8.13867,-11.1914065 V -8.835 h -2.01562 v 4.5117187 c 0,0.9140625 0.0146,1.4501954 0.0469,1.6054688 0.0381,0.1494141 0.12891,0.2753906 0.26953,0.375 0.14063,0.09375 0.30762,0.140625 0.50391,0.140625 0.27246,0 0.66797,-0.09375 1.18359,-0.28125 l 0.25782,2.296875 c -0.68848,0.29589844 -1.47071,0.4453125 -2.34375,0.4453125 -0.53321,0 -1.01368,-0.0908203 -1.44141,-0.26953125 -0.43066,-0.17871094 -0.74707,-0.41015625 -0.94922,-0.69140625 -0.19629,-0.28710938 -0.33398,-0.6738281 -0.41016,-1.1601563 -0.0644,-0.3427734 -0.0937,-1.0371093 -0.0937,-2.0859375 V -8.835 h -1.35937 v -2.355469 h 1.35937 v -2.226562 l 2.97657,-1.722657 v 3.949219 z M 151.6688,9.375e-4 v -1.6757813 c -0.40723,0.5947266 -0.94336,1.0664063 -1.60547,1.4179688 -0.66504,0.34277344 -1.36817,0.515625 -2.10938,0.515625 -0.75,0 -1.42675,-0.1640625 -2.02734,-0.4921875 -0.59473,-0.33398438 -1.02539,-0.7998047 -1.28906,-1.3945313 -0.2666,-0.6005859 -0.39844,-1.4296875 -0.39844,-2.484375 v -7.0781252 h 2.96484 v 5.1445315 c 0,1.5703125 0.0498,2.5371094 0.15235,2.8945312 0.1084,0.3515625 0.30761,0.6328125 0.59765,0.84375 0.28711,0.2050782 0.65625,0.3046875 1.10157,0.3046875 0.50683,0 0.96093,-0.1347656 1.35937,-0.4101562 0.39844,-0.28125 0.6709,-0.6240234 0.82031,-1.03125 0.14649,-0.4130859 0.22266,-1.4208984 0.22266,-3.0234375 v -4.7226565 h 2.96484 V 9.375e-4 Z m 8.0332,-7.78125 -2.68359,-0.4804688 c 0.29589,-1.0839843 0.81152,-1.8867187 1.54687,-2.4023437 0.74121,-0.521484 1.83984,-0.785156 3.29297,-0.785156 1.32715,0 2.31152,0.158203 2.95312,0.46875 0.64747,0.313476 1.1045,0.711914 1.3711,1.1953122 0.26367,0.4863282 0.39844,1.3681641 0.39844,2.6484375 l -0.0352,3.4570313 c 0,0.984375 0.0469,1.7109375 0.14062,2.1796875 0.0937,0.46875 0.26954,0.96972656 0.52735,1.5 h -2.92969 c -0.0791,-0.19335938 -0.17285,-0.48632813 -0.28125,-0.87890625 -0.0469,-0.16992185 -0.082,-0.28417965 -0.10547,-0.33984375 -0.50976,0.4921875 -1.05176,0.86425781 -1.6289,1.11328125 -0.57129,0.24023437 -1.1836,0.36328125 -1.83985,0.36328125 -1.14844,0 -2.05664,-0.31054688 -2.71875,-0.9375 -0.66504,-0.6328125 -0.99609,-1.4238281 -0.99609,-2.3789063 0,-0.6328125 0.14648,-1.1953125 0.44531,-1.6875 0.30469,-0.4980468 0.72656,-0.8789062 1.26563,-1.1367187 0.54492,-0.2636719 1.33593,-0.4951172 2.36718,-0.6914063 1.38282,-0.2636718 2.33789,-0.5068359 2.8711,-0.7265625 v -0.2929687 c 0,-0.5683594 -0.14063,-0.9755859 -0.42188,-1.21875 -0.28125,-0.2402344 -0.81445,-0.3632813 -1.59375,-0.3632813 -0.52441,0 -0.93457,0.1054688 -1.23047,0.3164063 -0.29882,0.2050781 -0.53613,0.5625 -0.71484,1.078125 z m 3.96094,2.4023437 c -0.375,0.1259766 -0.97852,0.2783204 -1.80469,0.4570313 -0.82031,0.1728516 -1.35645,0.3457031 -1.60547,0.515625 -0.39258,0.2753906 -0.58594,0.6210937 -0.58594,1.0429687 0,0.4160157 0.15528,0.7734375 0.46875,1.078125 0.31055,0.3046875 0.70606,0.4570313 1.1836,0.4570313 0.53027,0 1.03711,-0.1757813 1.52343,-0.5273438 0.35743,-0.2724609 0.5918,-0.6005859 0.70313,-0.984375 0.0762,-0.2490234 0.11719,-0.7294921 0.11719,-1.4414062 z m 5.82715,5.3789063 V -15.456094 h 2.96484 V 9.375e-4 Z m 6,-12.7148435 v -2.742188 h 2.96484 v 2.742188 z m 0,12.7148435 V -11.190469 h 2.96484 V 9.375e-4 Z m 14.83886,0 h -2.96484 V -11.190469 h 2.75391 v 1.5937502 c 0.46875,-0.7558592 0.89062,-1.2539062 1.26562,-1.4882812 0.38086,-0.240234 0.81152,-0.363281 1.28906,-0.363281 0.6709,0 1.31836,0.1875 1.94532,0.5625 l -0.91407,2.5781247 c -0.50097,-0.3193359 -0.96679,-0.4804687 -1.39453,-0.4804687 -0.41601,0 -0.76758,0.1142578 -1.05469,0.3398437 -0.29003,0.2285157 -0.51562,0.6416016 -0.67968,1.2421875 -0.16407,0.5947266 -0.2461,1.8457032 -0.2461,3.75 z m 5.56055,-12.7148435 v -2.742188 h 2.96484 v 2.742188 z m 0,12.7148435 V -11.190469 h 2.96484 V 9.375e-4 Z m 15.76465,-7.8867188 -2.91797,0.5273438 c -0.10254,-0.5771484 -0.32813,-1.0136719 -0.67969,-1.3125 -0.3457,-0.2958984 -0.79394,-0.4453125 -1.34765,-0.4453125 -0.73536,0 -1.32422,0.2548828 -1.76954,0.7617187 -0.43945,0.5097657 -0.65625,1.359375 -0.65625,2.5546875 0,1.3300782 0.22266,2.2705079 0.66797,2.8242188 0.45118,0.5478516 1.05469,0.8203125 1.80469,0.8203125 0.5625,0 1.02246,-0.1582031 1.38281,-0.4804688 0.35743,-0.3193359 0.60938,-0.8701171 0.75,-1.6523437 l 2.91797,0.4921875 C 211.5018,-2.46 210.9188,-1.4463281 210.0604,-0.76078125 209.20786,-0.08109375 208.05942,0.25875 206.61509,0.25875 c -1.63477,0 -2.93848,-0.515625 -3.91407,-1.546875 -0.97851,-1.0371094 -1.46484,-2.4726563 -1.46484,-4.3007813 0,-1.8427734 0.48633,-3.28125 1.46484,-4.3125 0.97559,-1.0312497 2.29981,-1.5468747 3.97266,-1.5468747 1.35937,0 2.44043,0.292968 3.24609,0.878906 0.80274,0.5859375 1.38282,1.4824219 1.73438,2.6835937 z m 1.55859,2.1328125 c 0,-0.984375 0.24024,-1.9365234 0.72656,-2.859375 0.4834,-0.9199218 1.16602,-1.6230472 2.05079,-2.1093752 0.89062,-0.483398 1.88671,-0.726562 2.98828,-0.726562 1.6875,0 3.07324,0.550781 4.16015,1.6523435 1.08399,1.1015625 1.62891,2.4931641 1.62891,4.171875 0,1.6875 -0.54785,3.0908203 -1.64063,4.2070312 -1.0957,1.11914067 -2.46972,1.6757813 -4.125,1.6757813 -1.03125,0 -2.01269,-0.23144531 -2.9414,-0.69140625 -0.93164,-0.46875 -1.6377,-1.14843755 -2.1211,-2.03906255 -0.48632,-0.8964843 -0.72656,-1.9921875 -0.72656,-3.28125 z m 3.03516,0.1523438 c 0,1.1191406 0.26074,1.9746094 0.78515,2.5664062 0.53028,0.5859375 1.1836,0.8789063 1.95704,0.8789063 0.77343,0 1.42089,-0.2929688 1.94531,-0.8789063 0.52148,-0.5917968 0.78515,-1.453125 0.78515,-2.578125 0,-1.1015625 -0.26367,-1.9453125 -0.78515,-2.53125 -0.52442,-0.5917968 -1.17188,-0.890625 -1.94531,-0.890625 -0.77344,0 -1.42676,0.2988282 -1.95704,0.890625 -0.52441,0.5859375 -0.78515,1.4355469 -0.78515,2.5429688 z m 9.79101,2.4023437 2.97657,-0.4453125 c 0.12304,0.5800782 0.37793,1.0166016 0.76172,1.3125 0.38964,0.2988282 0.93164,0.4453125 1.6289,0.4453125 0.76465,0 1.33887,-0.140625 1.72266,-0.421875 0.26367,-0.1933593 0.39844,-0.4570312 0.39844,-0.7851562 0,-0.2255859 -0.0703,-0.4130859 -0.21094,-0.5625 -0.14942,-0.140625 -0.48047,-0.2695313 -0.9961,-0.3867188 -2.39062,-0.5302734 -3.90234,-1.0136718 -4.53515,-1.453125 -0.89063,-0.6005859 -1.33594,-1.4414062 -1.33594,-2.5195312 0,-0.9667969 0.38086,-1.78125 1.14844,-2.4375005 0.76465,-0.662109 1.95117,-0.996093 3.5625,-0.996093 1.52929,0 2.66601,0.251953 3.41015,0.75 0.75,0.500976 1.26563,1.2392576 1.54688,2.2148435 l -2.78906,0.515625 c -0.12598,-0.4365234 -0.35743,-0.7675781 -0.69141,-0.9960938 -0.32812,-0.234375 -0.80273,-0.3515625 -1.41797,-0.3515625 -0.78223,0 -1.3418,0.1113282 -1.67578,0.328125 -0.22852,0.1582032 -0.33984,0.3574219 -0.33984,0.5976563 0,0.2109375 0.0967,0.3925781 0.29297,0.5390625 0.26367,0.1962891 1.18652,0.4746094 2.76562,0.8320312 1.57617,0.3603516 2.67773,0.796875 3.30469,1.3125 0.61523,0.5332032 0.92578,1.265625 0.92578,2.203125 0,1.03125 -0.43067,1.9189454 -1.28906,2.6601563 -0.85254,0.73535156 -2.11817,1.1015625 -3.79688,1.1015625 -1.52344,0 -2.73047,-0.30761719 -3.62109,-0.92578125 -0.89063,-0.62402345 -1.47364,-1.46777345 -1.7461,-2.53125005 z m 18.17871,-7.9921877 V -8.835 H 242.202 v 4.5117187 c 0,0.9140625 0.0146,1.4501954 0.0469,1.6054688 0.0381,0.1494141 0.12891,0.2753906 0.26954,0.375 0.14062,0.09375 0.30761,0.140625 0.5039,0.140625 0.27246,0 0.66797,-0.09375 1.1836,-0.28125 l 0.25781,2.296875 C 243.77527,0.10933594 242.99305,0.25875 242.12,0.25875 c -0.5332,0 -1.01367,-0.0908203 -1.44141,-0.26953125 -0.43066,-0.17871094 -0.74707,-0.41015625 -0.94922,-0.69140625 -0.19629,-0.28710938 -0.33398,-0.6738281 -0.41015,-1.1601563 -0.0645,-0.3427734 -0.0937,-1.0371093 -0.0937,-2.0859375 V -8.835 h -1.35938 v -2.355469 h 1.35938 v -2.226562 l 2.97656,-1.722657 v 3.949219 z M 249.1102,9.375e-4 h -2.96484 V -11.190469 h 2.75391 v 1.5937502 c 0.46875,-0.7558592 0.89062,-1.2539062 1.26562,-1.4882812 0.38086,-0.240234 0.81152,-0.363281 1.28906,-0.363281 0.6709,0 1.31836,0.1875 1.94532,0.5625 l -0.91407,2.5781247 c -0.50097,-0.3193359 -0.96679,-0.4804687 -1.39453,-0.4804687 -0.41601,0 -0.76758,0.1142578 -1.05469,0.3398437 -0.29003,0.2285157 -0.51562,0.6416016 -0.67968,1.2421875 -0.16407,0.5947266 -0.2461,1.8457032 -0.2461,3.75 z m 12.93164,0 v -1.6757813 c -0.40722,0.5947266 -0.94336,1.0664063 -1.60547,1.4179688 -0.66503,0.34277344 -1.36816,0.515625 -2.10937,0.515625 -0.75,0 -1.42676,-0.1640625 -2.02734,-0.4921875 -0.59473,-0.33398438 -1.02539,-0.7998047 -1.28907,-1.3945313 -0.2666,-0.6005859 -0.39843,-1.4296875 -0.39843,-2.484375 v -7.0781252 h 2.96484 v 5.1445315 c 0,1.5703125 0.0498,2.5371094 0.15234,2.8945312 0.1084,0.3515625 0.30762,0.6328125 0.59766,0.84375 0.28711,0.2050782 0.65625,0.3046875 1.10156,0.3046875 0.50684,0 0.96094,-0.1347656 1.35938,-0.4101562 0.39843,-0.28125 0.6709,-0.6240234 0.82031,-1.03125 0.14648,-0.4130859 0.22266,-1.4208984 0.22266,-3.0234375 v -4.7226565 h 2.96484 V 9.375e-4 Z m 4.63477,0 v -2.3085938 l 4.19531,-4.8164062 c 0.68555,-0.7880859 1.19531,-1.3476563 1.52344,-1.6757813 -0.3457,0.023437 -0.79688,0.041016 -1.35938,0.046875 l -3.94921,0.011719 v -2.4492192 h 9.24609 v 2.0976567 l -4.27734,4.9335937 -1.5,1.6289063 c 0.82031,-0.046875 1.32714,-0.070312 1.52343,-0.070312 h 4.58203 V 9.375e-4 Z m 11.97656,-12.7148435 v -2.742188 h 2.96485 v 2.742188 z m 0,12.7148435 V -11.190469 h 2.96485 V 9.375e-4 Z m 5.32031,-5.7539063 c 0,-0.984375 0.24024,-1.9365234 0.72657,-2.859375 0.4834,-0.9199218 1.16601,-1.6230472 2.05078,-2.1093752 0.89062,-0.483398 1.88672,-0.726562 2.98828,-0.726562 1.6875,0 3.07324,0.550781 4.16016,1.6523435 1.08398,1.1015625 1.6289,2.4931641 1.6289,4.171875 0,1.6875 -0.54785,3.0908203 -1.64062,4.2070312 -1.09571,1.11914067 -2.46973,1.6757813 -4.125,1.6757813 -1.03125,0 -2.0127,-0.23144531 -2.94141,-0.69140625 -0.93164,-0.46875 -1.63769,-1.14843755 -2.12109,-2.03906255 -0.48633,-0.8964843 -0.72657,-1.9921875 -0.72657,-3.28125 z m 3.03516,0.1523438 c 0,1.1191406 0.26074,1.9746094 0.78516,2.5664062 0.53027,0.5859375 1.18359,0.8789063 1.95703,0.8789063 0.77344,0 1.4209,-0.2929688 1.94531,-0.8789063 0.52148,-0.5917968 0.78516,-1.453125 0.78516,-2.578125 0,-1.1015625 -0.26368,-1.9453125 -0.78516,-2.53125 -0.52441,-0.5917968 -1.17187,-0.890625 -1.94531,-0.890625 -0.77344,0 -1.42676,0.2988282 -1.95703,0.890625 -0.52442,0.5859375 -0.78516,1.4355469 -0.78516,2.5429688 z m 21.01758,5.6015625 h -2.96485 v -5.7070313 c 0,-1.2099609 -0.0645,-1.9921875 -0.1875,-2.34375 -0.12597,-0.3574218 -0.33398,-0.6357421 -0.62109,-0.8320312 -0.28125,-0.1933594 -0.62109,-0.2929688 -1.01953,-0.2929688 -0.51563,0 -0.97852,0.140625 -1.38281,0.421875 -0.40723,0.28125 -0.68848,0.6533204 -0.84375,1.1132813 -0.14942,0.4628906 -0.22266,1.3183594 -0.22266,2.5664062 V 9.375e-4 h -2.96484 V -11.190469 h 2.7539 v 1.6406252 c 0.97559,-1.2656252 2.20606,-1.8984372 3.69141,-1.8984372 0.65625,0 1.25391,0.117187 1.79297,0.351562 0.53906,0.234375 0.94336,0.536133 1.21875,0.902344 0.28125,0.3691406 0.47461,0.7851562 0.58594,1.2539062 0.10839,0.4628907 0.16406,1.1220704 0.16406,1.9804688 z m 9.48633,-3.5625 2.95312,0.4921875 c -0.375,1.0869141 -0.97265,1.9160156 -1.79297,2.484375 -0.82031,0.5625 -1.8457,0.84375 -3.07031,0.84375 -1.94531,0 -3.38672,-0.63574219 -4.32422,-1.9101563 -0.74414,-1.0224609 -1.11328,-2.3085937 -1.11328,-3.8554687 0,-1.8574219 0.4834,-3.3105469 1.45313,-4.359375 0.97558,-1.054688 2.20312,-1.582031 3.67968,-1.582031 1.66992,0 2.98828,0.550781 3.94922,1.6523435 0.96094,1.1015625 1.4209,2.7861328 1.38281,5.0507812 h -7.42968 c 0.0234,0.8847657 0.26074,1.5703125 0.71484,2.0625 0.45996,0.4863282 1.03125,0.7265625 1.71094,0.7265625 0.46875,0 0.8584,-0.1230468 1.17187,-0.375 0.31934,-0.2578125 0.55664,-0.6679687 0.71485,-1.2304687 z m 0.17578,-2.9882813 c -0.0234,-0.8583984 -0.2461,-1.5117187 -0.66797,-1.9570312 -0.42188,-0.4453125 -0.93457,-0.6679688 -1.53516,-0.6679688 -0.65039,0 -1.18359,0.234375 -1.60547,0.703125 -0.42187,0.46875 -0.62988,1.1103516 -0.62109,1.921875 z m 21.6123,6.5507813 h -2.7539 v -1.640625 c -0.45411,0.64160156 -0.99317,1.11914062 -1.61719,1.4296875 -0.61817,0.31054687 -1.24219,0.46875 -1.875,0.46875 -1.28906,0 -2.39063,-0.51855469 -3.30469,-1.5585938 -0.91406,-1.0371093 -1.37109,-2.484375 -1.37109,-4.3359375 0,-1.8984375 0.44531,-3.3398437 1.33594,-4.3242187 0.89062,-0.990234 2.01562,-1.488281 3.375,-1.488281 1.25683,0 2.34375,0.521484 3.25781,1.5585935 v -5.5664065 h 2.95312 z M 331.4022,-5.835 c 0,1.1953125 0.16406,2.0595703 0.49218,2.5898437 0.47461,0.7734375 1.14258,1.1601563 2.00391,1.1601563 0.67969,0 1.25683,-0.2871094 1.73437,-0.8671875 0.47461,-0.5771484 0.71485,-1.4443359 0.71485,-2.6015625 0,-1.2890625 -0.23145,-2.2148438 -0.69141,-2.7773438 -0.46289,-0.5625 -1.05469,-0.84375 -1.78125,-0.84375 -0.70312,0 -1.29492,0.28125 -1.76953,0.84375 -0.46875,0.5566407 -0.70312,1.3886719 -0.70312,2.4960938 z m 10.82226,-6.878906 v -2.742188 h 2.96484 v 2.742188 z m 0,12.7148435 V -11.190469 h 2.96484 V 9.375e-4 Z m 10.69043,0 v -2.8125 l 8.10938,-10.0195315 h -7.19532 v -2.625 h 11.3086 v 2.425781 l -8.46094,10.429688 h 8.78906 V 9.375e-4 Z m 0,0"
       style="fill:#000000;fill-opacity:1;fill-rule:nonzero;stroke:none"
       aria-label="Errori percentuali ricostruzione di Z"
       transform="matrix(1.3333333,0,0,1.3333333,474.064,57.446667)"
       clip-path="url(#clipPath117)" />
  </g>
</svg>
