<?xml version="1.0" encoding="UTF-8" standalone="no"?>
<!-- Created with Inkscape (http://www.inkscape.org/) -->

<svg
   version="1.0"
   width="600"
   height="500"
   id="svg2"
   sodipodi:version="0.32"
   inkscape:version="1.3.2 (091e20e, 2023-11-25, custom)"
   sodipodi:docname="fotoelettrico.svg"
   inkscape:output_extension="org.inkscape.output.svg.inkscape"
   inkscape:export-filename="fotoelettrico.pdf"
   inkscape:export-xdpi="96"
   inkscape:export-ydpi="96"
   xmlns:inkscape="http://www.inkscape.org/namespaces/inkscape"
   xmlns:sodipodi="http://sodipodi.sourceforge.net/DTD/sodipodi-0.dtd"
   xmlns:xlink="http://www.w3.org/1999/xlink"
   xmlns="http://www.w3.org/2000/svg"
   xmlns:svg="http://www.w3.org/2000/svg"
   xmlns:rdf="http://www.w3.org/1999/02/22-rdf-syntax-ns#"
   xmlns:cc="http://creativecommons.org/ns#"
   xmlns:dc="http://purl.org/dc/elements/1.1/">
  <metadata
     id="metadata117">
    <rdf:RDF>
      <cc:Work
         rdf:about="">
        <dc:format>image/svg+xml</dc:format>
        <dc:type
           rdf:resource="http://purl.org/dc/dcmitype/StillImage" />
      </cc:Work>
    </rdf:RDF>
  </metadata>
  <sodipodi:namedview
     inkscape:window-height="713"
     inkscape:window-width="1366"
     inkscape:pageshadow="2"
     inkscape:pageopacity="0.0"
     guidetolerance="10.0"
     gridtolerance="10.0"
     objecttolerance="10.0"
     borderopacity="1.0"
     bordercolor="#666666"
     pagecolor="#ffffff"
     id="base"
     showgrid="false"
     inkscape:zoom="0.90666667"
     inkscape:cx="330.88235"
     inkscape:cy="256.43382"
     inkscape:window-x="-8"
     inkscape:window-y="248"
     inkscape:current-layer="svg2"
     inkscape:showpageshadow="2"
     inkscape:pagecheckerboard="0"
     inkscape:deskcolor="#d1d1d1"
     inkscape:window-maximized="1" />
  <defs
     id="defs4">
    <rect
       x="658.45588"
       y="311.02941"
       width="5.5147059"
       height="277.94118"
       id="rect1" />
    <inkscape:perspective
       sodipodi:type="inkscape:persp3d"
       inkscape:vp_x="0 : 250 : 1"
       inkscape:vp_y="0 : 1000 : 0"
       inkscape:vp_z="600 : 250 : 1"
       inkscape:persp3d-origin="300 : 166.66667 : 1"
       id="perspective119" />
    <marker
       refX="0"
       refY="0"
       orient="auto"
       id="Arrow2Mend"
       style="overflow:visible">
      <path
         d="M 8.7185878,4.0337352 L -2.2072895,0.016013256 L 8.7185884,-4.0017078 C 6.97309,-1.6296469 6.9831476,1.6157441 8.7185878,4.0337352 z"
         transform="scale(-0.6,-0.6)"
         id="path4692"
         style="font-size:12px;fill-rule:evenodd;stroke-width:0.625;stroke-linejoin:round" />
    </marker>
    <linearGradient
       id="linearGradient3433">
      <stop
         id="stop3435"
         style="stop-color:#8f8fff;stop-opacity:1"
         offset="0" />
      <stop
         id="stop3437"
         style="stop-color:#0505ff;stop-opacity:1"
         offset="1" />
    </linearGradient>
    <linearGradient
       id="linearGradient3373">
      <stop
         id="stop3375"
         style="stop-color:#c7c7c7;stop-opacity:1"
         offset="0" />
      <stop
         id="stop3377"
         style="stop-color:#828282;stop-opacity:1"
         offset="1" />
    </linearGradient>
    <linearGradient
       id="linearGradient3326">
      <stop
         id="stop3328"
         style="stop-color:#ff8f8f;stop-opacity:1"
         offset="0" />
      <stop
         id="stop3330"
         style="stop-color:#ff0505;stop-opacity:1"
         offset="1" />
    </linearGradient>
    <radialGradient
       cx="319.80621"
       cy="194.60178"
       r="205.23125"
       fx="319.80621"
       fy="194.60178"
       id="radialGradient3408"
       xlink:href="#linearGradient3326"
       gradientUnits="userSpaceOnUse" />
    <radialGradient
       cx="319.80621"
       cy="194.60178"
       r="205.23125"
       fx="319.80621"
       fy="194.60178"
       id="radialGradient3410"
       xlink:href="#linearGradient3326"
       gradientUnits="userSpaceOnUse" />
    <radialGradient
       cx="319.80621"
       cy="194.60178"
       r="205.23125"
       fx="319.80621"
       fy="194.60178"
       id="radialGradient3412"
       xlink:href="#linearGradient3326"
       gradientUnits="userSpaceOnUse" />
    <radialGradient
       cx="319.80621"
       cy="194.60178"
       r="205.23125"
       fx="319.80621"
       fy="194.60178"
       id="radialGradient3414"
       xlink:href="#linearGradient3326"
       gradientUnits="userSpaceOnUse" />
    <radialGradient
       cx="319.80621"
       cy="194.60178"
       r="205.23125"
       fx="319.80621"
       fy="194.60178"
       id="radialGradient3416"
       xlink:href="#linearGradient3373"
       gradientUnits="userSpaceOnUse" />
    <radialGradient
       cx="319.80621"
       cy="194.60178"
       r="205.23125"
       fx="319.80621"
       fy="194.60178"
       id="radialGradient3418"
       xlink:href="#linearGradient3326"
       gradientUnits="userSpaceOnUse" />
    <radialGradient
       cx="319.80621"
       cy="194.60178"
       r="205.23125"
       fx="319.80621"
       fy="194.60178"
       id="radialGradient3420"
       xlink:href="#linearGradient3373"
       gradientUnits="userSpaceOnUse" />
    <radialGradient
       cx="319.80621"
       cy="194.60178"
       r="205.23125"
       fx="319.80621"
       fy="194.60178"
       id="radialGradient3422"
       xlink:href="#linearGradient3373"
       gradientUnits="userSpaceOnUse" />
    <radialGradient
       cx="319.80621"
       cy="194.60178"
       r="205.23125"
       fx="319.80621"
       fy="194.60178"
       id="radialGradient3424"
       xlink:href="#linearGradient3373"
       gradientUnits="userSpaceOnUse" />
    <radialGradient
       cx="319.80621"
       cy="194.60178"
       r="205.23125"
       fx="319.80621"
       fy="194.60178"
       id="radialGradient3431"
       xlink:href="#linearGradient3433"
       gradientUnits="userSpaceOnUse" />
    <radialGradient
       cx="319.80621"
       cy="194.60178"
       r="205.23125"
       fx="319.80621"
       fy="194.60178"
       id="radialGradient3441"
       xlink:href="#linearGradient3433"
       gradientUnits="userSpaceOnUse" />
    <radialGradient
       cx="319.80621"
       cy="194.60178"
       r="205.23125"
       fx="319.80621"
       fy="194.60178"
       id="radialGradient3445"
       xlink:href="#linearGradient3433"
       gradientUnits="userSpaceOnUse" />
    <radialGradient
       cx="319.80621"
       cy="194.60178"
       r="205.23125"
       fx="319.80621"
       fy="194.60178"
       id="radialGradient3449"
       xlink:href="#linearGradient3433"
       gradientUnits="userSpaceOnUse" />
    <radialGradient
       cx="319.80621"
       cy="194.60178"
       r="205.23125"
       fx="319.80621"
       fy="194.60178"
       id="radialGradient3453"
       xlink:href="#linearGradient3433"
       gradientUnits="userSpaceOnUse" />
    <radialGradient
       cx="319.80621"
       cy="194.60178"
       r="205.23125"
       fx="319.80621"
       fy="194.60178"
       id="radialGradient3457"
       xlink:href="#linearGradient3433"
       gradientUnits="userSpaceOnUse" />
    <radialGradient
       cx="319.80621"
       cy="194.60178"
       r="205.23125"
       fx="319.80621"
       fy="194.60178"
       id="radialGradient8194"
       xlink:href="#linearGradient3433"
       gradientUnits="userSpaceOnUse" />
    <radialGradient
       cx="319.80621"
       cy="194.60178"
       r="205.23125"
       fx="319.80621"
       fy="194.60178"
       id="radialGradient8196"
       xlink:href="#linearGradient3326"
       gradientUnits="userSpaceOnUse" />
    <radialGradient
       cx="319.80621"
       cy="194.60178"
       r="205.23125"
       fx="319.80621"
       fy="194.60178"
       id="radialGradient8198"
       xlink:href="#linearGradient3373"
       gradientUnits="userSpaceOnUse" />
    <radialGradient
       inkscape:collect="always"
       xlink:href="#linearGradient3433"
       id="radialGradient2556"
       gradientUnits="userSpaceOnUse"
       cx="319.80621"
       cy="194.60178"
       fx="319.80621"
       fy="194.60178"
       r="205.23125"
       gradientTransform="matrix(6.0719497e-2,0,0,6.0719497e-2,322.53435,255.04332)" />
    <radialGradient
       inkscape:collect="always"
       xlink:href="#linearGradient3433"
       id="radialGradient2559"
       gradientUnits="userSpaceOnUse"
       cx="319.80621"
       cy="194.60178"
       fx="319.80621"
       fy="194.60178"
       r="205.23125"
       gradientTransform="matrix(6.0719497e-2,0,0,6.0719497e-2,237.91842,395.44187)" />
    <radialGradient
       inkscape:collect="always"
       xlink:href="#linearGradient3433"
       id="radialGradient2562"
       gradientUnits="userSpaceOnUse"
       cx="319.80621"
       cy="194.60178"
       fx="319.80621"
       fy="194.60178"
       r="205.23125"
       gradientTransform="matrix(6.0719497e-2,0,0,6.0719497e-2,89.3677,43.086795)" />
    <radialGradient
       inkscape:collect="always"
       xlink:href="#linearGradient3433"
       id="radialGradient2565"
       gradientUnits="userSpaceOnUse"
       cx="319.80621"
       cy="194.60178"
       fx="319.80621"
       fy="194.60178"
       r="205.23125"
       gradientTransform="matrix(6.0719497e-2,0,0,6.0719497e-2,62.19379,129.13752)" />
    <radialGradient
       inkscape:collect="always"
       xlink:href="#linearGradient3433"
       id="radialGradient2568"
       gradientUnits="userSpaceOnUse"
       cx="319.80621"
       cy="194.60178"
       fx="319.80621"
       fy="194.60178"
       r="205.23125"
       gradientTransform="matrix(6.0719497e-2,0,0,6.0719497e-2,152.7735,120.98535)" />
    <radialGradient
       inkscape:collect="always"
       xlink:href="#linearGradient3433"
       id="radialGradient2571"
       gradientUnits="userSpaceOnUse"
       cx="319.80621"
       cy="194.60178"
       fx="319.80621"
       fy="194.60178"
       r="205.23125"
       gradientTransform="matrix(6.0719497e-2,0,0,6.0719497e-2,410.01988,458.84767)" />
    <radialGradient
       inkscape:collect="always"
       xlink:href="#linearGradient3326"
       id="radialGradient2595"
       gradientUnits="userSpaceOnUse"
       cx="319.80621"
       cy="194.60178"
       fx="319.80621"
       fy="194.60178"
       r="205.23125"
       gradientTransform="matrix(0.0607195,0,0,0.0607195,474.39668,36.129656)" />
    <radialGradient
       inkscape:collect="always"
       xlink:href="#linearGradient3433"
       id="radialGradient2602"
       gradientUnits="userSpaceOnUse"
       cx="319.80621"
       cy="194.60178"
       fx="319.80621"
       fy="194.60178"
       r="205.23125"
       gradientTransform="matrix(0.0607195,0,0,0.0607195,474.39668,67.44063)" />
    <radialGradient
       inkscape:collect="always"
       xlink:href="#linearGradient3373"
       id="radialGradient2609"
       gradientUnits="userSpaceOnUse"
       cx="319.80621"
       cy="194.60178"
       fx="319.80621"
       fy="194.60178"
       r="205.23125"
       gradientTransform="matrix(0.0607195,0,0,0.0607195,474.39668,4.8186819)" />
    <radialGradient
       inkscape:collect="always"
       xlink:href="#linearGradient3373"
       id="radialGradient2649"
       gradientUnits="userSpaceOnUse"
       cx="319.80621"
       cy="194.60178"
       fx="319.80621"
       fy="194.60178"
       r="205.23125"
       gradientTransform="matrix(6.0719497e-2,0,0,6.0719497e-2,218.68089,190.05452)" />
    <radialGradient
       inkscape:collect="always"
       xlink:href="#linearGradient3373"
       id="radialGradient2652"
       gradientUnits="userSpaceOnUse"
       cx="319.80621"
       cy="194.60178"
       fx="319.80621"
       fy="194.60178"
       r="205.23125"
       gradientTransform="matrix(6.0719497e-2,0,0,6.0719497e-2,198.69761,216.13668)" />
    <radialGradient
       inkscape:collect="always"
       xlink:href="#linearGradient3373"
       id="radialGradient2655"
       gradientUnits="userSpaceOnUse"
       cx="319.80621"
       cy="194.60178"
       fx="319.80621"
       fy="194.60178"
       r="205.23125"
       gradientTransform="matrix(6.0719497e-2,0,0,6.0719497e-2,196.42246,187.39084)" />
    <radialGradient
       inkscape:collect="always"
       xlink:href="#linearGradient3326"
       id="radialGradient2658"
       gradientUnits="userSpaceOnUse"
       cx="319.80621"
       cy="194.60178"
       fx="319.80621"
       fy="194.60178"
       r="205.23125"
       gradientTransform="matrix(6.0719497e-2,0,0,6.0719497e-2,209.30357,203.26562)" />
    <radialGradient
       inkscape:collect="always"
       xlink:href="#linearGradient3373"
       id="radialGradient2661"
       gradientUnits="userSpaceOnUse"
       cx="319.80621"
       cy="194.60178"
       fx="319.80621"
       fy="194.60178"
       r="205.23125"
       gradientTransform="matrix(6.0719497e-2,0,0,6.0719497e-2,216.48796,204.46738)" />
    <radialGradient
       inkscape:collect="always"
       xlink:href="#linearGradient3326"
       id="radialGradient2664"
       gradientUnits="userSpaceOnUse"
       cx="319.80621"
       cy="194.60178"
       fx="319.80621"
       fy="194.60178"
       r="205.23125"
       gradientTransform="matrix(6.0719497e-2,0,0,6.0719497e-2,191.34025,204.01375)" />
    <radialGradient
       inkscape:collect="always"
       xlink:href="#linearGradient3326"
       id="radialGradient2667"
       gradientUnits="userSpaceOnUse"
       cx="319.80621"
       cy="194.60178"
       fx="319.80621"
       fy="194.60178"
       r="205.23125"
       gradientTransform="matrix(6.0719497e-2,0,0,6.0719497e-2,225.53337,202.91773)" />
    <radialGradient
       inkscape:collect="always"
       xlink:href="#linearGradient3326"
       id="radialGradient2670"
       gradientUnits="userSpaceOnUse"
       cx="319.80621"
       cy="194.60178"
       fx="319.80621"
       fy="194.60178"
       r="205.23125"
       gradientTransform="matrix(6.0719497e-2,0,0,6.0719497e-2,208.83348,219.23399)" />
    <radialGradient
       inkscape:collect="always"
       xlink:href="#linearGradient3326"
       id="radialGradient2673"
       gradientUnits="userSpaceOnUse"
       cx="319.80621"
       cy="194.60178"
       fx="319.80621"
       fy="194.60178"
       r="205.23125"
       gradientTransform="matrix(6.0719497e-2,0,0,6.0719497e-2,210.3707,184.01472)" />
    <marker
       refX="0"
       refY="0"
       orient="auto"
       id="Arrow2Mend-3"
       style="overflow:visible">
      <path
         d="M 8.7185878,4.0337352 -2.2072895,0.01601326 8.7185884,-4.0017078 c -1.7454984,2.3720609 -1.7354408,5.6174519 -6e-7,8.035443 z"
         transform="scale(-0.6)"
         id="path4692-5"
         style="font-size:12px;fill-rule:evenodd;stroke-width:0.625;stroke-linejoin:round" />
    </marker>
    <marker
       refX="0"
       refY="0"
       orient="auto"
       id="Arrow2Mend-4"
       style="overflow:visible">
      <path
         d="M 8.7185878,4.0337352 -2.2072895,0.01601326 8.7185884,-4.0017078 c -1.7454984,2.3720609 -1.7354408,5.6174519 -6e-7,8.035443 z"
         transform="scale(-0.6)"
         id="path4692-7"
         style="font-size:12px;fill-rule:evenodd;stroke-width:0.625;stroke-linejoin:round" />
    </marker>
    <radialGradient
       inkscape:collect="always"
       xlink:href="#linearGradient3433"
       id="radialGradient2602-2"
       gradientUnits="userSpaceOnUse"
       cx="319.80621"
       cy="194.60178"
       fx="319.80621"
       fy="194.60178"
       r="205.23125"
       gradientTransform="matrix(0.0607195,0,0,0.0607195,480.73748,329.04651)" />
  </defs>
  <path
     style="fill:#ffffff;fill-opacity:0;fill-rule:nonzero;stroke:#000000;stroke-width:4;stroke-linecap:round;stroke-linejoin:miter;stroke-miterlimit:10;stroke-dasharray:none;stroke-dashoffset:0;stroke-opacity:1"
     id="path2548"
     d="M 423.96403,214.69698 C 423.97759,324.7493 334.76636,413.97152 224.71404,413.97152 C 114.66171,413.97152 25.450484,324.7493 25.464043,214.69698 C 25.450484,104.64466 114.66171,15.422437 224.71404,15.422437 C 334.76636,15.422437 423.97759,104.64466 423.96403,214.69698 L 423.96403,214.69698 z" />
  <path
     style="fill:#ffffff;fill-opacity:0;fill-rule:nonzero;stroke:#000000;stroke-width:4;stroke-linecap:round;stroke-linejoin:miter;stroke-miterlimit:10;stroke-dasharray:none;stroke-dashoffset:0;stroke-opacity:1"
     id="path3320"
     d="M 387.76446,214.69698 C 387.77556,304.75509 314.77214,377.76749 224.71404,377.76749 C 134.65593,377.76749 61.652516,304.75509 61.663612,214.69698 C 61.652516,124.63887 134.65593,51.626465 224.71404,51.626465 C 314.77214,51.626465 387.77556,124.63887 387.76446,214.69698 L 387.76446,214.69698 z" />
  <path
     style="fill:#ffffff;fill-opacity:0;fill-rule:nonzero;stroke:#000000;stroke-width:3.99999952;stroke-linecap:round;stroke-linejoin:miter;stroke-miterlimit:10;stroke-dasharray:none;stroke-dashoffset:0;stroke-opacity:1"
     id="path3322"
     d="M 323.19224,214.69698 C 323.19894,269.08973 279.10678,313.18732 224.71403,313.18732 C 170.32128,313.18732 126.22912,269.08973 126.23582,214.69698 C 126.22912,160.30423 170.32128,116.20664 224.71403,116.20664 C 279.10678,116.20664 323.19894,160.30423 323.19224,214.69698 L 323.19224,214.69698 z" />
  <path
     d="M 238.64793,197.08734 C 238.64874,203.71533 233.27592,209.08882 226.64793,209.08882 C 220.01993,209.08882 214.64711,203.71533 214.64793,197.08734 C 214.64711,190.45935 220.01993,185.08586 226.64793,185.08586 C 233.27592,185.08586 238.64874,190.45935 238.64793,197.08734 L 238.64793,197.08734 z"
     id="path3324"
     style="fill:url(#radialGradient2673);fill-opacity:1;fill-rule:nonzero;stroke:#000000;stroke-width:0.99999994;stroke-linecap:round;stroke-linejoin:miter;stroke-miterlimit:10;stroke-dasharray:none;stroke-dashoffset:0;stroke-opacity:1" />
  <path
     d="M 237.11071,232.30661 C 237.11152,238.9346 231.7387,244.30809 225.11071,244.30809 C 218.48271,244.30809 213.10989,238.9346 213.11071,232.30661 C 213.10989,225.67862 218.48271,220.30513 225.11071,220.30513 C 231.7387,220.30513 237.11152,225.67862 237.11071,232.30661 L 237.11071,232.30661 z"
     id="path3340"
     style="fill:url(#radialGradient2670);fill-opacity:1;fill-rule:nonzero;stroke:#000000;stroke-width:0.99999994;stroke-linecap:round;stroke-linejoin:miter;stroke-miterlimit:10;stroke-dasharray:none;stroke-dashoffset:0;stroke-opacity:1" />
  <path
     d="M 253.8106,215.99035 C 253.81141,222.61834 248.43859,227.99183 241.8106,227.99183 C 235.1826,227.99183 229.80978,222.61834 229.8106,215.99035 C 229.80978,209.36236 235.1826,203.98887 241.8106,203.98887 C 248.43859,203.98887 253.81141,209.36236 253.8106,215.99035 L 253.8106,215.99035 z"
     id="path3355"
     style="fill:url(#radialGradient2667);fill-opacity:1;fill-rule:nonzero;stroke:#000000;stroke-width:0.99999994;stroke-linecap:round;stroke-linejoin:miter;stroke-miterlimit:10;stroke-dasharray:none;stroke-dashoffset:0;stroke-opacity:1" />
  <path
     d="M 219.61748,217.08637 C 219.61829,223.71436 214.24547,229.08785 207.61748,229.08785 C 200.98948,229.08785 195.61666,223.71436 195.61748,217.08637 C 195.61666,210.45838 200.98948,205.08489 207.61748,205.08489 C 214.24547,205.08489 219.61829,210.45838 219.61748,217.08637 L 219.61748,217.08637 z"
     id="path3359"
     style="fill:url(#radialGradient2664);fill-opacity:1;fill-rule:nonzero;stroke:#000000;stroke-width:0.99999994;stroke-linecap:round;stroke-linejoin:miter;stroke-miterlimit:10;stroke-dasharray:none;stroke-dashoffset:0;stroke-opacity:1" />
  <path
     d="M 244.76519,217.54 C 244.766,224.16799 239.39318,229.54148 232.76519,229.54148 C 226.13719,229.54148 220.76437,224.16799 220.76519,217.54 C 220.76437,210.91201 226.13719,205.53852 232.76519,205.53852 C 239.39318,205.53852 244.766,210.91201 244.76519,217.54 L 244.76519,217.54 z"
     id="path3369"
     style="fill:url(#radialGradient2661);fill-opacity:1;fill-rule:nonzero;stroke:#000000;stroke-width:0.99999994;stroke-linecap:round;stroke-linejoin:miter;stroke-miterlimit:10;stroke-dasharray:none;stroke-dashoffset:0;stroke-opacity:1" />
  <path
     d="M 237.5808,216.33824 C 237.58161,222.96623 232.20879,228.33972 225.5808,228.33972 C 218.9528,228.33972 213.57998,222.96623 213.5808,216.33824 C 213.57998,209.71025 218.9528,204.33676 225.5808,204.33676 C 232.20879,204.33676 237.58161,209.71025 237.5808,216.33824 L 237.5808,216.33824 z"
     id="path3363"
     style="fill:url(#radialGradient2658);fill-opacity:1;fill-rule:nonzero;stroke:#000000;stroke-width:0.99999994;stroke-linecap:round;stroke-linejoin:miter;stroke-miterlimit:10;stroke-dasharray:none;stroke-dashoffset:0;stroke-opacity:1" />
  <path
     d="M 224.69969,200.46346 C 224.7005,207.09145 219.32768,212.46494 212.69969,212.46494 C 206.07169,212.46494 200.69887,207.09145 200.69969,200.46346 C 200.69887,193.83547 206.07169,188.46198 212.69969,188.46198 C 219.32768,188.46198 224.7005,193.83547 224.69969,200.46346 L 224.69969,200.46346 z"
     id="path3379"
     style="fill:url(#radialGradient2655);fill-opacity:1;fill-rule:nonzero;stroke:#000000;stroke-width:0.99999994;stroke-linecap:round;stroke-linejoin:miter;stroke-miterlimit:10;stroke-dasharray:none;stroke-dashoffset:0;stroke-opacity:1" />
  <path
     d="M 226.97484,229.2093 C 226.97565,235.83729 221.60283,241.21078 214.97484,241.21078 C 208.34684,241.21078 202.97402,235.83729 202.97484,229.2093 C 202.97402,222.58131 208.34684,217.20782 214.97484,217.20782 C 221.60283,217.20782 226.97565,222.58131 226.97484,229.2093 L 226.97484,229.2093 z"
     id="path3381"
     style="fill:url(#radialGradient2652);fill-opacity:1;fill-rule:nonzero;stroke:#000000;stroke-width:0.99999994;stroke-linecap:round;stroke-linejoin:miter;stroke-miterlimit:10;stroke-dasharray:none;stroke-dashoffset:0;stroke-opacity:1" />
  <path
     d="M 246.95812,203.12714 C 246.95893,209.75513 241.58611,215.12862 234.95812,215.12862 C 228.33012,215.12862 222.9573,209.75513 222.95812,203.12714 C 222.9573,196.49915 228.33012,191.12566 234.95812,191.12566 C 241.58611,191.12566 246.95893,196.49915 246.95812,203.12714 L 246.95812,203.12714 z"
     id="path3383"
     style="fill:url(#radialGradient2649);fill-opacity:1;fill-rule:nonzero;stroke:#000000;stroke-width:0.99999994;stroke-linecap:round;stroke-linejoin:miter;stroke-miterlimit:10;stroke-dasharray:none;stroke-dashoffset:0;stroke-opacity:1" />
  <path
     style="fill:url(#radialGradient2571);fill-opacity:1;fill-rule:nonzero;stroke:#000000;stroke-width:0.99999994;stroke-linecap:round;stroke-linejoin:miter;stroke-miterlimit:10;stroke-dasharray:none;stroke-dashoffset:0;stroke-opacity:1"
     id="path3426"
     d="M 438.29711,471.92029 C 438.29792,478.54828 432.9251,483.92177 426.29711,483.92177 C 419.66911,483.92177 414.29629,478.54828 414.29711,471.92029 C 414.29629,465.2923 419.66911,459.91881 426.29711,459.91881 C 432.9251,459.91881 438.29792,465.2923 438.29711,471.92029 L 438.29711,471.92029 z" />
  <path
     style="fill:url(#radialGradient2568);fill-opacity:1;fill-rule:nonzero;stroke:#000000;stroke-width:0.99999994;stroke-linecap:round;stroke-linejoin:miter;stroke-miterlimit:10;stroke-dasharray:none;stroke-dashoffset:0;stroke-opacity:1"
     id="path3439"
     d="M 181.05073,134.05797 C 181.05154,140.68596 175.67872,146.05945 169.05073,146.05945 C 162.42273,146.05945 157.04991,140.68596 157.05073,134.05797 C 157.04991,127.42998 162.42273,122.05649 169.05073,122.05649 C 175.67872,122.05649 181.05154,127.42998 181.05073,134.05797 L 181.05073,134.05797 z" />
  <path
     style="fill:url(#radialGradient2565);fill-opacity:1;fill-rule:nonzero;stroke:#000000;stroke-width:0.99999994;stroke-linecap:round;stroke-linejoin:miter;stroke-miterlimit:10;stroke-dasharray:none;stroke-dashoffset:0;stroke-opacity:1"
     id="path3443"
     d="M 90.471018,142.21014 C 90.471835,148.83813 85.099013,154.21162 78.471018,154.21162 C 71.843023,154.21162 66.470201,148.83813 66.471018,142.21014 C 66.470201,135.58215 71.843023,130.20866 78.471018,130.20866 C 85.099013,130.20866 90.471835,135.58215 90.471018,142.21014 L 90.471018,142.21014 z" />
  <path
     style="fill:url(#radialGradient2562);fill-opacity:1;fill-rule:nonzero;stroke:#000000;stroke-width:0.99999994;stroke-linecap:round;stroke-linejoin:miter;stroke-miterlimit:10;stroke-dasharray:none;stroke-dashoffset:0;stroke-opacity:1"
     id="path3447"
     d="M 117.64493,56.159415 C 117.64574,62.787409 112.27292,68.160894 105.64493,68.160894 C 99.016933,68.160894 93.644111,62.787409 93.644928,56.159415 C 93.644111,49.53142 99.016933,44.157936 105.64493,44.157936 C 112.27292,44.157936 117.64574,49.53142 117.64493,56.159415 L 117.64493,56.159415 z" />
  <path
     style="fill:url(#radialGradient2559);fill-opacity:1;fill-rule:nonzero;stroke:#000000;stroke-width:0.99999994;stroke-linecap:round;stroke-linejoin:miter;stroke-miterlimit:10;stroke-dasharray:none;stroke-dashoffset:0;stroke-opacity:1"
     id="path3451"
     d="M 266.19565,408.51449 C 266.19646,415.14248 260.82364,420.51597 254.19565,420.51597 C 247.56765,420.51597 242.19483,415.14248 242.19565,408.51449 C 242.19483,401.8865 247.56765,396.51301 254.19565,396.51301 C 260.82364,396.51301 266.19646,401.8865 266.19565,408.51449 L 266.19565,408.51449 z" />
  <path
     style="fill:url(#radialGradient2556);fill-opacity:1;fill-rule:nonzero;stroke:#000000;stroke-width:0.99999994;stroke-linecap:round;stroke-linejoin:miter;stroke-miterlimit:10;stroke-dasharray:none;stroke-dashoffset:0;stroke-opacity:1"
     id="path3455"
     d="M 350.81158,268.11594 C 350.81239,274.74393 345.43957,280.11742 338.81158,280.11742 C 332.18358,280.11742 326.81076,274.74393 326.81158,268.11594 C 326.81076,261.48795 332.18358,256.11446 338.81158,256.11446 C 345.43957,256.11446 350.81239,261.48795 350.81158,268.11594 L 350.81158,268.11594 z" />
  <text
     style="font-style:normal;font-variant:normal;font-weight:normal;font-stretch:normal;font-size:28px;line-height:0%;font-family:'DejaVu Sans';-inkscape-font-specification:'DejaVu Sans';text-align:center;writing-mode:lr-tb;text-anchor:middle;fill:#000000;fill-opacity:1;stroke:none;stroke-width:1px;stroke-linecap:butt;stroke-linejoin:miter;stroke-opacity:1"
     xml:space="preserve"
     id="text3459"
     y="182.81885"
     x="228.49274"><tspan
       id="tspan3461"
       y="182.81885"
       x="228.49274"
       style="font-style:normal;font-variant:normal;font-weight:normal;font-stretch:normal;font-size:18.6667px;font-family:'DejaVu Sans';-inkscape-font-specification:'DejaVu Sans, Normal';font-variant-ligatures:normal;font-variant-caps:normal;font-variant-numeric:normal;font-variant-east-asian:normal">Nucleo atomico</tspan></text>
  <rect
     width="37.13768"
     height="36.231884"
     ry="13.586957"
     x="41.33334"
     y="305.25363"
     id="rect3463"
     style="fill:#ffffff;fill-opacity:1;fill-rule:nonzero;stroke:none;stroke-width:1;stroke-linecap:round;stroke-linejoin:miter;stroke-miterlimit:10;stroke-dasharray:none;stroke-dashoffset:0;stroke-opacity:1" />
  <text
     x="59.902187"
     y="333.57562"
     id="text3465"
     xml:space="preserve"
     style="font-style:normal;font-variant:normal;font-weight:normal;font-stretch:normal;font-size:28px;line-height:0%;font-family:'DejaVu Sans';-inkscape-font-specification:'DejaVu Sans';text-align:center;writing-mode:lr-tb;text-anchor:middle;fill:#000000;fill-opacity:1;stroke:none;stroke-width:1px;stroke-linecap:butt;stroke-linejoin:miter;stroke-opacity:1"><tspan
       x="59.902187"
       y="333.57562"
       id="tspan3467">M</tspan></text>
  <rect
     width="37.13768"
     height="36.231884"
     ry="13.586957"
     x="87.528999"
     y="303.28986"
     id="rect3521"
     style="fill:#ffffff;fill-opacity:1;fill-rule:nonzero;stroke:none;stroke-width:1;stroke-linecap:round;stroke-linejoin:miter;stroke-miterlimit:10;stroke-dasharray:none;stroke-dashoffset:0;stroke-opacity:1" />
  <text
     x="106.09785"
     y="331.61185"
     id="text3523"
     xml:space="preserve"
     style="font-style:normal;font-variant:normal;font-weight:normal;font-stretch:normal;font-size:28px;line-height:0%;font-family:'DejaVu Sans';-inkscape-font-specification:'DejaVu Sans';text-align:center;writing-mode:lr-tb;text-anchor:middle;fill:#000000;fill-opacity:1;stroke:none;stroke-width:1px;stroke-linecap:butt;stroke-linejoin:miter;stroke-opacity:1"><tspan
       x="106.09785"
       y="331.61185"
       id="tspan3525">L</tspan></text>
  <rect
     width="37.13768"
     height="36.231884"
     ry="13.586957"
     x="137.34784"
     y="264.49277"
     id="rect3529"
     style="fill:#ffffff;fill-opacity:1;fill-rule:nonzero;stroke:none;stroke-width:1;stroke-linecap:round;stroke-linejoin:miter;stroke-miterlimit:10;stroke-dasharray:none;stroke-dashoffset:0;stroke-opacity:1" />
  <text
     x="155.91669"
     y="292.81476"
     id="text3531"
     xml:space="preserve"
     style="font-style:normal;font-variant:normal;font-weight:normal;font-stretch:normal;font-size:28px;line-height:0%;font-family:'DejaVu Sans';-inkscape-font-specification:'DejaVu Sans';text-align:center;writing-mode:lr-tb;text-anchor:middle;fill:#000000;fill-opacity:1;stroke:none;stroke-width:1px;stroke-linecap:butt;stroke-linejoin:miter;stroke-opacity:1"><tspan
       x="155.91669"
       y="292.81476"
       id="tspan3533">K</tspan></text>
  <g
     id="g2691">
    <path
       style="fill:#ff0000;fill-opacity:1;fill-rule:nonzero;stroke:none;stroke-width:4;stroke-linecap:round;stroke-linejoin:miter;stroke-miterlimit:10;stroke-dasharray:none;stroke-dashoffset:0;stroke-opacity:1"
       id="path6993"
       d="M 271.8125,303.375 C 271.22015,303.35139 270.64785,303.59176 270.25,304.03125 C 269.90473,304.40189 268.25245,305.877 266.21875,307.65625 C 264.18505,309.4355 261.67919,311.63681 259.21875,314 C 256.75831,316.36319 254.33868,318.86444 252.46875,321.28125 C 250.59882,323.69806 249.16459,325.96804 249.0625,328.5 C 248.79409,335.15671 248.18226,339.54869 247.40625,342.125 C 247.01825,343.41315 246.57683,344.2218 246.25,344.625 C 245.92317,345.0282 245.78422,345.06446 245.59375,345.09375 C 243.06257,345.483 239.16592,345.1114 235.375,344.875 C 231.58408,344.6386 227.86078,344.38577 224.90625,346.1875 C 223.38085,347.11774 222.42587,348.60636 221.9375,350.1875 C 221.44913,351.76864 221.33555,353.47505 221.375,355.25 C 221.45389,358.7999 222.15629,362.6972 222.5,366.15625 C 222.82209,369.39771 222.22297,371.38435 221.125,372.5625 C 220.02703,373.74065 218.10126,374.47199 214.84375,374.375 C 211.36697,374.27147 207.42301,373.83172 203.875,374 C 202.10099,374.08414 200.41836,374.30742 198.875,374.90625 C 197.33164,375.50508 195.88065,376.56632 195.0625,378.15625 C 193.47987,381.2318 194.00007,384.95443 194.5,388.71875 C 194.99993,392.48307 195.65231,396.32803 195.4375,398.875 C 195.24064,401.20906 194.39568,402.02853 192.34375,402.71875 C 190.29182,403.40897 187.04023,403.48672 183.34375,403.1875 C 179.43301,402.87092 175.77382,402.84881 172.71875,403.875 C 169.66368,404.90119 167.21125,407.48013 166.90625,411.15625 C 166.61909,414.6174 167.39277,418.55798 167.875,422.1875 C 168.35723,425.81702 168.38979,429.07912 167.71875,430.375 C 167.40916,430.97286 166.91137,431.3659 166,431.71875 C 165.08863,432.0716 163.78151,432.30206 162.25,432.375 C 159.18698,432.52088 155.2914,432.10811 151.59375,432 C 147.67753,431.88548 144.415,432.807 142.28125,435.09375 C 140.1475,437.3805 139.48523,440.69243 139.875,444.59375 C 140.24297,448.27678 140.90002,452.15298 140.96875,455.21875 C 141.00312,456.75163 140.88239,458.06794 140.59375,459 C 140.30511,459.93206 139.95101,460.432 139.375,460.78125 C 138.12267,461.54057 134.84224,461.72771 131.1875,461.5 C 127.53276,461.27229 123.5554,460.78016 120.125,461.3125 C 116.48346,461.87761 114.09295,464.50705 113.28125,467.625 C 112.46955,470.74295 112.75507,474.37031 113.34375,478.25 C 113.38461,479.0094 113.85258,479.67992 114.55129,479.9802 C 115.24999,480.28048 116.05853,480.15856 116.63761,479.6656 C 117.2167,479.17264 117.46614,478.39393 117.28125,477.65625 C 116.7249,473.98966 116.61084,470.75132 117.15625,468.65625 C 117.70166,466.56118 118.43535,465.64044 120.75,465.28125 C 123.27577,464.88929 127.14748,465.26386 130.9375,465.5 C 134.72752,465.73614 138.47983,465.98081 141.4375,464.1875 C 142.96649,463.26044 143.91653,461.76888 144.40625,460.1875 C 144.89597,458.60612 145.00856,456.90056 144.96875,455.125 C 144.88914,451.57389 144.18954,447.64859 143.84375,444.1875 C 143.51977,440.94471 144.12005,438.98998 145.21875,437.8125 C 146.31745,436.63502 148.24398,435.90479 151.5,436 C 154.97459,436.10159 158.92199,436.54392 162.46875,436.375 C 164.24213,436.29054 165.92553,436.06622 167.46875,435.46875 C 169.01197,434.87128 170.42842,433.80533 171.25,432.21875 C 172.84129,429.14573 172.344,425.42144 171.84375,421.65625 C 171.3435,417.89106 170.69451,414.02091 170.90625,411.46875 C 171.10016,409.13156 171.9475,408.34568 174,407.65625 C 176.0525,406.96682 179.30296,406.88822 183,407.1875 C 186.91131,407.50411 190.54002,407.5272 193.59375,406.5 C 196.64748,405.4728 199.12778,402.89084 199.4375,399.21875 C 199.72925,395.75957 198.95083,391.81745 198.46875,388.1875 C 197.98667,384.55755 197.95488,381.30226 198.625,380 C 198.93322,379.40103 199.40284,378.97795 200.3125,378.625 C 201.22216,378.27205 202.53095,378.07264 204.0625,378 C 207.12559,377.85472 211.01902,378.26484 214.71875,378.375 C 218.63777,378.49169 221.93016,377.56931 224.0625,375.28125 C 226.19484,372.99319 226.85615,369.67994 226.46875,365.78125 C 226.10298,362.10015 225.44313,358.22199 225.375,355.15625 C 225.34093,353.62338 225.46159,352.30876 225.75,351.375 C 226.03841,350.44124 226.39394,349.94429 226.96875,349.59375 C 228.21468,348.83396 231.47068,348.64712 235.125,348.875 C 238.77932,349.10288 242.78606,349.59039 246.21875,349.0625 C 247.41345,348.87877 248.53262,348.15692 249.34375,347.15625 C 250.15488,346.15558 250.73679,344.88133 251.21875,343.28125 C 252.18267,340.0811 252.75632,335.47459 253.03125,328.65625 C 253.06228,327.88657 253.95978,325.90223 255.625,323.75 C 257.29022,321.59777 259.6181,319.194 262,316.90625 C 264.3819,314.6185 266.82279,312.42435 268.84375,310.65625 C 270.86471,308.88815 272.36064,307.66886 273.1875,306.78125 C 273.749,306.21358 273.9191,305.36634 273.62022,304.62593 C 273.32134,303.88552 272.61074,303.39379 271.8125,303.375 z" />
    <path
       style="font-size:12px;fill:#ff0000;fill-rule:evenodd;stroke-width:0.625;stroke-linejoin:round"
       id="path7560"
       d="M 250.37396,314.11985 L 275.30302,301.50561 L 264.48491,327.26499 C 263.17481,320.3193 257.45916,315.02784 250.37396,314.11985 z" />
  </g>
  <g
     id="g2687">
    <path
       style="fill:#008000;fill-opacity:1;fill-rule:nonzero;stroke:none;stroke-width:2.99999976;stroke-linecap:round;stroke-linejoin:miter;stroke-miterlimit:10;stroke-dasharray:none;stroke-dashoffset:0;stroke-opacity:1"
       id="path6997"
       d="M 327.0625,46.84375 C 326.618,46.865007 326.20587,47.082517 325.9375,47.4375 C 322.33923,51.883454 318.56864,54.995385 316.1875,58.21875 C 314.99693,59.830433 314.12538,61.547806 314.03125,63.46875 C 313.9421,65.288042 314.63866,67.170415 316,69.0625 C 316.52331,70.273828 316.80463,71.221425 316.875,71.84375 C 316.94537,72.466075 316.80637,72.632105 316.8125,72.625 C 316.81863,72.617895 316.75582,72.72758 316.1875,72.71875 C 315.61918,72.70992 314.70022,72.54264 313.5,72.125 C 310.98044,71.248283 308.05623,70.03302 305.59375,69.34375 C 304.36251,68.999115 303.28389,68.76756 302.1875,68.84375 C 301.63931,68.881845 301.03943,69.011787 300.5,69.375 C 299.96057,69.738213 299.54265,70.35829 299.40625,71 C 299.14788,72.215564 299.49147,73.276195 299.90625,74.5 C 300.32103,75.723805 300.90131,77.068078 301.53125,78.4375 C 302.79112,81.176344 304.21973,84.091999 304.6875,85.84375 C 304.90286,86.650234 304.76131,86.853053 304.8125,86.78125 C 304.86369,86.709447 304.83941,86.837808 304.28125,86.84375 C 303.16493,86.855633 300.7278,86.160758 298,85.09375 C 295.16345,83.984198 292.7279,83.134984 290.625,83.15625 C 289.57355,83.166883 288.39252,83.47805 287.6875,84.46875 C 286.98248,85.45945 287.00995,86.662329 287.34375,87.90625 C 287.97382,90.254285 289.4571,93.138 290.6875,95.8125 C 291.3027,97.14975 291.83978,98.441 292.1875,99.46875 C 292.49473,100.37682 292.5259,100.95487 292.53125,101.15625 C 292.10989,101.18512 291.20862,101.05312 290.125,100.75 C 287.95776,100.14376 285.07623,98.97949 282.4375,98.0625 C 281.05872,97.58337 279.86717,97.29827 278.78125,97.28125 C 277.69533,97.26423 276.58084,97.55435 275.84375,98.40625 C 275.10666,99.25815 274.97014,100.37438 275.09375,101.46875 C 275.21736,102.56312 275.5924,103.74896 276.1875,105.125 C 277.33071,107.76844 278.75727,110.67072 279.5625,112.875 C 279.96511,113.97714 280.17086,114.92494 280.1875,115.40625 C 280.18842,115.43299 280.18777,115.41431 280.1875,115.4375 C 280.03185,115.44075 279.50638,115.47292 278.625,115.25 C 277.61988,114.99579 276.36661,114.56405 275.03125,114.0625 C 272.36054,113.0594 269.49169,111.82339 267.15625,111.40625 C 265.91209,111.18403 264.63142,111.31171 263.75,112.15625 C 262.86858,113.00079 262.74958,114.15683 262.84375,115.21875 C 263.03209,117.34258 264.09227,119.82766 265.4375,122.65625 C 265.79994,123.40701 266.70236,123.72181 267.45312,123.35938 C 268.20389,122.99694 268.51869,122.09451 268.15625,121.34375 C 266.85843,118.61485 265.95218,116.19148 265.84375,114.96875 C 265.78954,114.35739 265.91828,114.24109 265.84375,114.3125 C 265.76922,114.38391 265.86122,114.23858 266.625,114.375 C 268.30544,114.67515 271.2277,115.84548 273.96875,116.875 C 275.33928,117.38976 276.68699,117.87912 277.90625,118.1875 C 279.12551,118.49588 280.21197,118.72709 281.40625,118.3125 C 282.03867,118.09296 282.59443,117.57652 282.875,117 C 283.15557,116.42348 283.20658,115.83314 283.1875,115.28125 C 283.14935,114.17746 282.82661,113.08002 282.375,111.84375 C 281.47178,109.37122 280.03294,106.47047 278.9375,103.9375 C 278.41327,102.72534 278.13273,101.778 278.0625,101.15625 C 277.99227,100.5345 278.09995,100.36784 278.09375,100.375 C 278.08755,100.38216 278.18105,100.27233 278.75,100.28125 C 279.31895,100.29017 280.23817,100.45822 281.4375,100.875 C 283.95498,101.74985 286.85095,102.96768 289.3125,103.65625 C 290.54327,104.00054 291.65431,104.23132 292.75,104.15625 C 293.29784,104.11872 293.86662,103.98572 294.40625,103.625 C 294.94588,103.26428 295.361,102.64118 295.5,102 C 295.76381,100.78304 295.44516,99.7234 295.03125,98.5 C 294.61734,97.2766 294.03637,95.932183 293.40625,94.5625 C 292.14601,91.823134 290.72144,88.881859 290.25,87.125 C 290.03304,86.316478 290.17679,86.114719 290.125,86.1875 C 290.07321,86.260281 290.09763,86.161899 290.65625,86.15625 C 291.77348,86.144952 294.17818,86.839128 296.90625,87.90625 C 299.74309,89.015912 302.21049,89.866126 304.3125,89.84375 C 305.36351,89.832562 306.54491,89.520337 307.25,88.53125 C 307.95509,87.542163 307.92555,86.336318 307.59375,85.09375 C 306.9672,82.747398 305.48032,79.862098 304.25,77.1875 C 303.63484,75.850201 303.09882,74.591694 302.75,73.5625 C 302.43465,72.632045 302.37695,71.996828 302.375,71.8125 C 302.79419,71.78337 303.72873,71.946643 304.8125,72.25 C 306.98004,72.856713 309.85933,74.018639 312.5,74.9375 C 313.87989,75.417661 315.06995,75.701871 316.15625,75.71875 C 317.24255,75.735629 318.35773,75.446532 319.09375,74.59375 C 319.82977,73.740968 319.96747,72.625279 319.84375,71.53125 C 319.72003,70.437221 319.34402,69.249997 318.75,67.875 L 318.6875,67.6875 L 318.5625,67.5625 C 317.32215,65.931527 316.97747,64.722582 317.03125,63.625 C 317.08503,62.527418 317.58973,61.359146 318.59375,60 C 320.60179,57.281708 324.44958,54.008216 328.25,49.3125 C 328.63238,48.860746 328.71341,48.22639 328.45685,47.693025 C 328.2003,47.15966 327.65412,46.826995 327.0625,46.84375 L 327.0625,46.84375 z" />
    <path
       style="font-size:12px;fill:#008000;fill-rule:evenodd;stroke-width:0.625;stroke-linejoin:round"
       id="path7546"
       d="M 311.57333,56.002672 L 329.56725,45.26519 L 322.81627,65.101998 C 321.47395,59.973633 316.92171,56.312628 311.57333,56.002672 z" />
  </g>
  <g
     id="g2683">
    <path
       style="fill:#800080;fill-opacity:1;fill-rule:nonzero;stroke:none;stroke-width:2.99999976;stroke-linecap:round;stroke-linejoin:miter;stroke-miterlimit:10;stroke-dasharray:none;stroke-dashoffset:0;stroke-opacity:1"
       id="path7520"
       d="M 365.6875,135.5625 C 365.4493,135.60207 365.22418,135.69855 365.03125,135.84375 C 360.30527,139.06543 355.80213,140.97371 352.59375,143.375 C 350.98956,144.57565 349.67447,145.9375 349.03125,147.75 C 348.42144,149.46837 348.55139,151.48082 349.3125,153.6875 C 349.46489,154.9982 349.45553,156.00876 349.34375,156.625 C 349.23197,157.24124 349.05458,157.34879 349.0625,157.34375 C 349.07042,157.33871 348.97922,157.42209 348.4375,157.25 C 347.89578,157.07791 347.0604,156.62052 346.03125,155.875 C 343.87081,154.30998 341.44101,152.33783 339.28125,150.96875 C 338.20137,150.28421 337.1969,149.74271 336.125,149.5 C 335.58905,149.37865 334.99617,149.30748 334.375,149.5 C 333.75383,149.69252 333.19038,150.20599 332.875,150.78125 C 332.27759,151.87095 332.26764,152.98984 332.3125,154.28125 C 332.35736,155.57266 332.54102,157.0072 332.75,158.5 C 333.16796,161.48561 333.71265,164.68775 333.65625,166.5 C 333.63028,167.33434 333.39906,167.49152 333.46875,167.4375 C 333.53844,167.38348 333.50499,167.49877 332.96875,167.34375 C 331.89628,167.03372 329.77382,165.68221 327.46875,163.875 C 325.07178,161.99574 322.95748,160.4601 320.9375,159.875 C 319.92751,159.58245 318.71041,159.53549 317.75,160.28125 C 316.78959,161.02701 316.47599,162.21265 316.4375,163.5 C 316.36484,165.93002 316.93549,169.11575 317.34375,172.03125 C 317.54788,173.489 317.71291,174.85315 317.75,175.9375 C 317.78709,177.02185 317.62169,177.82453 317.59375,177.875 C 317.18817,178.59987 317.447,179.51629 318.17187,179.92188 C 318.89675,180.32746 319.81317,180.06862 320.21875,179.34375 C 320.82178,178.25428 320.79415,177.13451 320.75,175.84375 C 320.70585,174.55299 320.55283,173.08686 320.34375,171.59375 C 319.92559,168.60754 319.38314,165.41195 319.4375,163.59375 C 319.46252,162.757 319.6643,162.60146 319.59375,162.65625 C 319.5232,162.71104 319.55716,162.59457 320.09375,162.75 C 321.16692,163.06085 323.31969,164.41135 325.625,166.21875 C 328.02222,168.0982 330.10555,169.63497 332.125,170.21875 C 333.13472,170.51064 334.35249,170.55669 335.3125,169.8125 C 336.27251,169.06831 336.58499,167.87923 336.625,166.59375 C 336.70054,164.16635 336.12691,161.00932 335.71875,158.09375 C 335.51467,156.63596 335.35022,155.24229 335.3125,154.15625 C 335.27845,153.17601 335.41731,152.58494 335.46875,152.40625 C 335.87858,152.49905 336.70571,152.89745 337.65625,153.5 C 339.55732,154.7051 341.9857,156.67225 344.25,158.3125 C 345.43321,159.16963 346.49581,159.76482 347.53125,160.09375 C 348.56669,160.42268 349.73711,160.47976 350.6875,159.875 C 351.63789,159.27024 352.08474,158.23957 352.28125,157.15625 C 352.47776,156.07293 352.45422,154.83155 352.28125,153.34375 L 352.28125,153.15625 L 352.21875,152.96875 C 351.50051,151.04972 351.47623,149.78562 351.84375,148.75 C 352.21127,147.71438 353.05342,146.79377 354.40625,145.78125 C 357.1119,143.75622 361.72728,141.71516 366.71875,138.3125 C 367.31889,137.93243 367.57018,137.18353 367.32075,136.51839 C 367.07133,135.85325 366.38957,135.45424 365.6875,135.5625 L 365.6875,135.5625 z" />
    <path
       style="font-size:12px;fill:#800080;fill-rule:evenodd;stroke-width:0.625;stroke-linejoin:round"
       id="path7530"
       d="M 348.83193,139.90821 L 369.15541,134.8062 L 356.97891,151.85928 C 357.16999,146.5616 353.86459,141.74495 348.83193,139.90821 z" />
  </g>
  <g
     id="g2679">
    <path
       style="fill:#ff6600;fill-opacity:1;fill-rule:nonzero;stroke:none;stroke-width:2.99999976;stroke-linecap:round;stroke-linejoin:miter;stroke-miterlimit:10;stroke-dasharray:none;stroke-dashoffset:0;stroke-opacity:1"
       id="path7522"
       d="M 411.75,151.3125 C 411.62148,151.32745 411.49543,151.35896 411.375,151.40625 C 406.0039,153.3723 401.16755,154.1139 397.46875,155.65625 C 395.61935,156.42742 393.9738,157.46274 392.90625,159.0625 C 391.89255,160.58156 391.55033,162.54424 391.75,164.875 C 391.57672,166.18311 391.32181,167.14866 391.0625,167.71875 C 390.80319,168.28884 390.61609,168.3467 390.625,168.34375 C 390.63391,168.3408 390.51432,168.39328 390.03125,168.09375 C 389.54818,167.79422 388.8152,167.16238 388,166.1875 C 386.28867,164.141 384.44615,161.63761 382.6875,159.78125 C 381.80817,158.85307 380.9798,158.06035 380,157.5625 C 379.5101,157.31358 378.93065,157.12173 378.28125,157.15625 C 377.63185,157.19077 376.94667,157.55075 376.5,158.03125 C 375.99104,158.60934 376.00256,159.47893 376.52665,160.04333 C 377.05074,160.60774 377.9171,160.68355 378.53125,160.21875 C 378.56459,160.22822 378.53759,160.20559 378.625,160.25 C 378.99962,160.44035 379.72599,161.02674 380.5,161.84375 C 382.04801,163.47776 383.92515,165.98012 385.71875,168.125 C 386.65599,169.24582 387.51416,170.08373 388.4375,170.65625 C 389.36084,171.22877 390.49294,171.54106 391.5625,171.1875 C 392.63206,170.83394 393.32539,169.9397 393.78125,168.9375 C 394.23711,167.9353 394.52206,166.73485 394.71875,165.25 L 394.75,165.0625 L 394.71875,164.90625 C 394.4924,162.86976 394.79628,161.63281 395.40625,160.71875 C 396.01622,159.80469 397.06539,159.08784 398.625,158.4375 C 401.74423,157.13683 406.73341,156.29524 412.40625,154.21875 C 413.12287,153.96515 413.53654,153.21562 413.3691,152.47411 C 413.20167,151.73261 412.50606,151.23355 411.75,151.3125 z" />
    <path
       style="font-size:12px;fill:#ff6600;fill-rule:evenodd;stroke-width:0.625;stroke-linejoin:round"
       id="path7538"
       d="M 394.64846,151.3919 L 415.60254,151.42299 L 399.6202,164.97435 C 401.10299,159.88483 399.07798,154.40531 394.64846,151.3919 z" />
  </g>
  <text
     style="font-style:normal;font-variant:normal;font-weight:normal;font-stretch:normal;font-size:24px;line-height:0%;font-family:'DejaVu Sans';-inkscape-font-specification:'DejaVu Sans, Normal';font-variant-ligatures:normal;font-variant-caps:normal;font-variant-numeric:normal;font-variant-east-asian:normal;text-align:start;writing-mode:lr-tb;text-anchor:start;fill:#ff0000;fill-opacity:1;stroke:none;stroke-width:1px;stroke-linecap:butt;stroke-linejoin:miter;stroke-opacity:1"
     xml:space="preserve"
     id="text7548"
     y="421.07843"
     x="30.389174"><tspan
       sodipodi:role="line"
       id="tspan6"
       x="30.389174"
       y="421.07843">Fotone</tspan></text>
  <path
     style="fill:none;fill-rule:evenodd;stroke:#000000;stroke-width:3;stroke-linecap:butt;stroke-linejoin:miter;marker-end:url(#Arrow2Mend);stroke-miterlimit:4;stroke-dasharray:3, 3;stroke-dashoffset:0;stroke-opacity:1"
     id="path7562"
     d="M 285.89855,291.66667 L 416.33333,461.95652" />
  <text
     style="font-style:normal;font-variant:normal;font-weight:normal;font-stretch:normal;font-size:24px;line-height:0%;font-family:'DejaVu Sans';-inkscape-font-specification:'DejaVu Sans';text-align:start;writing-mode:lr-tb;text-anchor:start;fill:#000000;fill-opacity:1;stroke:none;stroke-width:1px;stroke-linecap:butt;stroke-linejoin:miter;stroke-opacity:1"
     xml:space="preserve"
     id="text8085"
     y="442.00003"
     x="419.15707">Fotoelettrone</text>
  <path
     style="fill:#ffffff;fill-opacity:1;fill-rule:nonzero;stroke:#000000;stroke-width:0.99999994;stroke-linecap:round;stroke-linejoin:miter;stroke-miterlimit:10;stroke-dasharray:none;stroke-dashoffset:0;stroke-opacity:1"
     id="path8109"
     d="M 396.32608,252.23187 C 396.32689,258.85986 390.95407,264.23335 384.32608,264.23335 C 377.69808,264.23335 372.32526,258.85986 372.32608,252.23187 C 372.32526,245.60388 377.69808,240.23039 384.32608,240.23039 C 390.95407,240.23039 396.32689,245.60388 396.32608,252.23187 L 396.32608,252.23187 z" />
  <path
     style="fill:#ffffff;fill-opacity:1;fill-rule:nonzero;stroke:#000000;stroke-width:0.99999994;stroke-linecap:round;stroke-linejoin:miter;stroke-miterlimit:10;stroke-dasharray:none;stroke-dashoffset:0;stroke-opacity:1"
     id="path8113"
     d="M 298.80434,288.76086 C 298.80515,295.38885 293.43233,300.76234 286.80434,300.76234 C 280.17634,300.76234 274.80352,295.38885 274.80434,288.76086 C 274.80352,282.13287 280.17634,276.75938 286.80434,276.75938 C 293.43233,276.75938 298.80515,282.13287 298.80434,288.76086 L 298.80434,288.76086 z" />
  <path
     style="fill:none;fill-rule:evenodd;stroke:#000000;stroke-width:3;stroke-linecap:butt;stroke-linejoin:miter;marker-end:url(#Arrow2Mend);stroke-miterlimit:4;stroke-dasharray:6, 3;stroke-dashoffset:0;stroke-opacity:1"
     id="path8125"
     d="M 379.19565,254.52899 L 298.57971,282.60869" />
  <text
     style="font-style:normal;font-variant:normal;font-weight:normal;font-stretch:normal;font-size:28px;line-height:0%;font-family:'DejaVu Sans';-inkscape-font-specification:'DejaVu Sans';text-align:start;writing-mode:lr-tb;text-anchor:start;fill:#008000;fill-opacity:1;stroke:none;stroke-width:1px;stroke-linecap:butt;stroke-linejoin:miter;stroke-opacity:1"
     xml:space="preserve"
     id="text8127"
     y="89.593994"
     x="247.06413"><tspan
       id="tspan8129"
       y="89.593994"
       x="247.06413">Kβ</tspan></text>
  <text
     style="font-style:normal;font-variant:normal;font-weight:normal;font-stretch:normal;font-size:28px;line-height:0%;font-family:'DejaVu Sans';-inkscape-font-specification:'DejaVu Sans';text-align:start;writing-mode:lr-tb;text-anchor:start;fill:#ff6600;fill-opacity:1;stroke:none;stroke-width:1px;stroke-linecap:butt;stroke-linejoin:miter;stroke-opacity:1"
     xml:space="preserve"
     id="text8131"
     y="176.63045"
     x="422.67389"><tspan
       id="tspan8133"
       y="176.63045"
       x="422.67389">Lα</tspan></text>
  <text
     style="font-style:normal;font-variant:normal;font-weight:normal;font-stretch:normal;font-size:28px;line-height:0%;font-family:'DejaVu Sans';-inkscape-font-specification:'DejaVu Sans';text-align:start;writing-mode:lr-tb;text-anchor:start;fill:#800080;fill-opacity:1;stroke:none;stroke-width:1px;stroke-linecap:butt;stroke-linejoin:miter;stroke-opacity:1"
     xml:space="preserve"
     id="text8135"
     y="143.11594"
     x="306.7319"><tspan
       id="tspan8137"
       y="143.11594"
       x="306.7319">Kα</tspan></text>
  <g
     id="g2675">
    <path
       style="fill:#800080;fill-opacity:1;fill-rule:nonzero;stroke:none;stroke-width:2.99999976;stroke-linecap:round;stroke-linejoin:miter;stroke-miterlimit:10;stroke-dasharray:none;stroke-dashoffset:0;stroke-opacity:1"
       id="path8141"
       d="M 390.14402,210.74366 C 389.90582,210.78323 389.6807,210.87971 389.48777,211.02491 C 384.76179,214.24659 380.25865,216.15487 377.05027,218.55616 C 375.44608,219.75681 374.13099,221.11866 373.48777,222.93116 C 372.87796,224.64953 373.00791,226.66198 373.76902,228.86866 C 373.92141,230.17936 373.91205,231.18992 373.80027,231.80616 C 373.68849,232.4224 373.5111,232.52995 373.51902,232.52491 C 373.52694,232.51987 373.43574,232.60325 372.89402,232.43116 C 372.3523,232.25907 371.51692,231.80168 370.48777,231.05616 C 368.32733,229.49114 365.89753,227.51899 363.73777,226.14991 C 362.65789,225.46537 361.65342,224.92387 360.58152,224.68116 C 360.04557,224.55981 359.45269,224.48864 358.83152,224.68116 C 358.21035,224.87368 357.6469,225.38715 357.33152,225.96241 C 356.73411,227.05211 356.72416,228.171 356.76902,229.46241 C 356.81388,230.75382 356.99754,232.18836 357.20652,233.68116 C 357.62448,236.66677 358.16917,239.86891 358.11277,241.68116 C 358.0868,242.5155 357.85558,242.67268 357.92527,242.61866 C 357.99496,242.56464 357.96151,242.67993 357.42527,242.52491 C 356.3528,242.21488 354.23034,240.86337 351.92527,239.05616 C 349.5283,237.1769 347.414,235.64126 345.39402,235.05616 C 344.38403,234.76361 343.16693,234.71665 342.20652,235.46241 C 341.24611,236.20817 340.93251,237.39381 340.89402,238.68116 C 340.82136,241.11118 341.39201,244.29691 341.80027,247.21241 C 342.0044,248.67016 342.16943,250.03431 342.20652,251.11866 C 342.24361,252.20301 342.07821,253.00569 342.05027,253.05616 C 341.64469,253.78103 341.90352,254.69745 342.62839,255.10304 C 343.35327,255.50862 344.26969,255.24978 344.67527,254.52491 C 345.2783,253.43544 345.25067,252.31567 345.20652,251.02491 C 345.16237,249.73415 345.00935,248.26802 344.80027,246.77491 C 344.38211,243.7887 343.83966,240.59311 343.89402,238.77491 C 343.91904,237.93816 344.12082,237.78262 344.05027,237.83741 C 343.97972,237.8922 344.01368,237.77573 344.55027,237.93116 C 345.62344,238.24201 347.77621,239.59251 350.08152,241.39991 C 352.47874,243.27936 354.56207,244.81613 356.58152,245.39991 C 357.59124,245.6918 358.80901,245.73785 359.76902,244.99366 C 360.72903,244.24947 361.04151,243.06039 361.08152,241.77491 C 361.15706,239.34751 360.58343,236.19048 360.17527,233.27491 C 359.97119,231.81712 359.80674,230.42345 359.76902,229.33741 C 359.73497,228.35717 359.87383,227.7661 359.92527,227.58741 C 360.3351,227.68021 361.16223,228.07861 362.11277,228.68116 C 364.01384,229.88626 366.44222,231.85341 368.70652,233.49366 C 369.88973,234.35079 370.95233,234.94598 371.98777,235.27491 C 373.02321,235.60384 374.19363,235.66092 375.14402,235.05616 C 376.09441,234.4514 376.54126,233.42073 376.73777,232.33741 C 376.93428,231.25409 376.91074,230.01271 376.73777,228.52491 L 376.73777,228.33741 L 376.67527,228.14991 C 375.95703,226.23088 375.93275,224.96678 376.30027,223.93116 C 376.66779,222.89554 377.50994,221.97493 378.86277,220.96241 C 381.56842,218.93738 386.1838,216.89632 391.17527,213.49366 C 391.77541,213.11359 392.0267,212.36469 391.77727,211.69955 C 391.52785,211.03441 390.84609,210.6354 390.14402,210.74366 L 390.14402,210.74366 z" />
    <path
       style="font-size:12px;fill:#800080;fill-rule:evenodd;stroke-width:0.625;stroke-linejoin:round"
       id="path8143"
       d="M 373.28845,215.08937 L 393.61193,209.98736 L 381.43543,227.04044 C 381.62651,221.74276 378.32111,216.92611 373.28845,215.08937 z" />
  </g>
  <path
     d="m 502.67391,17.891302 c 8.1e-4,6.627994 -5.37201,12.001479 -12,12.001479 -6.628,0 -12.00082,-5.373485 -12,-12.001479 -8.2e-4,-6.627995 5.372,-12.0014789 12,-12.0014789 6.62799,0 12.00081,5.3734839 12,12.0014789 z"
     id="path8097"
     style="fill:url(#radialGradient2609);fill-opacity:1;fill-rule:nonzero;stroke:#000000;stroke-width:1;stroke-linecap:round;stroke-linejoin:miter;stroke-miterlimit:10;stroke-dasharray:none;stroke-dashoffset:0;stroke-opacity:1" />
  <text
     x="512.29059"
     y="24.324894"
     id="text8145"
     xml:space="preserve"
     style="font-style:normal;font-variant:normal;font-weight:normal;font-stretch:normal;font-size:18px;line-height:0%;font-family:'DejaVu Sans';-inkscape-font-specification:'DejaVu Sans';text-align:start;writing-mode:lr-tb;text-anchor:start;fill:#000000;fill-opacity:1;stroke:none;stroke-width:1px;stroke-linecap:butt;stroke-linejoin:miter;stroke-opacity:1"><tspan
       x="512.29059"
       y="24.324894"
       id="tspan8147">Neutrone</tspan></text>
  <path
     d="m 502.67391,80.51325 c 8.1e-4,6.627994 -5.37201,12.001479 -12,12.001479 -6.628,0 -12.00082,-5.373485 -12,-12.001479 -8.2e-4,-6.627995 5.372,-12.001479 12,-12.001479 6.62799,0 12.00081,5.373484 12,12.001479 z"
     id="path8101"
     style="fill:url(#radialGradient2602);fill-opacity:1;fill-rule:nonzero;stroke:#000000;stroke-width:1;stroke-linecap:round;stroke-linejoin:miter;stroke-miterlimit:10;stroke-dasharray:none;stroke-dashoffset:0;stroke-opacity:1" />
  <text
     x="512.29059"
     y="87.223701"
     id="text8149"
     xml:space="preserve"
     style="font-style:normal;font-variant:normal;font-weight:normal;font-stretch:normal;font-size:18px;line-height:0%;font-family:'DejaVu Sans';-inkscape-font-specification:'DejaVu Sans';text-align:start;writing-mode:lr-tb;text-anchor:start;fill:#000000;fill-opacity:1;stroke:none;stroke-width:1px;stroke-linecap:butt;stroke-linejoin:miter;stroke-opacity:1"><tspan
       x="512.29059"
       y="87.223701"
       id="tspan8151">Elettrone</tspan></text>
  <path
     d="m 502.67391,49.202276 c 8.1e-4,6.627994 -5.37201,12.001479 -12,12.001479 -6.628,0 -12.00082,-5.373485 -12,-12.001479 -8.2e-4,-6.627995 5.372,-12.001479 12,-12.001479 6.62799,0 12.00081,5.373484 12,12.001479 z"
     id="path8105"
     style="fill:url(#radialGradient2595);fill-opacity:1;fill-rule:nonzero;stroke:#000000;stroke-width:1;stroke-linecap:round;stroke-linejoin:miter;stroke-miterlimit:10;stroke-dasharray:none;stroke-dashoffset:0;stroke-opacity:1" />
  <text
     x="512.29059"
     y="55.635872"
     id="text8153"
     xml:space="preserve"
     style="font-style:normal;font-variant:normal;font-weight:normal;font-stretch:normal;font-size:18px;line-height:0%;font-family:'DejaVu Sans';-inkscape-font-specification:'DejaVu Sans';text-align:start;writing-mode:lr-tb;text-anchor:start;fill:#000000;fill-opacity:1;stroke:none;stroke-width:1px;stroke-linecap:butt;stroke-linejoin:miter;stroke-opacity:1"><tspan
       x="512.29059"
       y="55.635872"
       id="tspan8155">Protone</tspan></text>
  <path
     d="m 503.77685,112.58673 c 8.1e-4,6.62799 -5.37201,12.00148 -12,12.00148 -6.628,0 -12.00082,-5.37349 -12,-12.00148 -8.2e-4,-6.62799 5.372,-12.00148 12,-12.00148 6.62799,0 12.00081,5.37349 12,12.00148 z"
     id="path8117"
     style="fill:#ffffff;fill-opacity:1;fill-rule:nonzero;stroke:#000000;stroke-width:1;stroke-linecap:round;stroke-linejoin:miter;stroke-miterlimit:10;stroke-dasharray:none;stroke-dashoffset:0;stroke-opacity:1" />
  <text
     x="474.49274"
     y="113"
     id="text8157"
     xml:space="preserve"
     style="font-style:normal;font-variant:normal;font-weight:normal;font-stretch:normal;font-size:18px;line-height:125%;font-family:'DejaVu Sans';-inkscape-font-specification:'DejaVu Sans';text-align:start;writing-mode:lr-tb;text-anchor:start;fill:#000000;fill-opacity:1;stroke:none;stroke-width:1px;stroke-linecap:butt;stroke-linejoin:miter;stroke-opacity:1" />
  <text
     x="474.49274"
     y="113"
     xml:space="preserve"
     style="font-style:normal;font-variant:normal;font-weight:normal;font-stretch:normal;font-size:18px;line-height:0%;font-family:'DejaVu Sans';-inkscape-font-specification:'DejaVu Sans';text-align:start;writing-mode:lr-tb;text-anchor:start;fill:#000000;fill-opacity:1;stroke:none;stroke-width:1px;stroke-linecap:butt;stroke-linejoin:miter;stroke-opacity:1"
     id="text2695" />
  <text
     id="text2697"
     style="font-style:normal;font-variant:normal;font-weight:normal;font-stretch:normal;font-size:18px;line-height:0%;font-family:'DejaVu Sans';-inkscape-font-specification:'DejaVu Sans';text-align:start;writing-mode:lr-tb;text-anchor:start;white-space:pre;inline-size:79.1932;display:inline;fill:#000000;fill-opacity:1;stroke:none;stroke-width:1px;stroke-linecap:butt;stroke-linejoin:miter;stroke-opacity:1"
     xml:space="preserve"
     y="133"
     x="474.49274"
     transform="translate(38,-14.338235)"><tspan
       x="474.49274"
       y="133"
       id="tspan2">Lacuna</tspan></text>
  <text
     xml:space="preserve"
     id="text1"
     style="white-space:pre;shape-inside:url(#rect1);display:inline;fill:#0ff00f;fill-opacity:0.573643" />
  <text
     style="font-style:normal;font-variant:normal;font-weight:normal;font-stretch:normal;font-size:24px;line-height:0%;font-family:'DejaVu Sans';-inkscape-font-specification:'DejaVu Sans, Normal';font-variant-ligatures:normal;font-variant-caps:normal;font-variant-numeric:normal;font-variant-east-asian:normal;text-align:start;writing-mode:lr-tb;text-anchor:start;fill:#ff0000;fill-opacity:1;stroke:none;stroke-width:1px;stroke-linecap:butt;stroke-linejoin:miter;stroke-opacity:1"
     xml:space="preserve"
     id="text7548-6"
     y="444.9545"
     x="12.394301"><tspan
       sodipodi:role="line"
       id="tspan6-6"
       x="12.394301"
       y="444.9545">incidente</tspan></text>
  <path
     d="m 413.27941,308.66324 c 8.1e-4,6.62799 -5.37201,12.00148 -12,12.00148 -6.628,0 -12.00082,-5.37349 -12,-12.00148 -8.2e-4,-6.62799 5.372,-12.00148 12,-12.00148 6.62799,0 12.00081,5.37349 12,12.00148 z"
     id="path8117-8"
     style="fill:#ffffff;fill-opacity:1;fill-rule:nonzero;stroke:#000000;stroke-width:1;stroke-linecap:round;stroke-linejoin:miter;stroke-miterlimit:10;stroke-dasharray:none;stroke-dashoffset:0;stroke-opacity:1" />
  <path
     style="fill:none;fill-rule:evenodd;stroke:#000000;stroke-width:2.81814;stroke-linecap:butt;stroke-linejoin:miter;stroke-miterlimit:4;stroke-dasharray:5.63629, 2.81814;stroke-dashoffset:0;stroke-opacity:1;marker-end:url(#Arrow2Mend-4)"
     id="path8125-8"
     d="m 404.40245,311.41237 71.9905,27.74738" />
  <text
     x="420.28632"
     y="372.48459"
     id="text8149-4"
     xml:space="preserve"
     style="font-style:normal;font-variant:normal;font-weight:normal;font-stretch:normal;font-size:18px;line-height:0%;font-family:'DejaVu Sans';-inkscape-font-specification:'DejaVu Sans, Normal';font-variant-ligatures:normal;font-variant-caps:normal;font-variant-numeric:normal;font-variant-east-asian:normal;text-align:start;writing-mode:lr-tb;text-anchor:start;fill:#000000;fill-opacity:1;stroke:none;stroke-width:1px;stroke-linecap:butt;stroke-linejoin:miter;stroke-opacity:1"><tspan
       sodipodi:role="line"
       id="tspan7"
       x="420.28632"
       y="372.48459">Elettrone di Auger</tspan></text>
  <path
     d="m 509.01471,342.11913 c 8.1e-4,6.62799 -5.37201,12.00148 -12,12.00148 -6.628,0 -12.00082,-5.37349 -12,-12.00148 -8.2e-4,-6.628 5.372,-12.00148 12,-12.00148 6.62799,0 12.00081,5.37348 12,12.00148 z"
     id="path8101-3"
     style="fill:url(#radialGradient2602-2);fill-opacity:1;fill-rule:nonzero;stroke:#000000;stroke-width:1;stroke-linecap:round;stroke-linejoin:miter;stroke-miterlimit:10;stroke-dasharray:none;stroke-dashoffset:0;stroke-opacity:1" />
  <path
     style="fill:#021e02;fill-opacity:0;stroke:#ff0000;stroke-width:1.84602321;stroke-dasharray:3.6919622, 1.84602321;stroke-dashoffset:0;stroke-opacity:1"
     id="path11"
     sodipodi:type="arc"
     sodipodi:cx="-373.62924"
     sodipodi:cy="73.561523"
     sodipodi:rx="124.96599"
     sodipodi:ry="78.645142"
     sodipodi:start="0"
     sodipodi:end="6.2673763"
     sodipodi:arc-type="arc"
     d="M -248.66325,73.561523 A 124.96599,78.645142 0 0 1 -373.13535,152.20605 124.96599,78.645142 0 0 1 -498.59133,74.183168 124.96599,78.645142 0 0 1 -375.1109,-5.0780902 124.96599,78.645142 0 0 1 -248.67887,72.318274"
     sodipodi:open="true"
     transform="matrix(-0.87453672,-0.4849593,0.33200758,-0.94327672,0,0)"
     inkscape:transform-center-x="67.616455"
     inkscape:transform-center-y="-62.327034" />
  <text
     xml:space="preserve"
     style="font-style:normal;font-variant:normal;font-weight:normal;font-stretch:normal;font-size:18px;font-family:'DejaVu Sans';-inkscape-font-specification:'DejaVu Sans, Normal';font-variant-ligatures:normal;font-variant-caps:normal;font-variant-numeric:normal;font-variant-east-asian:normal;fill:#ff0000;fill-opacity:0.572549;stroke:#ff0000;stroke-width:1.333;stroke-dasharray:none;stroke-dashoffset:0;stroke-opacity:0.608856"
     x="463.23532"
     y="194.11765"
     id="text12"><tspan
       sodipodi:role="line"
       id="tspan12"
       x="463.23532"
       y="194.11765"
       style="fill:#ff0000;fill-opacity:1;stroke:#dc0000;stroke-width:1.333;stroke-dasharray:none;stroke-opacity:0">Emissione</tspan></text>
  <text
     xml:space="preserve"
     style="font-style:normal;font-variant:normal;font-weight:normal;font-stretch:normal;font-size:18px;font-family:'DejaVu Sans';-inkscape-font-specification:'DejaVu Sans, Normal';font-variant-ligatures:normal;font-variant-caps:normal;font-variant-numeric:normal;font-variant-east-asian:normal;fill:#ff0000;fill-opacity:0.545098;stroke:#ff0000;stroke-width:1.333;stroke-dasharray:none;stroke-dashoffset:0;stroke-opacity:0"
     x="465.02945"
     y="213.07353"
     id="text13"><tspan
       sodipodi:role="line"
       id="tspan13"
       x="465.02945"
       y="213.07353"
       style="fill:#ff0000;fill-opacity:1">di raggi X</tspan></text>
</svg>
