<?xml version="1.0" encoding="UTF-8" standalone="no"?>
<svg
   preserveAspectRatio="xMidYMid"
   version="1.1"
   viewBox="205.74 66.36 120.65 91.022"
   id="svg31"
   sodipodi:docname="nucleotide.svg"
   inkscape:export-filename="nucleotide.pdf"
   inkscape:export-xdpi="98.145172"
   inkscape:export-ydpi="98.145172"
   width="120.65"
   height="91.022003"
   inkscape:version="1.3.2 (091e20e, 2023-11-25, custom)"
   xmlns:inkscape="http://www.inkscape.org/namespaces/inkscape"
   xmlns:sodipodi="http://sodipodi.sourceforge.net/DTD/sodipodi-0.dtd"
   xmlns="http://www.w3.org/2000/svg"
   xmlns:svg="http://www.w3.org/2000/svg"
   xmlns:rdf="http://www.w3.org/1999/02/22-rdf-syntax-ns#"
   xmlns:cc="http://creativecommons.org/ns#"
   xmlns:dc="http://purl.org/dc/elements/1.1/">
  <defs
     id="defs31" />
  <sodipodi:namedview
     id="namedview31"
     pagecolor="#ffffff"
     bordercolor="#000000"
     borderopacity="0.25"
     inkscape:showpageshadow="2"
     inkscape:pageopacity="0.0"
     inkscape:pagecheckerboard="0"
     inkscape:deskcolor="#d1d1d1"
     inkscape:zoom="4.5420638"
     inkscape:cx="60.325001"
     inkscape:cy="45.463915"
     inkscape:window-width="1366"
     inkscape:window-height="713"
     inkscape:window-x="-8"
     inkscape:window-y="-8"
     inkscape:window-maximized="1"
     inkscape:current-layer="svg31" />
  <metadata
     id="metadata1">
    <rdf:RDF>
      <cc:Work
         rdf:about="">
        <dc:format>image/svg+xml</dc:format>
        <dc:type
           rdf:resource="http://purl.org/dc/dcmitype/StillImage" />
      </cc:Work>
    </rdf:RDF>
  </metadata>
  <clipPath
     id="a">
    <rect
       x="0.30000001"
       y="0.30000001"
       width="539.40002"
       height="719.15002"
       id="rect1" />
  </clipPath>
  <g
     transform="translate(0.52,-0.0276)"
     clip-path="url(#a)"
     id="g30">
    <path
       d="m 266.3,120.21 q 0,-1.604 0.86,-2.51 0.863,-0.91 2.225,-0.91 0.892,0 1.608,0.428 0.717,0.426 1.09,1.19 0.378,0.76 0.378,1.728 0,0.98 -0.39,1.753 -0.39,0.77 -1.12,1.17 -0.72,0.39 -1.56,0.39 -0.91,0 -1.62,-0.44 -0.717,-0.44 -1.086,-1.2 -0.37,-0.76 -0.37,-1.61 z m 0.88,0.013 q 0,1.165 0.623,1.837 0.628,0.668 1.573,0.668 0.963,0 1.582,-0.676 0.624,-0.677 0.624,-1.92 0,-0.787 -0.268,-1.372 -0.263,-0.59 -0.778,-0.91 -0.51,-0.325 -1.147,-0.325 -0.91,0 -1.56,0.624 -0.65,0.62 -0.65,2.07 z"
       id="path1" />
    <path
       d="m 255.39,127.14 -0.46,-0.11 0.3,-0.48 9.61,-4.8 0.14,0.27 0.13,0.27 z m 18.3,-4.8 0.13,-0.27 0.14,-0.27 9.46,4.74 0.3,0.49 -0.46,0.11 z"
       fill-rule="evenodd"
       shape-rendering="geometricPrecision"
       stroke-width="0"
       id="path2" />
    <path
       d="m 266.25,156.3 v -6.442 h 0.852 v 2.645 h 3.35 v -2.645 h 0.85 v 6.442 h -0.85 v -3.037 h -3.35 v 3.037 z m -7.18,-3.14 c 0,-1.069 0.287,-1.906 0.86,-2.51 0.575,-0.607 1.317,-0.91 2.225,-0.91 0.595,0 1.131,0.143 1.608,0.428 0.478,0.284 0.841,0.681 1.09,1.19 0.252,0.507 0.378,1.083 0.378,1.728 0,0.653 -0.13,1.238 -0.39,1.753 -0.26,0.513 -0.633,0.903 -1.12,1.17 -0.48,0.26 -1,0.39 -1.56,0.39 -0.607,0 -1.147,-0.147 -1.62,-0.44 -0.478,-0.293 -0.84,-0.693 -1.086,-1.2 -0.247,-0.507 -0.37,-1.043 -0.37,-1.61 z m 0.88,0.013 c 0,0.777 0.208,1.389 0.623,1.837 0.419,0.445 0.943,0.668 1.573,0.668 0.642,0 1.169,-0.225 1.582,-0.676 0.416,-0.451 0.624,-1.091 0.624,-1.92 0,-0.525 -0.089,-0.982 -0.268,-1.372 -0.176,-0.393 -0.435,-0.697 -0.778,-0.91 -0.34,-0.217 -0.722,-0.325 -1.147,-0.325 -0.607,0 -1.127,0.208 -1.56,0.624 -0.433,0.413 -0.65,1.103 -0.65,2.07 z m 21.21,-38.893 v -6.442 h 0.874 l 3.384,5.058 v -5.058 h 0.817 v 6.442 h -0.874 l -3.38,-5.063 v 5.063 z"
       id="path3" />
    <path
       d="m 284.02,127.1 -0.3,-0.07 -0.3,-0.49 v -10.65 h 0.6 z m -28.79,-0.55 -0.3,0.48 -0.3,0.07 v -14.3 l 0.6,-0.34 z"
       fill-rule="evenodd"
       shape-rendering="geometricPrecision"
       stroke-width="0"
       id="path4" />
    <path
       d="m 239.38,105.81 q 0,-1.604 0.86,-2.51 0.863,-0.91 2.225,-0.91 0.892,0 1.608,0.428 0.717,0.426 1.09,1.19 0.378,0.76 0.378,1.728 0,0.98 -0.39,1.753 -0.39,0.77 -1.12,1.17 -0.72,0.39 -1.56,0.39 -0.91,0 -1.62,-0.44 -0.717,-0.44 -1.086,-1.2 -0.37,-0.76 -0.37,-1.61 z m 0.88,0.013 q 0,1.165 0.623,1.837 0.628,0.668 1.573,0.668 0.963,0 1.582,-0.676 0.624,-0.677 0.624,-1.92 0,-0.787 -0.268,-1.372 -0.263,-0.59 -0.778,-0.91 -0.51,-0.325 -1.147,-0.325 -0.91,0 -1.56,0.624 -0.65,0.62 -0.65,2.07 z"
       id="path5" />
    <path
       d="m 255.23,112.46 -0.6,0.34 -7.9,-4.56 0.3,-0.52 z"
       fill-rule="evenodd"
       shape-rendering="geometricPrecision"
       stroke-width="0"
       id="path6" />
    <path
       d="m 225.74,108.95 v -6.442 h 2.43 q 0.642,0 0.98,0.06 0.475,0.08 0.796,0.304 0.32,0.22 0.514,0.62 0.198,0.4 0.198,0.88 0,0.82 -0.523,1.392 -0.523,0.567 -1.89,0.567 h -1.652 v 2.62 z m 0.853,-3.38 h 1.665 q 0.827,0 1.174,-0.307 0.347,-0.307 0.347,-0.866 0,-0.404 -0.21,-0.69 -0.2,-0.29 -0.54,-0.382 -0.22,-0.057 -0.8,-0.057 h -1.65 z"
       id="path7" />
    <path
       d="m 237.81,105.13 v 0.6 h -5.72 v -0.6 z"
       fill-rule="evenodd"
       shape-rendering="geometricPrecision"
       stroke-width="0"
       id="path8" />
    <path
       d="m 224.98,91.412 q 0,-1.604 0.86,-2.51 0.863,-0.91 2.225,-0.91 0.892,0 1.608,0.427 0.717,0.42 1.09,1.19 0.378,0.76 0.378,1.72 0,0.98 -0.39,1.75 -0.39,0.77 -1.12,1.17 -0.72,0.396 -1.56,0.396 -0.91,0 -1.62,-0.44 -0.717,-0.44 -1.086,-1.2 -0.37,-0.76 -0.37,-1.61 z m 0.88,0.013 q 0,1.165 0.623,1.837 0.628,0.668 1.573,0.668 0.963,0 1.582,-0.677 0.624,-0.676 0.624,-1.92 0,-0.787 -0.268,-1.37 -0.263,-0.59 -0.778,-0.91 -0.51,-0.326 -1.147,-0.326 -0.91,0 -1.56,0.624 -0.65,0.62 -0.65,2.08 z"
       id="path9" />
    <path
       d="m 228.97,101.01 h 0.6 v -4.72 h -0.6 z m -2.44,0 h 0.6 v -4.72 h -0.6 z"
       fill-rule="evenodd"
       shape-rendering="geometricPrecision"
       stroke-width="0"
       id="path10" />
    <path
       d="m 224.98,120.21 q 0,-1.604 0.86,-2.51 0.863,-0.91 2.225,-0.91 0.892,0 1.608,0.428 0.717,0.426 1.09,1.19 0.378,0.76 0.378,1.728 0,0.98 -0.39,1.753 -0.39,0.77 -1.12,1.17 -0.72,0.39 -1.56,0.39 -0.91,0 -1.62,-0.44 -0.717,-0.44 -1.086,-1.2 -0.37,-0.76 -0.37,-1.61 z m 0.88,0.013 q 0,1.165 0.623,1.837 0.628,0.668 1.573,0.668 0.963,0 1.582,-0.676 0.624,-0.677 0.624,-1.92 0,-0.787 -0.268,-1.372 -0.263,-0.59 -0.778,-0.91 -0.51,-0.325 -1.147,-0.325 -0.91,0 -1.56,0.624 -0.65,0.62 -0.65,2.07 z"
       id="path11" />
    <path
       d="m 227.75,110.59 h 0.6 v 4.62 h -0.6 z"
       fill-rule="evenodd"
       shape-rendering="geometricPrecision"
       stroke-width="0"
       id="path12" />
    <path
       d="m 210.58,105.81 q 0,-1.604 0.86,-2.51 0.863,-0.91 2.225,-0.91 0.892,0 1.608,0.428 0.717,0.426 1.09,1.19 0.378,0.76 0.378,1.728 0,0.98 -0.39,1.753 -0.39,0.77 -1.12,1.17 -0.72,0.39 -1.56,0.39 -0.91,0 -1.62,-0.44 -0.717,-0.44 -1.086,-1.2 -0.37,-0.76 -0.37,-1.61 z m 0.88,0.013 q 0,1.165 0.623,1.837 0.628,0.668 1.573,0.668 0.963,0 1.582,-0.676 0.624,-0.677 0.624,-1.92 0,-0.787 -0.268,-1.372 -0.263,-0.59 -0.778,-0.91 -0.51,-0.325 -1.147,-0.325 -0.91,0 -1.56,0.624 -0.65,0.62 -0.65,2.07 z"
       id="path13" />
    <path
       d="m 224.21,105.13 v 0.6 h -5.82 v -0.6 z"
       fill-rule="evenodd"
       shape-rendering="geometricPrecision"
       stroke-width="0"
       id="path14" />
    <path
       d="m 231.9,118.13 h 3.6 M 206.22,103.5 h 3.6"
       stroke="#000000"
       stroke-width="0.48"
       id="path15" />
    <path
       d="m 281.16,90.98 v -6.442 h 0.874 l 3.384,5.058 v -5.058 h 0.817 v 6.442 h -0.874 l -3.38,-5.063 v 5.063 z"
       id="path16" />
    <path
       d="m 287.9,109.71 -0.09,-0.29 -0.09,-0.28 9.4,-3.06 0.3,0.22 -0.03,0.33 z"
       fill-rule="evenodd"
       shape-rendering="geometricPrecision"
       stroke-width="0"
       id="path17" />
    <path
       d="m 297.72,106.13 -0.3,0.17 -0.3,-0.22 V 92.12 l 0.3,-0.22 0.3,0.17 z"
       fill-rule="evenodd"
       shape-rendering="geometricPrecision"
       stroke-width="0"
       id="path18" />
    <path
       d="M 300.01,104.8 V 93.4"
       stroke="#000000"
       stroke-width="0.6"
       id="path19" />
    <path
       d="m 297.39,91.57 0.03,0.33 -0.3,0.22 -9.39,-3.05 0.09,-0.29 0.09,-0.28 z m -17.37,0.47 0.24,0.17 0.24,0.18 -4.87,6.71 h -0.74 z"
       fill-rule="evenodd"
       shape-rendering="geometricPrecision"
       stroke-width="0"
       id="path20" />
    <path
       d="m 282.31,93.66 -4.03,5.54"
       stroke="#000000"
       stroke-width="0.6"
       id="path21" />
    <path
       d="m 274.89,99.1 h 0.74 l 5.33,7.34 -0.24,0.17 -0.25,0.18 z"
       fill-rule="evenodd"
       shape-rendering="geometricPrecision"
       stroke-width="0"
       id="path22" />
    <path
       d="m 307.33,117.03 v -6.442 h 0.874 l 3.384,5.058 v -5.058 h 0.817 v 6.442 h -0.874 l -3.38,-5.063 v 5.063 z m 12.47,-21.6 v -6.442 h 0.874 l 3.384,5.058 v -5.058 h 0.817 V 95.43 H 324 l -3.383,-5.063 v 5.063 z"
       id="path23" />
    <path
       d="m 297.39,106.63 0.03,-0.33 0.3,-0.17 8.44,4.87 -0.3,0.52 z m 16.55,4.88 -0.3,-0.52 8.42,-4.86 0.6,0.34 z"
       fill-rule="evenodd"
       shape-rendering="geometricPrecision"
       stroke-width="0"
       id="path24" />
    <path
       d="m 312.58,109.11 7.56,-4.37"
       stroke="#000000"
       stroke-width="0.6"
       id="path25" />
    <path
       d="m 322.66,106.47 -0.6,-0.34 V 97.1 h 0.6 z m -4.1,-17.11 -0.3,0.52 -8.37,-4.83 V 84.7 l 0.3,-0.17 z"
       fill-rule="evenodd"
       shape-rendering="geometricPrecision"
       stroke-width="0"
       id="path26" />
    <path
       d="m 317.21,91.76 -7.52,-4.34"
       stroke="#000000"
       stroke-width="0.6"
       id="path27" />
    <path
       d="m 309.59,84.53 0.3,0.17 v 0.35 l -12.17,7.02 -0.3,-0.17 -0.03,-0.33 z"
       fill-rule="evenodd"
       shape-rendering="geometricPrecision"
       stroke-width="0"
       id="path28" />
    <path
       d="m 307.33,73.83 v -6.442 h 0.874 l 3.384,5.058 v -5.058 h 0.817 v 6.442 h -0.874 l -3.38,-5.063 v 5.063 z m 6.53,0 v -6.442 h 0.852 v 2.645 h 3.35 v -2.645 h 0.85 v 6.442 h -0.85 v -3.037 h -3.35 v 3.037 z m 9.19,1.47 v 0.57 h -3.194 q -0.006,-0.214 0.07,-0.412 0.12,-0.326 0.388,-0.643 0.27,-0.316 0.778,-0.73 0.788,-0.647 1.065,-1.023 0.277,-0.38 0.277,-0.715 0,-0.353 -0.254,-0.593 -0.25,-0.244 -0.656,-0.244 -0.43,0 -0.686,0.257 -0.256,0.257 -0.26,0.712 l -0.61,-0.07 q 0.063,-0.68 0.472,-1.04 0.408,-0.36 1.097,-0.36 0.696,0 1.1,0.38 0.406,0.386 0.406,0.956 0,0.29 -0.118,0.57 -0.12,0.28 -0.396,0.59 -0.28,0.31 -0.92,0.85 -0.54,0.45 -0.69,0.61 -0.15,0.157 -0.25,0.32 z"
       id="path29" />
    <path
       d="m 310.19,84.53 -0.3,0.17 -0.3,-0.17 V 75.6 h 0.6 z"
       fill-rule="evenodd"
       shape-rendering="geometricPrecision"
       stroke-width="0"
       id="path30" />
  </g>
  <path
     d="m 255.45,127 -0.3,0.07 7.2,12.78 v 8.33 h 0.6 v -8.82 l 15.26,-0.01 6.33,-12.28 -0.3,-0.07 -0.46,0.11 -7.86,10.24 h -12.15 l -7.86,-10.24 z"
     fill-rule="evenodd"
     shape-rendering="geometricPrecision"
     stroke-width="0"
     id="path31" />
</svg>
