<?xml version="1.0" encoding="UTF-8" standalone="no"?>
<!-- Created with Inkscape (http://www.inkscape.org/) -->

<svg
   width="210mm"
   height="297mm"
   viewBox="0 0 210 297"
   version="1.1"
   id="svg1"
   inkscape:version="1.3.2 (091e20e, 2023-11-25, custom)"
   sodipodi:docname="sobp.svg"
   inkscape:export-filename="sobp.pdf"
   inkscape:export-xdpi="74.291718"
   inkscape:export-ydpi="74.291718"
   xmlns:inkscape="http://www.inkscape.org/namespaces/inkscape"
   xmlns:sodipodi="http://sodipodi.sourceforge.net/DTD/sodipodi-0.dtd"
   xmlns="http://www.w3.org/2000/svg"
   xmlns:svg="http://www.w3.org/2000/svg">
  <sodipodi:namedview
     id="namedview1"
     pagecolor="#ffffff"
     bordercolor="#000000"
     borderopacity="0.25"
     inkscape:showpageshadow="2"
     inkscape:pageopacity="0.0"
     inkscape:pagecheckerboard="0"
     inkscape:deskcolor="#d1d1d1"
     inkscape:document-units="mm"
     inkscape:zoom="1.3808221"
     inkscape:cx="-18.105156"
     inkscape:cy="246.59223"
     inkscape:window-width="1280"
     inkscape:window-height="971"
     inkscape:window-x="1358"
     inkscape:window-y="-8"
     inkscape:window-maximized="1"
     inkscape:current-layer="layer1" />
  <defs
     id="defs1">
    <clipPath
       clipPathUnits="userSpaceOnUse"
       id="clipPath45">
      <path
         d="M 467.479,494.088 H 291.443 v -170.72 h 176.036 z"
         transform="matrix(0.005669,0,0,-0.0058537,-1.6518555,2.892526)"
         id="path45" />
    </clipPath>
  </defs>
  <g
     inkscape:label="Livello 1"
     inkscape:groupmode="layer"
     id="layer1">
    <g
       id="group-MC0"
       transform="matrix(0.26458333,0,0,0.26458333,-89.356535,-17.086452)">
      <g
         id="group-MC1">
        <path
           id="path19"
           d="M 291.989,523.184 H 468.19 V 640.63 H 291.989 Z"
           style="fill:#f0efef;fill-opacity:1;fill-rule:nonzero;stroke:none"
           transform="matrix(1.3333333,0,0,-1.3333333,0,929.764)" />
        <path
           id="path20"
           d="M 0,0 V -117.446 H 176.201"
           style="fill:none;stroke:#231f20;stroke-width:1;stroke-linecap:butt;stroke-linejoin:miter;stroke-miterlimit:4;stroke-dasharray:none;stroke-opacity:1"
           transform="matrix(1.3333333,0,0,-1.3333333,389.31866,75.59066)" />
        <path
           id="path21"
           d="M 0,0 H 4.988"
           style="fill:none;stroke:#231f20;stroke-width:0.35;stroke-linecap:butt;stroke-linejoin:miter;stroke-miterlimit:4;stroke-dasharray:none;stroke-opacity:1"
           transform="matrix(1.3333333,0,0,-1.3333333,382.66801,231.692)" />
        <path
           id="path22"
           d="M 0,0 H 4.988"
           style="fill:none;stroke:#231f20;stroke-width:0.35;stroke-linecap:butt;stroke-linejoin:miter;stroke-miterlimit:4;stroke-dasharray:none;stroke-opacity:1"
           transform="matrix(1.3333333,0,0,-1.3333333,382.66801,203.28534)" />
        <path
           id="path23"
           d="M 0,0 H 4.988"
           style="fill:none;stroke:#231f20;stroke-width:0.35;stroke-linecap:butt;stroke-linejoin:miter;stroke-miterlimit:4;stroke-dasharray:none;stroke-opacity:1"
           transform="matrix(1.3333333,0,0,-1.3333333,382.66801,174.876)" />
        <path
           id="path24"
           d="M 0,0 H 4.988"
           style="fill:none;stroke:#231f20;stroke-width:0.35;stroke-linecap:butt;stroke-linejoin:miter;stroke-miterlimit:4;stroke-dasharray:none;stroke-opacity:1"
           transform="matrix(1.3333333,0,0,-1.3333333,382.66801,146.46666)" />
        <path
           id="path25"
           d="M 0,0 H 4.988"
           style="fill:none;stroke:#231f20;stroke-width:0.35;stroke-linecap:butt;stroke-linejoin:miter;stroke-miterlimit:4;stroke-dasharray:none;stroke-opacity:1"
           transform="matrix(1.3333333,0,0,-1.3333333,382.66801,118.05866)" />
        <path
           id="path26"
           d="M 0,0 H 4.988"
           style="fill:none;stroke:#231f20;stroke-width:0.35;stroke-linecap:butt;stroke-linejoin:miter;stroke-miterlimit:4;stroke-dasharray:none;stroke-opacity:1"
           transform="matrix(1.3333333,0,0,-1.3333333,382.66801,89.649335)" />
        <path
           id="path27"
           d="M 0,0 V 4.988"
           style="fill:none;stroke:#231f20;stroke-width:0.35;stroke-linecap:butt;stroke-linejoin:miter;stroke-miterlimit:4;stroke-dasharray:none;stroke-opacity:1"
           transform="matrix(1.3333333,0,0,-1.3333333,389.6,238.836)" />
        <path
           id="path28"
           d="M 0,0 V 4.988"
           style="fill:none;stroke:#231f20;stroke-width:0.35;stroke-linecap:butt;stroke-linejoin:miter;stroke-miterlimit:4;stroke-dasharray:none;stroke-opacity:1"
           transform="matrix(1.3333333,0,0,-1.3333333,436.53066,238.836)" />
        <path
           id="path29"
           d="M 0,0 V 4.988"
           style="fill:none;stroke:#231f20;stroke-width:0.35;stroke-linecap:butt;stroke-linejoin:miter;stroke-miterlimit:4;stroke-dasharray:none;stroke-opacity:1"
           transform="matrix(1.3333333,0,0,-1.3333333,483.46267,238.836)" />
        <path
           id="path30"
           d="M 0,0 V 4.988"
           style="fill:none;stroke:#231f20;stroke-width:0.35;stroke-linecap:butt;stroke-linejoin:miter;stroke-miterlimit:4;stroke-dasharray:none;stroke-opacity:1"
           transform="matrix(1.3333333,0,0,-1.3333333,530.39333,238.836)" />
        <path
           id="path31"
           d="M 0,0 V 4.988"
           style="fill:none;stroke:#231f20;stroke-width:0.35;stroke-linecap:butt;stroke-linejoin:miter;stroke-miterlimit:4;stroke-dasharray:none;stroke-opacity:1"
           transform="matrix(1.3333333,0,0,-1.3333333,577.32399,238.836)" />
        <path
           id="path32"
           d="M 0,0 V 4.988"
           style="fill:none;stroke:#231f20;stroke-width:0.35;stroke-linecap:butt;stroke-linejoin:miter;stroke-miterlimit:4;stroke-dasharray:none;stroke-opacity:1"
           transform="matrix(1.3333333,0,0,-1.3333333,624.25466,238.836)" />
        <path
           id="path33"
           d="m 0,0 c 24.017,3.222 51.256,8.786 70.585,18.451 19.33,9.665 24.309,20.502 28.702,28.41 4.394,7.908 4.847,7.429 7.013,7.429 2.166,0 2.999,-2.834 7.666,-1 1.748,0.686 3.596,0.873 5.305,0.182 2.202,-0.888 2.943,-0.049 5.009,0.059 1.685,0.088 3.126,-1.434 4.843,-0.947 0.936,0.264 1.458,1.216 2.324,1.511 1.404,0.482 2.643,-0.548 4.044,-0.668 2.239,-0.188 4.512,1.062 6.188,-1.033 0.452,-0.564 0.618,-1.184 0.808,-1.877 1.386,-5.073 1.851,-13.769 3.053,-29.726 2.398,-31.819 2.426,-73.803 9.593,-73.803"
           style="fill:none;stroke:#231f20;stroke-width:1;stroke-linecap:butt;stroke-linejoin:miter;stroke-miterlimit:4;stroke-dasharray:none;stroke-opacity:1"
           transform="matrix(1.3333333,0,0,-1.3333333,389.31866,161.50267)" />
        <path
           id="path34"
           d="m 0,0 c -3,0 -3.656,4.215 -7,18.136 -2.546,10.599 -3.56,13.964 -5.31,13.964 -1.75,0 -5.94,-19.714 -33.94,-23.964 -28,-4.25 -67.517,-4.25 -101.883,-4.25 M -7.13,0 c -2.847,0 -3.637,4.764 -5.823,13.838 -2.424,10.057 -3.371,9.647 -5.033,9.647 -1.661,0 -8.485,-12.179 -33.422,-15.127 C -79.503,5.037 -115.507,4.54 -148.133,4.54 M -11.167,0 c -2.848,0 -5.979,2.561 -8.166,11.634 -2.424,10.058 -2.909,8.572 -4.571,8.572 -1.661,0 -8.096,-8.546 -27.504,-10.87 -28.09,-3.366 -64.099,-4.034 -96.725,-4.034 M -17.333,0 c -2.72,0 -5.22,3.688 -7.799,12.634 -1.657,5.751 -2.777,6.168 -4.365,6.168 -1.586,0 -5.594,-6.142 -24.128,-8.466 C -80.45,6.97 -116.976,6.141 -148.133,6.141 M -24.166,0 c -2.557,0 -4.968,3.567 -7.026,9.461 -1.965,5.623 -2.981,7.34 -4.474,7.34 -1.491,0 -4.776,-3.774 -22.2,-6.098 -25.219,-3.365 -60.975,-3.562 -90.267,-3.562 M -30.5,0 c -2.557,0 -4.968,3.567 -7.026,9.461 -1.965,5.623 -2.981,5.673 -4.474,5.673 -1.491,0 -7.683,-2.394 -15.866,-3.432 -26.104,-3.31 -60.975,-3.561 -90.267,-3.561 M -36.625,0 c -2.557,0 -4.094,2.874 -6.152,8.767 -1.965,5.623 -2.9,6.92 -5.492,5.821 -1.374,-0.582 -3.983,-0.939 -9.597,-1.886 -25.947,-4.377 -60.975,-3.561 -90.267,-3.561"
           style="fill:none;stroke:#231f20;stroke-width:0.5;stroke-linecap:butt;stroke-linejoin:miter;stroke-miterlimit:4;stroke-dasharray:2, 1.5;stroke-dashoffset:0;stroke-opacity:1"
           transform="matrix(1.3333333,0,0,-1.3333333,586.82933,232.18533)" />
        <path
           id="path35"
           d="m 0,0 c 0,-8.561 -7.683,-15.5 -17.161,-15.5 -9.477,0 -17.161,6.939 -17.161,15.5 0,8.56 7.684,15.5 17.161,15.5 C -7.683,15.5 0,8.56 0,0"
           style="fill:#bdbcbc;fill-opacity:1;fill-rule:nonzero;stroke:none"
           transform="matrix(1.3333333,0,0,-1.3333333,571.71067,139.33732)" />
        <path
           id="path36"
           d="m 0,0 c -7.167,0 -7.195,41.983 -9.593,73.803 -1.202,15.957 -1.372,24.743 -3.053,29.726 -1.808,5.356 -2.104,-1.393 -4.104,-12.143 -2,-10.75 -3.25,-32 -23,-46 -19.75,-14 -47.5,-16.25 -116.383,-22.25"
           style="fill:none;stroke:#231f20;stroke-width:0.5;stroke-linecap:butt;stroke-linejoin:miter;stroke-miterlimit:4;stroke-dasharray:2, 1.5;stroke-dashoffset:0;stroke-opacity:1"
           transform="matrix(1.3333333,0,0,-1.3333333,597.49599,232.18533)" />
        <path
           id="path37"
           d="M 0.64518906,-6.359375e-4 H 2.9420641 c 1.8984375,0 2.4492187,-1.6640624625 2.4492187,-2.9531249625 0,-1.6523438 -0.9140625,-2.7890625 -2.4140625,-2.7890625 H 0.64518906 Z M 1.4303453,-5.0865734 h 1.4414063 c 1.0546875,0 1.7226562,0.7265625 1.7226562,2.1796875 0,1.453125 -0.65625,2.23828121 -1.6640625,2.23828121 h -1.5 z m 7.7197266,3.7734375 c -0.035156,0.31640621 -0.421875,0.82031246 -1.0898438,0.82031246 -0.8085937,0 -1.2070312,-0.50390625 -1.2070312,-1.37109376 h 3.046875 c 0,-1.4765625 -0.5859375,-2.4375 -1.7929688,-2.4375 -1.3828125,0 -2.015625,1.03125 -2.015625,2.3203125 0,1.20703126 0.703125,2.09765626 1.875,2.09765626 0.6796875,0 0.9492188,-0.15234375 1.1367188,-0.28125 0.5273437,-0.3515625 0.7265625,-0.94921876 0.75,-1.14843746 z m -2.296875,-1.1132813 c 0,-0.6445312 0.5039062,-1.2421875 1.1601562,-1.2421875 0.8554688,0 1.125,0.5976563 1.1601563,1.2421875 z m 4.5087891,0.5273438 c 0,-0.6796875 0.117187,-1.7695313 1.125,-1.7695313 1.089844,0 1.148437,1.03125 1.148437,1.5585938 0,0.9257812 -0.363281,1.61718746 -1.125,1.61718746 -0.457031,0 -1.148437,-0.29296875 -1.148437,-1.40624996 z m -0.667969,3.5507812 h 0.703125 v -2.09765624 h 0.01172 c 0.1875,0.3046875 0.550781,0.5625 1.113281,0.5625 1.429688,0 1.839844,-1.33593746 1.839844,-2.33203126 0,-1.1835937 -0.632813,-2.0859375 -1.746094,-2.0859375 -0.761719,0 -1.078125,0.46875 -1.242187,0.703125 h -0.02344 v -0.5859375 h -0.65625 z m 6.041016,-5.25 v -0.5859375 h -0.679688 v -1.171875 H 15.35222 v 1.171875 h -0.5625 v 0.5859375 h 0.5625 v 2.75390626 c 0,0.50390625 0.152344,0.90234375 0.84375,0.90234375 0.08203,0 0.28125,-0.03515625 0.539063,-0.0585937475 V -0.55141719 H 16.47722 c -0.140625,0 -0.421875,0 -0.421875,-0.328125 V -3.5982922 Z m 4.086914,0.75 c 0,-1.1953125 -0.808594,-1.453125 -1.464844,-1.453125 -0.667969,0 -1.019531,0.4101563 -1.21875,0.6796875 h -0.02344 v -2.1210937 h -0.703125 v 5.7421874625 h 0.703125 V -2.2857922 c 0,-1.0546875 0.597656,-1.3828125 1.171875,-1.3828125 0.679687,0 0.832031,0.3632813 0.832031,0.9257813 v 2.7421874625 h 0.703125 z m 3.987305,-1.3359375 h -0.703125 v 4.1835937625 h 0.703125 z m 0,-0.7617187 v -0.796875 h -0.703125 v 0.796875 z m 4.461914,2.0976562 c 0,-1.1953125 -0.808594,-1.453125 -1.464844,-1.453125 -0.714844,0 -1.113281,0.4804688 -1.265625,0.703125 h -0.01172 v -0.5859375 h -0.667969 v 4.1835937625 h 0.703125 V -2.2857922 c 0,-1.1367187 0.714844,-1.3828125 1.113282,-1.3828125 0.679687,0 0.890625,0.3632813 0.890625,1.0898438 v 2.5781249625 h 0.703125 z m 5.616211,-0.3984375 h 0.01172 l 0.84375,3.2460937625 H 36.46941 L 37.688158,-4.1842297 h -0.703125 l -0.84375,3.29296876 h -0.02344 L 35.309252,-4.1842297 h -0.785157 l -0.808593,3.29296876 h -0.02344 L 32.895189,-4.1842297 H 32.13347 l 1.207032,4.1835937625 h 0.726562 z m 3.93164,0.328125 c 0.04687,-0.3164062 0.152344,-0.8085937 0.960938,-0.8085937 0.65625,0 0.984375,0.2460937 0.984375,0.6796875 0,0.421875 -0.199219,0.4804687 -0.375,0.5039062 l -1.160157,0.140625 c -1.171875,0.140625 -1.265625,0.9609375 -1.265625,1.3125 0,0.72656251 0.539063,1.20703126 1.3125,1.20703126 0.808594,0 1.230469,-0.38671875 1.511719,-0.6796875 0.02344,0.328125 0.117188,0.64453125 0.738281,0.64453125 0.164063,0 0.269532,-0.046875 0.386719,-0.0820312475 V -0.51626094 c -0.08203,0.0234375 -0.164062,0.0351563 -0.234375,0.0351563 -0.140625,0 -0.234375,-0.0703125 -0.234375,-0.24609375 V -3.1412609 c 0,-1.0664063 -1.207031,-1.1601563 -1.546875,-1.1601563 -1.03125,0 -1.699219,0.3867188 -1.734375,1.3828125 z m 1.921875,1.4648438 c 0,0.56249996 -0.632812,0.98437496 -1.289062,0.98437496 -0.527344,0 -0.761719,-0.26953125 -0.761719,-0.72656246 0,-0.5273438 0.550781,-0.6328125 0.890625,-0.6796875 0.878906,-0.1054688 1.054687,-0.1757813 1.160156,-0.2578125 z m 3.442383,-2.1445313 v -0.5859375 h -0.679687 v -1.171875 h -0.703125 v 1.171875 h -0.5625 v 0.5859375 h 0.5625 v 2.75390626 c 0,0.50390625 0.152343,0.90234375 0.84375,0.90234375 0.08203,0 0.28125,-0.03515625 0.539062,-0.0585937475 V -0.55141719 h -0.257812 c -0.140625,0 -0.421875,0 -0.421875,-0.328125 V -3.5982922 Z m 3.536133,2.2851563 c -0.03516,0.31640621 -0.421875,0.82031246 -1.089844,0.82031246 -0.808594,0 -1.207031,-0.50390625 -1.207031,-1.37109376 h 3.046875 c 0,-1.4765625 -0.585938,-2.4375 -1.792969,-2.4375 -1.382812,0 -2.015625,1.03125 -2.015625,2.3203125 0,1.20703126 0.703125,2.09765626 1.875,2.09765626 0.679688,0 0.949219,-0.15234375 1.136719,-0.28125 0.527344,-0.3515625 0.726562,-0.94921876 0.75,-1.14843746 z m -2.296875,-1.1132813 c 0,-0.6445312 0.503906,-1.2421875 1.160156,-1.2421875 0.855469,0 1.125,0.5976563 1.160156,1.2421875 z m 4.693359,-0.011719 c 0,-0.609375 0.410156,-1.1132813 1.066406,-1.1132813 H 51.45183 V -4.27798 c -0.05859,-0.023437 -0.09375,-0.023437 -0.1875,-0.023437 -0.527344,0 -0.890625,0.328125 -1.171875,0.8085938 h -0.02344 v -0.6914063 h -0.65625 V -6.357375e-4 H 50.11589 Z M 54.818041,-5.21548 h 0.867187 v -0.5625 h -1.5 v 7.3476563 h 1.5 V 0.99545781 h -0.867187 z m 1.602539,5.2148437625 h 0.703125 V -2.2857922 c 0,-1.1367187 0.714843,-1.3828125 1.113281,-1.3828125 0.515625,0 0.65625,0.421875 0.65625,0.7734375 v 2.8945312625 h 0.703125 V -2.5553234 c 0,-0.5625 0.386719,-1.1132813 0.984375,-1.1132813 0.597656,0 0.773437,0.3867188 0.773437,0.9609375 v 2.7070312625 h 0.703125 V -2.8951672 c 0,-1.1835937 -0.84375,-1.40625 -1.289062,-1.40625 -0.65625,0 -0.9375,0.28125 -1.289063,0.6796875 -0.117187,-0.234375 -0.351562,-0.6796875 -1.113281,-0.6796875 -0.75,0 -1.113281,0.4804688 -1.265625,0.703125 h -0.01172 V -4.1842297 H 56.42058 Z m 6.662109,0 h 0.703125 V -2.2857922 c 0,-1.1367187 0.714844,-1.3828125 1.113281,-1.3828125 0.515625,0 0.65625,0.421875 0.65625,0.7734375 V -6.359375e-4 H 66.25847 V -2.5553234 c 0,-0.5625 0.386719,-1.1132813 0.984375,-1.1132813 0.597657,0 0.773438,0.3867188 0.773438,0.9609375 v 2.7070312625 h 0.703125 V -2.8951672 c 0,-1.1835937 -0.84375,-1.40625 -1.289063,-1.40625 -0.65625,0 -0.9375,0.28125 -1.289062,0.6796875 -0.117188,-0.234375 -0.351563,-0.6796875 -1.113281,-0.6796875 -0.75,0 -1.113282,0.4804688 -1.265625,0.703125 h -0.01172 V -4.1842297 H 63.082689 Z M 70.321947,0.99545781 H 69.454759 V 1.5696766 h 1.5 v -7.3476563 h -1.5 v 0.5625 h 0.867188 z m 0,0"
           style="fill:#231f20;fill-opacity:1;fill-rule:nonzero;stroke:none"
           aria-label="Depth in water [mm]"
           transform="matrix(1.3333333,0,0,1.3333333,455.90147,261.07507)" />
        <path
           id="path38"
           d="m 1.4767328,-2.4606672 h 1.8867188 c 0.9257812,0 1.0195312,0.5507813 1.0195312,1.0195313 0,0.2226562 0.023437,1.08984371 0.140625,1.4414062125 H 5.4728266 V -0.12863594 c -0.234375,-0.140625 -0.28125,-0.2578125 -0.28125,-0.57421875 L 5.1329828,-1.7458234 c -0.023437,-0.796875 -0.3515625,-0.9375 -0.6796875,-1.078125 0.3632813,-0.2226563 0.796875,-0.5273438 0.796875,-1.3828125 0,-1.2070313 -0.9492187,-1.5351563 -1.8867187,-1.5351563 H 0.70329531 V 2.703125e-4 H 1.4767328 Z m 0,-2.625 h 1.9453125 c 0.375,0 1.03125,0.070312 1.03125,0.9609375 0,0.8554688 -0.5976562,0.9960938 -1.171875,0.9960938 H 1.4767328 Z m 7.6728516,3.7734375 c -0.035156,0.31640626 -0.421875,0.82031251 -1.0898438,0.82031251 -0.8085937,0 -1.2070312,-0.50390625 -1.2070312,-1.37109371 h 3.046875 c 0,-1.4765625 -0.5859375,-2.4375 -1.7929688,-2.4375 -1.3828125,0 -2.015625,1.03125 -2.015625,2.3203125 0,1.20703121 0.703125,2.09765621 1.875,2.09765621 0.6796875,0 0.9492188,-0.15234375 1.1367188,-0.28125 0.5273437,-0.3515625 0.7265625,-0.94921871 0.75,-1.14843751 z m -2.296875,-1.1132812 c 0,-0.6445313 0.5039062,-1.2421875 1.1601562,-1.2421875 0.8554688,0 1.125,0.5976562 1.1601563,1.2421875 z m 4.5205076,-0.4921875 c 0.04687,-0.3164063 0.152344,-0.8085938 0.960938,-0.8085938 0.65625,0 0.984375,0.2460938 0.984375,0.6796875 0,0.421875 -0.199219,0.4804688 -0.375,0.5039063 l -1.160157,0.140625 c -1.171875,0.140625 -1.265625,0.9609375 -1.265625,1.3125 0,0.72656246 0.539063,1.20703121 1.3125,1.20703121 0.808594,0 1.230469,-0.38671875 1.511719,-0.6796875 0.02344,0.328125 0.117188,0.64453125 0.738281,0.64453125 0.164063,0 0.269532,-0.046875 0.386719,-0.0820312475 V -0.51535469 c -0.08203,0.0234375 -0.164062,0.0351563 -0.234375,0.0351563 -0.140625,0 -0.234375,-0.0703125 -0.234375,-0.24609375 V -3.1403547 c 0,-1.0664062 -1.207031,-1.1601562 -1.546875,-1.1601562 -1.03125,0 -1.699219,0.3867187 -1.734375,1.3828125 z m 1.921875,1.4648437 c 0,0.56250001 -0.632812,0.98437501 -1.289062,0.98437501 -0.527344,0 -0.761719,-0.26953125 -0.761719,-0.72656251 0,-0.5273437 0.550781,-0.6328125 0.890625,-0.6796875 0.878906,-0.1054687 1.054687,-0.1757812 1.160156,-0.2578125 z m 2.619141,-4.2890625 H 15.211108 V 2.703125e-4 h 0.703125 z m 2.595703,2.1445313 v -0.5859375 h -0.679688 v -1.171875 h -0.703125 v 1.171875 h -0.5625 v 0.5859375 h 0.5625 v 2.75390621 c 0,0.50390625 0.152344,0.90234375 0.84375,0.90234375 0.08203,0 0.28125,-0.03515625 0.539063,-0.0585937475 V -0.55051094 h -0.257813 c -0.140625,0 -0.421875,0 -0.421875,-0.328125 V -3.5973859 Z m 1.40332,-0.5859375 H 19.210131 V 2.703125e-4 h 0.703125 z m 0,-0.7617188 v -0.796875 h -0.703125 v 0.796875 z m 2.516602,4.17187501 h -0.01172 L 21.328295,-4.1833234 h -0.820312 l 1.535156,4.1835937125 h 0.75 L 24.386889,-4.1833234 h -0.773437 z m 5.194336,-0.53906251 c -0.03516,0.31640626 -0.421875,0.82031251 -1.089844,0.82031251 -0.808594,0 -1.207031,-0.50390625 -1.207031,-1.37109371 h 3.046875 c 0,-1.4765625 -0.585938,-2.4375 -1.792969,-2.4375 -1.382812,0 -2.015625,1.03125 -2.015625,2.3203125 0,1.20703121 0.703125,2.09765621 1.875,2.09765621 0.679688,0 0.949219,-0.15234375 1.136719,-0.28125 0.527344,-0.3515625 0.726562,-0.94921871 0.75,-1.14843751 z m -2.296875,-1.1132812 c 0,-0.6445313 0.503906,-1.2421875 1.160156,-1.2421875 0.855469,0 1.125,0.5976562 1.160156,1.2421875 z m 9.588867,-3.3164063 h -0.703125 v 2.1445313 h -0.02344 c -0.164062,-0.234375 -0.480468,-0.703125 -1.242187,-0.703125 -1.113281,0 -1.746094,0.9023437 -1.746094,2.0859375 0,0.9960937 0.410156,2.33203121 1.839844,2.33203121 0.410156,0 0.890625,-0.12890625 1.195312,-0.69140625 h 0.01172 V 2.703125e-4 h 0.667969 z m -2.988281,3.6328125 c 0,-0.5273437 0.05859,-1.5585937 1.148437,-1.5585937 1.007813,0 1.125,1.0898437 1.125,1.7695312 0,1.11328126 -0.691406,1.40625001 -1.148437,1.40625001 -0.761719,0 -1.125,-0.69140621 -1.125,-1.61718751 z m 3.720703,0.011719 c 0,1.078125 0.609375,2.21484371 1.945312,2.21484371 1.335938,0 1.945313,-1.13671871 1.945313,-2.21484371 0,-1.078125 -0.609375,-2.203125 -1.945313,-2.203125 -1.335937,0 -1.945312,1.125 -1.945312,2.203125 z m 0.726562,0 c 0,-0.5625 0.210938,-1.6054688 1.21875,-1.6054688 1.007813,0 1.21875,1.0429688 1.21875,1.6054688 0,0.5625 -0.210937,1.60546871 -1.21875,1.60546871 -1.007812,0 -1.21875,-1.04296871 -1.21875,-1.60546871 z m 7.013672,-0.890625 c 0,-0.2109375 -0.105469,-1.3125 -1.59375,-1.3125 -0.832031,0 -1.59375,0.4101562 -1.59375,1.3359375 0,0.5742187 0.386719,0.8671875 0.972656,1.0078125 l 0.820313,0.1992187 c 0.597656,0.1523438 0.832031,0.2695313 0.832031,0.609375 0,0.45703126 -0.457031,0.65625001 -0.960937,0.65625001 -0.996094,0 -1.089844,-0.52734371 -1.113282,-0.85546871 h -0.679687 c 0.02344,0.50390621 0.140625,1.46484371 1.804687,1.46484371 0.9375,0 1.652344,-0.515625 1.652344,-1.38281251 0,-0.5625 -0.304687,-0.890625 -1.171875,-1.1015625 l -0.714844,-0.1757812 c -0.539062,-0.140625 -0.75,-0.2226563 -0.75,-0.5625 0,-0.515625 0.609375,-0.5976563 0.832032,-0.5976563 0.878906,0 0.984375,0.4453125 0.984375,0.7148438 z m 3.802735,1.6757812 c -0.03516,0.31640626 -0.421875,0.82031251 -1.089844,0.82031251 -0.808594,0 -1.207031,-0.50390625 -1.207031,-1.37109371 h 3.046875 c 0,-1.4765625 -0.585938,-2.4375 -1.792969,-2.4375 -1.382813,0 -2.015625,1.03125 -2.015625,2.3203125 0,1.20703121 0.703125,2.09765621 1.875,2.09765621 0.679687,0 0.949219,-0.15234375 1.136719,-0.28125 0.527343,-0.3515625 0.726562,-0.94921871 0.75,-1.14843751 z m -2.296875,-1.1132812 c 0,-0.6445313 0.503906,-1.2421875 1.160156,-1.2421875 0.855469,0 1.125,0.5976562 1.160156,1.2421875 z m 6.729492,-2.7890625 h 0.867187 v -0.5625 h -1.5 V 1.570583 h 1.5 V 0.99636406 h -0.867187 z m 1.40332,1.0078125 c 0,0.7617187 0.609375,1.3710937 1.359375,1.3710937 0.761719,0 1.371094,-0.6210937 1.371094,-1.3710937 0,-0.75 -0.621094,-1.359375 -1.371094,-1.359375 -0.75,0 -1.359375,0.5976562 -1.359375,1.359375 z m 0.550781,0 c 0,-0.4335938 0.351563,-0.796875 0.808594,-0.796875 0.445313,0 0.808594,0.3398437 0.808594,0.796875 0,0.4335937 -0.351563,0.8085937 -0.808594,0.8085937 -0.421875,0 -0.808594,-0.3164062 -0.808594,-0.8085937 z m 3.210938,2.8945312 c 0,0.77343751 0.609375,1.37109376 1.359375,1.37109376 0.761719,0 1.371094,-0.62109375 1.371094,-1.37109376 0,-0.75 -0.621094,-1.3476562 -1.371094,-1.3476562 -0.75,0 -1.359375,0.5859375 -1.359375,1.3476562 z m 0.550781,0 c 0,-0.4335937 0.363281,-0.796875 0.808594,-0.796875 0.445312,0 0.808594,0.3515625 0.808594,0.796875 0,0.44531251 -0.351563,0.80859376 -0.808594,0.80859376 -0.421875,0 -0.808594,-0.31640625 -0.808594,-0.80859376 z m 0.726563,-4.3125 H 57.621264 L 54.46892,0.15261406 h 0.421875 z m 2.847656,6.62109376 H 60.047045 V 1.5705828 h 1.5 v -7.3476562 h -1.5 v 0.5625 h 0.867188 z m 0,0"
           style="fill:#231f20;fill-opacity:1;fill-rule:nonzero;stroke:none"
           aria-label="Realtiv&#10;e dose [%]"
           transform="matrix(0,-1.3333333,1.3333333,0,358.99573,195.25413)" />
        <path
           id="path39"
           d="m 3.3988156,-2.7435156 c 0,1.4179687 -0.3632812,2.26171873 -1.171875,2.26171873 -0.8085937,0 -1.1835937,-0.84375003 -1.1835937,-2.26171873 0,-1.40625 0.375,-2.25 1.1835937,-2.25 0.8085938,0 1.171875,0.84375 1.171875,2.25 z m 0.75,0 c 0,-1.1601563 -0.3046875,-2.8828125 -1.921875,-2.8828125 -1.61718748,0 -1.93359373,1.7226562 -1.93359373,2.8828125 0,1.171875 0.31640625,2.89453123 1.93359373,2.89453123 1.6171875,0 1.921875,-1.72265623 1.921875,-2.89453123 z M -3.3922,-24.912461 c 0.023437,-0.386719 0.070312,-1.382812 1.1367187,-1.382812 0.8203125,0 1.1132813,0.5625 1.1132813,1.019531 0,0.726562 -0.4335938,0.960937 -1.03125,1.3125 l -0.75,0.421875 c -0.75,0.445312 -1.2773438,1.066406 -1.3125,2.238281 h 3.84375 v -0.667969 h -3.0585938 c 0.035156,-0.210937 0.1992188,-0.65625 0.9726563,-1.078125 L -1.8922,-23.365586 c 0.84375,-0.445312 1.5,-0.878906 1.5,-1.886719 0,-1.042968 -0.7851563,-1.675781 -1.7578125,-1.675781 -0.609375,0 -1.9453125,0.1875 -1.9453125,2.015625 z m 6.7910156,0.867188 c 0,1.417968 -0.3632812,2.261718 -1.171875,2.261718 -0.8085937,0 -1.1835937,-0.84375 -1.1835937,-2.261718 0,-1.40625 0.375,-2.25 1.1835937,-2.25 0.8085938,0 1.171875,0.84375 1.171875,2.25 z m 0.75,0 c 0,-1.160157 -0.3046875,-2.882813 -1.921875,-2.882813 -1.61718748,0 -1.93359373,1.722656 -1.93359373,2.882813 0,1.171875 0.31640625,2.894531 1.93359373,2.894531 1.6171875,0 1.921875,-1.722656 1.921875,-2.894531 z m -4.41210935,-19.933594 v -0.609375 H -1.0836063 v -3.644531 h -0.5859375 l -2.578125,3.5625 v 0.691406 h 2.4609375 v 1.371094 h 0.703125 v -1.371094 z M -1.8101688,-47.14293 h 0.023437 v 2.554688 H -3.603138 Z m 5.2089844,1.792969 c 0,1.417969 -0.3632812,2.261719 -1.171875,2.261719 -0.8085937,0 -1.1835937,-0.84375 -1.1835937,-2.261719 0,-1.40625 0.375,-2.25 1.1835937,-2.25 0.8085938,0 1.171875,0.84375 1.171875,2.25 z m 0.75,0 c 0,-1.160156 -0.3046875,-2.882812 -1.921875,-2.882812 -1.61718748,0 -1.93359373,1.722656 -1.93359373,2.882812 0,1.171875 0.31640625,2.894531 1.93359373,2.894531 1.6171875,0 1.921875,-1.722656 1.921875,-2.894531 z m -4.5644531,-22.6875 c -0.0820313,-1.148437 -0.9960938,-1.5 -1.640625,-1.5 -1.6875,0 -2.0859375,1.769531 -2.0859375,3.011719 0,0.726562 0.09375,1.417969 0.4335937,1.945312 0.3984375,0.632813 1.0195313,0.820313 1.4414063,0.820313 0.796875,0 1.1367187,-0.210938 1.4296875,-0.539063 0.38671875,-0.421875 0.5390625,-0.832031 0.5390625,-1.417968 0,-1.335938 -1.078125,-1.78125 -1.7578125,-1.78125 -0.7734375,0 -1.171875,0.386718 -1.3476563,0.691406 l -0.011719,-0.02344 c 0,-0.585937 0.234375,-2.074218 1.3359375,-2.074218 0.609375,0 0.8789062,0.363281 0.9726562,0.867187 z m -2.90625,2.390625 c 0,-0.65625 0.375,-1.21875 1.1601562,-1.21875 0.8671875,0 1.1367188,0.691406 1.1367188,1.183594 0,0.761719 -0.4335938,1.289062 -1.1132813,1.289062 -0.8203125,0 -1.1835937,-0.644531 -1.1835937,-1.253906 z m 6.7207031,-1.007812 c 0,1.417968 -0.3632812,2.261718 -1.171875,2.261718 -0.8085937,0 -1.1835937,-0.84375 -1.1835937,-2.261718 0,-1.40625 0.375,-2.25 1.1835937,-2.25 0.8085938,0 1.171875,0.84375 1.171875,2.25 z m 0.75,0 c 0,-1.160157 -0.3046875,-2.882813 -1.921875,-2.882813 -1.61718748,0 -1.93359373,1.722656 -1.93359373,2.882813 0,1.171875 0.31640625,2.894531 1.93359373,2.894531 1.6171875,0 1.921875,-1.722656 1.921875,-2.894531 z m -4.6582031,-22.746094 c 0,-0.65625 -0.4921875,-1.441406 -1.734375,-1.441406 -1.3476563,0 -1.7109375,0.960937 -1.7109375,1.546875 0,0.527343 0.28125,0.914062 0.7617187,1.089843 -0.5859375,0.246094 -0.9492187,0.679688 -0.9492187,1.371094 0,0.269531 0,0.878906 0.5742187,1.335938 0.4453125,0.351562 1.0429688,0.433593 1.359375,0.433593 1.3242188,0 1.89843755,-0.867187 1.89843755,-1.78125 0,-0.421875 -0.1640625,-1.042968 -0.91406255,-1.359375 0.2460938,-0.128906 0.7148438,-0.386718 0.7148438,-1.195312 z m -1.7226563,1.546875 c 0.6445313,0 1.171875,0.328125 1.171875,1.089844 0,0.878906 -0.6210937,1.066406 -1.125,1.066406 -0.984375,0 -1.2070312,-0.667969 -1.2070312,-1.125 0,-0.515625 0.375,-1.03125 1.1601562,-1.03125 z m 0,-0.609375 c -0.515625,0 -0.9960937,-0.328125 -0.9960937,-0.867188 0,-0.363281 0.1875,-0.878906 0.9375,-0.878906 0.8320312,0 1.0546875,0.492188 1.0546875,0.84375 0,0.503906 -0.3984375,0.902344 -0.9960938,0.902344 z m 5.6308594,0.503906 c 0,1.417969 -0.3632812,2.261719 -1.171875,2.261719 -0.8085937,0 -1.1835937,-0.84375 -1.1835937,-2.261719 0,-1.40625 0.375,-2.25 1.1835937,-2.25 0.8085938,0 1.171875,0.84375 1.171875,2.25 z m 0.75,0 c 0,-1.160156 -0.3046875,-2.882812 -1.921875,-2.882812 -1.61718748,0 -1.93359373,1.722656 -1.93359373,2.882812 0,1.171875 0.31640625,2.894531 1.93359373,2.894531 1.6171875,0 1.921875,-1.722656 1.921875,-2.894531 z M -6.0259891,-112.14391 h -0.5507812 c -0.2226563,0.91407 -0.5976563,1.00782 -1.5117188,1.06641 v 0.5625 h 1.3125 v 3.99609 h 0.75 z m 4.9775391,2.88282 c 0,1.41797 -0.3632813,2.26172 -1.171875,2.26172 -0.8085938,0 -1.1835938,-0.84375 -1.1835938,-2.26172 0,-1.40625 0.375,-2.25 1.1835938,-2.25 0.8085937,0 1.171875,0.84375 1.171875,2.25 z m 0.75,0 c 0,-1.16016 -0.3046875,-2.88282 -1.921875,-2.88282 -1.6171875,0 -1.9335938,1.72266 -1.9335938,2.88282 0,1.17187 0.3164063,2.89453 1.9335938,2.89453 1.6171875,0 1.921875,-1.72266 1.921875,-2.89453 z m 3.6972656,0 c 0,1.41797 -0.3632812,2.26172 -1.171875,2.26172 -0.8085937,0 -1.1835937,-0.84375 -1.1835937,-2.26172 0,-1.40625 0.375,-2.25 1.1835937,-2.25 0.8085938,0 1.171875,0.84375 1.171875,2.25 z m 0.75,0 c 0,-1.16016 -0.3046875,-2.88282 -1.921875,-2.88282 -1.61718748,0 -1.93359373,1.72266 -1.93359373,2.88282 0,1.17187 0.31640625,2.89453 1.93359373,2.89453 1.6171875,0 1.921875,-1.72266 1.921875,-2.89453 z m 0,0"
           style="fill:#231f20;fill-opacity:1;fill-rule:nonzero;stroke:none"
           aria-label="0&#10;20&#10;40&#10;60&#10;80&#10;100"
           transform="matrix(1.3333333,0,0,1.3333333,375.02293,234.10333)" />
        <path
           id="path40"
           d="m 2.8231281,-2.2793565 c 0,1.1789701 -0.3046875,1.88050604 -0.9726562,1.88050604 -0.6679688,0 -0.98437503,-0.70153594 -0.98437503,-1.88050604 0,-1.1692266 0.31640623,-1.8707625 0.98437503,-1.8707625 0.6679687,0 0.9726562,0.7015359 0.9726562,1.8707625 z m 0.6328125,0 c 0,-0.9646119 -0.2578125,-2.3969145 -1.6054687,-2.3969145 -1.34765628,0 -1.60546878,1.4323026 -1.60546878,2.3969145 0,0.9743555 0.2578125,2.40665799 1.60546878,2.40665799 1.3476562,0 1.6054687,-1.43230249 1.6054687,-2.40665799 z M 36.382698,-4.0039657 h 1.980469 v -0.5748697 h -2.425781 l -0.351563,2.5138371 0.503907,0.019487 c 0.222656,-0.2825631 0.527343,-0.43846 0.867187,-0.43846 0.574219,0 1.042969,0.3605116 1.042969,1.0328168 0,0.58461331 -0.386719,1.07179105 -0.996094,1.07179105 -0.515625,0 -0.925781,-0.24358887 -0.984375,-0.78922795 h -0.609375 c 0.117188,1.05230392 0.902344,1.29589279 1.511719,1.29589279 1.464844,0 1.699219,-1.12050879 1.699219,-1.64666079 0,-0.9646119 -0.785157,-1.4907638 -1.535157,-1.4907638 -0.421875,0 -0.703125,0.1364097 -0.914062,0.2923066 z M 70.941292,-4.676271 h -0.457031 c -0.1875,0.7599973 -0.503906,0.8379457 -1.265625,0.8866635 v 0.4676906 h 1.101562 V 6.3527977e-4 h 0.621094 z m 4.133789,2.3969145 c 0,1.1789701 -0.304687,1.88050604 -0.972656,1.88050604 -0.667969,0 -0.984375,-0.70153594 -0.984375,-1.88050604 0,-1.1692266 0.316406,-1.8707625 0.984375,-1.8707625 0.667969,0 0.972656,0.7015359 0.972656,1.8707625 z m 0.632813,0 c 0,-0.9646119 -0.257813,-2.3969145 -1.605469,-2.3969145 -1.347656,0 -1.605469,1.4323026 -1.605469,2.3969145 0,0.9743555 0.257813,2.40665799 1.605469,2.40665799 1.347656,0 1.605469,-1.43230249 1.605469,-2.40665799 z M 106.14149,-4.676271 h -0.45703 c -0.1875,0.7599973 -0.50391,0.8379457 -1.26563,0.8866635 v 0.4676906 h 1.10156 V 6.3527977e-4 h 0.6211 z m 2.49316,0.6723053 h 1.98047 v -0.5748697 h -2.42578 l -0.35156,2.5138371 0.5039,0.019487 c 0.22266,-0.2825631 0.52735,-0.43846 0.86719,-0.43846 0.57422,0 1.04297,0.3605116 1.04297,1.0328168 0,0.58461331 -0.38672,1.07179105 -0.99609,1.07179105 -0.51563,0 -0.92579,-0.24358887 -0.98438,-0.78922795 H 107.662 c 0.11718,1.05230392 0.90234,1.29589279 1.51171,1.29589279 1.46485,0 1.69922,-1.12050879 1.69922,-1.64666079 0,-0.9646119 -0.78515,-1.4907638 -1.53515,-1.4907638 -0.42188,0 -0.70313,0.1364097 -0.91407,0.2923066 z m 31.18945,1.0035861 c 0.0234,-0.3215373 0.0586,-1.1497394 0.94922,-1.1497394 0.67969,0 0.92578,0.4676906 0.92578,0.8476892 0,0.6041004 -0.36328,0.7989715 -0.86718,1.0912782 l -0.6211,0.3507679 c -0.62109,0.3702551 -1.05468,0.88666351 -1.08984,1.86101897977 h 3.19922 V -0.55474734 h -2.54297 c 0.0234,-0.17538398 0.16406,-0.54563906 0.80859,-0.89640706 l 0.48047,-0.2630759 c 0.70313,-0.3702551 1.25391,-0.7307666 1.25391,-1.5687123 0,-0.8671764 -0.65625,-1.3933284 -1.46485,-1.3933284 -0.5039,0 -1.61718,0.1558969 -1.61718,1.6758914 z m 5.64258,0.7210231 c 0,1.1789701 -0.30468,1.88050604 -0.97265,1.88050604 -0.66797,0 -0.98438,-0.70153594 -0.98438,-1.88050604 0,-1.1692266 0.31641,-1.8707625 0.98438,-1.8707625 0.66797,0 0.97265,0.7015359 0.97265,1.8707625 z m 0.63282,0 c 0,-0.9646119 -0.25782,-2.3969145 -1.60547,-2.3969145 -1.34766,0 -1.60547,1.4323026 -1.60547,2.3969145 0,0.9743555 0.25781,2.40665799 1.60547,2.40665799 1.34765,0 1.60547,-1.43230249 1.60547,-2.40665799 z m 28.9248,-0.7210231 c 0.0234,-0.3215373 0.0586,-1.1497394 0.94922,-1.1497394 0.67969,0 0.92578,0.4676906 0.92578,0.8476892 0,0.6041004 -0.36328,0.7989715 -0.86719,1.0912782 l -0.62109,0.3507679 c -0.6211,0.3702551 -1.05469,0.88666351 -1.08985,1.86101897977 h 3.19922 V -0.55474734 h -2.54297 c 0.0234,-0.17538398 0.16407,-0.54563906 0.8086,-0.89640706 l 0.48047,-0.2630759 c 0.70312,-0.3702551 1.2539,-0.7307666 1.2539,-1.5687123 0,-0.8671764 -0.65625,-1.3933284 -1.46484,-1.3933284 -0.50391,0 -1.61719,0.1558969 -1.61719,1.6758914 z m 4.00195,-1.0035861 h 1.98047 v -0.5748697 h -2.42578 l -0.35156,2.5138371 0.5039,0.019487 c 0.22266,-0.2825631 0.52735,-0.43846 0.86719,-0.43846 0.57422,0 1.04297,0.3605116 1.04297,1.0328168 0,0.58461331 -0.38672,1.07179105 -0.99609,1.07179105 -0.51563,0 -0.92578,-0.24358887 -0.98438,-0.78922795 h -0.60937 c 0.11718,1.05230392 0.90234,1.29589279 1.51172,1.29589279 1.46484,0 1.69921,-1.12050879 1.69921,-1.64666079 0,-0.9646119 -0.78515,-1.4907638 -1.53515,-1.4907638 -0.42188,0 -0.70313,0.1364097 -0.91406,0.2923066 z m 0,0"
           style="fill:#231f20;fill-opacity:1;fill-rule:nonzero;stroke:none"
           aria-label="0510152025"
           transform="matrix(1.3333333,0,0,1.6036242,387.13427,248.8232)" />
      </g>
    </g>
  </g>
</svg>
