<?xml version="1.0" encoding="UTF-8" standalone="no"?>
<svg
   id="svg2"
   sodipodi:version="0.32"
   inkscape:version="1.3.2 (091e20e, 2023-11-25, custom)"
   width="1891"
   height="758"
   version="1.0"
   sodipodi:docname="compton.svg"
   inkscape:export-filename="compton.pdf"
   inkscape:export-xdpi="96"
   inkscape:export-ydpi="96"
   xmlns:inkscape="http://www.inkscape.org/namespaces/inkscape"
   xmlns:sodipodi="http://sodipodi.sourceforge.net/DTD/sodipodi-0.dtd"
   xmlns:xlink="http://www.w3.org/1999/xlink"
   xmlns="http://www.w3.org/2000/svg"
   xmlns:svg="http://www.w3.org/2000/svg"
   xmlns:rdf="http://www.w3.org/1999/02/22-rdf-syntax-ns#"
   xmlns:cc="http://creativecommons.org/ns#"
   xmlns:dc="http://purl.org/dc/elements/1.1/">
  <metadata
     id="metadata7">
    <rdf:RDF>
      <cc:Work
         rdf:about="">
        <dc:format>image/svg+xml</dc:format>
        <dc:type
           rdf:resource="http://purl.org/dc/dcmitype/StillImage" />
        <dc:title />
      </cc:Work>
    </rdf:RDF>
  </metadata>
  <defs
     id="defs5">
    <rect
       x="2331.8808"
       y="1123.4205"
       width="1177.1298"
       height="1463.5797"
       id="rect2" />
    <linearGradient
       id="linearGradient10917">
      <stop
         id="stop10927"
         offset="0"
         style="stop-color:#00cfff;stop-opacity:1;" />
      <stop
         style="stop-color:#0516a8;stop-opacity:1;"
         offset="0.47706422"
         id="stop10929" />
      <stop
         id="stop10931"
         offset="0.83208483"
         style="stop-color:#18004d;stop-opacity:1;" />
      <stop
         style="stop-color:black;stop-opacity:1;"
         offset="1"
         id="stop10921" />
    </linearGradient>
    <linearGradient
       id="linearGradient10903">
      <stop
         id="stop10913"
         offset="0"
         style="stop-color:black;stop-opacity:1;" />
      <stop
         style="stop-color:black;stop-opacity:0;"
         offset="0.5"
         id="stop10915" />
      <stop
         style="stop-color:black;stop-opacity:0.41935483;"
         offset="1"
         id="stop10907" />
    </linearGradient>
    <linearGradient
       id="linearGradient3748">
      <stop
         style="stop-color:#7fcaff;stop-opacity:0.7096774;"
         offset="0"
         id="stop3750" />
      <stop
         id="stop3756"
         offset="0.48623854"
         style="stop-color:#8182ff;stop-opacity:0.84516132;" />
      <stop
         style="stop-color:#866495;stop-opacity:0.84516132;"
         offset="1"
         id="stop3758" />
    </linearGradient>
    <linearGradient
       id="linearGradient3716">
      <stop
         style="stop-color:#7ffcff;stop-opacity:0.3137255;"
         offset="0"
         id="stop3726" />
      <stop
         id="stop3730"
         offset="1"
         style="stop-color:#7f25ff;stop-opacity:0.15686275;" />
      <stop
         style="stop-color:#7ffeff;stop-opacity:0;"
         offset="1"
         id="stop3720" />
    </linearGradient>
    <linearGradient
       id="linearGradient3694">
      <stop
         style="stop-color:#8e80b3;stop-opacity:1;"
         offset="0"
         id="stop3696" />
      <stop
         id="stop3710"
         offset="0.54128438"
         style="stop-color:#90ffb3;stop-opacity:0.98709679;" />
      <stop
         style="stop-color:#8e80b3;stop-opacity:0;"
         offset="1"
         id="stop3698" />
    </linearGradient>
    <radialGradient
       inkscape:collect="always"
       xlink:href="#linearGradient10917"
       id="radialGradient10925"
       cx="761.46515"
       cy="159.74612"
       fx="761.46515"
       fy="159.74612"
       r="70.57547"
       gradientTransform="matrix(1,0,0,1.095693,0,-15.28657)"
       gradientUnits="userSpaceOnUse" />
    <radialGradient
       inkscape:collect="always"
       xlink:href="#linearGradient10917"
       id="radialGradient11018"
       gradientUnits="userSpaceOnUse"
       gradientTransform="matrix(1,0,0,1.095693,0,-15.28657)"
       cx="761.46515"
       cy="159.74612"
       fx="761.46515"
       fy="159.74612"
       r="70.57547" />
    <radialGradient
       inkscape:collect="always"
       xlink:href="#linearGradient3326"
       id="radialGradient2673"
       gradientUnits="userSpaceOnUse"
       cx="319.80621"
       cy="194.60178"
       fx="319.80621"
       fy="194.60178"
       r="205.23125"
       gradientTransform="matrix(0.11525239,0,0,0.10291531,1322.4618,326.42923)" />
    <linearGradient
       id="linearGradient3326">
      <stop
         id="stop3328"
         style="stop-color:#ff8f8f;stop-opacity:1"
         offset="0" />
      <stop
         id="stop3330"
         style="stop-color:#ff0505;stop-opacity:1"
         offset="1" />
    </linearGradient>
    <radialGradient
       inkscape:collect="always"
       xlink:href="#linearGradient3326"
       id="radialGradient2670"
       gradientUnits="userSpaceOnUse"
       cx="319.80621"
       cy="194.60178"
       fx="319.80621"
       fy="194.60178"
       r="205.23125"
       gradientTransform="matrix(0.11525239,0,0,0.10291531,1319.544,386.12344)" />
    <radialGradient
       inkscape:collect="always"
       xlink:href="#linearGradient3326"
       id="radialGradient2667"
       gradientUnits="userSpaceOnUse"
       cx="319.80621"
       cy="194.60178"
       fx="319.80621"
       fy="194.60178"
       r="205.23125"
       gradientTransform="matrix(0.11525239,0,0,0.10291531,1351.2423,358.46851)" />
    <radialGradient
       inkscape:collect="always"
       xlink:href="#linearGradient3326"
       id="radialGradient2664"
       gradientUnits="userSpaceOnUse"
       cx="319.80621"
       cy="194.60178"
       fx="319.80621"
       fy="194.60178"
       r="205.23125"
       gradientTransform="matrix(0.11525239,0,0,0.10291531,1286.34,360.32619)" />
    <radialGradient
       inkscape:collect="always"
       xlink:href="#linearGradient3373"
       id="radialGradient2661"
       gradientUnits="userSpaceOnUse"
       cx="319.80621"
       cy="194.60178"
       fx="319.80621"
       fy="194.60178"
       r="205.23125"
       gradientTransform="matrix(0.11525239,0,0,0.10291531,1334.0731,361.09506)" />
    <linearGradient
       id="linearGradient3373">
      <stop
         id="stop3375"
         style="stop-color:#c7c7c7;stop-opacity:1"
         offset="0" />
      <stop
         id="stop3377"
         style="stop-color:#828282;stop-opacity:1"
         offset="1" />
    </linearGradient>
    <radialGradient
       inkscape:collect="always"
       xlink:href="#linearGradient3326"
       id="radialGradient2658"
       gradientUnits="userSpaceOnUse"
       cx="319.80621"
       cy="194.60178"
       fx="319.80621"
       fy="194.60178"
       r="205.23125"
       gradientTransform="matrix(0.11525239,0,0,0.10291531,1320.4364,359.05817)" />
    <radialGradient
       inkscape:collect="always"
       xlink:href="#linearGradient3373"
       id="radialGradient2655"
       gradientUnits="userSpaceOnUse"
       cx="319.80621"
       cy="194.60178"
       fx="319.80621"
       fy="194.60178"
       r="205.23125"
       gradientTransform="matrix(0.11525239,0,0,0.10291531,1295.9866,332.15152)" />
    <radialGradient
       inkscape:collect="always"
       xlink:href="#linearGradient3373"
       id="radialGradient2652"
       gradientUnits="userSpaceOnUse"
       cx="319.80621"
       cy="194.60178"
       fx="319.80621"
       fy="194.60178"
       r="205.23125"
       gradientTransform="matrix(0.11525239,0,0,0.10291531,1300.305,380.87372)" />
    <radialGradient
       inkscape:collect="always"
       xlink:href="#linearGradient3373"
       id="radialGradient2649"
       gradientUnits="userSpaceOnUse"
       cx="319.80621"
       cy="194.60178"
       fx="319.80621"
       fy="194.60178"
       r="205.23125"
       gradientTransform="matrix(0.11525239,0,0,0.10291531,1338.2355,336.66626)" />
    <radialGradient
       inkscape:collect="always"
       xlink:href="#linearGradient3748"
       id="radialGradient15506-8"
       gradientUnits="userSpaceOnUse"
       gradientTransform="matrix(0.23553112,0,0,0.23536503,1292.1611,465.16073)"
       cx="761.46515"
       cy="159.74612"
       fx="761.46515"
       fy="159.74612"
       r="69.784149" />
    <radialGradient
       inkscape:collect="always"
       xlink:href="#linearGradient3748"
       id="radialGradient15506-3"
       gradientUnits="userSpaceOnUse"
       gradientTransform="matrix(0.23712583,0,0,0.23695861,1247.6109,261.53815)"
       cx="761.46515"
       cy="159.74612"
       fx="761.46515"
       fy="159.74612"
       r="69.784149" />
    <radialGradient
       inkscape:collect="always"
       xlink:href="#linearGradient10917"
       id="radialGradient11018-8"
       gradientUnits="userSpaceOnUse"
       gradientTransform="matrix(0.394215,0,0,0.39354444,639.25768,313.56397)"
       cx="761.46515"
       cy="159.74612"
       fx="761.46515"
       fy="159.74612"
       r="70.57547" />
  </defs>
  <sodipodi:namedview
     inkscape:window-height="971"
     inkscape:window-width="1280"
     inkscape:pageshadow="2"
     inkscape:pageopacity="0.0"
     guidetolerance="10.0"
     gridtolerance="10.0"
     objecttolerance="10.0"
     borderopacity="1.0"
     bordercolor="#666666"
     pagecolor="#ffffff"
     id="base"
     inkscape:zoom="0.4468496"
     inkscape:cx="915.29677"
     inkscape:cy="-110.77553"
     inkscape:window-x="1358"
     inkscape:window-y="-8"
     inkscape:current-layer="svg2"
     inkscape:document-rotation="0"
     showgrid="false"
     inkscape:window-maximized="1"
     inkscape:showpageshadow="2"
     inkscape:pagecheckerboard="0"
     inkscape:deskcolor="#d1d1d1" />
  <path
     style="fill:none;fill-rule:evenodd;stroke:#898989;stroke-width:5;stroke-linecap:round;stroke-linejoin:round;stroke-miterlimit:4;stroke-dasharray:30,30;stroke-dashoffset:0;stroke-opacity:1"
     d="M 955.32731,382.05118 C 1005.878,382.05118 1088.2733,382.05118 1151.2391,382.05118 C 1227.846,382.05118 1304.4521,382.05118 1381.0589,382.05118 C 1389.8499,382.05118 1398.6409,382.05118 1407.4318,382.05118 C 1470.2236,382.05118 1533.0161,382.05118 1595.8079,382.05118 C 1642.2743,382.05118 1688.7408,382.05118 1735.2065,382.05118 C 1756.556,382.05118 1777.9054,382.05118 1799.2548,382.05118 C 1809.3017,382.05118 1819.3484,382.05118 1829.3952,382.05118"
     id="path6441" />
  <path
     style="fill:none;fill-rule:evenodd;stroke:#898989;stroke-width:5;stroke-linecap:round;stroke-linejoin:round;stroke-miterlimit:4;stroke-dasharray:30,30;stroke-dashoffset:0;stroke-opacity:1"
     d="M 1502.0304,68.478783 C 1521.4876,86.602207 1553.202,116.14257 1577.4377,138.71704 C 1606.9241,166.18215 1636.4102,193.64696 1665.8964,221.11202 C 1669.2801,224.26377 1672.6639,227.41552 1676.0475,230.56723 C 1700.2163,253.07934 1724.3855,275.59171 1748.5543,298.10382 C 1766.4394,314.76295 1784.3247,331.42211 1802.2094,348.081 C 1810.427,355.73521 1818.6445,363.38939 1826.8619,371.04358 C 1830.729,374.6456 1834.5961,378.24754 1838.4631,381.84951"
     id="path6443" />
  <text
     xml:space="preserve"
     style="font-style:normal;font-variant:normal;font-weight:normal;font-stretch:normal;font-size:67.1367px;line-height:0%;font-family:'Bitstream Vera Sans';-inkscape-font-specification:'Bitstream Vera Sans, Normal';font-variant-ligatures:normal;font-variant-caps:normal;font-variant-numeric:normal;font-variant-east-asian:normal;fill:#000000;fill-opacity:1;stroke:none;stroke-width:5.59472px;stroke-linecap:butt;stroke-linejoin:miter;stroke-opacity:1"
     x="1078.6447"
     y="462.61066"
     id="text10998"><tspan
       sodipodi:role="line"
       id="tspan1"
       x="1078.6447"
       y="462.61066"
       style="font-style:italic;font-variant:normal;font-weight:normal;font-stretch:normal;font-size:67.1367px;font-family:Sans;-inkscape-font-specification:'Sans, Italic';font-variant-ligatures:normal;font-variant-caps:normal;font-variant-numeric:normal;font-variant-east-asian:normal;stroke-width:5.59472px">θ</tspan></text>
  <g
     id="g11029">
    <path
       sodipodi:type="star"
       style="fill:black;fill-opacity:1;fill-rule:evenodd;stroke:black;stroke-width:1.1666826;stroke-linecap:butt;stroke-linejoin:round;stroke-miterlimit:4;stroke-dasharray:none;stroke-dashoffset:0;stroke-opacity:1"
       id="path8219"
       sodipodi:sides="3"
       sodipodi:cx="819.15192"
       sodipodi:cy="349.40894"
       sodipodi:r1="39.95863"
       sodipodi:r2="19.979317"
       sodipodi:arg1="0"
       sodipodi:arg2="1.0471976"
       inkscape:flatsided="true"
       inkscape:rounded="0"
       inkscape:randomized="0"
       d="M 859.11055,349.40894 L 799.1726,384.01412 L 799.1726,314.80375 L 859.11055,349.40894 z "
       transform="matrix(0.910962,-0.537845,0.286834,0.485819,612.5263,358.1349)" />
    <path
       id="path11006"
       d="M 951.35122,381.10614 C 979.94277,364.45099 1026.5457,337.30371 1062.1592,316.5583 C 1105.4883,291.31817 1148.8167,266.07845 1192.1457,240.83856 C 1197.1178,237.94218 1202.09,235.04563 1207.0622,232.14935 C 1242.5773,211.46105 1278.0931,190.77237 1313.6081,170.08425 C 1339.8896,154.77483 1366.1711,139.46514 1392.4521,124.156 C 1404.5274,117.12183 1416.6027,110.08779 1428.678,103.05374 C 1434.3605,99.74352 1440.0428,96.4334 1445.7253,93.12331"
       style="fill:none;fill-rule:evenodd;stroke:black;stroke-width:6.22198725;stroke-linecap:round;stroke-linejoin:round;stroke-miterlimit:4;stroke-dasharray:none;stroke-dashoffset:0;stroke-opacity:1" />
  </g>
  <path
     style="fill:none;fill-rule:evenodd;stroke:#898989;stroke-width:5;stroke-linecap:round;stroke-linejoin:round;stroke-miterlimit:4;stroke-dasharray:29.99999925, 29.99999925;stroke-dashoffset:0;stroke-opacity:1"
     d="M 1290.6974,699.06291 C 1322.2425,680.6873 1373.6594,650.73573 1412.9517,627.84734 C 1460.7568,599.99992 1508.5608,572.15297 1556.3657,544.30582 C 1561.8514,541.11025 1567.3372,537.91449 1572.823,534.71903 C 1612.0068,511.89364 1651.1913,489.06784 1690.3751,466.24266 C 1719.3714,449.3518 1748.3677,432.46063 1777.3635,415.57007 C 1790.6863,407.80927 1804.0089,400.04863 1817.3314,392.28796 C 1823.601,388.6358 1829.8703,384.98375 1836.1397,381.33173"
     id="path11020" />
  <path
     sodipodi:type="arc"
     style="fill:none;fill-opacity:1;fill-rule:evenodd;stroke:black;stroke-width:1.5164969;stroke-linecap:butt;stroke-linejoin:round;stroke-miterlimit:4;stroke-dasharray:none;stroke-dashoffset:0;stroke-opacity:1"
     id="path11002"
     sodipodi:cx="1050.6091"
     sodipodi:cy="501.71503"
     sodipodi:rx="105.06091"
     sodipodi:ry="119.38741"
     d="M 1155.657,503.59853 A 105.06091,119.38741 0 0 1 1129.3654,580.73308"
     transform="matrix(2.063827,0,0,1.816167,-1224.173,-529.6773)"
     sodipodi:start="0.015777069"
     sodipodi:end="0.72330061"
     sodipodi:open="true" />
  <path
     sodipodi:type="arc"
     style="fill:url(#radialGradient11018);fill-opacity:1;fill-rule:evenodd;stroke:#0946e0;stroke-width:2.70272541;stroke-linecap:round;stroke-linejoin:round;stroke-miterlimit:4;stroke-dasharray:none;stroke-opacity:1"
     id="path11016"
     sodipodi:cx="761.46515"
     sodipodi:cy="159.74612"
     sodipodi:rx="69.224106"
     sodipodi:ry="75.977676"
     d="M 830.68925 159.74612 A 69.224106 75.977676 0 1 1  692.24104,159.74612 A 69.224106 75.977676 0 1 1  830.68925 159.74612 z"
     transform="matrix(0.394215,0,0,0.359174,1029.397,103.6864)" />
  <path
     id="path15431"
     d="M 366.27202,314.99329 L 365.53083,314.07562 L 364.79173,313.32709 L 364.05106,312.75387 L 363.31195,312.3609 L 362.57077,312.14702 L 361.82958,312.10351 L 361.08839,312.24401 L 360.3498,312.55998 L 359.60861,313.04979 L 358.8695,313.72002 L 358.12832,314.56057 L 357.38713,315.57646 L 356.64802,316.75664 L 355.90735,318.10687 L 355.16617,319.61766 L 354.42498,321.28765 L 353.68587,323.11427 L 352.94468,325.09135 L 352.2061,327.21389 L 351.46491,329.47203 L 350.72372,331.86691 L 349.98461,334.39359 L 349.24343,337.03466 L 348.50276,339.7939 L 347.76365,342.66503 L 347.02246,345.63312 L 346.28127,348.69326 L 345.54215,351.84539 L 344.80097,355.06471 L 344.06031,358.36358 L 343.3212,361.71961 L 342.58001,365.12422 L 341.83882,368.57851 L 341.09971,372.06515 L 340.35905,375.58158 L 339.61788,379.11302 L 338.87874,382.65437 L 338.13757,386.19572 L 337.39638,389.72708 L 336.65727,393.24356 L 335.91659,396.72523 L 335.17749,400.17953 L 334.4363,403.58411 L 333.69511,406.94016 L 332.95394,410.23406 L 332.21534,413.45462 L 331.47415,416.60177 L 330.73504,419.65692 L 329.99386,422.62506 L 329.25267,425.48497 L 328.5141,428.24419 L 327.7729,430.88157 L 327.03172,433.40202 L 326.29052,435.79193 L 325.55142,438.05131 L 324.81023,440.16392 L 324.07164,442.13603 L 323.33046,443.95769 L 322.58927,445.6239 L 321.85016,447.12975 L 321.10897,448.47014 L 320.3683,449.6502 L 319.62893,450.65617 L 318.88775,451.4905 L 318.14655,452.157 L 317.40745,452.64194 L 316.66679,452.94783 L 315.92559,453.0846 L 315.18648,453.03612 L 314.44529,452.81229 L 313.70411,452.40941 L 312.965,451.8312 L 312.22434,451.08266 L 311.48315,450.15501 L 310.74405,449.05706 L 310.00284,447.79497 L 309.26167,446.36625 L 308.52308,444.77834 L 307.78189,443.03505 L 307.04278,441.13504 L 306.3016,439.08584 L 305.56041,436.89489 L 304.82128,434.57338 L 304.08062,432.11505 L 303.33944,429.53116 L 302.59826,426.8304 L 301.85914,424.01895 L 301.11796,421.09933 L 300.37938,418.08771 L 299.63818,414.97906 L 298.89699,411.79832 L 298.15791,408.53303 L 297.4167,405.21178 L 296.67601,401.83083 L 295.93693,398.39642 L 295.19572,394.92843 L 294.45454,391.42688 L 293.71544,387.90049 L 292.97424,384.3641 L 292.23359,380.81779 L 291.49448,377.28264 L 290.75328,373.76121 L 290.0121,370.2584 L 289.27299,366.78544 L 288.53233,363.356 L 287.79113,359.97133 L 287.05203,356.64884 L 286.31084,353.38977 L 285.56965,350.20279 L 284.83107,347.09917 L 284.08987,344.08253 L 283.35076,341.16912 L 282.60958,338.35149 L 281.8684,335.65072 L 281.12772,333.06683 L 280.38863,330.6135 L 279.64743,328.287 L 278.90623,326.09729 L 278.16715,324.05184 L 277.42595,322.15307 L 276.68736,320.4048 L 275.94618,318.81565 L 275.20499,317.38815 L 274.46588,316.12483 L 273.7247,315.02689 L 272.98402,314.10421 L 272.24491,313.35195 L 271.50372,312.77374 L 270.76254,312.37457 L 270.02343,312.14702 L 269.28224,312.10351 L 268.54155,312.23407 L 267.80246,312.54494 L 267.06129,313.03111 L 266.32007,313.69142 L 265.58098,314.527 L 264.84032,315.53667 L 264.09914,316.713 L 263.36001,318.05837 L 262.61883,319.56421 L 261.87763,321.23043 L 261.13854,323.04586 L 260.39788,325.01799 L 259.65668,327.13682 L 258.91756,329.38995 L 258.17639,331.78485 L 257.43572,334.30033 L 256.6966,336.94264 L 255.95543,339.69691 L 255.21423,342.56305 L 254.47512,345.52618 L 253.73395,348.58632 L 252.99535,351.72863 L 252.25415,354.95404 L 251.51299,358.24667 L 250.77179,361.59777 L 250.03268,365.00357 L 249.29201,368.45665 L 248.55291,371.94451 L 247.81172,375.45602 L 247.07052,378.98741 L 246.33143,382.52753 L 245.59023,386.06887 L 244.84955,389.60525 L 244.11044,393.11672 L 243.36927,396.60462 L 242.62807,400.05768 L 241.88896,403.46721 L 241.1483,406.82453 L 240.40714,410.11718 L 239.668,413.3427 L 238.92681,416.48985 L 238.18564,419.55001 L 237.44651,422.52184 L 236.70586,425.38797 L 235.96466,428.14722 L 235.22557,430.79451 L 234.48437,433.31499 L 233.74319,435.70986 L 233.00459,437.97298 L 232.26341,440.09054 L 231.5243,442.06762 L 230.78312,443.89425 L 230.04193,445.56547 L 229.30125,447.07627 L 228.56216,448.42662 L 227.82097,449.61166 L 227.07978,450.62136 L 226.34068,451.46689 L 225.60002,452.13214 L 224.8609,452.627 L 224.1197,452.94286 L 223.37853,453.07963 L 222.63734,453.03985 L 221.89823,452.82225 L 221.15755,452.42807 L 220.41844,451.85481 L 219.67726,451.11249 L 218.93606,450.18861"
     style="fill:none;stroke:#1e00ff;stroke-width:5;stroke-miterlimit:4;stroke-dasharray:none" />
  <path
     id="path15439"
     d="M 358.24467,314.43381 L 358.98586,313.51614 L 359.72497,312.76761 L 360.46564,312.19439 L 361.20474,311.80142 L 361.94593,311.58754 L 362.68712,311.54403 L 363.42831,311.68453 L 364.16689,312.0005 L 364.90808,312.49031 L 365.64719,313.16054 L 366.38838,314.00109 L 367.12957,315.01698 L 367.86867,316.19716 L 368.60934,317.54739 L 369.35053,319.05818 L 370.09172,320.72817 L 370.83082,322.55479 L 371.57201,324.53187 L 372.3106,326.65441 L 373.05179,328.91255 L 373.79297,331.30743 L 374.53208,333.83411 L 375.27327,336.47518 L 376.01394,339.23442 L 376.75305,342.10555 L 377.49424,345.07364 L 378.23542,348.13378 L 378.97454,351.28591 L 379.71572,354.50523 L 380.45638,357.8041 L 381.19549,361.16013 L 381.93668,364.56474 L 382.67787,368.01903 L 383.41698,371.50567 L 384.15764,375.0221 L 384.89881,378.55354 L 385.63795,382.09489 L 386.37912,385.63624 L 387.12031,389.1676 L 387.85942,392.68408 L 388.6001,396.16575 L 389.3392,399.62005 L 390.08039,403.02463 L 390.82158,406.38068 L 391.56275,409.67458 L 392.30135,412.89514 L 393.04254,416.04229 L 393.78165,419.09744 L 394.52283,422.06558 L 395.26402,424.92549 L 396.00259,427.68471 L 396.74379,430.32209 L 397.48497,432.84254 L 398.22617,435.23245 L 398.96527,437.49183 L 399.70646,439.60444 L 400.44505,441.57655 L 401.18623,443.39821 L 401.92742,445.06442 L 402.66653,446.57027 L 403.40772,447.91066 L 404.14839,449.09072 L 404.88776,450.09669 L 405.62894,450.93102 L 406.37014,451.59752 L 407.10924,452.08246 L 407.8499,452.38835 L 408.5911,452.52512 L 409.33021,452.47664 L 410.0714,452.25281 L 410.81258,451.84993 L 411.55169,451.27172 L 412.29235,450.52318 L 413.03354,449.59553 L 413.77264,448.49758 L 414.51385,447.23549 L 415.25502,445.80677 L 415.99361,444.21886 L 416.7348,442.47557 L 417.47391,440.57556 L 418.21509,438.52636 L 418.95628,436.33541 L 419.69541,434.0139 L 420.43607,431.55557 L 421.17725,428.97168 L 421.91843,426.27092 L 422.65755,423.45947 L 423.39873,420.53985 L 424.13731,417.52823 L 424.87851,414.41958 L 425.6197,411.23884 L 426.35878,407.97355 L 427.09999,404.6523 L 427.84068,401.27135 L 428.57976,397.83694 L 429.32097,394.36895 L 430.06215,390.8674 L 430.80125,387.34101 L 431.54245,383.80462 L 432.2831,380.25831 L 433.02221,376.72316 L 433.76341,373.20173 L 434.50459,369.69892 L 435.2437,366.22596 L 435.98436,362.79652 L 436.72556,359.41185 L 437.46466,356.08936 L 438.20585,352.83029 L 438.94704,349.64331 L 439.68562,346.53969 L 440.42682,343.52305 L 441.16593,340.60964 L 441.90711,337.79201 L 442.64829,335.09124 L 443.38897,332.50735 L 444.12806,330.05402 L 444.86926,327.72752 L 445.61046,325.53781 L 446.34954,323.49236 L 447.09074,321.59359 L 447.82933,319.84532 L 448.57051,318.25617 L 449.3117,316.82867 L 450.05081,315.56535 L 450.79199,314.46741 L 451.53267,313.54473 L 452.27178,312.79247 L 453.01297,312.21426 L 453.75415,311.81509 L 454.49326,311.58754 L 455.23445,311.54403 L 455.97514,311.67459 L 456.71423,311.98546 L 457.4554,312.47163 L 458.19662,313.13194 L 458.93571,313.96752 L 459.67637,314.97719 L 460.41755,316.15352 L 461.15668,317.49889 L 461.89786,319.00473 L 462.63906,320.67095 L 463.37815,322.48638 L 464.11881,324.45851 L 464.86001,326.57734 L 465.59913,328.83047 L 466.3403,331.22537 L 467.08097,333.74085 L 467.82009,336.38316 L 468.56126,339.13743 L 469.30246,342.00357 L 470.04157,344.9667 L 470.78274,348.02684 L 471.52134,351.16915 L 472.26254,354.39456 L 473.0037,357.68719 L 473.7449,361.03829 L 474.48401,364.44409 L 475.22468,367.89717 L 475.96378,371.38503 L 476.70497,374.89654 L 477.44617,378.42793 L 478.18526,381.96805 L 478.92646,385.50939 L 479.66714,389.04577 L 480.40625,392.55724 L 481.14742,396.04514 L 481.88862,399.4982 L 482.62773,402.90773 L 483.36839,406.26505 L 484.10955,409.5577 L 484.84869,412.78322 L 485.58988,415.93037 L 486.33105,418.99053 L 487.07018,421.96236 L 487.81083,424.82849 L 488.55203,427.58774 L 489.29112,430.23503 L 490.03232,432.75551 L 490.7735,435.15038 L 491.5121,437.4135 L 492.25328,439.53106 L 492.99239,441.50814 L 493.73357,443.33477 L 494.47476,445.00599 L 495.21544,446.51679 L 495.95453,447.86714 L 496.69572,449.05218 L 497.43691,450.06188 L 498.17601,450.90741 L 498.91667,451.57266 L 499.65579,452.06752 L 500.39699,452.38338 L 501.13816,452.52015 L 501.87935,452.48037 L 502.61846,452.26277 L 503.35914,451.86859 L 504.09825,451.29533 L 504.83943,450.55301 L 505.58063,449.62913"
     style="fill:none;stroke:#1e00ff;stroke-width:5;stroke-miterlimit:4;stroke-dasharray:none" />
  <path
     id="path15441"
     d="M 644.88925,314.99328 L 644.14806,314.07561 L 643.40896,313.32708 L 642.66829,312.75386 L 641.92918,312.36089 L 641.188,312.14701 L 640.44681,312.1035 L 639.70562,312.244 L 638.96703,312.55997 L 638.22584,313.04978 L 637.48673,313.72001 L 636.74555,314.56056 L 636.00436,315.57645 L 635.26525,316.75663 L 634.52458,318.10686 L 633.7834,319.61765 L 633.04221,321.28764 L 632.3031,323.11426 L 631.56191,325.09134 L 630.82333,327.21388 L 630.08214,329.47202 L 629.34095,331.8669 L 628.60184,334.39358 L 627.86066,337.03465 L 627.11999,339.79389 L 626.38088,342.66502 L 625.63969,345.63311 L 624.8985,348.69325 L 624.15938,351.84538 L 623.4182,355.0647 L 622.67754,358.36357 L 621.93843,361.7196 L 621.19724,365.12421 L 620.45605,368.5785 L 619.71694,372.06514 L 618.97628,375.58157 L 618.23511,379.11301 L 617.49597,382.65436 L 616.7548,386.19571 L 616.01361,389.72707 L 615.2745,393.24355 L 614.53382,396.72522 L 613.79472,400.17952 L 613.05353,403.5841 L 612.31234,406.94015 L 611.57117,410.23405 L 610.83257,413.45461 L 610.09138,416.60176 L 609.35227,419.65691 L 608.61109,422.62505 L 607.8699,425.48496 L 607.13133,428.24418 L 606.39013,430.88156 L 605.64895,433.40201 L 604.90775,435.79192 L 604.16865,438.0513 L 603.42746,440.16391 L 602.68887,442.13602 L 601.94769,443.95768 L 601.2065,445.62389 L 600.46739,447.12974 L 599.7262,448.47013 L 598.98553,449.65019 L 598.24616,450.65616 L 597.50498,451.49049 L 596.76378,452.15699 L 596.02468,452.64193 L 595.28402,452.94782 L 594.54282,453.08459 L 593.80371,453.03611 L 593.06252,452.81228 L 592.32134,452.4094 L 591.58223,451.83119 L 590.84157,451.08265 L 590.10038,450.155 L 589.36128,449.05705 L 588.62007,447.79496 L 587.8789,446.36624 L 587.14031,444.77833 L 586.39912,443.03504 L 585.66001,441.13503 L 584.91883,439.08583 L 584.17764,436.89488 L 583.43851,434.57337 L 582.69785,432.11504 L 581.95667,429.53115 L 581.21549,426.83039 L 580.47637,424.01894 L 579.73519,421.09932 L 578.99661,418.0877 L 578.25541,414.97905 L 577.51422,411.79831 L 576.77514,408.53302 L 576.03393,405.21177 L 575.29324,401.83082 L 574.55416,398.39641 L 573.81295,394.92842 L 573.07177,391.42687 L 572.33267,387.90048 L 571.59147,384.36409 L 570.85082,380.81778 L 570.11171,377.28263 L 569.37051,373.7612 L 568.62933,370.25839 L 567.89022,366.78543 L 567.14956,363.35599 L 566.40836,359.97132 L 565.66926,356.64883 L 564.92807,353.38976 L 564.18688,350.20278 L 563.4483,347.09916 L 562.7071,344.08252 L 561.96799,341.16911 L 561.22681,338.35148 L 560.48563,335.65071 L 559.74495,333.06682 L 559.00586,330.61349 L 558.26466,328.28699 L 557.52346,326.09728 L 556.78438,324.05183 L 556.04318,322.15306 L 555.30459,320.40479 L 554.56341,318.81564 L 553.82222,317.38814 L 553.08311,316.12482 L 552.34193,315.02688 L 551.60125,314.1042 L 550.86214,313.35194 L 550.12095,312.77373 L 549.37977,312.37456 L 548.64066,312.14701 L 547.89947,312.1035 L 547.15878,312.23406 L 546.41969,312.54493 L 545.67852,313.0311 L 544.9373,313.69141 L 544.19821,314.52699 L 543.45755,315.53666 L 542.71637,316.71299 L 541.97724,318.05836 L 541.23606,319.5642 L 540.49486,321.23042 L 539.75577,323.04585 L 539.01511,325.01798 L 538.27391,327.13681 L 537.53479,329.38994 L 536.79362,331.78484 L 536.05295,334.30032 L 535.31383,336.94263 L 534.57266,339.6969 L 533.83146,342.56304 L 533.09235,345.52617 L 532.35118,348.58631 L 531.61258,351.72862 L 530.87138,354.95403 L 530.13022,358.24666 L 529.38902,361.59776 L 528.64991,365.00356 L 527.90924,368.45664 L 527.17014,371.9445 L 526.42895,375.45601 L 525.68775,378.9874 L 524.94866,382.52752 L 524.20746,386.06886 L 523.46678,389.60524 L 522.72767,393.11671 L 521.9865,396.60461 L 521.2453,400.05767 L 520.50619,403.4672 L 519.76553,406.82452 L 519.02437,410.11717 L 518.28523,413.34269 L 517.54404,416.48984 L 516.80287,419.55 L 516.06374,422.52183 L 515.32309,425.38796 L 514.58189,428.14721 L 513.8428,430.7945 L 513.1016,433.31498 L 512.36042,435.70985 L 511.62182,437.97297 L 510.88064,440.09053 L 510.14153,442.06761 L 509.40035,443.89424 L 508.65916,445.56546 L 507.91848,447.07626 L 507.17939,448.42661 L 506.4382,449.61165 L 505.69701,450.62135 L 504.95791,451.46688 L 504.21725,452.13213 L 503.47813,452.62699 L 502.73693,452.94285 L 501.99576,453.07962 L 501.25457,453.03984 L 500.51546,452.82224 L 499.77478,452.42806 L 499.03567,451.8548 L 498.29449,451.11248 L 497.55329,450.1886"
     style="fill:none;stroke:#1e00ff;stroke-width:5;stroke-miterlimit:4;stroke-dasharray:none" />
  <path
     id="path15471"
     d="M 152.62448,384.5173 L 151.88329,388.04866 L 151.14418,391.56514 L 150.4035,395.04681 L 149.6644,398.50111 L 148.92321,401.90569 L 148.18202,405.26174 L 147.44085,408.55564 L 146.70225,411.7762 L 145.96107,414.92335 L 145.22196,417.9785 L 144.48078,420.94664 L 143.73959,423.80655 L 143.00102,426.56577 L 142.25982,429.20315 L 141.51864,431.7236 L 140.77744,434.11351 L 140.03834,436.37289 L 139.29715,438.4855 L 138.55856,440.45761 L 137.81738,442.27927 L 137.07619,443.94548 L 136.33708,445.45133 L 135.59589,446.79172 L 134.85522,447.97178 L 134.11585,448.97775 L 133.37467,449.81208 L 132.63347,450.47858 L 131.89437,450.96352 L 131.15371,451.26941 L 130.41251,451.40618 L 129.6734,451.3577 L 128.93221,451.13387 L 128.19103,450.73099 L 127.45192,450.15278 L 126.71126,449.40424 L 125.97007,448.47659 L 125.23097,447.37864 L 124.48976,446.11655 L 123.74859,444.68783 L 123.01,443.09992 L 122.26881,441.35663 L 121.5297,439.45662 L 120.78852,437.40742 L 120.04733,435.21647 L 119.3082,432.89496 L 118.56754,430.43663 L 117.82636,427.85274 L 117.08518,425.15198 L 116.34606,422.34053 L 115.60488,419.42091 L 114.8663,416.40929 L 114.1251,413.30064 L 113.38391,410.1199 L 112.64483,406.85461 L 111.90362,403.53336 L 111.16293,400.15241 L 110.42385,396.718 L 109.68264,393.25001 L 108.94146,389.74846 L 108.20236,386.22207 L 107.46116,382.68568 L 106.72051,379.13937 L 105.9814,375.60422 L 105.2402,372.08279 L 104.49902,368.57998 L 103.75991,365.10702 L 103.01925,361.67758 L 102.27805,358.29291 L 101.53895,354.97042 L 100.79776,351.71135 L 100.05657,348.52437 L 99.317991,345.42075 L 98.57679,342.40411 L 97.83768,339.4907 L 97.0965,336.67307 L 96.35532,333.9723 L 95.61464,331.38841 L 94.87555,328.93508 L 94.13435,326.60858 L 93.39315,324.41887 L 92.65407,322.37342 L 91.91287,320.47465 L 91.17428,318.72638 L 90.4331,317.13723 L 89.69191,315.70973 L 88.9528,314.44641 L 88.21162,313.34847 L 87.47094,312.42579 L 86.73183,311.67353 L 85.99064,311.09532 L 85.24946,310.69615 L 84.51035,310.4686 L 83.76916,310.42509 L 83.02847,310.55565 L 82.28938,310.86652 L 81.54821,311.35269 L 80.80699,312.013 L 80.0679,312.84858 L 79.32724,313.85825 L 78.58606,315.03458 L 77.84693,316.37995 L 77.10575,317.88579 L 76.36455,319.55201 L 75.62546,321.36744 L 74.8848,323.33957 L 74.1436,325.4584 L 73.40448,327.71153 L 72.66331,330.10643 L 71.92264,332.62191 L 71.18352,335.26422 L 70.44235,338.01849 L 69.70115,340.88463 L 68.96204,343.84776 L 68.22087,346.9079 L 67.48227,350.05021 L 66.74107,353.27562 L 65.99991,356.56825 L 65.25871,359.91935 L 64.5196,363.32515 L 63.77893,366.77823 L 63.03983,370.26609 L 62.29864,373.7776 L 61.55744,377.30899 L 60.81835,380.84911 L 60.07715,384.39045"
     style="fill:none;stroke:#1e00ff;stroke-width:5;stroke-miterlimit:4;stroke-dasharray:none"
     sodipodi:nodetypes="cccccccccccccccccccccccccccccccccccccccccccccccccccccccccccccccccccccccccccccccccccccccccccccccccccccccccccccccccccccccccccccc" />
  <path
     id="path15475"
     d="M 245.11809,385.63624 L 244.3769,389.1676 L 243.63779,392.68408 L 242.89711,396.16575 L 242.15801,399.62005 L 241.41682,403.02463 L 240.67563,406.38068 L 239.93446,409.67458 L 239.19586,412.89514 L 238.45468,416.04229 L 237.71557,419.09744 L 236.97439,422.06558 L 236.2332,424.92549 L 235.49463,427.68471 L 234.75343,430.32209 L 234.01225,432.84254 L 233.27105,435.23245 L 232.53195,437.49183 L 231.79076,439.60444 L 231.05217,441.57655 L 230.31099,443.39821 L 229.5698,445.06442 L 228.83069,446.57027 L 228.0895,447.91066 L 227.34883,449.09072 L 226.60946,450.09669 L 225.86828,450.93102 L 225.12708,451.59752 L 224.38798,452.08246 L 223.64732,452.38835 L 222.90612,452.52512 L 222.16701,452.47664 L 221.42582,452.25281 L 220.68464,451.84993 L 219.94553,451.27172 L 219.20487,450.52318 L 218.46368,449.59553 L 217.72458,448.49758 L 216.98337,447.23549 L 216.2422,445.80677 L 215.50361,444.21886 L 214.76242,442.47557 L 214.02331,440.57556 L 213.28213,438.52636 L 212.54094,436.33541 L 211.80181,434.0139 L 211.06115,431.55557 L 210.31997,428.97168 L 209.57879,426.27092 L 208.83967,423.45947 L 208.09849,420.53985 L 207.35991,417.52823 L 206.61871,414.41958 L 205.87752,411.23884 L 205.13844,407.97355 L 204.39723,404.6523 L 203.65654,401.27135 L 202.91746,397.83694 L 202.17625,394.36895 L 201.43507,390.8674 L 200.69597,387.34101 L 199.95477,383.80462 L 199.21412,380.25831 L 198.47501,376.72316 L 197.73381,373.20173 L 196.99263,369.69892 L 196.25352,366.22596 L 195.51286,362.79652 L 194.77166,359.41185 L 194.03256,356.08936 L 193.29137,352.83029 L 192.55018,349.64331 L 191.8116,346.53969 L 191.0704,343.52305 L 190.33129,340.60964 L 189.59011,337.79201 L 188.84893,335.09124 L 188.10825,332.50735 L 187.36916,330.05402 L 186.62796,327.72752 L 185.88676,325.53781 L 185.14768,323.49236 L 184.40648,321.59359 L 183.66789,319.84532 L 182.92671,318.25617 L 182.18552,316.82867 L 181.44641,315.56535 L 180.70523,314.46741 L 179.96455,313.54473 L 179.22544,312.79247 L 178.48425,312.21426 L 177.74307,311.81509 L 177.00396,311.58754 L 176.26277,311.54403 L 175.52208,311.67459 L 174.78299,311.98546 L 174.04182,312.47163 L 173.3006,313.13194 L 172.56151,313.96752 L 171.82085,314.97719 L 171.07967,316.15352 L 170.34054,317.49889 L 169.59936,319.00473 L 168.85816,320.67095 L 168.11907,322.48638 L 167.37841,324.45851 L 166.63721,326.57734 L 165.89809,328.83047 L 165.15692,331.22537 L 164.41625,333.74085 L 163.67713,336.38316 L 162.93596,339.13743 L 162.19476,342.00357 L 161.45565,344.9667 L 160.71448,348.02684 L 159.97588,351.16915 L 159.23468,354.39456 L 158.49352,357.68719 L 157.75232,361.03829 L 157.01321,364.44409 L 156.27254,367.89717 L 155.53344,371.38503 L 154.79225,374.89654 L 154.05105,378.42793 L 153.31196,381.96805 L 152.57076,385.50939"
     style="fill:none;stroke:#1e00ff;stroke-width:5;stroke-miterlimit:4;stroke-dasharray:none"
     sodipodi:nodetypes="cccccccccccccccccccccccccccccccccccccccccccccccccccccccccccccccccccccccccccccccccccccccccccccccccccccccccccccccccccccccccccccc" />
  <path
     id="path15477"
     d="M 709.68377,386.22383 L 708.94258,389.75519 L 708.20347,393.27167 L 707.46279,396.75334 L 706.72369,400.20764 L 705.9825,403.61222 L 705.24131,406.96827 L 704.50014,410.26217 L 703.76154,413.48273 L 703.02036,416.62988 L 702.28125,419.68503 L 701.54007,422.65317 L 700.79888,425.51308 L 700.06031,428.2723 L 699.31911,430.90968 L 698.57793,433.43013 L 697.83673,435.82004 L 697.09763,438.07942 L 696.35644,440.19203 L 695.61785,442.16414 L 694.87667,443.9858 L 694.13548,445.65201 L 693.39637,447.15786 L 692.65518,448.49825 L 691.91451,449.67831 L 691.17514,450.68428 L 690.43396,451.51861 L 689.69276,452.18511 L 688.95366,452.67005 L 688.213,452.97594 L 687.4718,453.11271 L 686.73269,453.06423 L 685.9915,452.8404 L 685.25032,452.43752 L 684.51121,451.85931 L 683.77055,451.11077 L 683.02936,450.18312 L 682.29026,449.08517 L 681.54905,447.82308 L 680.80788,446.39436 L 680.06929,444.80645 L 679.3281,443.06316 L 678.58899,441.16315 L 677.84781,439.11395 L 677.10662,436.923 L 676.36749,434.60149 L 675.62683,432.14316 L 674.88565,429.55927 L 674.14447,426.85851 L 673.40535,424.04706 L 672.66417,421.12744 L 671.92559,418.11582 L 671.18439,415.00717 L 670.4432,411.82643 L 669.70412,408.56114 L 668.96291,405.23989 L 668.22222,401.85894 L 667.48314,398.42453 L 666.74193,394.95654 L 666.00075,391.45499 L 665.26165,387.9286 L 664.52045,384.39221 L 663.7798,380.8459 L 663.04069,377.31075 L 662.29949,373.78932 L 661.55831,370.28651 L 660.8192,366.81355 L 660.07854,363.38411 L 659.33734,359.99944 L 658.59824,356.67695 L 657.85705,353.41788 L 657.11586,350.2309 L 656.37728,347.12728 L 655.63608,344.11064 L 654.89697,341.19723 L 654.15579,338.3796 L 653.41461,335.67883 L 652.67393,333.09494 L 651.93484,330.64161 L 651.19364,328.31511 L 650.45244,326.1254 L 649.71336,324.07995 L 648.97216,322.18118 L 648.23357,320.43291 L 647.49239,318.84376 L 646.7512,317.41626 L 646.01209,316.15294 L 645.27091,315.055 L 644.53023,314.13232 L 643.79112,313.38006 L 643.04993,312.80185 L 642.30875,312.40268 L 641.56964,312.17513 L 640.82845,312.13162 L 640.08776,312.26218 L 639.34867,312.57305 L 638.6075,313.05922 L 637.86628,313.71953 L 637.12719,314.55511 L 636.38653,315.56478 L 635.64535,316.74111 L 634.90622,318.08648 L 634.16504,319.59232 L 633.42384,321.25854 L 632.68475,323.07397 L 631.94409,325.0461 L 631.20289,327.16493 L 630.46377,329.41806 L 629.7226,331.81296 L 628.98193,334.32844 L 628.24281,336.97075 L 627.50164,339.72502 L 626.76044,342.59116 L 626.02133,345.55429 L 625.28016,348.61443 L 624.54156,351.75674 L 623.80036,354.98215 L 623.0592,358.27478 L 622.318,361.62588 L 621.57889,365.03168 L 620.83822,368.48476 L 620.09912,371.97262 L 619.35793,375.48413 L 618.61673,379.01552 L 617.87764,382.55564 L 617.13644,386.09698"
     style="fill:none;stroke:#1e00ff;stroke-width:5;stroke-miterlimit:4;stroke-dasharray:none"
     sodipodi:nodetypes="cccccccccccccccccccccccccccccccccccccccccccccccccccccccccccccccccccccccccccccccccccccccccccccccccccccccccccccccccccccccccccccc" />
  <path
     id="path15479"
     d="M 802.67367,384.98409 L 801.53687,390.09788 L 800.79776,393.61436 L 800.05708,397.09603 L 799.31798,400.55033 L 798.57679,403.95491 L 797.8356,407.31096 L 797.09443,410.60486 L 796.35583,413.82542 L 795.61465,416.97257 L 794.87554,420.02772 L 794.13436,422.99586 L 793.39317,425.85577 L 792.6546,428.61499 L 791.9134,431.25237 L 791.17222,433.77282 L 790.43102,436.16273 L 789.69192,438.42211 L 788.95073,440.53472 L 788.21214,442.50683 L 787.47096,444.32849 L 786.72977,445.9947 L 785.99066,447.50055 L 785.24947,448.84094 L 784.5088,450.021 L 783.76943,451.02697 L 783.02825,451.8613 L 782.28705,452.5278 L 781.54795,453.01274 L 780.80729,453.31863 L 780.06609,453.4554 L 779.32698,453.40692 L 778.58579,453.18309 L 777.84461,452.78021 L 777.1055,452.202 L 776.36484,451.45346 L 775.62365,450.52581 L 774.88455,449.42786 L 774.14334,448.16577 L 773.40217,446.73705 L 772.66358,445.14914 L 771.92239,443.40585 L 771.18328,441.50584 L 770.4421,439.45664 L 769.70091,437.26569 L 768.96178,434.94418 L 768.22112,432.48585 L 767.47994,429.90196 L 766.73876,427.2012 L 765.99964,424.38975 L 765.25846,421.47013 L 764.51988,418.45851 L 763.77868,415.34986 L 763.03749,412.16912 L 762.29841,408.90383 L 761.5572,405.58258 L 760.81651,402.20163 L 760.07743,398.76722 L 759.33622,395.29923 L 758.59504,391.79768 L 757.85594,388.27129 L 757.11474,384.7349 L 756.37409,381.18859 L 755.63498,377.65344 L 754.89378,374.13201 L 754.1526,370.6292 L 753.41349,367.15624 L 752.67283,363.7268 L 751.93163,360.34213 L 751.19253,357.01964 L 750.45134,353.76057 L 749.71015,350.57359 L 748.97157,347.46997 L 748.23037,344.45333 L 747.49126,341.53992 L 746.75008,338.72229 L 746.0089,336.02152 L 745.26822,333.43763 L 744.52913,330.9843 L 743.78793,328.6578 L 743.04673,326.46809 L 742.30765,324.42264 L 741.56645,322.52387 L 740.82786,320.7756 L 740.08668,319.18645 L 739.34549,317.75895 L 738.60638,316.49563 L 737.8652,315.39769 L 737.12452,314.47501 L 736.38541,313.72275 L 735.64422,313.14454 L 734.90304,312.74537 L 734.16393,312.51782 L 733.42274,312.47431 L 732.68205,312.60487 L 731.94296,312.91574 L 731.20179,313.40191 L 730.46057,314.06222 L 729.72148,314.8978 L 728.98082,315.90747 L 728.23964,317.0838 L 727.50051,318.42917 L 726.75933,319.93501 L 726.01813,321.60123 L 725.27904,323.41666 L 724.53838,325.38879 L 723.79718,327.50762 L 723.05806,329.76075 L 722.31689,332.15565 L 721.57622,334.67113 L 720.8371,337.31344 L 720.09593,340.06771 L 719.35473,342.93385 L 718.61562,345.89698 L 717.87445,348.95712 L 717.13585,352.09943 L 716.39465,355.32484 L 715.65349,358.61747 L 714.91229,361.96857 L 714.17318,365.37437 L 713.43251,368.82745 L 712.69341,372.31531 L 711.95222,375.82682 L 711.21102,379.35821 L 710.47193,382.89833 L 709.73073,386.43967"
     style="fill:none;stroke:#1e00ff;stroke-width:5;stroke-miterlimit:4;stroke-dasharray:none"
     sodipodi:nodetypes="cccccccccccccccccccccccccccccccccccccccccccccccccccccccccccccccccccccccccccccccccccccccccccccccccccccccccccccccccccccccccccccc" />
  <g
     id="g15487"
     transform="matrix(2.043558,0,0,1,-896.2443,91.75347)">
    <path
       sodipodi:nodetypes="cccccccccccccccccccccccccccccccccccccccccccccccccccccccccccccccccccccccccccccccccccccccccccccccccccccccccccccccccccccccccccccc"
       style="fill:none;stroke:red;stroke-width:4.24558163;stroke-miterlimit:4;stroke-dasharray:none;stroke-opacity:1"
       d="M 976.32746,428.73171 L 974.84489,429.94256 L 973.36794,431.14704 L 971.90028,432.32869 L 970.44161,433.49584 L 968.99629,434.63057 L 967.56523,435.73617 L 966.15244,436.80447 L 964.76274,437.83189 L 963.39306,438.81208 L 962.05166,439.73956 L 960.73458,440.61227 L 959.44929,441.41997 L 958.19516,442.17044 L 956.97524,442.84453 L 955.7897,443.44843 L 954.64249,443.97393 L 953.53489,444.42363 L 952.46917,444.78264 L 951.44629,445.06049 L 950.46605,445.24482 L 949.53148,445.33582 L 948.64527,445.33307 L 947.80643,445.22844 L 947.01501,445.02817 L 946.27552,444.72498 L 945.58536,444.31651 L 944.94451,443.80725 L 944.35826,443.19154 L 943.82368,442.46643 L 943.33847,441.6391 L 942.90895,440.70312 L 942.52969,439.6593 L 942.20304,438.50799 L 941.92915,437.25394 L 941.70438,435.89573 L 941.5319,434.42932 L 941.41073,432.86324 L 941.3365,431.19601 L 941.31127,429.42878 L 941.33435,427.56913 L 941.40152,425.613 L 941.51598,423.56533 L 941.67304,421.42554 L 941.87174,419.20063 L 942.11004,416.89986 L 942.38761,414.51506 L 942.70176,412.05423 L 943.05026,409.52324 L 943.43251,406.92831 L 943.8453,404.2659 L 944.28669,401.55146 L 944.75501,398.77553 L 945.24452,395.95634 L 945.76014,393.08897 L 946.29091,390.18538 L 946.83954,387.24659 L 947.40485,384.27767 L 947.97874,381.28599 L 948.56252,378.27418 L 949.15484,375.25002 L 949.74883,372.21727 L 950.34607,369.17924 L 950.94095,366.14981 L 951.53055,363.12604 L 952.11469,360.11348 L 952.69131,357.12138 L 953.25421,354.15352 L 953.80362,351.21187 L 954.33603,348.31012 L 954.84856,345.4439 L 955.3399,342.62096 L 955.80832,339.85127 L 956.2496,337.13059 L 956.66181,334.47445 L 957.04465,331.87328 L 957.39314,329.34228 L 957.70759,326.88208 L 957.98464,324.5022 L 958.22316,322.1959 L 958.42149,319.97171 L 958.5787,317.83675 L 958.69155,315.78726 L 958.76175,313.83134 L 958.78364,311.96776 L 958.75803,310.20125 L 958.68543,308.53585 L 958.563,306.96722 L 958.38938,305.50442 L 958.16663,304.14587 L 957.89149,302.88928 L 957.56375,301.74019 L 957.18683,300.6967 L 956.75459,299.76114 L 956.27151,298.93071 L 955.73641,298.21051 L 955.14856,297.59301 L 954.50952,297.08 L 953.82025,296.67485 L 953.0789,296.37229 L 952.28826,296.16917 L 951.4492,296.07005 L 950.56175,296.06476 L 949.62717,296.15574 L 948.65002,296.3389 L 947.62589,296.61422 L 946.55833,296.97696 L 945.45256,297.42289 L 944.3039,297.95142 L 943.12012,298.55297 L 941.90001,299.23256 L 940.64577,299.97687 L 939.35865,300.7883 L 938.04428,301.66053 L 936.70017,302.58848 L 935.33346,303.56893 L 933.94078,304.59608 L 932.52837,305.66363 L 931.09876,306.76624 L 929.65433,307.90426 L 928.19508,309.06875 L 926.72654,310.25606 L 925.24981,311.45499 L 923.76723,312.66586 L 922.28334,313.88455 L 919.05556,317.47503"
       id="path15481" />
    <path
       sodipodi:nodetypes="cccccccccccccccccccccccccccccccccccccccccccccccccccccccccccccccccccccccccccccccccccccccccccccccccccccccccccccccccccccccccccccc"
       style="fill:none;stroke:red;stroke-width:4.24558163;stroke-miterlimit:4;stroke-dasharray:none;stroke-opacity:1"
       d="M 1033.2746,540.76317 L 1031.315,542.60138 L 1029.838,543.80585 L 1027.4122,546.10644 L 1025.9535,547.27359 L 1024.5082,548.40832 L 1023.0771,549.51392 L 1021.6644,550.58223 L 1020.2746,551.60965 L 1018.905,552.58984 L 1017.5636,553.51732 L 1016.2465,554.39002 L 1014.9612,555.19773 L 1013.707,555.9482 L 1012.4871,556.62228 L 1011.3016,557.22618 L 1010.1544,557.75168 L 1009.0468,558.20138 L 1007.9811,558.5604 L 1006.9582,558.83824 L 1005.978,559.02258 L 1005.0434,559.11357 L 1004.1572,559.11083 L 1003.3184,559.00619 L 1002.5269,558.80593 L 1001.7874,558.50274 L 1001.0973,558.09426 L 1000.4564,557.58499 L 999.87019,556.9693 L 999.33559,556.24418 L 998.8504,555.41686 L 998.42084,554.48087 L 998.04162,553.43705 L 997.71497,552.28574 L 997.44104,551.0317 L 997.21628,549.67349 L 997.04383,548.20708 L 996.92266,546.64099 L 996.84844,544.97376 L 996.82322,543.20653 L 996.84624,541.34688 L 996.9134,539.39076 L 997.02786,537.34308 L 997.18495,535.20329 L 997.38364,532.97838 L 997.62199,530.67761 L 997.89956,528.29281 L 998.21365,525.83198 L 998.56221,523.30099 L 998.9444,520.70606 L 999.35724,518.04366 L 999.79861,515.3292 L 1000.2669,512.55328 L 1000.7564,509.73409 L 1001.2721,506.86672 L 1001.8029,503.96313 L 1002.3515,501.02434 L 1002.9167,498.05543 L 1003.4907,495.06374 L 1004.0744,492.05194 L 1004.6668,489.02777 L 1005.2607,485.99502 L 1005.858,482.95699 L 1006.4529,479.92756 L 1007.0425,476.9038 L 1007.6266,473.89123 L 1008.2032,470.89914 L 1008.7661,467.93127 L 1009.3155,464.98962 L 1009.848,462.08788 L 1010.3605,459.22165 L 1010.8518,456.39871 L 1011.3203,453.62902 L 1011.7615,450.90834 L 1012.1737,448.25221 L 1012.5566,445.65104 L 1012.905,443.12004 L 1013.2195,440.65983 L 1013.4965,438.27996 L 1013.7351,435.97365 L 1013.9334,433.74947 L 1014.0906,431.61451 L 1014.2034,429.56502 L 1014.2736,427.60909 L 1014.2956,425.74552 L 1014.2699,423.979 L 1014.1973,422.31361 L 1014.0749,420.74497 L 1013.9013,419.28218 L 1013.6785,417.92362 L 1013.4034,416.66703 L 1013.0756,415.51795 L 1012.6987,414.47445 L 1012.2665,413.53889 L 1011.7834,412.70847 L 1011.2483,411.98827 L 1010.6605,411.37076 L 1010.0214,410.85776 L 1009.3321,410.45261 L 1008.5908,410.15005 L 1007.8002,409.94691 L 1006.9611,409.8478 L 1006.0736,409.84252 L 1005.1391,409.9335 L 1004.162,410.11666 L 1003.1379,410.39198 L 1002.0703,410.75471 L 1000.9645,411.20064 L 999.81585,411.72918 L 998.63201,412.33072 L 997.41192,413.01031 L 996.15769,413.75462 L 994.8706,414.56605 L 993.55616,415.43829 L 992.21209,416.36623 L 990.84539,417.34668 L 989.4527,418.37383 L 988.0403,419.44138 L 986.61068,420.544 L 985.16625,421.68202 L 983.707,422.8465 L 982.23846,424.03381 L 980.76173,425.23275 L 979.27915,426.44361 L 977.79527,427.6623 L 976.30976,428.87914"
       id="path15483" />
  </g>
  <g
     id="g15496"
     transform="matrix(1.003485,0,0,1.003485,-6.14302,-3.358826)">
    <path
       id="path15498"
       d="M 951.50877,383.83257 C 969.08108,400.20031 997.72323,426.87899 1019.6111,447.26659 C 1046.2411,472.07105 1072.8707,496.87524 1099.5005,521.67966 C 1102.5564,524.52609 1105.6124,527.37252 1108.6682,530.21891 C 1130.4957,550.55019 1152.3236,570.8817 1174.151,591.21298 C 1190.3035,606.25828 1206.4562,621.30361 1222.6084,636.34869 C 1230.0299,643.26141 1237.4513,650.1741 1244.8727,657.0868 C 1248.3652,660.33988 1251.8576,663.59288 1255.35,666.84592"
       style="fill:none;fill-rule:evenodd;stroke:black;stroke-width:4.51563168;stroke-linecap:round;stroke-linejoin:round;stroke-miterlimit:4;stroke-dasharray:none;stroke-dashoffset:0;stroke-opacity:1" />
    <path
       transform="matrix(0.863321,0.795153,-0.424058,0.460411,695.7461,-145.7444)"
       d="M 859.11055,349.40894 L 799.1726,384.01412 L 799.1726,314.80375 L 859.11055,349.40894 z "
       inkscape:randomized="0"
       inkscape:rounded="0"
       inkscape:flatsided="true"
       sodipodi:arg2="1.0471976"
       sodipodi:arg1="0"
       sodipodi:r2="19.979317"
       sodipodi:r1="39.95863"
       sodipodi:cy="349.40894"
       sodipodi:cx="819.15192"
       sodipodi:sides="3"
       id="path15500"
       style="fill:black;fill-opacity:1;fill-rule:evenodd;stroke:black;stroke-width:1.1666826;stroke-linecap:butt;stroke-linejoin:round;stroke-miterlimit:4;stroke-dasharray:none;stroke-dashoffset:0;stroke-opacity:1"
       sodipodi:type="star" />
  </g>
  <path
     style="opacity:0.13746631;fill:#ffffff;fill-opacity:0;fill-rule:nonzero;stroke:#000000;stroke-width:7.79821;stroke-linecap:round;stroke-linejoin:miter;stroke-miterlimit:10;stroke-dasharray:none;stroke-dashoffset:0;stroke-opacity:1"
     id="path2548"
     d="m 1755.3627,380.6306 c 0.028,204.74959 -182.2192,370.74541 -407.0423,370.74541 -224.8228,0 -407.0699,-165.99582 -407.04239,-370.74541 C 941.25051,175.88098 1123.4976,9.885198 1348.3204,9.885198 c 224.8231,0 407.0702,165.995782 407.0423,370.745402 z" />
  <path
     style="opacity:0.13746631;fill:#ffffff;fill-opacity:0;fill-rule:nonzero;stroke:#000000;stroke-width:4.19228;stroke-linecap:round;stroke-linejoin:miter;stroke-miterlimit:10;stroke-dasharray:none;stroke-dashoffset:0;stroke-opacity:1"
     id="path3320"
     d="m 1527.3886,384.6306 c 0.012,90.07447 -80.1631,163.10015 -179.0682,163.10015 -98.9051,0 -179.0802,-73.02568 -179.068,-163.10015 -0.012,-90.07446 80.1629,-163.10012 179.068,-163.10012 98.9051,0 179.0804,73.02566 179.0682,163.10012 z" />
  <ellipse
     style="fill:url(#radialGradient15506-8);fill-opacity:1;fill-rule:evenodd;stroke:#778cc5;stroke-width:0.607626;stroke-linecap:round;stroke-linejoin:round;stroke-miterlimit:4;stroke-dasharray:none;stroke-opacity:1"
     id="path15504-1"
     cx="1471.5099"
     cy="502.7594"
     rx="16.30443"
     ry="16.304445" />
  <ellipse
     style="fill:url(#radialGradient15506-3);fill-opacity:1;fill-rule:evenodd;stroke:#778cc5;stroke-width:0.61174;stroke-linecap:round;stroke-linejoin:round;stroke-miterlimit:4;stroke-dasharray:none;stroke-opacity:1"
     id="path15504-5"
     cx="1428.174"
     cy="299.39139"
     rx="16.414824"
     ry="16.414839" />
  <path
     style="fill:#ffffff;fill-opacity:0;fill-rule:nonzero;stroke:#000000;stroke-width:4.81699;stroke-linecap:round;stroke-linejoin:miter;stroke-miterlimit:10;stroke-dasharray:none;stroke-dashoffset:0;stroke-opacity:1;opacity:0.13746631"
     id="path3322"
     d="m 1472.5893,384.6306 c 0.012,62.50947 -55.631,113.18747 -124.2689,113.18747 -68.6377,0 -124.2772,-50.678 -124.2688,-113.18747 -0.013,-62.50946 55.6311,-113.18746 124.2688,-113.18746 68.6379,0 124.2773,50.678 124.2689,113.18746 z" />
  <path
     style="fill:black;fill-opacity:1;fill-rule:evenodd;stroke:black;stroke-width:1.50748038;stroke-linecap:round;stroke-linejoin:round;stroke-miterlimit:4;stroke-dasharray:none;stroke-opacity:1"
     d="M 877.31543,360.22814 L 877.31543,378.91564 L 59.252955,378.91564 L 59.252955,383.10314 L 877.31543,383.10314 L 877.31543,401.60314 L 944.44043,380.91564 L 877.31543,360.22814 z "
     id="path15502" />
  <text
     xml:space="preserve"
     style="font-style:normal;font-variant:normal;font-weight:normal;font-stretch:normal;line-height:0%;font-family:Arial;text-align:start;writing-mode:lr-tb;text-anchor:start;fill:#000000;fill-opacity:1;stroke:none;stroke-width:1px;stroke-linecap:butt;stroke-linejoin:miter;stroke-opacity:1"
     x="197.80334"
     y="273.7774"
     id="text18251"><tspan
       sodipodi:role="line"
       id="tspan18253"
       x="197.80334"
       y="273.7774"
       style="font-size:56px;line-height:1.25">Fotone incidente</tspan></text>
  <text
     xml:space="preserve"
     style="font-style:normal;font-variant:normal;font-weight:normal;font-stretch:normal;line-height:0%;font-family:Arial;text-align:start;writing-mode:lr-tb;text-anchor:start;display:inline;fill:#000000;fill-opacity:1;stroke:none;stroke-width:1px;stroke-linecap:butt;stroke-linejoin:miter;stroke-opacity:1;paint-order:fill markers stroke"
     x="1142.2134"
     y="107.6226"
     id="text18255"><tspan
       sodipodi:role="line"
       x="1142.2134"
       y="107.6226"
       id="tspan18259"
       style="font-size:56px;line-height:1.25;paint-order:fill markers stroke">Elettrone</tspan><tspan
       sodipodi:role="line"
       x="1142.2134"
       y="177.62259"
       style="font-size:56px;line-height:1.25;paint-order:fill markers stroke"
       id="tspan65">urtato</tspan></text>
  <text
     xml:space="preserve"
     style="font-style:normal;font-variant:normal;font-weight:normal;font-stretch:normal;line-height:0%;font-family:Arial;text-align:start;writing-mode:lr-tb;text-anchor:start;fill:#000000;fill-opacity:1;stroke:none;stroke-width:1px;stroke-linecap:butt;stroke-linejoin:miter;stroke-opacity:1"
     x="811.78491"
     y="602.92218"
     id="text18261"><tspan
       sodipodi:role="line"
       x="811.78491"
       y="602.92218"
       id="tspan18269"
       style="font-size:56px;line-height:1.25">Fotone</tspan><tspan
       sodipodi:role="line"
       x="811.78491"
       y="672.92218"
       style="font-size:56px;line-height:1.25"
       id="tspan69">diffuso</tspan></text>
  <path
     d="m 1376.1351,348.58639 c 0,11.23398 -10.1967,20.34167 -22.7774,20.34167 -12.5806,0 -22.7789,-9.10769 -22.7773,-20.34167 0,-11.23398 10.1967,-20.34168 22.7773,-20.34168 12.5807,0 22.7789,9.1077 22.7774,20.34168 z"
     id="path3324"
     style="opacity:0.40161725;fill:url(#radialGradient2673);fill-opacity:1;fill-rule:nonzero;stroke:#000000;stroke-width:1.79365;stroke-linecap:round;stroke-linejoin:miter;stroke-miterlimit:10;stroke-dasharray:none;stroke-dashoffset:0;stroke-opacity:1" />
  <path
     d="m 1373.2173,408.2806 c 0,11.23397 -10.1967,20.34166 -22.7773,20.34166 -12.5807,0 -22.779,-9.10769 -22.7774,-20.34166 0,-11.23399 10.1967,-20.34167 22.7774,-20.34167 12.5806,0 22.7788,9.10768 22.7773,20.34167 z"
     id="path3340"
     style="opacity:0.40161725;fill:url(#radialGradient2670);fill-opacity:1;fill-rule:nonzero;stroke:#000000;stroke-width:1.79365;stroke-linecap:round;stroke-linejoin:miter;stroke-miterlimit:10;stroke-dasharray:none;stroke-dashoffset:0;stroke-opacity:1" />
  <path
     d="m 1404.9156,380.62567 c 0,11.23398 -10.1967,20.34167 -22.7773,20.34167 -12.5807,0 -22.7789,-9.10769 -22.7774,-20.34167 0,-11.23398 10.1967,-20.34167 22.7774,-20.34167 12.5806,0 22.7788,9.10769 22.7773,20.34167 z"
     id="path3355"
     style="opacity:0.40161725;fill:url(#radialGradient2667);fill-opacity:1;fill-rule:nonzero;stroke:#000000;stroke-width:1.79365;stroke-linecap:round;stroke-linejoin:miter;stroke-miterlimit:10;stroke-dasharray:none;stroke-dashoffset:0;stroke-opacity:1" />
  <path
     d="m 1340.0132,382.48335 c 0,11.23398 -10.1966,20.34167 -22.7773,20.34167 -12.5806,0 -22.7789,-9.10769 -22.7773,-20.34167 0,-11.23399 10.1967,-20.34167 22.7773,-20.34167 12.5807,0 22.7788,9.10768 22.7773,20.34167 z"
     id="path3359"
     style="opacity:0.40161725;fill:url(#radialGradient2664);fill-opacity:1;fill-rule:nonzero;stroke:#000000;stroke-width:1.79365;stroke-linecap:round;stroke-linejoin:miter;stroke-miterlimit:10;stroke-dasharray:none;stroke-dashoffset:0;stroke-opacity:1" />
  <path
     d="m 1387.7465,383.25222 c 0,11.23398 -10.1968,20.34167 -22.7774,20.34167 -12.5807,0 -22.7789,-9.10769 -22.7773,-20.34167 0,-11.23399 10.1966,-20.34167 22.7773,-20.34167 12.5806,0 22.7788,9.10768 22.7774,20.34167 z"
     id="path3369"
     style="opacity:0.40161725;fill:url(#radialGradient2661);fill-opacity:1;fill-rule:nonzero;stroke:#000000;stroke-width:1.79365;stroke-linecap:round;stroke-linejoin:miter;stroke-miterlimit:10;stroke-dasharray:none;stroke-dashoffset:0;stroke-opacity:1" />
  <path
     d="m 1374.1096,381.21532 c 0,11.23398 -10.1967,20.34167 -22.7773,20.34167 -12.5807,0 -22.7789,-9.10769 -22.7774,-20.34167 0,-11.23398 10.1967,-20.34168 22.7774,-20.34168 12.5806,0 22.7789,9.1077 22.7773,20.34168 z"
     id="path3363"
     style="opacity:0.40161725;fill:url(#radialGradient2658);fill-opacity:1;fill-rule:nonzero;stroke:#000000;stroke-width:1.79365;stroke-linecap:round;stroke-linejoin:miter;stroke-miterlimit:10;stroke-dasharray:none;stroke-dashoffset:0;stroke-opacity:1" />
  <path
     d="m 1349.6599,354.30868 c 0,11.23397 -10.1967,20.34168 -22.7774,20.34168 -12.5806,0 -22.7789,-9.10771 -22.7773,-20.34168 0,-11.23398 10.1967,-20.34167 22.7773,-20.34167 12.5807,0 22.7789,9.10769 22.7774,20.34167 z"
     id="path3379"
     style="opacity:0.40161725;fill:url(#radialGradient2655);fill-opacity:1;fill-rule:nonzero;stroke:#000000;stroke-width:1.79365;stroke-linecap:round;stroke-linejoin:miter;stroke-miterlimit:10;stroke-dasharray:none;stroke-dashoffset:0;stroke-opacity:1" />
  <path
     d="m 1353.9782,403.03087 c 0,11.23398 -10.1967,20.34167 -22.7773,20.34167 -12.5807,0 -22.7789,-9.10769 -22.7774,-20.34167 0,-11.23398 10.1967,-20.34167 22.7774,-20.34167 12.5806,0 22.779,9.10769 22.7773,20.34167 z"
     id="path3381"
     style="opacity:0.40161725;fill:url(#radialGradient2652);fill-opacity:1;fill-rule:nonzero;stroke:#000000;stroke-width:1.79365;stroke-linecap:round;stroke-linejoin:miter;stroke-miterlimit:10;stroke-dasharray:none;stroke-dashoffset:0;stroke-opacity:1" />
  <path
     d="m 1391.9088,358.82343 c 0,11.23398 -10.1967,20.34167 -22.7774,20.34167 -12.5807,0 -22.7789,-9.10769 -22.7773,-20.34167 0,-11.23398 10.1966,-20.34167 22.7773,-20.34167 12.5807,0 22.7789,9.10769 22.7774,20.34167 z"
     id="path3383"
     style="opacity:0.40161725;fill:url(#radialGradient2649);fill-opacity:1;fill-rule:nonzero;stroke:#000000;stroke-width:1.79365;stroke-linecap:round;stroke-linejoin:miter;stroke-miterlimit:10;stroke-dasharray:none;stroke-dashoffset:0;stroke-opacity:1" />
  <text
     style="font-style:normal;font-variant:normal;font-weight:normal;font-stretch:normal;font-size:26.6667px;line-height:0%;font-family:Sans;-inkscape-font-specification:'Sans, Normal';font-variant-ligatures:normal;font-variant-caps:normal;font-variant-numeric:normal;font-variant-east-asian:normal;text-align:center;writing-mode:lr-tb;text-anchor:middle;fill:#000000;fill-opacity:1;stroke:none;stroke-width:1.794;stroke-linecap:butt;stroke-linejoin:miter;stroke-dasharray:none;stroke-opacity:1"
     xml:space="preserve"
     id="text3459"
     y="486.08975"
     x="1271.1366"
     transform="scale(1.0582419,0.94496352)"><tspan
       id="tspan3461"
       y="486.08975"
       x="1271.1366"
       style="font-style:normal;font-variant:normal;font-weight:normal;font-stretch:normal;font-size:26.66666667px;font-family:Sans;-inkscape-font-specification:'Sans, Normal';font-variant-ligatures:normal;font-variant-caps:normal;font-variant-numeric:normal;font-variant-east-asian:normal;stroke-width:1.794;stroke-dasharray:none">Nucleo atomico</tspan></text>
  <text
     xml:space="preserve"
     id="text2"
     style="font-style:normal;font-variant:normal;font-weight:normal;font-stretch:normal;font-size:42.6667px;font-family:Sans;-inkscape-font-specification:'Sans, Normal';font-variant-ligatures:normal;font-variant-caps:normal;font-variant-numeric:normal;font-variant-east-asian:normal;white-space:pre;shape-inside:url(#rect2);display:inline;fill:#ff0000;fill-opacity:0;stroke:#000000;stroke-width:4.133;stroke-dasharray:none;stroke-opacity:1" />
  <ellipse
     style="fill:url(#radialGradient11018-8);fill-opacity:1;fill-rule:evenodd;stroke:#0946e0;stroke-width:1.017;stroke-linecap:round;stroke-linejoin:round;stroke-miterlimit:4;stroke-dasharray:none;stroke-opacity:1"
     id="path11016-2"
     cx="939.43866"
     cy="376.43118"
     rx="27.289181"
     ry="27.289206" />
  <text
     xml:space="preserve"
     style="font-style:normal;font-variant:normal;font-weight:normal;font-stretch:normal;font-size:42.6667px;font-family:Sans;-inkscape-font-specification:'Sans, Normal';font-variant-ligatures:normal;font-variant-caps:normal;font-variant-numeric:normal;font-variant-east-asian:normal;opacity:1;fill:#000000;fill-opacity:1;stroke:#000000;stroke-width:4.133;stroke-dasharray:none;stroke-opacity:1"
     x="355.82443"
     y="597.51648"
     id="text3"><tspan
       sodipodi:role="line"
       id="tspan3"
       x="355.82443"
       y="597.51648" /></text>
</svg>
