<?xml version="1.0" encoding="UTF-8"?>
<svg preserveAspectRatio="xMidYMid" version="1.1" viewBox="205.74 66.36 120.65 91.022" xmlns="http://www.w3.org/2000/svg" xmlns:cc="http://creativecommons.org/ns#" xmlns:dc="http://purl.org/dc/elements/1.1/" xmlns:rdf="http://www.w3.org/1999/02/22-rdf-syntax-ns#">
 <metadata>
  <rdf:RDF>
   <cc:Work rdf:about="">
    <dc:format>image/svg+xml</dc:format>
    <dc:type rdf:resource="http://purl.org/dc/dcmitype/StillImage"/>
    <dc:title/>
   </cc:Work>
  </rdf:RDF>
 </metadata>
 <clipPath id="a">
  <rect x=".3" y=".3" width="539.4" height="719.15"/>
 </clipPath>
 <g transform="translate(.52 -.0276)" clip-path="url(#a)">
  <path d="m266.3 120.21q0-1.604 0.86-2.51 0.863-0.91 2.225-0.91 0.892 0 1.608 0.428 0.717 0.426 1.09 1.19 0.378 0.76 0.378 1.728 0 0.98-0.39 1.753-0.39 0.77-1.12 1.17-0.72 0.39-1.56 0.39-0.91 0-1.62-0.44-0.717-0.44-1.086-1.2-0.37-0.76-0.37-1.61zm0.88 0.013q0 1.165 0.623 1.837 0.628 0.668 1.573 0.668 0.963 0 1.582-0.676 0.624-0.677 0.624-1.92 0-0.787-0.268-1.372-0.263-0.59-0.778-0.91-0.51-0.325-1.147-0.325-0.91 0-1.56 0.624-0.65 0.62-0.65 2.07z"/>
  <path d="m255.39 127.14-0.46-0.11 0.3-0.48 9.61-4.8 0.14 0.27 0.13 0.27zm18.3-4.8 0.13-0.27 0.14-0.27 9.46 4.74 0.3 0.49-0.46 0.11z" fill-rule="evenodd" shape-rendering="geometricPrecision" stroke-width="0"/>
  <path d="m266.25 156.3v-6.442h0.852v2.645h3.35v-2.645h0.85v6.442h-0.85v-3.037h-3.35v3.037zm-7.18-3.14c0-1.069 0.287-1.906 0.86-2.51 0.575-0.607 1.317-0.91 2.225-0.91 0.595 0 1.131 0.143 1.608 0.428 0.478 0.284 0.841 0.681 1.09 1.19 0.252 0.507 0.378 1.083 0.378 1.728 0 0.653-0.13 1.238-0.39 1.753-0.26 0.513-0.633 0.903-1.12 1.17-0.48 0.26-1 0.39-1.56 0.39-0.607 0-1.147-0.147-1.62-0.44-0.478-0.293-0.84-0.693-1.086-1.2-0.247-0.507-0.37-1.043-0.37-1.61zm0.88 0.013c0 0.777 0.208 1.389 0.623 1.837 0.419 0.445 0.943 0.668 1.573 0.668 0.642 0 1.169-0.225 1.582-0.676 0.416-0.451 0.624-1.091 0.624-1.92 0-0.525-0.089-0.982-0.268-1.372-0.176-0.393-0.435-0.697-0.778-0.91-0.34-0.217-0.722-0.325-1.147-0.325-0.607 0-1.127 0.208-1.56 0.624-0.433 0.413-0.65 1.103-0.65 2.07zm21.21-38.893v-6.442h0.874l3.384 5.058v-5.058h0.817v6.442h-0.874l-3.38-5.063v5.063z"/>
  <path d="m284.02 127.1-0.3-0.07-0.3-0.49v-10.65h0.6zm-28.79-0.55-0.3 0.48-0.3 0.07v-14.3l0.6-0.34z" fill-rule="evenodd" shape-rendering="geometricPrecision" stroke-width="0"/>
  <path d="m239.38 105.81q0-1.604 0.86-2.51 0.863-0.91 2.225-0.91 0.892 0 1.608 0.428 0.717 0.426 1.09 1.19 0.378 0.76 0.378 1.728 0 0.98-0.39 1.753-0.39 0.77-1.12 1.17-0.72 0.39-1.56 0.39-0.91 0-1.62-0.44-0.717-0.44-1.086-1.2-0.37-0.76-0.37-1.61zm0.88 0.013q0 1.165 0.623 1.837 0.628 0.668 1.573 0.668 0.963 0 1.582-0.676 0.624-0.677 0.624-1.92 0-0.787-0.268-1.372-0.263-0.59-0.778-0.91-0.51-0.325-1.147-0.325-0.91 0-1.56 0.624-0.65 0.62-0.65 2.07z"/>
  <path d="m255.23 112.46-0.6 0.34-7.9-4.56 0.3-0.52z" fill-rule="evenodd" shape-rendering="geometricPrecision" stroke-width="0"/>
  <path d="m225.74 108.95v-6.442h2.43q0.642 0 0.98 0.06 0.475 0.08 0.796 0.304 0.32 0.22 0.514 0.62 0.198 0.4 0.198 0.88 0 0.82-0.523 1.392-0.523 0.567-1.89 0.567h-1.652v2.62zm0.853-3.38h1.665q0.827 0 1.174-0.307t0.347-0.866q0-0.404-0.21-0.69-0.2-0.29-0.54-0.382-0.22-0.057-0.8-0.057h-1.65z"/>
  <path d="m237.81 105.13v0.6h-5.72v-0.6z" fill-rule="evenodd" shape-rendering="geometricPrecision" stroke-width="0"/>
  <path d="m224.98 91.412q0-1.604 0.86-2.51 0.863-0.91 2.225-0.91 0.892 0 1.608 0.427 0.717 0.42 1.09 1.19 0.378 0.76 0.378 1.72 0 0.98-0.39 1.75t-1.12 1.17q-0.72 0.396-1.56 0.396-0.91 0-1.62-0.44-0.717-0.44-1.086-1.2-0.37-0.76-0.37-1.61zm0.88 0.013q0 1.165 0.623 1.837 0.628 0.668 1.573 0.668 0.963 0 1.582-0.677 0.624-0.676 0.624-1.92 0-0.787-0.268-1.37-0.263-0.59-0.778-0.91-0.51-0.326-1.147-0.326-0.91 0-1.56 0.624-0.65 0.62-0.65 2.08z"/>
  <path d="m228.97 101.01h0.6v-4.72h-0.6zm-2.44 0h0.6v-4.72h-0.6z" fill-rule="evenodd" shape-rendering="geometricPrecision" stroke-width="0"/>
  <path d="m224.98 120.21q0-1.604 0.86-2.51 0.863-0.91 2.225-0.91 0.892 0 1.608 0.428 0.717 0.426 1.09 1.19 0.378 0.76 0.378 1.728 0 0.98-0.39 1.753-0.39 0.77-1.12 1.17-0.72 0.39-1.56 0.39-0.91 0-1.62-0.44-0.717-0.44-1.086-1.2-0.37-0.76-0.37-1.61zm0.88 0.013q0 1.165 0.623 1.837 0.628 0.668 1.573 0.668 0.963 0 1.582-0.676 0.624-0.677 0.624-1.92 0-0.787-0.268-1.372-0.263-0.59-0.778-0.91-0.51-0.325-1.147-0.325-0.91 0-1.56 0.624-0.65 0.62-0.65 2.07z"/>
  <path d="m227.75 110.59h0.6v4.62h-0.6z" fill-rule="evenodd" shape-rendering="geometricPrecision" stroke-width="0"/>
  <path d="m210.58 105.81q0-1.604 0.86-2.51 0.863-0.91 2.225-0.91 0.892 0 1.608 0.428 0.717 0.426 1.09 1.19 0.378 0.76 0.378 1.728 0 0.98-0.39 1.753-0.39 0.77-1.12 1.17-0.72 0.39-1.56 0.39-0.91 0-1.62-0.44-0.717-0.44-1.086-1.2-0.37-0.76-0.37-1.61zm0.88 0.013q0 1.165 0.623 1.837 0.628 0.668 1.573 0.668 0.963 0 1.582-0.676 0.624-0.677 0.624-1.92 0-0.787-0.268-1.372-0.263-0.59-0.778-0.91-0.51-0.325-1.147-0.325-0.91 0-1.56 0.624-0.65 0.62-0.65 2.07z"/>
  <path d="m224.21 105.13v0.6h-5.82v-0.6z" fill-rule="evenodd" shape-rendering="geometricPrecision" stroke-width="0"/>
  <path d="m231.9 118.13h3.6m-29.28-14.63h3.6" stroke="#000" stroke-width=".48"/>
  <path d="m281.16 90.98v-6.442h0.874l3.384 5.058v-5.058h0.817v6.442h-0.874l-3.38-5.063v5.063z"/>
  <path d="m287.9 109.71-0.09-0.29-0.09-0.28 9.4-3.06 0.3 0.22-0.03 0.33z" fill-rule="evenodd" shape-rendering="geometricPrecision" stroke-width="0"/>
  <path d="m297.72 106.13-0.3 0.17-0.3-0.22v-13.96l0.3-0.22 0.3 0.17z" fill-rule="evenodd" shape-rendering="geometricPrecision" stroke-width="0"/>
  <path d="m300.01 104.8v-11.4" stroke="#000" stroke-width=".6"/>
  <path d="m297.39 91.57 0.03 0.33-0.3 0.22-9.39-3.05 0.09-0.29 0.09-0.28zm-17.37 0.47 0.24 0.17 0.24 0.18-4.87 6.71h-0.74z" fill-rule="evenodd" shape-rendering="geometricPrecision" stroke-width="0"/>
  <path d="m282.31 93.66-4.03 5.54" stroke="#000" stroke-width=".6"/>
  <path d="m274.89 99.1h0.74l5.33 7.34-0.24 0.17-0.25 0.18z" fill-rule="evenodd" shape-rendering="geometricPrecision" stroke-width="0"/>
  <path d="m307.33 117.03v-6.442h0.874l3.384 5.058v-5.058h0.817v6.442h-0.874l-3.38-5.063v5.063zm12.47-21.6v-6.442h0.874l3.384 5.058v-5.058h0.817v6.442h-0.875l-3.383-5.063v5.063z"/>
  <path d="m297.39 106.63 0.03-0.33 0.3-0.17 8.44 4.87-0.3 0.52zm16.55 4.88-0.3-0.52 8.42-4.86 0.6 0.34z" fill-rule="evenodd" shape-rendering="geometricPrecision" stroke-width="0"/>
  <path d="m312.58 109.11 7.56-4.37" stroke="#000" stroke-width=".6"/>
  <path d="m322.66 106.47-0.6-0.34v-9.03h0.6zm-4.1-17.11-0.3 0.52-8.37-4.83v-0.35l0.3-0.17z" fill-rule="evenodd" shape-rendering="geometricPrecision" stroke-width="0"/>
  <path d="m317.21 91.76-7.52-4.34" stroke="#000" stroke-width=".6"/>
  <path d="m309.59 84.53 0.3 0.17v0.35l-12.17 7.02-0.3-0.17-0.03-0.33z" fill-rule="evenodd" shape-rendering="geometricPrecision" stroke-width="0"/>
  <path d="m307.33 73.83v-6.442h0.874l3.384 5.058v-5.058h0.817v6.442h-0.874l-3.38-5.063v5.063zm6.53 0v-6.442h0.852v2.645h3.35v-2.645h0.85v6.442h-0.85v-3.037h-3.35v3.037zm9.19 1.47v0.57h-3.194q-6e-3 -0.214 0.07-0.412 0.12-0.326 0.388-0.643 0.27-0.316 0.778-0.73 0.788-0.647 1.065-1.023 0.277-0.38 0.277-0.715 0-0.353-0.254-0.593-0.25-0.244-0.656-0.244-0.43 0-0.686 0.257t-0.26 0.712l-0.61-0.07q0.063-0.68 0.472-1.04 0.408-0.36 1.097-0.36 0.696 0 1.1 0.38 0.406 0.386 0.406 0.956 0 0.29-0.118 0.57-0.12 0.28-0.396 0.59-0.28 0.31-0.92 0.85-0.54 0.45-0.69 0.61-0.15 0.157-0.25 0.32z"/>
  <path d="m310.19 84.53-0.3 0.17-0.3-0.17v-8.93h0.6z" fill-rule="evenodd" shape-rendering="geometricPrecision" stroke-width="0"/>
 </g>
 <path d="M255.45 127l-.3.07 7.2 12.78v8.33h.6v-8.82l15.26-.01 6.33-12.28-.3-.07-.46.11-7.86 10.24h-12.15l-7.86-10.24z" fill-rule="evenodd" shape-rendering="geometricPrecision" stroke-width="0"/>
</svg>
